G04 #@! TF.GenerationSoftware,KiCad,Pcbnew,(6.0.8)*
G04 #@! TF.CreationDate,2023-01-15T21:35:17+01:00*
G04 #@! TF.ProjectId,ultimateFC,756c7469-6d61-4746-9546-432e6b696361,rev?*
G04 #@! TF.SameCoordinates,Original*
G04 #@! TF.FileFunction,Legend,Bot*
G04 #@! TF.FilePolarity,Positive*
%FSLAX46Y46*%
G04 Gerber Fmt 4.6, Leading zero omitted, Abs format (unit mm)*
G04 Created by KiCad (PCBNEW (6.0.8)) date 2023-01-15 21:35:17*
%MOMM*%
%LPD*%
G01*
G04 APERTURE LIST*
%ADD10C,0.120000*%
G04 APERTURE END LIST*
D10*
X118100000Y-127400000D02*
X118100000Y-130000000D01*
X114250000Y-104100000D02*
X114250000Y-112450000D01*
X115600000Y-132800000D02*
X115600000Y-130100000D01*
X111500000Y-127400000D02*
X111500000Y-129850000D01*
X108900000Y-99700000D02*
X108900000Y-102300000D01*
X115600000Y-130100000D02*
X103000000Y-130100000D01*
X117700000Y-99700000D02*
X117700000Y-102300000D01*
X103000000Y-132900000D02*
X115600000Y-132800000D01*
X104500000Y-129000000D02*
X104500000Y-130100000D01*
X103000000Y-130100000D02*
X103000000Y-132900000D01*
X113100000Y-130100000D02*
X113100000Y-132800000D01*
X124982761Y-120661904D02*
X124982761Y-119861904D01*
X124716095Y-120433333D01*
X124449428Y-119861904D01*
X124449428Y-120661904D01*
X123916095Y-119861904D02*
X123763714Y-119861904D01*
X123687523Y-119900000D01*
X123611333Y-119976190D01*
X123573238Y-120128571D01*
X123573238Y-120395238D01*
X123611333Y-120547619D01*
X123687523Y-120623809D01*
X123763714Y-120661904D01*
X123916095Y-120661904D01*
X123992285Y-120623809D01*
X124068476Y-120547619D01*
X124106571Y-120395238D01*
X124106571Y-120128571D01*
X124068476Y-119976190D01*
X123992285Y-119900000D01*
X123916095Y-119861904D01*
X123268476Y-120623809D02*
X123154190Y-120661904D01*
X122963714Y-120661904D01*
X122887523Y-120623809D01*
X122849428Y-120585714D01*
X122811333Y-120509523D01*
X122811333Y-120433333D01*
X122849428Y-120357142D01*
X122887523Y-120319047D01*
X122963714Y-120280952D01*
X123116095Y-120242857D01*
X123192285Y-120204761D01*
X123230380Y-120166666D01*
X123268476Y-120090476D01*
X123268476Y-120014285D01*
X123230380Y-119938095D01*
X123192285Y-119900000D01*
X123116095Y-119861904D01*
X122925619Y-119861904D01*
X122811333Y-119900000D01*
X122468476Y-120661904D02*
X122468476Y-119861904D01*
X117274380Y-123285714D02*
X117312476Y-123323809D01*
X117426761Y-123361904D01*
X117502952Y-123361904D01*
X117617238Y-123323809D01*
X117693428Y-123247619D01*
X117731523Y-123171428D01*
X117769619Y-123019047D01*
X117769619Y-122904761D01*
X117731523Y-122752380D01*
X117693428Y-122676190D01*
X117617238Y-122600000D01*
X117502952Y-122561904D01*
X117426761Y-122561904D01*
X117312476Y-122600000D01*
X117274380Y-122638095D01*
X116969619Y-123323809D02*
X116855333Y-123361904D01*
X116664857Y-123361904D01*
X116588666Y-123323809D01*
X116550571Y-123285714D01*
X116512476Y-123209523D01*
X116512476Y-123133333D01*
X116550571Y-123057142D01*
X116588666Y-123019047D01*
X116664857Y-122980952D01*
X116817238Y-122942857D01*
X116893428Y-122904761D01*
X116931523Y-122866666D01*
X116969619Y-122790476D01*
X116969619Y-122714285D01*
X116931523Y-122638095D01*
X116893428Y-122600000D01*
X116817238Y-122561904D01*
X116626761Y-122561904D01*
X116512476Y-122600000D01*
X101669619Y-104538095D02*
X101631523Y-104500000D01*
X101555333Y-104461904D01*
X101364857Y-104461904D01*
X101288666Y-104500000D01*
X101250571Y-104538095D01*
X101212476Y-104614285D01*
X101212476Y-104690476D01*
X101250571Y-104804761D01*
X101707714Y-105261904D01*
X101212476Y-105261904D01*
X100945809Y-104461904D02*
X100412476Y-104461904D01*
X100755333Y-105261904D01*
X99955333Y-104461904D02*
X99879142Y-104461904D01*
X99802952Y-104500000D01*
X99764857Y-104538095D01*
X99726761Y-104614285D01*
X99688666Y-104766666D01*
X99688666Y-104957142D01*
X99726761Y-105109523D01*
X99764857Y-105185714D01*
X99802952Y-105223809D01*
X99879142Y-105261904D01*
X99955333Y-105261904D01*
X100031523Y-105223809D01*
X100069619Y-105185714D01*
X100107714Y-105109523D01*
X100145809Y-104957142D01*
X100145809Y-104766666D01*
X100107714Y-104614285D01*
X100069619Y-104538095D01*
X100031523Y-104500000D01*
X99955333Y-104461904D01*
X115723809Y-110330380D02*
X115761904Y-110444666D01*
X115761904Y-110635142D01*
X115723809Y-110711333D01*
X115685714Y-110749428D01*
X115609523Y-110787523D01*
X115533333Y-110787523D01*
X115457142Y-110749428D01*
X115419047Y-110711333D01*
X115380952Y-110635142D01*
X115342857Y-110482761D01*
X115304761Y-110406571D01*
X115266666Y-110368476D01*
X115190476Y-110330380D01*
X115114285Y-110330380D01*
X115038095Y-110368476D01*
X115000000Y-110406571D01*
X114961904Y-110482761D01*
X114961904Y-110673238D01*
X115000000Y-110787523D01*
X115685714Y-111587523D02*
X115723809Y-111549428D01*
X115761904Y-111435142D01*
X115761904Y-111358952D01*
X115723809Y-111244666D01*
X115647619Y-111168476D01*
X115571428Y-111130380D01*
X115419047Y-111092285D01*
X115304761Y-111092285D01*
X115152380Y-111130380D01*
X115076190Y-111168476D01*
X115000000Y-111244666D01*
X114961904Y-111358952D01*
X114961904Y-111435142D01*
X115000000Y-111549428D01*
X115038095Y-111587523D01*
X115761904Y-112311333D02*
X115761904Y-111930380D01*
X114961904Y-111930380D01*
X101669619Y-111223809D02*
X101555333Y-111261904D01*
X101364857Y-111261904D01*
X101288666Y-111223809D01*
X101250571Y-111185714D01*
X101212476Y-111109523D01*
X101212476Y-111033333D01*
X101250571Y-110957142D01*
X101288666Y-110919047D01*
X101364857Y-110880952D01*
X101517238Y-110842857D01*
X101593428Y-110804761D01*
X101631523Y-110766666D01*
X101669619Y-110690476D01*
X101669619Y-110614285D01*
X101631523Y-110538095D01*
X101593428Y-110500000D01*
X101517238Y-110461904D01*
X101326761Y-110461904D01*
X101212476Y-110500000D01*
X100869619Y-111261904D02*
X100869619Y-110461904D01*
X100564857Y-110461904D01*
X100488666Y-110500000D01*
X100450571Y-110538095D01*
X100412476Y-110614285D01*
X100412476Y-110728571D01*
X100450571Y-110804761D01*
X100488666Y-110842857D01*
X100564857Y-110880952D01*
X100869619Y-110880952D01*
X100069619Y-111261904D02*
X100069619Y-110461904D01*
X99764857Y-110461904D02*
X99269619Y-110461904D01*
X99536285Y-110766666D01*
X99422000Y-110766666D01*
X99345809Y-110804761D01*
X99307714Y-110842857D01*
X99269619Y-110919047D01*
X99269619Y-111109523D01*
X99307714Y-111185714D01*
X99345809Y-111223809D01*
X99422000Y-111261904D01*
X99650571Y-111261904D01*
X99726761Y-111223809D01*
X99764857Y-111185714D01*
X120992285Y-109061904D02*
X120992285Y-108261904D01*
X120649428Y-108338095D02*
X120611333Y-108300000D01*
X120535142Y-108261904D01*
X120344666Y-108261904D01*
X120268476Y-108300000D01*
X120230380Y-108338095D01*
X120192285Y-108414285D01*
X120192285Y-108490476D01*
X120230380Y-108604761D01*
X120687523Y-109061904D01*
X120192285Y-109061904D01*
X119392285Y-108985714D02*
X119430380Y-109023809D01*
X119544666Y-109061904D01*
X119620857Y-109061904D01*
X119735142Y-109023809D01*
X119811333Y-108947619D01*
X119849428Y-108871428D01*
X119887523Y-108719047D01*
X119887523Y-108604761D01*
X119849428Y-108452380D01*
X119811333Y-108376190D01*
X119735142Y-108300000D01*
X119620857Y-108261904D01*
X119544666Y-108261904D01*
X119430380Y-108300000D01*
X119392285Y-108338095D01*
X119087523Y-108338095D02*
X119049428Y-108300000D01*
X118973238Y-108261904D01*
X118782761Y-108261904D01*
X118706571Y-108300000D01*
X118668476Y-108338095D01*
X118630380Y-108414285D01*
X118630380Y-108490476D01*
X118668476Y-108604761D01*
X119125619Y-109061904D01*
X118630380Y-109061904D01*
X109423809Y-112430380D02*
X109461904Y-112544666D01*
X109461904Y-112735142D01*
X109423809Y-112811333D01*
X109385714Y-112849428D01*
X109309523Y-112887523D01*
X109233333Y-112887523D01*
X109157142Y-112849428D01*
X109119047Y-112811333D01*
X109080952Y-112735142D01*
X109042857Y-112582761D01*
X109004761Y-112506571D01*
X108966666Y-112468476D01*
X108890476Y-112430380D01*
X108814285Y-112430380D01*
X108738095Y-112468476D01*
X108700000Y-112506571D01*
X108661904Y-112582761D01*
X108661904Y-112773238D01*
X108700000Y-112887523D01*
X109385714Y-113687523D02*
X109423809Y-113649428D01*
X109461904Y-113535142D01*
X109461904Y-113458952D01*
X109423809Y-113344666D01*
X109347619Y-113268476D01*
X109271428Y-113230380D01*
X109119047Y-113192285D01*
X109004761Y-113192285D01*
X108852380Y-113230380D01*
X108776190Y-113268476D01*
X108700000Y-113344666D01*
X108661904Y-113458952D01*
X108661904Y-113535142D01*
X108700000Y-113649428D01*
X108738095Y-113687523D01*
X109461904Y-114030380D02*
X108661904Y-114030380D01*
X109461904Y-114487523D02*
X109004761Y-114144666D01*
X108661904Y-114487523D02*
X109119047Y-114030380D01*
X101669619Y-108538095D02*
X101631523Y-108500000D01*
X101555333Y-108461904D01*
X101364857Y-108461904D01*
X101288666Y-108500000D01*
X101250571Y-108538095D01*
X101212476Y-108614285D01*
X101212476Y-108690476D01*
X101250571Y-108804761D01*
X101707714Y-109261904D01*
X101212476Y-109261904D01*
X100717238Y-108461904D02*
X100641047Y-108461904D01*
X100564857Y-108500000D01*
X100526761Y-108538095D01*
X100488666Y-108614285D01*
X100450571Y-108766666D01*
X100450571Y-108957142D01*
X100488666Y-109109523D01*
X100526761Y-109185714D01*
X100564857Y-109223809D01*
X100641047Y-109261904D01*
X100717238Y-109261904D01*
X100793428Y-109223809D01*
X100831523Y-109185714D01*
X100869619Y-109109523D01*
X100907714Y-108957142D01*
X100907714Y-108766666D01*
X100869619Y-108614285D01*
X100831523Y-108538095D01*
X100793428Y-108500000D01*
X100717238Y-108461904D01*
X99764857Y-108461904D02*
X99917238Y-108461904D01*
X99993428Y-108500000D01*
X100031523Y-108538095D01*
X100107714Y-108652380D01*
X100145809Y-108804761D01*
X100145809Y-109109523D01*
X100107714Y-109185714D01*
X100069619Y-109223809D01*
X99993428Y-109261904D01*
X99841047Y-109261904D01*
X99764857Y-109223809D01*
X99726761Y-109185714D01*
X99688666Y-109109523D01*
X99688666Y-108919047D01*
X99726761Y-108842857D01*
X99764857Y-108804761D01*
X99841047Y-108766666D01*
X99993428Y-108766666D01*
X100069619Y-108804761D01*
X100107714Y-108842857D01*
X100145809Y-108919047D01*
X99193428Y-108461904D02*
X99117238Y-108461904D01*
X99041047Y-108500000D01*
X99002952Y-108538095D01*
X98964857Y-108614285D01*
X98926761Y-108766666D01*
X98926761Y-108957142D01*
X98964857Y-109109523D01*
X99002952Y-109185714D01*
X99041047Y-109223809D01*
X99117238Y-109261904D01*
X99193428Y-109261904D01*
X99269619Y-109223809D01*
X99307714Y-109185714D01*
X99345809Y-109109523D01*
X99383904Y-108957142D01*
X99383904Y-108766666D01*
X99345809Y-108614285D01*
X99307714Y-108538095D01*
X99269619Y-108500000D01*
X99193428Y-108461904D01*
X98622000Y-108538095D02*
X98583904Y-108500000D01*
X98507714Y-108461904D01*
X98317238Y-108461904D01*
X98241047Y-108500000D01*
X98202952Y-108538095D01*
X98164857Y-108614285D01*
X98164857Y-108690476D01*
X98202952Y-108804761D01*
X98660095Y-109261904D01*
X98164857Y-109261904D01*
X103185714Y-112925619D02*
X103223809Y-112887523D01*
X103261904Y-112773238D01*
X103261904Y-112697047D01*
X103223809Y-112582761D01*
X103147619Y-112506571D01*
X103071428Y-112468476D01*
X102919047Y-112430380D01*
X102804761Y-112430380D01*
X102652380Y-112468476D01*
X102576190Y-112506571D01*
X102500000Y-112582761D01*
X102461904Y-112697047D01*
X102461904Y-112773238D01*
X102500000Y-112887523D01*
X102538095Y-112925619D01*
X103223809Y-113230380D02*
X103261904Y-113344666D01*
X103261904Y-113535142D01*
X103223809Y-113611333D01*
X103185714Y-113649428D01*
X103109523Y-113687523D01*
X103033333Y-113687523D01*
X102957142Y-113649428D01*
X102919047Y-113611333D01*
X102880952Y-113535142D01*
X102842857Y-113382761D01*
X102804761Y-113306571D01*
X102766666Y-113268476D01*
X102690476Y-113230380D01*
X102614285Y-113230380D01*
X102538095Y-113268476D01*
X102500000Y-113306571D01*
X102461904Y-113382761D01*
X102461904Y-113573238D01*
X102500000Y-113687523D01*
X101669619Y-107223809D02*
X101555333Y-107261904D01*
X101364857Y-107261904D01*
X101288666Y-107223809D01*
X101250571Y-107185714D01*
X101212476Y-107109523D01*
X101212476Y-107033333D01*
X101250571Y-106957142D01*
X101288666Y-106919047D01*
X101364857Y-106880952D01*
X101517238Y-106842857D01*
X101593428Y-106804761D01*
X101631523Y-106766666D01*
X101669619Y-106690476D01*
X101669619Y-106614285D01*
X101631523Y-106538095D01*
X101593428Y-106500000D01*
X101517238Y-106461904D01*
X101326761Y-106461904D01*
X101212476Y-106500000D01*
X100869619Y-107261904D02*
X100869619Y-106461904D01*
X100564857Y-106461904D01*
X100488666Y-106500000D01*
X100450571Y-106538095D01*
X100412476Y-106614285D01*
X100412476Y-106728571D01*
X100450571Y-106804761D01*
X100488666Y-106842857D01*
X100564857Y-106880952D01*
X100869619Y-106880952D01*
X100069619Y-107261904D02*
X100069619Y-106461904D01*
X99726761Y-106538095D02*
X99688666Y-106500000D01*
X99612476Y-106461904D01*
X99422000Y-106461904D01*
X99345809Y-106500000D01*
X99307714Y-106538095D01*
X99269619Y-106614285D01*
X99269619Y-106690476D01*
X99307714Y-106804761D01*
X99764857Y-107261904D01*
X99269619Y-107261904D01*
X105823809Y-125130380D02*
X105861904Y-125244666D01*
X105861904Y-125435142D01*
X105823809Y-125511333D01*
X105785714Y-125549428D01*
X105709523Y-125587523D01*
X105633333Y-125587523D01*
X105557142Y-125549428D01*
X105519047Y-125511333D01*
X105480952Y-125435142D01*
X105442857Y-125282761D01*
X105404761Y-125206571D01*
X105366666Y-125168476D01*
X105290476Y-125130380D01*
X105214285Y-125130380D01*
X105138095Y-125168476D01*
X105100000Y-125206571D01*
X105061904Y-125282761D01*
X105061904Y-125473238D01*
X105100000Y-125587523D01*
X105061904Y-125854190D02*
X105861904Y-126044666D01*
X105290476Y-126197047D01*
X105861904Y-126349428D01*
X105061904Y-126539904D01*
X105861904Y-126844666D02*
X105061904Y-126844666D01*
X105061904Y-127035142D01*
X105100000Y-127149428D01*
X105176190Y-127225619D01*
X105252380Y-127263714D01*
X105404761Y-127301809D01*
X105519047Y-127301809D01*
X105671428Y-127263714D01*
X105747619Y-127225619D01*
X105823809Y-127149428D01*
X105861904Y-127035142D01*
X105861904Y-126844666D01*
X104228571Y-125168476D02*
X104761904Y-125168476D01*
X104304761Y-125168476D02*
X104266666Y-125206571D01*
X104228571Y-125282761D01*
X104228571Y-125397047D01*
X104266666Y-125473238D01*
X104342857Y-125511333D01*
X104761904Y-125511333D01*
X104228571Y-126235142D02*
X104761904Y-126235142D01*
X104228571Y-125892285D02*
X104647619Y-125892285D01*
X104723809Y-125930380D01*
X104761904Y-126006571D01*
X104761904Y-126120857D01*
X104723809Y-126197047D01*
X104685714Y-126235142D01*
X104723809Y-126958952D02*
X104761904Y-126882761D01*
X104761904Y-126730380D01*
X104723809Y-126654190D01*
X104685714Y-126616095D01*
X104609523Y-126578000D01*
X104380952Y-126578000D01*
X104304761Y-126616095D01*
X104266666Y-126654190D01*
X104228571Y-126730380D01*
X104228571Y-126882761D01*
X104266666Y-126958952D01*
X104761904Y-127416095D02*
X104723809Y-127339904D01*
X104647619Y-127301809D01*
X103961904Y-127301809D01*
X104723809Y-128025619D02*
X104761904Y-127949428D01*
X104761904Y-127797047D01*
X104723809Y-127720857D01*
X104647619Y-127682761D01*
X104342857Y-127682761D01*
X104266666Y-127720857D01*
X104228571Y-127797047D01*
X104228571Y-127949428D01*
X104266666Y-128025619D01*
X104342857Y-128063714D01*
X104419047Y-128063714D01*
X104495238Y-127682761D01*
X104761904Y-128520857D02*
X104723809Y-128444666D01*
X104685714Y-128406571D01*
X104609523Y-128368476D01*
X104380952Y-128368476D01*
X104304761Y-128406571D01*
X104266666Y-128444666D01*
X104228571Y-128520857D01*
X104228571Y-128635142D01*
X104266666Y-128711333D01*
X104304761Y-128749428D01*
X104380952Y-128787523D01*
X104609523Y-128787523D01*
X104685714Y-128749428D01*
X104723809Y-128711333D01*
X104761904Y-128635142D01*
X104761904Y-128520857D01*
X99731523Y-120461904D02*
X99731523Y-119661904D01*
X99541047Y-119661904D01*
X99426761Y-119700000D01*
X99350571Y-119776190D01*
X99312476Y-119852380D01*
X99274380Y-120004761D01*
X99274380Y-120119047D01*
X99312476Y-120271428D01*
X99350571Y-120347619D01*
X99426761Y-120423809D01*
X99541047Y-120461904D01*
X99731523Y-120461904D01*
X98931523Y-120461904D02*
X98931523Y-119661904D01*
X98664857Y-120233333D01*
X98398190Y-119661904D01*
X98398190Y-120461904D01*
X113461904Y-108468476D02*
X112661904Y-108468476D01*
X113461904Y-108849428D02*
X112661904Y-108849428D01*
X113461904Y-109306571D01*
X112661904Y-109306571D01*
X112661904Y-109573238D02*
X112661904Y-110030380D01*
X113461904Y-109801809D02*
X112661904Y-109801809D01*
X112738095Y-110258952D02*
X112700000Y-110297047D01*
X112661904Y-110373238D01*
X112661904Y-110563714D01*
X112700000Y-110639904D01*
X112738095Y-110678000D01*
X112814285Y-110716095D01*
X112890476Y-110716095D01*
X113004761Y-110678000D01*
X113461904Y-110220857D01*
X113461904Y-110716095D01*
X105261904Y-112468476D02*
X104461904Y-112468476D01*
X105033333Y-112735142D01*
X104461904Y-113001809D01*
X105261904Y-113001809D01*
X104461904Y-113535142D02*
X104461904Y-113687523D01*
X104500000Y-113763714D01*
X104576190Y-113839904D01*
X104728571Y-113878000D01*
X104995238Y-113878000D01*
X105147619Y-113839904D01*
X105223809Y-113763714D01*
X105261904Y-113687523D01*
X105261904Y-113535142D01*
X105223809Y-113458952D01*
X105147619Y-113382761D01*
X104995238Y-113344666D01*
X104728571Y-113344666D01*
X104576190Y-113382761D01*
X104500000Y-113458952D01*
X104461904Y-113535142D01*
X105223809Y-114182761D02*
X105261904Y-114297047D01*
X105261904Y-114487523D01*
X105223809Y-114563714D01*
X105185714Y-114601809D01*
X105109523Y-114639904D01*
X105033333Y-114639904D01*
X104957142Y-114601809D01*
X104919047Y-114563714D01*
X104880952Y-114487523D01*
X104842857Y-114335142D01*
X104804761Y-114258952D01*
X104766666Y-114220857D01*
X104690476Y-114182761D01*
X104614285Y-114182761D01*
X104538095Y-114220857D01*
X104500000Y-114258952D01*
X104461904Y-114335142D01*
X104461904Y-114525619D01*
X104500000Y-114639904D01*
X105261904Y-114982761D02*
X104461904Y-114982761D01*
X120535142Y-106642857D02*
X120420857Y-106680952D01*
X120382761Y-106719047D01*
X120344666Y-106795238D01*
X120344666Y-106909523D01*
X120382761Y-106985714D01*
X120420857Y-107023809D01*
X120497047Y-107061904D01*
X120801809Y-107061904D01*
X120801809Y-106261904D01*
X120535142Y-106261904D01*
X120458952Y-106300000D01*
X120420857Y-106338095D01*
X120382761Y-106414285D01*
X120382761Y-106490476D01*
X120420857Y-106566666D01*
X120458952Y-106604761D01*
X120535142Y-106642857D01*
X120801809Y-106642857D01*
X120001809Y-107061904D02*
X120001809Y-106261904D01*
X119735142Y-106833333D01*
X119468476Y-106261904D01*
X119468476Y-107061904D01*
X119087523Y-107061904D02*
X119087523Y-106261904D01*
X118782761Y-106261904D01*
X118706571Y-106300000D01*
X118668476Y-106338095D01*
X118630380Y-106414285D01*
X118630380Y-106528571D01*
X118668476Y-106604761D01*
X118706571Y-106642857D01*
X118782761Y-106680952D01*
X119087523Y-106680952D01*
X99731523Y-115561904D02*
X99731523Y-114761904D01*
X99541047Y-114761904D01*
X99426761Y-114800000D01*
X99350571Y-114876190D01*
X99312476Y-114952380D01*
X99274380Y-115104761D01*
X99274380Y-115219047D01*
X99312476Y-115371428D01*
X99350571Y-115447619D01*
X99426761Y-115523809D01*
X99541047Y-115561904D01*
X99731523Y-115561904D01*
X98931523Y-115561904D02*
X98931523Y-114761904D01*
X98626761Y-114761904D01*
X98550571Y-114800000D01*
X98512476Y-114838095D01*
X98474380Y-114914285D01*
X98474380Y-115028571D01*
X98512476Y-115104761D01*
X98550571Y-115142857D01*
X98626761Y-115180952D01*
X98931523Y-115180952D01*
X111461904Y-112468476D02*
X110661904Y-112468476D01*
X111461904Y-112849428D02*
X110661904Y-112849428D01*
X111461904Y-113306571D01*
X110661904Y-113306571D01*
X110661904Y-113573238D02*
X110661904Y-114030380D01*
X111461904Y-113801809D02*
X110661904Y-113801809D01*
X111461904Y-114716095D02*
X111461904Y-114258952D01*
X111461904Y-114487523D02*
X110661904Y-114487523D01*
X110776190Y-114411333D01*
X110852380Y-114335142D01*
X110890476Y-114258952D01*
X117769619Y-120723809D02*
X117655333Y-120761904D01*
X117464857Y-120761904D01*
X117388666Y-120723809D01*
X117350571Y-120685714D01*
X117312476Y-120609523D01*
X117312476Y-120533333D01*
X117350571Y-120457142D01*
X117388666Y-120419047D01*
X117464857Y-120380952D01*
X117617238Y-120342857D01*
X117693428Y-120304761D01*
X117731523Y-120266666D01*
X117769619Y-120190476D01*
X117769619Y-120114285D01*
X117731523Y-120038095D01*
X117693428Y-120000000D01*
X117617238Y-119961904D01*
X117426761Y-119961904D01*
X117312476Y-120000000D01*
X116512476Y-120685714D02*
X116550571Y-120723809D01*
X116664857Y-120761904D01*
X116741047Y-120761904D01*
X116855333Y-120723809D01*
X116931523Y-120647619D01*
X116969619Y-120571428D01*
X117007714Y-120419047D01*
X117007714Y-120304761D01*
X116969619Y-120152380D01*
X116931523Y-120076190D01*
X116855333Y-120000000D01*
X116741047Y-119961904D01*
X116664857Y-119961904D01*
X116550571Y-120000000D01*
X116512476Y-120038095D01*
X116169619Y-120761904D02*
X116169619Y-119961904D01*
X115712476Y-120761904D02*
X116055333Y-120304761D01*
X115712476Y-119961904D02*
X116169619Y-120419047D01*
X117723809Y-110330380D02*
X117761904Y-110444666D01*
X117761904Y-110635142D01*
X117723809Y-110711333D01*
X117685714Y-110749428D01*
X117609523Y-110787523D01*
X117533333Y-110787523D01*
X117457142Y-110749428D01*
X117419047Y-110711333D01*
X117380952Y-110635142D01*
X117342857Y-110482761D01*
X117304761Y-110406571D01*
X117266666Y-110368476D01*
X117190476Y-110330380D01*
X117114285Y-110330380D01*
X117038095Y-110368476D01*
X117000000Y-110406571D01*
X116961904Y-110482761D01*
X116961904Y-110673238D01*
X117000000Y-110787523D01*
X117761904Y-111130380D02*
X116961904Y-111130380D01*
X116961904Y-111320857D01*
X117000000Y-111435142D01*
X117076190Y-111511333D01*
X117152380Y-111549428D01*
X117304761Y-111587523D01*
X117419047Y-111587523D01*
X117571428Y-111549428D01*
X117647619Y-111511333D01*
X117723809Y-111435142D01*
X117761904Y-111320857D01*
X117761904Y-111130380D01*
X117533333Y-111892285D02*
X117533333Y-112273238D01*
X117761904Y-111816095D02*
X116961904Y-112082761D01*
X117761904Y-112349428D01*
X107261904Y-112468476D02*
X106461904Y-112468476D01*
X107033333Y-112735142D01*
X106461904Y-113001809D01*
X107261904Y-113001809D01*
X107261904Y-113382761D02*
X106461904Y-113382761D01*
X107223809Y-113725619D02*
X107261904Y-113839904D01*
X107261904Y-114030380D01*
X107223809Y-114106571D01*
X107185714Y-114144666D01*
X107109523Y-114182761D01*
X107033333Y-114182761D01*
X106957142Y-114144666D01*
X106919047Y-114106571D01*
X106880952Y-114030380D01*
X106842857Y-113878000D01*
X106804761Y-113801809D01*
X106766666Y-113763714D01*
X106690476Y-113725619D01*
X106614285Y-113725619D01*
X106538095Y-113763714D01*
X106500000Y-113801809D01*
X106461904Y-113878000D01*
X106461904Y-114068476D01*
X106500000Y-114182761D01*
X106461904Y-114678000D02*
X106461904Y-114830380D01*
X106500000Y-114906571D01*
X106576190Y-114982761D01*
X106728571Y-115020857D01*
X106995238Y-115020857D01*
X107147619Y-114982761D01*
X107223809Y-114906571D01*
X107261904Y-114830380D01*
X107261904Y-114678000D01*
X107223809Y-114601809D01*
X107147619Y-114525619D01*
X106995238Y-114487523D01*
X106728571Y-114487523D01*
X106576190Y-114525619D01*
X106500000Y-114601809D01*
X106461904Y-114678000D01*
X124982761Y-123361904D02*
X124982761Y-122561904D01*
X124716095Y-123133333D01*
X124449428Y-122561904D01*
X124449428Y-123361904D01*
X124068476Y-123361904D02*
X124068476Y-122561904D01*
X123725619Y-123323809D02*
X123611333Y-123361904D01*
X123420857Y-123361904D01*
X123344666Y-123323809D01*
X123306571Y-123285714D01*
X123268476Y-123209523D01*
X123268476Y-123133333D01*
X123306571Y-123057142D01*
X123344666Y-123019047D01*
X123420857Y-122980952D01*
X123573238Y-122942857D01*
X123649428Y-122904761D01*
X123687523Y-122866666D01*
X123725619Y-122790476D01*
X123725619Y-122714285D01*
X123687523Y-122638095D01*
X123649428Y-122600000D01*
X123573238Y-122561904D01*
X123382761Y-122561904D01*
X123268476Y-122600000D01*
X122773238Y-122561904D02*
X122620857Y-122561904D01*
X122544666Y-122600000D01*
X122468476Y-122676190D01*
X122430380Y-122828571D01*
X122430380Y-123095238D01*
X122468476Y-123247619D01*
X122544666Y-123323809D01*
X122620857Y-123361904D01*
X122773238Y-123361904D01*
X122849428Y-123323809D01*
X122925619Y-123247619D01*
X122963714Y-123095238D01*
X122963714Y-122828571D01*
X122925619Y-122676190D01*
X122849428Y-122600000D01*
X122773238Y-122561904D01*
X118069619Y-122023809D02*
X117955333Y-122061904D01*
X117764857Y-122061904D01*
X117688666Y-122023809D01*
X117650571Y-121985714D01*
X117612476Y-121909523D01*
X117612476Y-121833333D01*
X117650571Y-121757142D01*
X117688666Y-121719047D01*
X117764857Y-121680952D01*
X117917238Y-121642857D01*
X117993428Y-121604761D01*
X118031523Y-121566666D01*
X118069619Y-121490476D01*
X118069619Y-121414285D01*
X118031523Y-121338095D01*
X117993428Y-121300000D01*
X117917238Y-121261904D01*
X117726761Y-121261904D01*
X117612476Y-121300000D01*
X117269619Y-122061904D02*
X117269619Y-121261904D01*
X116964857Y-121261904D01*
X116888666Y-121300000D01*
X116850571Y-121338095D01*
X116812476Y-121414285D01*
X116812476Y-121528571D01*
X116850571Y-121604761D01*
X116888666Y-121642857D01*
X116964857Y-121680952D01*
X117269619Y-121680952D01*
X116469619Y-122061904D02*
X116469619Y-121261904D01*
X115745809Y-121528571D02*
X115745809Y-122061904D01*
X115936285Y-121223809D02*
X116126761Y-121795238D01*
X115631523Y-121795238D01*
X111982836Y-123435000D02*
X111767164Y-123435000D01*
X111982836Y-122715000D02*
X111767164Y-122715000D01*
X116302164Y-116460000D02*
X116517836Y-116460000D01*
X116302164Y-117180000D02*
X116517836Y-117180000D01*
X111982836Y-121735000D02*
X111767164Y-121735000D01*
X111982836Y-121015000D02*
X111767164Y-121015000D01*
X105790000Y-118267164D02*
X105790000Y-118482836D01*
X106510000Y-118267164D02*
X106510000Y-118482836D01*
X111982836Y-122585000D02*
X111767164Y-122585000D01*
X111982836Y-121865000D02*
X111767164Y-121865000D01*
X106640000Y-118482836D02*
X106640000Y-118267164D01*
X107360000Y-118482836D02*
X107360000Y-118267164D01*
X113842164Y-115980000D02*
X114057836Y-115980000D01*
X113842164Y-116700000D02*
X114057836Y-116700000D01*
X104940000Y-118267164D02*
X104940000Y-118482836D01*
X105660000Y-118267164D02*
X105660000Y-118482836D01*
X127040580Y-117490000D02*
X126759420Y-117490000D01*
X127040580Y-118510000D02*
X126759420Y-118510000D01*
X111982836Y-124285000D02*
X111767164Y-124285000D01*
X111982836Y-123565000D02*
X111767164Y-123565000D01*
X113947836Y-113690000D02*
X113732164Y-113690000D01*
X113947836Y-114410000D02*
X113732164Y-114410000D01*
X104090000Y-118482836D02*
X104090000Y-118267164D01*
X104810000Y-118482836D02*
X104810000Y-118267164D01*
X129210000Y-115565000D02*
X129210000Y-117435000D01*
X125300000Y-115565000D02*
X129210000Y-115565000D01*
X129210000Y-117435000D02*
X125300000Y-117435000D01*
X117115279Y-115240000D02*
X116789721Y-115240000D01*
X117115279Y-116260000D02*
X116789721Y-116260000D01*
M02*
