%TF.GenerationSoftware,KiCad,Pcbnew,7.0.1*%
%TF.CreationDate,2023-04-22T23:07:11+02:00*%
%TF.ProjectId,ultimateFC,756c7469-6d61-4746-9546-432e6b696361,rev?*%
%TF.SameCoordinates,PX5f5e100PY5f5e100*%
%TF.FileFunction,Other,User*%
%FSLAX46Y46*%
G04 Gerber Fmt 4.6, Leading zero omitted, Abs format (unit mm)*
G04 Created by KiCad (PCBNEW 7.0.1) date 2023-04-22 23:07:11*
%MOMM*%
%LPD*%
G01*
G04 APERTURE LIST*
%ADD10C,0.100000*%
G04 APERTURE END LIST*
D10*
X4899404Y-6341428D02*
X4923214Y-6427142D01*
X4923214Y-6427142D02*
X4947023Y-6455713D01*
X4947023Y-6455713D02*
X4994642Y-6484285D01*
X4994642Y-6484285D02*
X5066071Y-6484285D01*
X5066071Y-6484285D02*
X5113690Y-6455713D01*
X5113690Y-6455713D02*
X5137500Y-6427142D01*
X5137500Y-6427142D02*
X5161309Y-6369999D01*
X5161309Y-6369999D02*
X5161309Y-6141428D01*
X5161309Y-6141428D02*
X4661309Y-6141428D01*
X4661309Y-6141428D02*
X4661309Y-6341428D01*
X4661309Y-6341428D02*
X4685119Y-6398571D01*
X4685119Y-6398571D02*
X4708928Y-6427142D01*
X4708928Y-6427142D02*
X4756547Y-6455713D01*
X4756547Y-6455713D02*
X4804166Y-6455713D01*
X4804166Y-6455713D02*
X4851785Y-6427142D01*
X4851785Y-6427142D02*
X4875595Y-6398571D01*
X4875595Y-6398571D02*
X4899404Y-6341428D01*
X4899404Y-6341428D02*
X4899404Y-6141428D01*
X5161309Y-7055713D02*
X5161309Y-6712856D01*
X5161309Y-6884285D02*
X4661309Y-6884285D01*
X4661309Y-6884285D02*
X4732738Y-6827142D01*
X4732738Y-6827142D02*
X4780357Y-6769999D01*
X4780357Y-6769999D02*
X4804166Y-6712856D01*
X4661309Y-7598571D02*
X4661309Y-7312857D01*
X4661309Y-7312857D02*
X4899404Y-7284285D01*
X4899404Y-7284285D02*
X4875595Y-7312857D01*
X4875595Y-7312857D02*
X4851785Y-7370000D01*
X4851785Y-7370000D02*
X4851785Y-7512857D01*
X4851785Y-7512857D02*
X4875595Y-7570000D01*
X4875595Y-7570000D02*
X4899404Y-7598571D01*
X4899404Y-7598571D02*
X4947023Y-7627142D01*
X4947023Y-7627142D02*
X5066071Y-7627142D01*
X5066071Y-7627142D02*
X5113690Y-7598571D01*
X5113690Y-7598571D02*
X5137500Y-7570000D01*
X5137500Y-7570000D02*
X5161309Y-7512857D01*
X5161309Y-7512857D02*
X5161309Y-7370000D01*
X5161309Y-7370000D02*
X5137500Y-7312857D01*
X5137500Y-7312857D02*
X5113690Y-7284285D01*
X6739404Y-6321428D02*
X6763214Y-6407142D01*
X6763214Y-6407142D02*
X6787023Y-6435713D01*
X6787023Y-6435713D02*
X6834642Y-6464285D01*
X6834642Y-6464285D02*
X6906071Y-6464285D01*
X6906071Y-6464285D02*
X6953690Y-6435713D01*
X6953690Y-6435713D02*
X6977500Y-6407142D01*
X6977500Y-6407142D02*
X7001309Y-6349999D01*
X7001309Y-6349999D02*
X7001309Y-6121428D01*
X7001309Y-6121428D02*
X6501309Y-6121428D01*
X6501309Y-6121428D02*
X6501309Y-6321428D01*
X6501309Y-6321428D02*
X6525119Y-6378571D01*
X6525119Y-6378571D02*
X6548928Y-6407142D01*
X6548928Y-6407142D02*
X6596547Y-6435713D01*
X6596547Y-6435713D02*
X6644166Y-6435713D01*
X6644166Y-6435713D02*
X6691785Y-6407142D01*
X6691785Y-6407142D02*
X6715595Y-6378571D01*
X6715595Y-6378571D02*
X6739404Y-6321428D01*
X6739404Y-6321428D02*
X6739404Y-6121428D01*
X7001309Y-7035713D02*
X7001309Y-6692856D01*
X7001309Y-6864285D02*
X6501309Y-6864285D01*
X6501309Y-6864285D02*
X6572738Y-6807142D01*
X6572738Y-6807142D02*
X6620357Y-6749999D01*
X6620357Y-6749999D02*
X6644166Y-6692856D01*
X6667976Y-7550000D02*
X7001309Y-7550000D01*
X6477500Y-7407142D02*
X6834642Y-7264285D01*
X6834642Y-7264285D02*
X6834642Y-7635714D01*
X21129404Y-28407143D02*
X21153214Y-28492857D01*
X21153214Y-28492857D02*
X21177023Y-28521428D01*
X21177023Y-28521428D02*
X21224642Y-28550000D01*
X21224642Y-28550000D02*
X21296071Y-28550000D01*
X21296071Y-28550000D02*
X21343690Y-28521428D01*
X21343690Y-28521428D02*
X21367500Y-28492857D01*
X21367500Y-28492857D02*
X21391309Y-28435714D01*
X21391309Y-28435714D02*
X21391309Y-28207143D01*
X21391309Y-28207143D02*
X20891309Y-28207143D01*
X20891309Y-28207143D02*
X20891309Y-28407143D01*
X20891309Y-28407143D02*
X20915119Y-28464286D01*
X20915119Y-28464286D02*
X20938928Y-28492857D01*
X20938928Y-28492857D02*
X20986547Y-28521428D01*
X20986547Y-28521428D02*
X21034166Y-28521428D01*
X21034166Y-28521428D02*
X21081785Y-28492857D01*
X21081785Y-28492857D02*
X21105595Y-28464286D01*
X21105595Y-28464286D02*
X21129404Y-28407143D01*
X21129404Y-28407143D02*
X21129404Y-28207143D01*
X21105595Y-28892857D02*
X21081785Y-28835714D01*
X21081785Y-28835714D02*
X21057976Y-28807143D01*
X21057976Y-28807143D02*
X21010357Y-28778571D01*
X21010357Y-28778571D02*
X20986547Y-28778571D01*
X20986547Y-28778571D02*
X20938928Y-28807143D01*
X20938928Y-28807143D02*
X20915119Y-28835714D01*
X20915119Y-28835714D02*
X20891309Y-28892857D01*
X20891309Y-28892857D02*
X20891309Y-29007143D01*
X20891309Y-29007143D02*
X20915119Y-29064286D01*
X20915119Y-29064286D02*
X20938928Y-29092857D01*
X20938928Y-29092857D02*
X20986547Y-29121428D01*
X20986547Y-29121428D02*
X21010357Y-29121428D01*
X21010357Y-29121428D02*
X21057976Y-29092857D01*
X21057976Y-29092857D02*
X21081785Y-29064286D01*
X21081785Y-29064286D02*
X21105595Y-29007143D01*
X21105595Y-29007143D02*
X21105595Y-28892857D01*
X21105595Y-28892857D02*
X21129404Y-28835714D01*
X21129404Y-28835714D02*
X21153214Y-28807143D01*
X21153214Y-28807143D02*
X21200833Y-28778571D01*
X21200833Y-28778571D02*
X21296071Y-28778571D01*
X21296071Y-28778571D02*
X21343690Y-28807143D01*
X21343690Y-28807143D02*
X21367500Y-28835714D01*
X21367500Y-28835714D02*
X21391309Y-28892857D01*
X21391309Y-28892857D02*
X21391309Y-29007143D01*
X21391309Y-29007143D02*
X21367500Y-29064286D01*
X21367500Y-29064286D02*
X21343690Y-29092857D01*
X21343690Y-29092857D02*
X21296071Y-29121428D01*
X21296071Y-29121428D02*
X21200833Y-29121428D01*
X21200833Y-29121428D02*
X21153214Y-29092857D01*
X21153214Y-29092857D02*
X21129404Y-29064286D01*
X21129404Y-29064286D02*
X21105595Y-29007143D01*
X18171309Y2342858D02*
X18171309Y1971430D01*
X18171309Y1971430D02*
X18361785Y2171430D01*
X18361785Y2171430D02*
X18361785Y2085715D01*
X18361785Y2085715D02*
X18385595Y2028572D01*
X18385595Y2028572D02*
X18409404Y2000001D01*
X18409404Y2000001D02*
X18457023Y1971430D01*
X18457023Y1971430D02*
X18576071Y1971430D01*
X18576071Y1971430D02*
X18623690Y2000001D01*
X18623690Y2000001D02*
X18647500Y2028572D01*
X18647500Y2028572D02*
X18671309Y2085715D01*
X18671309Y2085715D02*
X18671309Y2257144D01*
X18671309Y2257144D02*
X18647500Y2314287D01*
X18647500Y2314287D02*
X18623690Y2342858D01*
X18171309Y1800001D02*
X18671309Y1600001D01*
X18671309Y1600001D02*
X18171309Y1400001D01*
X18171309Y1257143D02*
X18171309Y885715D01*
X18171309Y885715D02*
X18361785Y1085715D01*
X18361785Y1085715D02*
X18361785Y1000000D01*
X18361785Y1000000D02*
X18385595Y942857D01*
X18385595Y942857D02*
X18409404Y914286D01*
X18409404Y914286D02*
X18457023Y885715D01*
X18457023Y885715D02*
X18576071Y885715D01*
X18576071Y885715D02*
X18623690Y914286D01*
X18623690Y914286D02*
X18647500Y942857D01*
X18647500Y942857D02*
X18671309Y1000000D01*
X18671309Y1000000D02*
X18671309Y1171429D01*
X18671309Y1171429D02*
X18647500Y1228572D01*
X18647500Y1228572D02*
X18623690Y1257143D01*
X5601309Y-251428D02*
X5101309Y-251428D01*
X5101309Y-251428D02*
X5101309Y-394285D01*
X5101309Y-394285D02*
X5125119Y-479999D01*
X5125119Y-479999D02*
X5172738Y-537142D01*
X5172738Y-537142D02*
X5220357Y-565713D01*
X5220357Y-565713D02*
X5315595Y-594285D01*
X5315595Y-594285D02*
X5387023Y-594285D01*
X5387023Y-594285D02*
X5482261Y-565713D01*
X5482261Y-565713D02*
X5529880Y-537142D01*
X5529880Y-537142D02*
X5577500Y-479999D01*
X5577500Y-479999D02*
X5601309Y-394285D01*
X5601309Y-394285D02*
X5601309Y-251428D01*
X5601309Y-1165713D02*
X5601309Y-822856D01*
X5601309Y-994285D02*
X5101309Y-994285D01*
X5101309Y-994285D02*
X5172738Y-937142D01*
X5172738Y-937142D02*
X5220357Y-879999D01*
X5220357Y-879999D02*
X5244166Y-822856D01*
X5101309Y-1708571D02*
X5101309Y-1422857D01*
X5101309Y-1422857D02*
X5339404Y-1394285D01*
X5339404Y-1394285D02*
X5315595Y-1422857D01*
X5315595Y-1422857D02*
X5291785Y-1480000D01*
X5291785Y-1480000D02*
X5291785Y-1622857D01*
X5291785Y-1622857D02*
X5315595Y-1680000D01*
X5315595Y-1680000D02*
X5339404Y-1708571D01*
X5339404Y-1708571D02*
X5387023Y-1737142D01*
X5387023Y-1737142D02*
X5506071Y-1737142D01*
X5506071Y-1737142D02*
X5553690Y-1708571D01*
X5553690Y-1708571D02*
X5577500Y-1680000D01*
X5577500Y-1680000D02*
X5601309Y-1622857D01*
X5601309Y-1622857D02*
X5601309Y-1480000D01*
X5601309Y-1480000D02*
X5577500Y-1422857D01*
X5577500Y-1422857D02*
X5553690Y-1394285D01*
X28279999Y-14473690D02*
X28308571Y-14497500D01*
X28308571Y-14497500D02*
X28394285Y-14521309D01*
X28394285Y-14521309D02*
X28451428Y-14521309D01*
X28451428Y-14521309D02*
X28537142Y-14497500D01*
X28537142Y-14497500D02*
X28594285Y-14449880D01*
X28594285Y-14449880D02*
X28622856Y-14402261D01*
X28622856Y-14402261D02*
X28651428Y-14307023D01*
X28651428Y-14307023D02*
X28651428Y-14235595D01*
X28651428Y-14235595D02*
X28622856Y-14140357D01*
X28622856Y-14140357D02*
X28594285Y-14092738D01*
X28594285Y-14092738D02*
X28537142Y-14045119D01*
X28537142Y-14045119D02*
X28451428Y-14021309D01*
X28451428Y-14021309D02*
X28394285Y-14021309D01*
X28394285Y-14021309D02*
X28308571Y-14045119D01*
X28308571Y-14045119D02*
X28279999Y-14068928D01*
X27737142Y-14021309D02*
X28022856Y-14021309D01*
X28022856Y-14021309D02*
X28051428Y-14259404D01*
X28051428Y-14259404D02*
X28022856Y-14235595D01*
X28022856Y-14235595D02*
X27965714Y-14211785D01*
X27965714Y-14211785D02*
X27822856Y-14211785D01*
X27822856Y-14211785D02*
X27765714Y-14235595D01*
X27765714Y-14235595D02*
X27737142Y-14259404D01*
X27737142Y-14259404D02*
X27708571Y-14307023D01*
X27708571Y-14307023D02*
X27708571Y-14426071D01*
X27708571Y-14426071D02*
X27737142Y-14473690D01*
X27737142Y-14473690D02*
X27765714Y-14497500D01*
X27765714Y-14497500D02*
X27822856Y-14521309D01*
X27822856Y-14521309D02*
X27965714Y-14521309D01*
X27965714Y-14521309D02*
X28022856Y-14497500D01*
X28022856Y-14497500D02*
X28051428Y-14473690D01*
X11241309Y-6101428D02*
X10741309Y-6101428D01*
X10741309Y-6101428D02*
X10741309Y-6244285D01*
X10741309Y-6244285D02*
X10765119Y-6329999D01*
X10765119Y-6329999D02*
X10812738Y-6387142D01*
X10812738Y-6387142D02*
X10860357Y-6415713D01*
X10860357Y-6415713D02*
X10955595Y-6444285D01*
X10955595Y-6444285D02*
X11027023Y-6444285D01*
X11027023Y-6444285D02*
X11122261Y-6415713D01*
X11122261Y-6415713D02*
X11169880Y-6387142D01*
X11169880Y-6387142D02*
X11217500Y-6329999D01*
X11217500Y-6329999D02*
X11241309Y-6244285D01*
X11241309Y-6244285D02*
X11241309Y-6101428D01*
X11241309Y-7015713D02*
X11241309Y-6672856D01*
X11241309Y-6844285D02*
X10741309Y-6844285D01*
X10741309Y-6844285D02*
X10812738Y-6787142D01*
X10812738Y-6787142D02*
X10860357Y-6729999D01*
X10860357Y-6729999D02*
X10884166Y-6672856D01*
X10741309Y-7387142D02*
X10741309Y-7444285D01*
X10741309Y-7444285D02*
X10765119Y-7501428D01*
X10765119Y-7501428D02*
X10788928Y-7530000D01*
X10788928Y-7530000D02*
X10836547Y-7558571D01*
X10836547Y-7558571D02*
X10931785Y-7587142D01*
X10931785Y-7587142D02*
X11050833Y-7587142D01*
X11050833Y-7587142D02*
X11146071Y-7558571D01*
X11146071Y-7558571D02*
X11193690Y-7530000D01*
X11193690Y-7530000D02*
X11217500Y-7501428D01*
X11217500Y-7501428D02*
X11241309Y-7444285D01*
X11241309Y-7444285D02*
X11241309Y-7387142D01*
X11241309Y-7387142D02*
X11217500Y-7330000D01*
X11217500Y-7330000D02*
X11193690Y-7301428D01*
X11193690Y-7301428D02*
X11146071Y-7272857D01*
X11146071Y-7272857D02*
X11050833Y-7244285D01*
X11050833Y-7244285D02*
X10931785Y-7244285D01*
X10931785Y-7244285D02*
X10836547Y-7272857D01*
X10836547Y-7272857D02*
X10788928Y-7301428D01*
X10788928Y-7301428D02*
X10765119Y-7330000D01*
X10765119Y-7330000D02*
X10741309Y-7387142D01*
X6341309Y-28167143D02*
X5841309Y-28167143D01*
X5841309Y-28167143D02*
X5841309Y-28310000D01*
X5841309Y-28310000D02*
X5865119Y-28395714D01*
X5865119Y-28395714D02*
X5912738Y-28452857D01*
X5912738Y-28452857D02*
X5960357Y-28481428D01*
X5960357Y-28481428D02*
X6055595Y-28510000D01*
X6055595Y-28510000D02*
X6127023Y-28510000D01*
X6127023Y-28510000D02*
X6222261Y-28481428D01*
X6222261Y-28481428D02*
X6269880Y-28452857D01*
X6269880Y-28452857D02*
X6317500Y-28395714D01*
X6317500Y-28395714D02*
X6341309Y-28310000D01*
X6341309Y-28310000D02*
X6341309Y-28167143D01*
X6341309Y-29081428D02*
X6341309Y-28738571D01*
X6341309Y-28910000D02*
X5841309Y-28910000D01*
X5841309Y-28910000D02*
X5912738Y-28852857D01*
X5912738Y-28852857D02*
X5960357Y-28795714D01*
X5960357Y-28795714D02*
X5984166Y-28738571D01*
X31814285Y-24631309D02*
X32099999Y-24631309D01*
X32099999Y-24631309D02*
X32128571Y-24869404D01*
X32128571Y-24869404D02*
X32099999Y-24845595D01*
X32099999Y-24845595D02*
X32042857Y-24821785D01*
X32042857Y-24821785D02*
X31899999Y-24821785D01*
X31899999Y-24821785D02*
X31842857Y-24845595D01*
X31842857Y-24845595D02*
X31814285Y-24869404D01*
X31814285Y-24869404D02*
X31785714Y-24917023D01*
X31785714Y-24917023D02*
X31785714Y-25036071D01*
X31785714Y-25036071D02*
X31814285Y-25083690D01*
X31814285Y-25083690D02*
X31842857Y-25107500D01*
X31842857Y-25107500D02*
X31899999Y-25131309D01*
X31899999Y-25131309D02*
X32042857Y-25131309D01*
X32042857Y-25131309D02*
X32099999Y-25107500D01*
X32099999Y-25107500D02*
X32128571Y-25083690D01*
X31614285Y-24631309D02*
X31414285Y-25131309D01*
X31414285Y-25131309D02*
X31214285Y-24631309D01*
X2899404Y-6291428D02*
X2923214Y-6377142D01*
X2923214Y-6377142D02*
X2947023Y-6405713D01*
X2947023Y-6405713D02*
X2994642Y-6434285D01*
X2994642Y-6434285D02*
X3066071Y-6434285D01*
X3066071Y-6434285D02*
X3113690Y-6405713D01*
X3113690Y-6405713D02*
X3137500Y-6377142D01*
X3137500Y-6377142D02*
X3161309Y-6319999D01*
X3161309Y-6319999D02*
X3161309Y-6091428D01*
X3161309Y-6091428D02*
X2661309Y-6091428D01*
X2661309Y-6091428D02*
X2661309Y-6291428D01*
X2661309Y-6291428D02*
X2685119Y-6348571D01*
X2685119Y-6348571D02*
X2708928Y-6377142D01*
X2708928Y-6377142D02*
X2756547Y-6405713D01*
X2756547Y-6405713D02*
X2804166Y-6405713D01*
X2804166Y-6405713D02*
X2851785Y-6377142D01*
X2851785Y-6377142D02*
X2875595Y-6348571D01*
X2875595Y-6348571D02*
X2899404Y-6291428D01*
X2899404Y-6291428D02*
X2899404Y-6091428D01*
X3161309Y-7005713D02*
X3161309Y-6662856D01*
X3161309Y-6834285D02*
X2661309Y-6834285D01*
X2661309Y-6834285D02*
X2732738Y-6777142D01*
X2732738Y-6777142D02*
X2780357Y-6719999D01*
X2780357Y-6719999D02*
X2804166Y-6662856D01*
X2708928Y-7234285D02*
X2685119Y-7262857D01*
X2685119Y-7262857D02*
X2661309Y-7320000D01*
X2661309Y-7320000D02*
X2661309Y-7462857D01*
X2661309Y-7462857D02*
X2685119Y-7520000D01*
X2685119Y-7520000D02*
X2708928Y-7548571D01*
X2708928Y-7548571D02*
X2756547Y-7577142D01*
X2756547Y-7577142D02*
X2804166Y-7577142D01*
X2804166Y-7577142D02*
X2875595Y-7548571D01*
X2875595Y-7548571D02*
X3161309Y-7205714D01*
X3161309Y-7205714D02*
X3161309Y-7577142D01*
X14585713Y-21569404D02*
X14499999Y-21593214D01*
X14499999Y-21593214D02*
X14471428Y-21617023D01*
X14471428Y-21617023D02*
X14442856Y-21664642D01*
X14442856Y-21664642D02*
X14442856Y-21736071D01*
X14442856Y-21736071D02*
X14471428Y-21783690D01*
X14471428Y-21783690D02*
X14499999Y-21807500D01*
X14499999Y-21807500D02*
X14557142Y-21831309D01*
X14557142Y-21831309D02*
X14785713Y-21831309D01*
X14785713Y-21831309D02*
X14785713Y-21331309D01*
X14785713Y-21331309D02*
X14585713Y-21331309D01*
X14585713Y-21331309D02*
X14528571Y-21355119D01*
X14528571Y-21355119D02*
X14499999Y-21378928D01*
X14499999Y-21378928D02*
X14471428Y-21426547D01*
X14471428Y-21426547D02*
X14471428Y-21474166D01*
X14471428Y-21474166D02*
X14499999Y-21521785D01*
X14499999Y-21521785D02*
X14528571Y-21545595D01*
X14528571Y-21545595D02*
X14585713Y-21569404D01*
X14585713Y-21569404D02*
X14785713Y-21569404D01*
X14271428Y-21331309D02*
X13928571Y-21331309D01*
X14099999Y-21831309D02*
X14099999Y-21331309D01*
X29455714Y-25863690D02*
X29484286Y-25887500D01*
X29484286Y-25887500D02*
X29570000Y-25911309D01*
X29570000Y-25911309D02*
X29627143Y-25911309D01*
X29627143Y-25911309D02*
X29712857Y-25887500D01*
X29712857Y-25887500D02*
X29770000Y-25839880D01*
X29770000Y-25839880D02*
X29798571Y-25792261D01*
X29798571Y-25792261D02*
X29827143Y-25697023D01*
X29827143Y-25697023D02*
X29827143Y-25625595D01*
X29827143Y-25625595D02*
X29798571Y-25530357D01*
X29798571Y-25530357D02*
X29770000Y-25482738D01*
X29770000Y-25482738D02*
X29712857Y-25435119D01*
X29712857Y-25435119D02*
X29627143Y-25411309D01*
X29627143Y-25411309D02*
X29570000Y-25411309D01*
X29570000Y-25411309D02*
X29484286Y-25435119D01*
X29484286Y-25435119D02*
X29455714Y-25458928D01*
X28884286Y-25911309D02*
X29227143Y-25911309D01*
X29055714Y-25911309D02*
X29055714Y-25411309D01*
X29055714Y-25411309D02*
X29112857Y-25482738D01*
X29112857Y-25482738D02*
X29170000Y-25530357D01*
X29170000Y-25530357D02*
X29227143Y-25554166D01*
X28370000Y-25577976D02*
X28370000Y-25911309D01*
X28512857Y-25387500D02*
X28655714Y-25744642D01*
X28655714Y-25744642D02*
X28284285Y-25744642D01*
X8181309Y-27941428D02*
X7681309Y-27941428D01*
X7681309Y-27941428D02*
X7681309Y-28084285D01*
X7681309Y-28084285D02*
X7705119Y-28169999D01*
X7705119Y-28169999D02*
X7752738Y-28227142D01*
X7752738Y-28227142D02*
X7800357Y-28255713D01*
X7800357Y-28255713D02*
X7895595Y-28284285D01*
X7895595Y-28284285D02*
X7967023Y-28284285D01*
X7967023Y-28284285D02*
X8062261Y-28255713D01*
X8062261Y-28255713D02*
X8109880Y-28227142D01*
X8109880Y-28227142D02*
X8157500Y-28169999D01*
X8157500Y-28169999D02*
X8181309Y-28084285D01*
X8181309Y-28084285D02*
X8181309Y-27941428D01*
X8181309Y-28855713D02*
X8181309Y-28512856D01*
X8181309Y-28684285D02*
X7681309Y-28684285D01*
X7681309Y-28684285D02*
X7752738Y-28627142D01*
X7752738Y-28627142D02*
X7800357Y-28569999D01*
X7800357Y-28569999D02*
X7824166Y-28512856D01*
X7681309Y-29055714D02*
X7681309Y-29427142D01*
X7681309Y-29427142D02*
X7871785Y-29227142D01*
X7871785Y-29227142D02*
X7871785Y-29312857D01*
X7871785Y-29312857D02*
X7895595Y-29370000D01*
X7895595Y-29370000D02*
X7919404Y-29398571D01*
X7919404Y-29398571D02*
X7967023Y-29427142D01*
X7967023Y-29427142D02*
X8086071Y-29427142D01*
X8086071Y-29427142D02*
X8133690Y-29398571D01*
X8133690Y-29398571D02*
X8157500Y-29370000D01*
X8157500Y-29370000D02*
X8181309Y-29312857D01*
X8181309Y-29312857D02*
X8181309Y-29141428D01*
X8181309Y-29141428D02*
X8157500Y-29084285D01*
X8157500Y-29084285D02*
X8133690Y-29055714D01*
X7103690Y-10454285D02*
X7127500Y-10425713D01*
X7127500Y-10425713D02*
X7151309Y-10339999D01*
X7151309Y-10339999D02*
X7151309Y-10282856D01*
X7151309Y-10282856D02*
X7127500Y-10197142D01*
X7127500Y-10197142D02*
X7079880Y-10139999D01*
X7079880Y-10139999D02*
X7032261Y-10111428D01*
X7032261Y-10111428D02*
X6937023Y-10082856D01*
X6937023Y-10082856D02*
X6865595Y-10082856D01*
X6865595Y-10082856D02*
X6770357Y-10111428D01*
X6770357Y-10111428D02*
X6722738Y-10139999D01*
X6722738Y-10139999D02*
X6675119Y-10197142D01*
X6675119Y-10197142D02*
X6651309Y-10282856D01*
X6651309Y-10282856D02*
X6651309Y-10339999D01*
X6651309Y-10339999D02*
X6675119Y-10425713D01*
X6675119Y-10425713D02*
X6698928Y-10454285D01*
X7151309Y-11025713D02*
X7151309Y-10682856D01*
X7151309Y-10854285D02*
X6651309Y-10854285D01*
X6651309Y-10854285D02*
X6722738Y-10797142D01*
X6722738Y-10797142D02*
X6770357Y-10739999D01*
X6770357Y-10739999D02*
X6794166Y-10682856D01*
X7151309Y-11597142D02*
X7151309Y-11254285D01*
X7151309Y-11425714D02*
X6651309Y-11425714D01*
X6651309Y-11425714D02*
X6722738Y-11368571D01*
X6722738Y-11368571D02*
X6770357Y-11311428D01*
X6770357Y-11311428D02*
X6794166Y-11254285D01*
X20998452Y-611428D02*
X20998452Y-897143D01*
X21141309Y-554285D02*
X20641309Y-754285D01*
X20641309Y-754285D02*
X21141309Y-954285D01*
X20807976Y-1411429D02*
X21141309Y-1411429D01*
X20617500Y-1268571D02*
X20974642Y-1125714D01*
X20974642Y-1125714D02*
X20974642Y-1497143D01*
X7771309Y-291428D02*
X7271309Y-291428D01*
X7271309Y-291428D02*
X7271309Y-434285D01*
X7271309Y-434285D02*
X7295119Y-519999D01*
X7295119Y-519999D02*
X7342738Y-577142D01*
X7342738Y-577142D02*
X7390357Y-605713D01*
X7390357Y-605713D02*
X7485595Y-634285D01*
X7485595Y-634285D02*
X7557023Y-634285D01*
X7557023Y-634285D02*
X7652261Y-605713D01*
X7652261Y-605713D02*
X7699880Y-577142D01*
X7699880Y-577142D02*
X7747500Y-519999D01*
X7747500Y-519999D02*
X7771309Y-434285D01*
X7771309Y-434285D02*
X7771309Y-291428D01*
X7771309Y-1205713D02*
X7771309Y-862856D01*
X7771309Y-1034285D02*
X7271309Y-1034285D01*
X7271309Y-1034285D02*
X7342738Y-977142D01*
X7342738Y-977142D02*
X7390357Y-919999D01*
X7390357Y-919999D02*
X7414166Y-862856D01*
X7437976Y-1720000D02*
X7771309Y-1720000D01*
X7247500Y-1577142D02*
X7604642Y-1434285D01*
X7604642Y-1434285D02*
X7604642Y-1805714D01*
X19109404Y-19935714D02*
X19109404Y-20135714D01*
X19371309Y-20221428D02*
X19371309Y-19935714D01*
X19371309Y-19935714D02*
X18871309Y-19935714D01*
X18871309Y-19935714D02*
X18871309Y-20221428D01*
X18918928Y-20449999D02*
X18895119Y-20478571D01*
X18895119Y-20478571D02*
X18871309Y-20535714D01*
X18871309Y-20535714D02*
X18871309Y-20678571D01*
X18871309Y-20678571D02*
X18895119Y-20735714D01*
X18895119Y-20735714D02*
X18918928Y-20764285D01*
X18918928Y-20764285D02*
X18966547Y-20792856D01*
X18966547Y-20792856D02*
X19014166Y-20792856D01*
X19014166Y-20792856D02*
X19085595Y-20764285D01*
X19085595Y-20764285D02*
X19371309Y-20421428D01*
X19371309Y-20421428D02*
X19371309Y-20792856D01*
X21159404Y-22475714D02*
X21159404Y-22675714D01*
X21421309Y-22761428D02*
X21421309Y-22475714D01*
X21421309Y-22475714D02*
X20921309Y-22475714D01*
X20921309Y-22475714D02*
X20921309Y-22761428D01*
X20921309Y-23304285D02*
X20921309Y-23018571D01*
X20921309Y-23018571D02*
X21159404Y-22989999D01*
X21159404Y-22989999D02*
X21135595Y-23018571D01*
X21135595Y-23018571D02*
X21111785Y-23075714D01*
X21111785Y-23075714D02*
X21111785Y-23218571D01*
X21111785Y-23218571D02*
X21135595Y-23275714D01*
X21135595Y-23275714D02*
X21159404Y-23304285D01*
X21159404Y-23304285D02*
X21207023Y-23332856D01*
X21207023Y-23332856D02*
X21326071Y-23332856D01*
X21326071Y-23332856D02*
X21373690Y-23304285D01*
X21373690Y-23304285D02*
X21397500Y-23275714D01*
X21397500Y-23275714D02*
X21421309Y-23218571D01*
X21421309Y-23218571D02*
X21421309Y-23075714D01*
X21421309Y-23075714D02*
X21397500Y-23018571D01*
X21397500Y-23018571D02*
X21373690Y-22989999D01*
X15619404Y-25497143D02*
X15643214Y-25582857D01*
X15643214Y-25582857D02*
X15667023Y-25611428D01*
X15667023Y-25611428D02*
X15714642Y-25640000D01*
X15714642Y-25640000D02*
X15786071Y-25640000D01*
X15786071Y-25640000D02*
X15833690Y-25611428D01*
X15833690Y-25611428D02*
X15857500Y-25582857D01*
X15857500Y-25582857D02*
X15881309Y-25525714D01*
X15881309Y-25525714D02*
X15881309Y-25297143D01*
X15881309Y-25297143D02*
X15381309Y-25297143D01*
X15381309Y-25297143D02*
X15381309Y-25497143D01*
X15381309Y-25497143D02*
X15405119Y-25554286D01*
X15405119Y-25554286D02*
X15428928Y-25582857D01*
X15428928Y-25582857D02*
X15476547Y-25611428D01*
X15476547Y-25611428D02*
X15524166Y-25611428D01*
X15524166Y-25611428D02*
X15571785Y-25582857D01*
X15571785Y-25582857D02*
X15595595Y-25554286D01*
X15595595Y-25554286D02*
X15619404Y-25497143D01*
X15619404Y-25497143D02*
X15619404Y-25297143D01*
X15381309Y-26182857D02*
X15381309Y-25897143D01*
X15381309Y-25897143D02*
X15619404Y-25868571D01*
X15619404Y-25868571D02*
X15595595Y-25897143D01*
X15595595Y-25897143D02*
X15571785Y-25954286D01*
X15571785Y-25954286D02*
X15571785Y-26097143D01*
X15571785Y-26097143D02*
X15595595Y-26154286D01*
X15595595Y-26154286D02*
X15619404Y-26182857D01*
X15619404Y-26182857D02*
X15667023Y-26211428D01*
X15667023Y-26211428D02*
X15786071Y-26211428D01*
X15786071Y-26211428D02*
X15833690Y-26182857D01*
X15833690Y-26182857D02*
X15857500Y-26154286D01*
X15857500Y-26154286D02*
X15881309Y-26097143D01*
X15881309Y-26097143D02*
X15881309Y-25954286D01*
X15881309Y-25954286D02*
X15857500Y-25897143D01*
X15857500Y-25897143D02*
X15833690Y-25868571D01*
X10391309Y-28207143D02*
X9891309Y-28207143D01*
X9891309Y-28207143D02*
X9891309Y-28350000D01*
X9891309Y-28350000D02*
X9915119Y-28435714D01*
X9915119Y-28435714D02*
X9962738Y-28492857D01*
X9962738Y-28492857D02*
X10010357Y-28521428D01*
X10010357Y-28521428D02*
X10105595Y-28550000D01*
X10105595Y-28550000D02*
X10177023Y-28550000D01*
X10177023Y-28550000D02*
X10272261Y-28521428D01*
X10272261Y-28521428D02*
X10319880Y-28492857D01*
X10319880Y-28492857D02*
X10367500Y-28435714D01*
X10367500Y-28435714D02*
X10391309Y-28350000D01*
X10391309Y-28350000D02*
X10391309Y-28207143D01*
X9891309Y-28750000D02*
X9891309Y-29150000D01*
X9891309Y-29150000D02*
X10391309Y-28892857D01*
X20365119Y2067143D02*
X20341309Y2124285D01*
X20341309Y2124285D02*
X20341309Y2210000D01*
X20341309Y2210000D02*
X20365119Y2295714D01*
X20365119Y2295714D02*
X20412738Y2352857D01*
X20412738Y2352857D02*
X20460357Y2381428D01*
X20460357Y2381428D02*
X20555595Y2410000D01*
X20555595Y2410000D02*
X20627023Y2410000D01*
X20627023Y2410000D02*
X20722261Y2381428D01*
X20722261Y2381428D02*
X20769880Y2352857D01*
X20769880Y2352857D02*
X20817500Y2295714D01*
X20817500Y2295714D02*
X20841309Y2210000D01*
X20841309Y2210000D02*
X20841309Y2152857D01*
X20841309Y2152857D02*
X20817500Y2067143D01*
X20817500Y2067143D02*
X20793690Y2038571D01*
X20793690Y2038571D02*
X20627023Y2038571D01*
X20627023Y2038571D02*
X20627023Y2152857D01*
X20841309Y1781428D02*
X20341309Y1781428D01*
X20341309Y1781428D02*
X20841309Y1438571D01*
X20841309Y1438571D02*
X20341309Y1438571D01*
X20841309Y1152857D02*
X20341309Y1152857D01*
X20341309Y1152857D02*
X20341309Y1010000D01*
X20341309Y1010000D02*
X20365119Y924286D01*
X20365119Y924286D02*
X20412738Y867143D01*
X20412738Y867143D02*
X20460357Y838572D01*
X20460357Y838572D02*
X20555595Y810000D01*
X20555595Y810000D02*
X20627023Y810000D01*
X20627023Y810000D02*
X20722261Y838572D01*
X20722261Y838572D02*
X20769880Y867143D01*
X20769880Y867143D02*
X20817500Y924286D01*
X20817500Y924286D02*
X20841309Y1010000D01*
X20841309Y1010000D02*
X20841309Y1152857D01*
X24765119Y2067143D02*
X24741309Y2124285D01*
X24741309Y2124285D02*
X24741309Y2210000D01*
X24741309Y2210000D02*
X24765119Y2295714D01*
X24765119Y2295714D02*
X24812738Y2352857D01*
X24812738Y2352857D02*
X24860357Y2381428D01*
X24860357Y2381428D02*
X24955595Y2410000D01*
X24955595Y2410000D02*
X25027023Y2410000D01*
X25027023Y2410000D02*
X25122261Y2381428D01*
X25122261Y2381428D02*
X25169880Y2352857D01*
X25169880Y2352857D02*
X25217500Y2295714D01*
X25217500Y2295714D02*
X25241309Y2210000D01*
X25241309Y2210000D02*
X25241309Y2152857D01*
X25241309Y2152857D02*
X25217500Y2067143D01*
X25217500Y2067143D02*
X25193690Y2038571D01*
X25193690Y2038571D02*
X25027023Y2038571D01*
X25027023Y2038571D02*
X25027023Y2152857D01*
X25241309Y1781428D02*
X24741309Y1781428D01*
X24741309Y1781428D02*
X25241309Y1438571D01*
X25241309Y1438571D02*
X24741309Y1438571D01*
X25241309Y1152857D02*
X24741309Y1152857D01*
X24741309Y1152857D02*
X24741309Y1010000D01*
X24741309Y1010000D02*
X24765119Y924286D01*
X24765119Y924286D02*
X24812738Y867143D01*
X24812738Y867143D02*
X24860357Y838572D01*
X24860357Y838572D02*
X24955595Y810000D01*
X24955595Y810000D02*
X25027023Y810000D01*
X25027023Y810000D02*
X25122261Y838572D01*
X25122261Y838572D02*
X25169880Y867143D01*
X25169880Y867143D02*
X25217500Y924286D01*
X25217500Y924286D02*
X25241309Y1010000D01*
X25241309Y1010000D02*
X25241309Y1152857D01*
X8939404Y-6361428D02*
X8963214Y-6447142D01*
X8963214Y-6447142D02*
X8987023Y-6475713D01*
X8987023Y-6475713D02*
X9034642Y-6504285D01*
X9034642Y-6504285D02*
X9106071Y-6504285D01*
X9106071Y-6504285D02*
X9153690Y-6475713D01*
X9153690Y-6475713D02*
X9177500Y-6447142D01*
X9177500Y-6447142D02*
X9201309Y-6389999D01*
X9201309Y-6389999D02*
X9201309Y-6161428D01*
X9201309Y-6161428D02*
X8701309Y-6161428D01*
X8701309Y-6161428D02*
X8701309Y-6361428D01*
X8701309Y-6361428D02*
X8725119Y-6418571D01*
X8725119Y-6418571D02*
X8748928Y-6447142D01*
X8748928Y-6447142D02*
X8796547Y-6475713D01*
X8796547Y-6475713D02*
X8844166Y-6475713D01*
X8844166Y-6475713D02*
X8891785Y-6447142D01*
X8891785Y-6447142D02*
X8915595Y-6418571D01*
X8915595Y-6418571D02*
X8939404Y-6361428D01*
X8939404Y-6361428D02*
X8939404Y-6161428D01*
X9201309Y-7075713D02*
X9201309Y-6732856D01*
X9201309Y-6904285D02*
X8701309Y-6904285D01*
X8701309Y-6904285D02*
X8772738Y-6847142D01*
X8772738Y-6847142D02*
X8820357Y-6789999D01*
X8820357Y-6789999D02*
X8844166Y-6732856D01*
X8701309Y-7275714D02*
X8701309Y-7647142D01*
X8701309Y-7647142D02*
X8891785Y-7447142D01*
X8891785Y-7447142D02*
X8891785Y-7532857D01*
X8891785Y-7532857D02*
X8915595Y-7590000D01*
X8915595Y-7590000D02*
X8939404Y-7618571D01*
X8939404Y-7618571D02*
X8987023Y-7647142D01*
X8987023Y-7647142D02*
X9106071Y-7647142D01*
X9106071Y-7647142D02*
X9153690Y-7618571D01*
X9153690Y-7618571D02*
X9177500Y-7590000D01*
X9177500Y-7590000D02*
X9201309Y-7532857D01*
X9201309Y-7532857D02*
X9201309Y-7361428D01*
X9201309Y-7361428D02*
X9177500Y-7304285D01*
X9177500Y-7304285D02*
X9153690Y-7275714D01*
X13711309Y-25247143D02*
X13211309Y-25247143D01*
X13211309Y-25247143D02*
X13211309Y-25390000D01*
X13211309Y-25390000D02*
X13235119Y-25475714D01*
X13235119Y-25475714D02*
X13282738Y-25532857D01*
X13282738Y-25532857D02*
X13330357Y-25561428D01*
X13330357Y-25561428D02*
X13425595Y-25590000D01*
X13425595Y-25590000D02*
X13497023Y-25590000D01*
X13497023Y-25590000D02*
X13592261Y-25561428D01*
X13592261Y-25561428D02*
X13639880Y-25532857D01*
X13639880Y-25532857D02*
X13687500Y-25475714D01*
X13687500Y-25475714D02*
X13711309Y-25390000D01*
X13711309Y-25390000D02*
X13711309Y-25247143D01*
X13377976Y-26104286D02*
X13711309Y-26104286D01*
X13187500Y-25961428D02*
X13544642Y-25818571D01*
X13544642Y-25818571D02*
X13544642Y-26190000D01*
X11641309Y-10191428D02*
X11141309Y-10191428D01*
X11141309Y-10191428D02*
X11141309Y-10334285D01*
X11141309Y-10334285D02*
X11165119Y-10419999D01*
X11165119Y-10419999D02*
X11212738Y-10477142D01*
X11212738Y-10477142D02*
X11260357Y-10505713D01*
X11260357Y-10505713D02*
X11355595Y-10534285D01*
X11355595Y-10534285D02*
X11427023Y-10534285D01*
X11427023Y-10534285D02*
X11522261Y-10505713D01*
X11522261Y-10505713D02*
X11569880Y-10477142D01*
X11569880Y-10477142D02*
X11617500Y-10419999D01*
X11617500Y-10419999D02*
X11641309Y-10334285D01*
X11641309Y-10334285D02*
X11641309Y-10191428D01*
X11641309Y-11105713D02*
X11641309Y-10762856D01*
X11641309Y-10934285D02*
X11141309Y-10934285D01*
X11141309Y-10934285D02*
X11212738Y-10877142D01*
X11212738Y-10877142D02*
X11260357Y-10819999D01*
X11260357Y-10819999D02*
X11284166Y-10762856D01*
X11641309Y-11677142D02*
X11641309Y-11334285D01*
X11641309Y-11505714D02*
X11141309Y-11505714D01*
X11141309Y-11505714D02*
X11212738Y-11448571D01*
X11212738Y-11448571D02*
X11260357Y-11391428D01*
X11260357Y-11391428D02*
X11284166Y-11334285D01*
X14994046Y-30631309D02*
X14684522Y-30631309D01*
X14684522Y-30631309D02*
X14851189Y-30821785D01*
X14851189Y-30821785D02*
X14779760Y-30821785D01*
X14779760Y-30821785D02*
X14732141Y-30845595D01*
X14732141Y-30845595D02*
X14708332Y-30869404D01*
X14708332Y-30869404D02*
X14684522Y-30917023D01*
X14684522Y-30917023D02*
X14684522Y-31036071D01*
X14684522Y-31036071D02*
X14708332Y-31083690D01*
X14708332Y-31083690D02*
X14732141Y-31107500D01*
X14732141Y-31107500D02*
X14779760Y-31131309D01*
X14779760Y-31131309D02*
X14922617Y-31131309D01*
X14922617Y-31131309D02*
X14970236Y-31107500D01*
X14970236Y-31107500D02*
X14994046Y-31083690D01*
X14541665Y-30631309D02*
X14374999Y-31131309D01*
X14374999Y-31131309D02*
X14208332Y-30631309D01*
X14089285Y-30631309D02*
X13779761Y-30631309D01*
X13779761Y-30631309D02*
X13946428Y-30821785D01*
X13946428Y-30821785D02*
X13874999Y-30821785D01*
X13874999Y-30821785D02*
X13827380Y-30845595D01*
X13827380Y-30845595D02*
X13803571Y-30869404D01*
X13803571Y-30869404D02*
X13779761Y-30917023D01*
X13779761Y-30917023D02*
X13779761Y-31036071D01*
X13779761Y-31036071D02*
X13803571Y-31083690D01*
X13803571Y-31083690D02*
X13827380Y-31107500D01*
X13827380Y-31107500D02*
X13874999Y-31131309D01*
X13874999Y-31131309D02*
X14017856Y-31131309D01*
X14017856Y-31131309D02*
X14065475Y-31107500D01*
X14065475Y-31107500D02*
X14089285Y-31083690D01*
X22501309Y1864286D02*
X22501309Y2150000D01*
X22501309Y2150000D02*
X22739404Y2178572D01*
X22739404Y2178572D02*
X22715595Y2150000D01*
X22715595Y2150000D02*
X22691785Y2092857D01*
X22691785Y2092857D02*
X22691785Y1950000D01*
X22691785Y1950000D02*
X22715595Y1892857D01*
X22715595Y1892857D02*
X22739404Y1864286D01*
X22739404Y1864286D02*
X22787023Y1835715D01*
X22787023Y1835715D02*
X22906071Y1835715D01*
X22906071Y1835715D02*
X22953690Y1864286D01*
X22953690Y1864286D02*
X22977500Y1892857D01*
X22977500Y1892857D02*
X23001309Y1950000D01*
X23001309Y1950000D02*
X23001309Y2092857D01*
X23001309Y2092857D02*
X22977500Y2150000D01*
X22977500Y2150000D02*
X22953690Y2178572D01*
X22501309Y1664286D02*
X23001309Y1464286D01*
X23001309Y1464286D02*
X22501309Y1264286D01*
X25473690Y-900000D02*
X25497500Y-871428D01*
X25497500Y-871428D02*
X25521309Y-785714D01*
X25521309Y-785714D02*
X25521309Y-728571D01*
X25521309Y-728571D02*
X25497500Y-642857D01*
X25497500Y-642857D02*
X25449880Y-585714D01*
X25449880Y-585714D02*
X25402261Y-557143D01*
X25402261Y-557143D02*
X25307023Y-528571D01*
X25307023Y-528571D02*
X25235595Y-528571D01*
X25235595Y-528571D02*
X25140357Y-557143D01*
X25140357Y-557143D02*
X25092738Y-585714D01*
X25092738Y-585714D02*
X25045119Y-642857D01*
X25045119Y-642857D02*
X25021309Y-728571D01*
X25021309Y-728571D02*
X25021309Y-785714D01*
X25021309Y-785714D02*
X25045119Y-871428D01*
X25045119Y-871428D02*
X25068928Y-900000D01*
X25521309Y-1471428D02*
X25521309Y-1128571D01*
X25521309Y-1300000D02*
X25021309Y-1300000D01*
X25021309Y-1300000D02*
X25092738Y-1242857D01*
X25092738Y-1242857D02*
X25140357Y-1185714D01*
X25140357Y-1185714D02*
X25164166Y-1128571D01*
X15379404Y-8111428D02*
X15403214Y-8197142D01*
X15403214Y-8197142D02*
X15427023Y-8225713D01*
X15427023Y-8225713D02*
X15474642Y-8254285D01*
X15474642Y-8254285D02*
X15546071Y-8254285D01*
X15546071Y-8254285D02*
X15593690Y-8225713D01*
X15593690Y-8225713D02*
X15617500Y-8197142D01*
X15617500Y-8197142D02*
X15641309Y-8139999D01*
X15641309Y-8139999D02*
X15641309Y-7911428D01*
X15641309Y-7911428D02*
X15141309Y-7911428D01*
X15141309Y-7911428D02*
X15141309Y-8111428D01*
X15141309Y-8111428D02*
X15165119Y-8168571D01*
X15165119Y-8168571D02*
X15188928Y-8197142D01*
X15188928Y-8197142D02*
X15236547Y-8225713D01*
X15236547Y-8225713D02*
X15284166Y-8225713D01*
X15284166Y-8225713D02*
X15331785Y-8197142D01*
X15331785Y-8197142D02*
X15355595Y-8168571D01*
X15355595Y-8168571D02*
X15379404Y-8111428D01*
X15379404Y-8111428D02*
X15379404Y-7911428D01*
X15641309Y-8825713D02*
X15641309Y-8482856D01*
X15641309Y-8654285D02*
X15141309Y-8654285D01*
X15141309Y-8654285D02*
X15212738Y-8597142D01*
X15212738Y-8597142D02*
X15260357Y-8539999D01*
X15260357Y-8539999D02*
X15284166Y-8482856D01*
X15141309Y-9197142D02*
X15141309Y-9254285D01*
X15141309Y-9254285D02*
X15165119Y-9311428D01*
X15165119Y-9311428D02*
X15188928Y-9340000D01*
X15188928Y-9340000D02*
X15236547Y-9368571D01*
X15236547Y-9368571D02*
X15331785Y-9397142D01*
X15331785Y-9397142D02*
X15450833Y-9397142D01*
X15450833Y-9397142D02*
X15546071Y-9368571D01*
X15546071Y-9368571D02*
X15593690Y-9340000D01*
X15593690Y-9340000D02*
X15617500Y-9311428D01*
X15617500Y-9311428D02*
X15641309Y-9254285D01*
X15641309Y-9254285D02*
X15641309Y-9197142D01*
X15641309Y-9197142D02*
X15617500Y-9140000D01*
X15617500Y-9140000D02*
X15593690Y-9111428D01*
X15593690Y-9111428D02*
X15546071Y-9082857D01*
X15546071Y-9082857D02*
X15450833Y-9054285D01*
X15450833Y-9054285D02*
X15331785Y-9054285D01*
X15331785Y-9054285D02*
X15236547Y-9082857D01*
X15236547Y-9082857D02*
X15188928Y-9111428D01*
X15188928Y-9111428D02*
X15165119Y-9140000D01*
X15165119Y-9140000D02*
X15141309Y-9197142D01*
X9938452Y-531428D02*
X9938452Y-817143D01*
X10081309Y-474285D02*
X9581309Y-674285D01*
X9581309Y-674285D02*
X10081309Y-874285D01*
X9581309Y-1017143D02*
X9581309Y-1388571D01*
X9581309Y-1388571D02*
X9771785Y-1188571D01*
X9771785Y-1188571D02*
X9771785Y-1274286D01*
X9771785Y-1274286D02*
X9795595Y-1331429D01*
X9795595Y-1331429D02*
X9819404Y-1360000D01*
X9819404Y-1360000D02*
X9867023Y-1388571D01*
X9867023Y-1388571D02*
X9986071Y-1388571D01*
X9986071Y-1388571D02*
X10033690Y-1360000D01*
X10033690Y-1360000D02*
X10057500Y-1331429D01*
X10057500Y-1331429D02*
X10081309Y-1274286D01*
X10081309Y-1274286D02*
X10081309Y-1102857D01*
X10081309Y-1102857D02*
X10057500Y-1045714D01*
X10057500Y-1045714D02*
X10033690Y-1017143D01*
X24189404Y-3467143D02*
X24213214Y-3552857D01*
X24213214Y-3552857D02*
X24237023Y-3581428D01*
X24237023Y-3581428D02*
X24284642Y-3610000D01*
X24284642Y-3610000D02*
X24356071Y-3610000D01*
X24356071Y-3610000D02*
X24403690Y-3581428D01*
X24403690Y-3581428D02*
X24427500Y-3552857D01*
X24427500Y-3552857D02*
X24451309Y-3495714D01*
X24451309Y-3495714D02*
X24451309Y-3267143D01*
X24451309Y-3267143D02*
X23951309Y-3267143D01*
X23951309Y-3267143D02*
X23951309Y-3467143D01*
X23951309Y-3467143D02*
X23975119Y-3524286D01*
X23975119Y-3524286D02*
X23998928Y-3552857D01*
X23998928Y-3552857D02*
X24046547Y-3581428D01*
X24046547Y-3581428D02*
X24094166Y-3581428D01*
X24094166Y-3581428D02*
X24141785Y-3552857D01*
X24141785Y-3552857D02*
X24165595Y-3524286D01*
X24165595Y-3524286D02*
X24189404Y-3467143D01*
X24189404Y-3467143D02*
X24189404Y-3267143D01*
X24451309Y-3895714D02*
X24451309Y-4010000D01*
X24451309Y-4010000D02*
X24427500Y-4067143D01*
X24427500Y-4067143D02*
X24403690Y-4095714D01*
X24403690Y-4095714D02*
X24332261Y-4152857D01*
X24332261Y-4152857D02*
X24237023Y-4181428D01*
X24237023Y-4181428D02*
X24046547Y-4181428D01*
X24046547Y-4181428D02*
X23998928Y-4152857D01*
X23998928Y-4152857D02*
X23975119Y-4124286D01*
X23975119Y-4124286D02*
X23951309Y-4067143D01*
X23951309Y-4067143D02*
X23951309Y-3952857D01*
X23951309Y-3952857D02*
X23975119Y-3895714D01*
X23975119Y-3895714D02*
X23998928Y-3867143D01*
X23998928Y-3867143D02*
X24046547Y-3838571D01*
X24046547Y-3838571D02*
X24165595Y-3838571D01*
X24165595Y-3838571D02*
X24213214Y-3867143D01*
X24213214Y-3867143D02*
X24237023Y-3895714D01*
X24237023Y-3895714D02*
X24260833Y-3952857D01*
X24260833Y-3952857D02*
X24260833Y-4067143D01*
X24260833Y-4067143D02*
X24237023Y-4124286D01*
X24237023Y-4124286D02*
X24213214Y-4152857D01*
X24213214Y-4152857D02*
X24165595Y-4181428D01*
X11615119Y2077143D02*
X11591309Y2134285D01*
X11591309Y2134285D02*
X11591309Y2220000D01*
X11591309Y2220000D02*
X11615119Y2305714D01*
X11615119Y2305714D02*
X11662738Y2362857D01*
X11662738Y2362857D02*
X11710357Y2391428D01*
X11710357Y2391428D02*
X11805595Y2420000D01*
X11805595Y2420000D02*
X11877023Y2420000D01*
X11877023Y2420000D02*
X11972261Y2391428D01*
X11972261Y2391428D02*
X12019880Y2362857D01*
X12019880Y2362857D02*
X12067500Y2305714D01*
X12067500Y2305714D02*
X12091309Y2220000D01*
X12091309Y2220000D02*
X12091309Y2162857D01*
X12091309Y2162857D02*
X12067500Y2077143D01*
X12067500Y2077143D02*
X12043690Y2048571D01*
X12043690Y2048571D02*
X11877023Y2048571D01*
X11877023Y2048571D02*
X11877023Y2162857D01*
X12091309Y1791428D02*
X11591309Y1791428D01*
X11591309Y1791428D02*
X12091309Y1448571D01*
X12091309Y1448571D02*
X11591309Y1448571D01*
X12091309Y1162857D02*
X11591309Y1162857D01*
X11591309Y1162857D02*
X11591309Y1020000D01*
X11591309Y1020000D02*
X11615119Y934286D01*
X11615119Y934286D02*
X11662738Y877143D01*
X11662738Y877143D02*
X11710357Y848572D01*
X11710357Y848572D02*
X11805595Y820000D01*
X11805595Y820000D02*
X11877023Y820000D01*
X11877023Y820000D02*
X11972261Y848572D01*
X11972261Y848572D02*
X12019880Y877143D01*
X12019880Y877143D02*
X12067500Y934286D01*
X12067500Y934286D02*
X12091309Y1020000D01*
X12091309Y1020000D02*
X12091309Y1162857D01*
X5123690Y-10444285D02*
X5147500Y-10415713D01*
X5147500Y-10415713D02*
X5171309Y-10329999D01*
X5171309Y-10329999D02*
X5171309Y-10272856D01*
X5171309Y-10272856D02*
X5147500Y-10187142D01*
X5147500Y-10187142D02*
X5099880Y-10129999D01*
X5099880Y-10129999D02*
X5052261Y-10101428D01*
X5052261Y-10101428D02*
X4957023Y-10072856D01*
X4957023Y-10072856D02*
X4885595Y-10072856D01*
X4885595Y-10072856D02*
X4790357Y-10101428D01*
X4790357Y-10101428D02*
X4742738Y-10129999D01*
X4742738Y-10129999D02*
X4695119Y-10187142D01*
X4695119Y-10187142D02*
X4671309Y-10272856D01*
X4671309Y-10272856D02*
X4671309Y-10329999D01*
X4671309Y-10329999D02*
X4695119Y-10415713D01*
X4695119Y-10415713D02*
X4718928Y-10444285D01*
X5171309Y-11015713D02*
X5171309Y-10672856D01*
X5171309Y-10844285D02*
X4671309Y-10844285D01*
X4671309Y-10844285D02*
X4742738Y-10787142D01*
X4742738Y-10787142D02*
X4790357Y-10729999D01*
X4790357Y-10729999D02*
X4814166Y-10672856D01*
X4718928Y-11244285D02*
X4695119Y-11272857D01*
X4695119Y-11272857D02*
X4671309Y-11330000D01*
X4671309Y-11330000D02*
X4671309Y-11472857D01*
X4671309Y-11472857D02*
X4695119Y-11530000D01*
X4695119Y-11530000D02*
X4718928Y-11558571D01*
X4718928Y-11558571D02*
X4766547Y-11587142D01*
X4766547Y-11587142D02*
X4814166Y-11587142D01*
X4814166Y-11587142D02*
X4885595Y-11558571D01*
X4885595Y-11558571D02*
X5171309Y-11215714D01*
X5171309Y-11215714D02*
X5171309Y-11587142D01*
X9361309Y2332858D02*
X9361309Y1961430D01*
X9361309Y1961430D02*
X9551785Y2161430D01*
X9551785Y2161430D02*
X9551785Y2075715D01*
X9551785Y2075715D02*
X9575595Y2018572D01*
X9575595Y2018572D02*
X9599404Y1990001D01*
X9599404Y1990001D02*
X9647023Y1961430D01*
X9647023Y1961430D02*
X9766071Y1961430D01*
X9766071Y1961430D02*
X9813690Y1990001D01*
X9813690Y1990001D02*
X9837500Y2018572D01*
X9837500Y2018572D02*
X9861309Y2075715D01*
X9861309Y2075715D02*
X9861309Y2247144D01*
X9861309Y2247144D02*
X9837500Y2304287D01*
X9837500Y2304287D02*
X9813690Y2332858D01*
X9361309Y1790001D02*
X9861309Y1590001D01*
X9861309Y1590001D02*
X9361309Y1390001D01*
X9361309Y1247143D02*
X9361309Y875715D01*
X9361309Y875715D02*
X9551785Y1075715D01*
X9551785Y1075715D02*
X9551785Y990000D01*
X9551785Y990000D02*
X9575595Y932857D01*
X9575595Y932857D02*
X9599404Y904286D01*
X9599404Y904286D02*
X9647023Y875715D01*
X9647023Y875715D02*
X9766071Y875715D01*
X9766071Y875715D02*
X9813690Y904286D01*
X9813690Y904286D02*
X9837500Y932857D01*
X9837500Y932857D02*
X9861309Y990000D01*
X9861309Y990000D02*
X9861309Y1161429D01*
X9861309Y1161429D02*
X9837500Y1218572D01*
X9837500Y1218572D02*
X9813690Y1247143D01*
X32157142Y-22455119D02*
X32214285Y-22431309D01*
X32214285Y-22431309D02*
X32299999Y-22431309D01*
X32299999Y-22431309D02*
X32385713Y-22455119D01*
X32385713Y-22455119D02*
X32442856Y-22502738D01*
X32442856Y-22502738D02*
X32471427Y-22550357D01*
X32471427Y-22550357D02*
X32499999Y-22645595D01*
X32499999Y-22645595D02*
X32499999Y-22717023D01*
X32499999Y-22717023D02*
X32471427Y-22812261D01*
X32471427Y-22812261D02*
X32442856Y-22859880D01*
X32442856Y-22859880D02*
X32385713Y-22907500D01*
X32385713Y-22907500D02*
X32299999Y-22931309D01*
X32299999Y-22931309D02*
X32242856Y-22931309D01*
X32242856Y-22931309D02*
X32157142Y-22907500D01*
X32157142Y-22907500D02*
X32128570Y-22883690D01*
X32128570Y-22883690D02*
X32128570Y-22717023D01*
X32128570Y-22717023D02*
X32242856Y-22717023D01*
X31871427Y-22931309D02*
X31871427Y-22431309D01*
X31871427Y-22431309D02*
X31528570Y-22931309D01*
X31528570Y-22931309D02*
X31528570Y-22431309D01*
X31242856Y-22931309D02*
X31242856Y-22431309D01*
X31242856Y-22431309D02*
X31099999Y-22431309D01*
X31099999Y-22431309D02*
X31014285Y-22455119D01*
X31014285Y-22455119D02*
X30957142Y-22502738D01*
X30957142Y-22502738D02*
X30928571Y-22550357D01*
X30928571Y-22550357D02*
X30899999Y-22645595D01*
X30899999Y-22645595D02*
X30899999Y-22717023D01*
X30899999Y-22717023D02*
X30928571Y-22812261D01*
X30928571Y-22812261D02*
X30957142Y-22859880D01*
X30957142Y-22859880D02*
X31014285Y-22907500D01*
X31014285Y-22907500D02*
X31099999Y-22931309D01*
X31099999Y-22931309D02*
X31242856Y-22931309D01*
X29484285Y-20819404D02*
X29284285Y-20819404D01*
X29198571Y-21081309D02*
X29484285Y-21081309D01*
X29484285Y-21081309D02*
X29484285Y-20581309D01*
X29484285Y-20581309D02*
X29198571Y-20581309D01*
X28627143Y-21081309D02*
X28970000Y-21081309D01*
X28798571Y-21081309D02*
X28798571Y-20581309D01*
X28798571Y-20581309D02*
X28855714Y-20652738D01*
X28855714Y-20652738D02*
X28912857Y-20700357D01*
X28912857Y-20700357D02*
X28970000Y-20724166D01*
X29504285Y-23489404D02*
X29304285Y-23489404D01*
X29218571Y-23751309D02*
X29504285Y-23751309D01*
X29504285Y-23751309D02*
X29504285Y-23251309D01*
X29504285Y-23251309D02*
X29218571Y-23251309D01*
X28847143Y-23251309D02*
X28790000Y-23251309D01*
X28790000Y-23251309D02*
X28732857Y-23275119D01*
X28732857Y-23275119D02*
X28704286Y-23298928D01*
X28704286Y-23298928D02*
X28675714Y-23346547D01*
X28675714Y-23346547D02*
X28647143Y-23441785D01*
X28647143Y-23441785D02*
X28647143Y-23560833D01*
X28647143Y-23560833D02*
X28675714Y-23656071D01*
X28675714Y-23656071D02*
X28704286Y-23703690D01*
X28704286Y-23703690D02*
X28732857Y-23727500D01*
X28732857Y-23727500D02*
X28790000Y-23751309D01*
X28790000Y-23751309D02*
X28847143Y-23751309D01*
X28847143Y-23751309D02*
X28904286Y-23727500D01*
X28904286Y-23727500D02*
X28932857Y-23703690D01*
X28932857Y-23703690D02*
X28961428Y-23656071D01*
X28961428Y-23656071D02*
X28990000Y-23560833D01*
X28990000Y-23560833D02*
X28990000Y-23441785D01*
X28990000Y-23441785D02*
X28961428Y-23346547D01*
X28961428Y-23346547D02*
X28932857Y-23298928D01*
X28932857Y-23298928D02*
X28904286Y-23275119D01*
X28904286Y-23275119D02*
X28847143Y-23251309D01*
X12551309Y-28257143D02*
X12051309Y-28257143D01*
X12051309Y-28257143D02*
X12051309Y-28400000D01*
X12051309Y-28400000D02*
X12075119Y-28485714D01*
X12075119Y-28485714D02*
X12122738Y-28542857D01*
X12122738Y-28542857D02*
X12170357Y-28571428D01*
X12170357Y-28571428D02*
X12265595Y-28600000D01*
X12265595Y-28600000D02*
X12337023Y-28600000D01*
X12337023Y-28600000D02*
X12432261Y-28571428D01*
X12432261Y-28571428D02*
X12479880Y-28542857D01*
X12479880Y-28542857D02*
X12527500Y-28485714D01*
X12527500Y-28485714D02*
X12551309Y-28400000D01*
X12551309Y-28400000D02*
X12551309Y-28257143D01*
X12051309Y-28800000D02*
X12051309Y-29171428D01*
X12051309Y-29171428D02*
X12241785Y-28971428D01*
X12241785Y-28971428D02*
X12241785Y-29057143D01*
X12241785Y-29057143D02*
X12265595Y-29114286D01*
X12265595Y-29114286D02*
X12289404Y-29142857D01*
X12289404Y-29142857D02*
X12337023Y-29171428D01*
X12337023Y-29171428D02*
X12456071Y-29171428D01*
X12456071Y-29171428D02*
X12503690Y-29142857D01*
X12503690Y-29142857D02*
X12527500Y-29114286D01*
X12527500Y-29114286D02*
X12551309Y-29057143D01*
X12551309Y-29057143D02*
X12551309Y-28885714D01*
X12551309Y-28885714D02*
X12527500Y-28828571D01*
X12527500Y-28828571D02*
X12503690Y-28800000D01*
X23248452Y-571428D02*
X23248452Y-857143D01*
X23391309Y-514285D02*
X22891309Y-714285D01*
X22891309Y-714285D02*
X23391309Y-914285D01*
X22938928Y-1085714D02*
X22915119Y-1114286D01*
X22915119Y-1114286D02*
X22891309Y-1171429D01*
X22891309Y-1171429D02*
X22891309Y-1314286D01*
X22891309Y-1314286D02*
X22915119Y-1371429D01*
X22915119Y-1371429D02*
X22938928Y-1400000D01*
X22938928Y-1400000D02*
X22986547Y-1428571D01*
X22986547Y-1428571D02*
X23034166Y-1428571D01*
X23034166Y-1428571D02*
X23105595Y-1400000D01*
X23105595Y-1400000D02*
X23391309Y-1057143D01*
X23391309Y-1057143D02*
X23391309Y-1428571D01*
X17419404Y-8241428D02*
X17443214Y-8327142D01*
X17443214Y-8327142D02*
X17467023Y-8355713D01*
X17467023Y-8355713D02*
X17514642Y-8384285D01*
X17514642Y-8384285D02*
X17586071Y-8384285D01*
X17586071Y-8384285D02*
X17633690Y-8355713D01*
X17633690Y-8355713D02*
X17657500Y-8327142D01*
X17657500Y-8327142D02*
X17681309Y-8269999D01*
X17681309Y-8269999D02*
X17681309Y-8041428D01*
X17681309Y-8041428D02*
X17181309Y-8041428D01*
X17181309Y-8041428D02*
X17181309Y-8241428D01*
X17181309Y-8241428D02*
X17205119Y-8298571D01*
X17205119Y-8298571D02*
X17228928Y-8327142D01*
X17228928Y-8327142D02*
X17276547Y-8355713D01*
X17276547Y-8355713D02*
X17324166Y-8355713D01*
X17324166Y-8355713D02*
X17371785Y-8327142D01*
X17371785Y-8327142D02*
X17395595Y-8298571D01*
X17395595Y-8298571D02*
X17419404Y-8241428D01*
X17419404Y-8241428D02*
X17419404Y-8041428D01*
X17681309Y-8955713D02*
X17681309Y-8612856D01*
X17681309Y-8784285D02*
X17181309Y-8784285D01*
X17181309Y-8784285D02*
X17252738Y-8727142D01*
X17252738Y-8727142D02*
X17300357Y-8669999D01*
X17300357Y-8669999D02*
X17324166Y-8612856D01*
X17681309Y-9527142D02*
X17681309Y-9184285D01*
X17681309Y-9355714D02*
X17181309Y-9355714D01*
X17181309Y-9355714D02*
X17252738Y-9298571D01*
X17252738Y-9298571D02*
X17300357Y-9241428D01*
X17300357Y-9241428D02*
X17324166Y-9184285D01*
X16623690Y-910000D02*
X16647500Y-881428D01*
X16647500Y-881428D02*
X16671309Y-795714D01*
X16671309Y-795714D02*
X16671309Y-738571D01*
X16671309Y-738571D02*
X16647500Y-652857D01*
X16647500Y-652857D02*
X16599880Y-595714D01*
X16599880Y-595714D02*
X16552261Y-567143D01*
X16552261Y-567143D02*
X16457023Y-538571D01*
X16457023Y-538571D02*
X16385595Y-538571D01*
X16385595Y-538571D02*
X16290357Y-567143D01*
X16290357Y-567143D02*
X16242738Y-595714D01*
X16242738Y-595714D02*
X16195119Y-652857D01*
X16195119Y-652857D02*
X16171309Y-738571D01*
X16171309Y-738571D02*
X16171309Y-795714D01*
X16171309Y-795714D02*
X16195119Y-881428D01*
X16195119Y-881428D02*
X16218928Y-910000D01*
X16218928Y-1138571D02*
X16195119Y-1167143D01*
X16195119Y-1167143D02*
X16171309Y-1224286D01*
X16171309Y-1224286D02*
X16171309Y-1367143D01*
X16171309Y-1367143D02*
X16195119Y-1424286D01*
X16195119Y-1424286D02*
X16218928Y-1452857D01*
X16218928Y-1452857D02*
X16266547Y-1481428D01*
X16266547Y-1481428D02*
X16314166Y-1481428D01*
X16314166Y-1481428D02*
X16385595Y-1452857D01*
X16385595Y-1452857D02*
X16671309Y-1110000D01*
X16671309Y-1110000D02*
X16671309Y-1481428D01*
X11239404Y-25667143D02*
X11263214Y-25752857D01*
X11263214Y-25752857D02*
X11287023Y-25781428D01*
X11287023Y-25781428D02*
X11334642Y-25810000D01*
X11334642Y-25810000D02*
X11406071Y-25810000D01*
X11406071Y-25810000D02*
X11453690Y-25781428D01*
X11453690Y-25781428D02*
X11477500Y-25752857D01*
X11477500Y-25752857D02*
X11501309Y-25695714D01*
X11501309Y-25695714D02*
X11501309Y-25467143D01*
X11501309Y-25467143D02*
X11001309Y-25467143D01*
X11001309Y-25467143D02*
X11001309Y-25667143D01*
X11001309Y-25667143D02*
X11025119Y-25724286D01*
X11025119Y-25724286D02*
X11048928Y-25752857D01*
X11048928Y-25752857D02*
X11096547Y-25781428D01*
X11096547Y-25781428D02*
X11144166Y-25781428D01*
X11144166Y-25781428D02*
X11191785Y-25752857D01*
X11191785Y-25752857D02*
X11215595Y-25724286D01*
X11215595Y-25724286D02*
X11239404Y-25667143D01*
X11239404Y-25667143D02*
X11239404Y-25467143D01*
X11167976Y-26324286D02*
X11501309Y-26324286D01*
X10977500Y-26181428D02*
X11334642Y-26038571D01*
X11334642Y-26038571D02*
X11334642Y-26410000D01*
X3157142Y-25805119D02*
X3214285Y-25781309D01*
X3214285Y-25781309D02*
X3299999Y-25781309D01*
X3299999Y-25781309D02*
X3385713Y-25805119D01*
X3385713Y-25805119D02*
X3442856Y-25852738D01*
X3442856Y-25852738D02*
X3471427Y-25900357D01*
X3471427Y-25900357D02*
X3499999Y-25995595D01*
X3499999Y-25995595D02*
X3499999Y-26067023D01*
X3499999Y-26067023D02*
X3471427Y-26162261D01*
X3471427Y-26162261D02*
X3442856Y-26209880D01*
X3442856Y-26209880D02*
X3385713Y-26257500D01*
X3385713Y-26257500D02*
X3299999Y-26281309D01*
X3299999Y-26281309D02*
X3242856Y-26281309D01*
X3242856Y-26281309D02*
X3157142Y-26257500D01*
X3157142Y-26257500D02*
X3128570Y-26233690D01*
X3128570Y-26233690D02*
X3128570Y-26067023D01*
X3128570Y-26067023D02*
X3242856Y-26067023D01*
X2871427Y-26281309D02*
X2871427Y-25781309D01*
X2871427Y-25781309D02*
X2528570Y-26281309D01*
X2528570Y-26281309D02*
X2528570Y-25781309D01*
X2242856Y-26281309D02*
X2242856Y-25781309D01*
X2242856Y-25781309D02*
X2099999Y-25781309D01*
X2099999Y-25781309D02*
X2014285Y-25805119D01*
X2014285Y-25805119D02*
X1957142Y-25852738D01*
X1957142Y-25852738D02*
X1928571Y-25900357D01*
X1928571Y-25900357D02*
X1899999Y-25995595D01*
X1899999Y-25995595D02*
X1899999Y-26067023D01*
X1899999Y-26067023D02*
X1928571Y-26162261D01*
X1928571Y-26162261D02*
X1957142Y-26209880D01*
X1957142Y-26209880D02*
X2014285Y-26257500D01*
X2014285Y-26257500D02*
X2099999Y-26281309D01*
X2099999Y-26281309D02*
X2242856Y-26281309D01*
X17641309Y-31585714D02*
X17641309Y-31300000D01*
X17641309Y-31300000D02*
X17879404Y-31271428D01*
X17879404Y-31271428D02*
X17855595Y-31300000D01*
X17855595Y-31300000D02*
X17831785Y-31357143D01*
X17831785Y-31357143D02*
X17831785Y-31500000D01*
X17831785Y-31500000D02*
X17855595Y-31557143D01*
X17855595Y-31557143D02*
X17879404Y-31585714D01*
X17879404Y-31585714D02*
X17927023Y-31614285D01*
X17927023Y-31614285D02*
X18046071Y-31614285D01*
X18046071Y-31614285D02*
X18093690Y-31585714D01*
X18093690Y-31585714D02*
X18117500Y-31557143D01*
X18117500Y-31557143D02*
X18141309Y-31500000D01*
X18141309Y-31500000D02*
X18141309Y-31357143D01*
X18141309Y-31357143D02*
X18117500Y-31300000D01*
X18117500Y-31300000D02*
X18093690Y-31271428D01*
X17641309Y-31785714D02*
X18141309Y-31985714D01*
X18141309Y-31985714D02*
X17641309Y-32185714D01*
X16709404Y-28407143D02*
X16733214Y-28492857D01*
X16733214Y-28492857D02*
X16757023Y-28521428D01*
X16757023Y-28521428D02*
X16804642Y-28550000D01*
X16804642Y-28550000D02*
X16876071Y-28550000D01*
X16876071Y-28550000D02*
X16923690Y-28521428D01*
X16923690Y-28521428D02*
X16947500Y-28492857D01*
X16947500Y-28492857D02*
X16971309Y-28435714D01*
X16971309Y-28435714D02*
X16971309Y-28207143D01*
X16971309Y-28207143D02*
X16471309Y-28207143D01*
X16471309Y-28207143D02*
X16471309Y-28407143D01*
X16471309Y-28407143D02*
X16495119Y-28464286D01*
X16495119Y-28464286D02*
X16518928Y-28492857D01*
X16518928Y-28492857D02*
X16566547Y-28521428D01*
X16566547Y-28521428D02*
X16614166Y-28521428D01*
X16614166Y-28521428D02*
X16661785Y-28492857D01*
X16661785Y-28492857D02*
X16685595Y-28464286D01*
X16685595Y-28464286D02*
X16709404Y-28407143D01*
X16709404Y-28407143D02*
X16709404Y-28207143D01*
X16471309Y-28750000D02*
X16471309Y-29150000D01*
X16471309Y-29150000D02*
X16971309Y-28892857D01*
X32442857Y-20581309D02*
X32071429Y-20581309D01*
X32071429Y-20581309D02*
X32271429Y-20771785D01*
X32271429Y-20771785D02*
X32185714Y-20771785D01*
X32185714Y-20771785D02*
X32128572Y-20795595D01*
X32128572Y-20795595D02*
X32100000Y-20819404D01*
X32100000Y-20819404D02*
X32071429Y-20867023D01*
X32071429Y-20867023D02*
X32071429Y-20986071D01*
X32071429Y-20986071D02*
X32100000Y-21033690D01*
X32100000Y-21033690D02*
X32128572Y-21057500D01*
X32128572Y-21057500D02*
X32185714Y-21081309D01*
X32185714Y-21081309D02*
X32357143Y-21081309D01*
X32357143Y-21081309D02*
X32414286Y-21057500D01*
X32414286Y-21057500D02*
X32442857Y-21033690D01*
X31900000Y-20581309D02*
X31700000Y-21081309D01*
X31700000Y-21081309D02*
X31500000Y-20581309D01*
X31357142Y-20581309D02*
X30985714Y-20581309D01*
X30985714Y-20581309D02*
X31185714Y-20771785D01*
X31185714Y-20771785D02*
X31099999Y-20771785D01*
X31099999Y-20771785D02*
X31042857Y-20795595D01*
X31042857Y-20795595D02*
X31014285Y-20819404D01*
X31014285Y-20819404D02*
X30985714Y-20867023D01*
X30985714Y-20867023D02*
X30985714Y-20986071D01*
X30985714Y-20986071D02*
X31014285Y-21033690D01*
X31014285Y-21033690D02*
X31042857Y-21057500D01*
X31042857Y-21057500D02*
X31099999Y-21081309D01*
X31099999Y-21081309D02*
X31271428Y-21081309D01*
X31271428Y-21081309D02*
X31328571Y-21057500D01*
X31328571Y-21057500D02*
X31357142Y-21033690D01*
X23579404Y-28405714D02*
X23579404Y-28605714D01*
X23841309Y-28691428D02*
X23841309Y-28405714D01*
X23841309Y-28405714D02*
X23341309Y-28405714D01*
X23341309Y-28405714D02*
X23341309Y-28691428D01*
X23341309Y-28891428D02*
X23341309Y-29262856D01*
X23341309Y-29262856D02*
X23531785Y-29062856D01*
X23531785Y-29062856D02*
X23531785Y-29148571D01*
X23531785Y-29148571D02*
X23555595Y-29205714D01*
X23555595Y-29205714D02*
X23579404Y-29234285D01*
X23579404Y-29234285D02*
X23627023Y-29262856D01*
X23627023Y-29262856D02*
X23746071Y-29262856D01*
X23746071Y-29262856D02*
X23793690Y-29234285D01*
X23793690Y-29234285D02*
X23817500Y-29205714D01*
X23817500Y-29205714D02*
X23841309Y-29148571D01*
X23841309Y-29148571D02*
X23841309Y-28977142D01*
X23841309Y-28977142D02*
X23817500Y-28919999D01*
X23817500Y-28919999D02*
X23793690Y-28891428D01*
X21269404Y-19985714D02*
X21269404Y-20185714D01*
X21531309Y-20271428D02*
X21531309Y-19985714D01*
X21531309Y-19985714D02*
X21031309Y-19985714D01*
X21031309Y-19985714D02*
X21031309Y-20271428D01*
X21031309Y-20785714D02*
X21031309Y-20671428D01*
X21031309Y-20671428D02*
X21055119Y-20614285D01*
X21055119Y-20614285D02*
X21078928Y-20585714D01*
X21078928Y-20585714D02*
X21150357Y-20528571D01*
X21150357Y-20528571D02*
X21245595Y-20499999D01*
X21245595Y-20499999D02*
X21436071Y-20499999D01*
X21436071Y-20499999D02*
X21483690Y-20528571D01*
X21483690Y-20528571D02*
X21507500Y-20557142D01*
X21507500Y-20557142D02*
X21531309Y-20614285D01*
X21531309Y-20614285D02*
X21531309Y-20728571D01*
X21531309Y-20728571D02*
X21507500Y-20785714D01*
X21507500Y-20785714D02*
X21483690Y-20814285D01*
X21483690Y-20814285D02*
X21436071Y-20842856D01*
X21436071Y-20842856D02*
X21317023Y-20842856D01*
X21317023Y-20842856D02*
X21269404Y-20814285D01*
X21269404Y-20814285D02*
X21245595Y-20785714D01*
X21245595Y-20785714D02*
X21221785Y-20728571D01*
X21221785Y-20728571D02*
X21221785Y-20614285D01*
X21221785Y-20614285D02*
X21245595Y-20557142D01*
X21245595Y-20557142D02*
X21269404Y-20528571D01*
X21269404Y-20528571D02*
X21317023Y-20499999D01*
X12213690Y-950000D02*
X12237500Y-921428D01*
X12237500Y-921428D02*
X12261309Y-835714D01*
X12261309Y-835714D02*
X12261309Y-778571D01*
X12261309Y-778571D02*
X12237500Y-692857D01*
X12237500Y-692857D02*
X12189880Y-635714D01*
X12189880Y-635714D02*
X12142261Y-607143D01*
X12142261Y-607143D02*
X12047023Y-578571D01*
X12047023Y-578571D02*
X11975595Y-578571D01*
X11975595Y-578571D02*
X11880357Y-607143D01*
X11880357Y-607143D02*
X11832738Y-635714D01*
X11832738Y-635714D02*
X11785119Y-692857D01*
X11785119Y-692857D02*
X11761309Y-778571D01*
X11761309Y-778571D02*
X11761309Y-835714D01*
X11761309Y-835714D02*
X11785119Y-921428D01*
X11785119Y-921428D02*
X11808928Y-950000D01*
X11927976Y-1464286D02*
X12261309Y-1464286D01*
X11737500Y-1321428D02*
X12094642Y-1178571D01*
X12094642Y-1178571D02*
X12094642Y-1550000D01*
X15955119Y2107143D02*
X15931309Y2164285D01*
X15931309Y2164285D02*
X15931309Y2250000D01*
X15931309Y2250000D02*
X15955119Y2335714D01*
X15955119Y2335714D02*
X16002738Y2392857D01*
X16002738Y2392857D02*
X16050357Y2421428D01*
X16050357Y2421428D02*
X16145595Y2450000D01*
X16145595Y2450000D02*
X16217023Y2450000D01*
X16217023Y2450000D02*
X16312261Y2421428D01*
X16312261Y2421428D02*
X16359880Y2392857D01*
X16359880Y2392857D02*
X16407500Y2335714D01*
X16407500Y2335714D02*
X16431309Y2250000D01*
X16431309Y2250000D02*
X16431309Y2192857D01*
X16431309Y2192857D02*
X16407500Y2107143D01*
X16407500Y2107143D02*
X16383690Y2078571D01*
X16383690Y2078571D02*
X16217023Y2078571D01*
X16217023Y2078571D02*
X16217023Y2192857D01*
X16431309Y1821428D02*
X15931309Y1821428D01*
X15931309Y1821428D02*
X16431309Y1478571D01*
X16431309Y1478571D02*
X15931309Y1478571D01*
X16431309Y1192857D02*
X15931309Y1192857D01*
X15931309Y1192857D02*
X15931309Y1050000D01*
X15931309Y1050000D02*
X15955119Y964286D01*
X15955119Y964286D02*
X16002738Y907143D01*
X16002738Y907143D02*
X16050357Y878572D01*
X16050357Y878572D02*
X16145595Y850000D01*
X16145595Y850000D02*
X16217023Y850000D01*
X16217023Y850000D02*
X16312261Y878572D01*
X16312261Y878572D02*
X16359880Y907143D01*
X16359880Y907143D02*
X16407500Y964286D01*
X16407500Y964286D02*
X16431309Y1050000D01*
X16431309Y1050000D02*
X16431309Y1192857D01*
X25757142Y-21105119D02*
X25814285Y-21081309D01*
X25814285Y-21081309D02*
X25899999Y-21081309D01*
X25899999Y-21081309D02*
X25985713Y-21105119D01*
X25985713Y-21105119D02*
X26042856Y-21152738D01*
X26042856Y-21152738D02*
X26071427Y-21200357D01*
X26071427Y-21200357D02*
X26099999Y-21295595D01*
X26099999Y-21295595D02*
X26099999Y-21367023D01*
X26099999Y-21367023D02*
X26071427Y-21462261D01*
X26071427Y-21462261D02*
X26042856Y-21509880D01*
X26042856Y-21509880D02*
X25985713Y-21557500D01*
X25985713Y-21557500D02*
X25899999Y-21581309D01*
X25899999Y-21581309D02*
X25842856Y-21581309D01*
X25842856Y-21581309D02*
X25757142Y-21557500D01*
X25757142Y-21557500D02*
X25728570Y-21533690D01*
X25728570Y-21533690D02*
X25728570Y-21367023D01*
X25728570Y-21367023D02*
X25842856Y-21367023D01*
X25471427Y-21581309D02*
X25471427Y-21081309D01*
X25471427Y-21081309D02*
X25128570Y-21581309D01*
X25128570Y-21581309D02*
X25128570Y-21081309D01*
X24842856Y-21581309D02*
X24842856Y-21081309D01*
X24842856Y-21081309D02*
X24699999Y-21081309D01*
X24699999Y-21081309D02*
X24614285Y-21105119D01*
X24614285Y-21105119D02*
X24557142Y-21152738D01*
X24557142Y-21152738D02*
X24528571Y-21200357D01*
X24528571Y-21200357D02*
X24499999Y-21295595D01*
X24499999Y-21295595D02*
X24499999Y-21367023D01*
X24499999Y-21367023D02*
X24528571Y-21462261D01*
X24528571Y-21462261D02*
X24557142Y-21509880D01*
X24557142Y-21509880D02*
X24614285Y-21557500D01*
X24614285Y-21557500D02*
X24699999Y-21581309D01*
X24699999Y-21581309D02*
X24842856Y-21581309D01*
X18969404Y-28377143D02*
X18993214Y-28462857D01*
X18993214Y-28462857D02*
X19017023Y-28491428D01*
X19017023Y-28491428D02*
X19064642Y-28520000D01*
X19064642Y-28520000D02*
X19136071Y-28520000D01*
X19136071Y-28520000D02*
X19183690Y-28491428D01*
X19183690Y-28491428D02*
X19207500Y-28462857D01*
X19207500Y-28462857D02*
X19231309Y-28405714D01*
X19231309Y-28405714D02*
X19231309Y-28177143D01*
X19231309Y-28177143D02*
X18731309Y-28177143D01*
X18731309Y-28177143D02*
X18731309Y-28377143D01*
X18731309Y-28377143D02*
X18755119Y-28434286D01*
X18755119Y-28434286D02*
X18778928Y-28462857D01*
X18778928Y-28462857D02*
X18826547Y-28491428D01*
X18826547Y-28491428D02*
X18874166Y-28491428D01*
X18874166Y-28491428D02*
X18921785Y-28462857D01*
X18921785Y-28462857D02*
X18945595Y-28434286D01*
X18945595Y-28434286D02*
X18969404Y-28377143D01*
X18969404Y-28377143D02*
X18969404Y-28177143D01*
X18731309Y-29034286D02*
X18731309Y-28920000D01*
X18731309Y-28920000D02*
X18755119Y-28862857D01*
X18755119Y-28862857D02*
X18778928Y-28834286D01*
X18778928Y-28834286D02*
X18850357Y-28777143D01*
X18850357Y-28777143D02*
X18945595Y-28748571D01*
X18945595Y-28748571D02*
X19136071Y-28748571D01*
X19136071Y-28748571D02*
X19183690Y-28777143D01*
X19183690Y-28777143D02*
X19207500Y-28805714D01*
X19207500Y-28805714D02*
X19231309Y-28862857D01*
X19231309Y-28862857D02*
X19231309Y-28977143D01*
X19231309Y-28977143D02*
X19207500Y-29034286D01*
X19207500Y-29034286D02*
X19183690Y-29062857D01*
X19183690Y-29062857D02*
X19136071Y-29091428D01*
X19136071Y-29091428D02*
X19017023Y-29091428D01*
X19017023Y-29091428D02*
X18969404Y-29062857D01*
X18969404Y-29062857D02*
X18945595Y-29034286D01*
X18945595Y-29034286D02*
X18921785Y-28977143D01*
X18921785Y-28977143D02*
X18921785Y-28862857D01*
X18921785Y-28862857D02*
X18945595Y-28805714D01*
X18945595Y-28805714D02*
X18969404Y-28777143D01*
X18969404Y-28777143D02*
X19017023Y-28748571D01*
X13029404Y-6150000D02*
X13029404Y-6350000D01*
X13291309Y-6435714D02*
X13291309Y-6150000D01*
X13291309Y-6150000D02*
X12791309Y-6150000D01*
X12791309Y-6150000D02*
X12791309Y-6435714D01*
X13291309Y-7007142D02*
X13291309Y-6664285D01*
X13291309Y-6835714D02*
X12791309Y-6835714D01*
X12791309Y-6835714D02*
X12862738Y-6778571D01*
X12862738Y-6778571D02*
X12910357Y-6721428D01*
X12910357Y-6721428D02*
X12934166Y-6664285D01*
X12791309Y-7378571D02*
X12791309Y-7435714D01*
X12791309Y-7435714D02*
X12815119Y-7492857D01*
X12815119Y-7492857D02*
X12838928Y-7521429D01*
X12838928Y-7521429D02*
X12886547Y-7550000D01*
X12886547Y-7550000D02*
X12981785Y-7578571D01*
X12981785Y-7578571D02*
X13100833Y-7578571D01*
X13100833Y-7578571D02*
X13196071Y-7550000D01*
X13196071Y-7550000D02*
X13243690Y-7521429D01*
X13243690Y-7521429D02*
X13267500Y-7492857D01*
X13267500Y-7492857D02*
X13291309Y-7435714D01*
X13291309Y-7435714D02*
X13291309Y-7378571D01*
X13291309Y-7378571D02*
X13267500Y-7321429D01*
X13267500Y-7321429D02*
X13243690Y-7292857D01*
X13243690Y-7292857D02*
X13196071Y-7264286D01*
X13196071Y-7264286D02*
X13100833Y-7235714D01*
X13100833Y-7235714D02*
X12981785Y-7235714D01*
X12981785Y-7235714D02*
X12886547Y-7264286D01*
X12886547Y-7264286D02*
X12838928Y-7292857D01*
X12838928Y-7292857D02*
X12815119Y-7321429D01*
X12815119Y-7321429D02*
X12791309Y-7378571D01*
X9103690Y-10534285D02*
X9127500Y-10505713D01*
X9127500Y-10505713D02*
X9151309Y-10419999D01*
X9151309Y-10419999D02*
X9151309Y-10362856D01*
X9151309Y-10362856D02*
X9127500Y-10277142D01*
X9127500Y-10277142D02*
X9079880Y-10219999D01*
X9079880Y-10219999D02*
X9032261Y-10191428D01*
X9032261Y-10191428D02*
X8937023Y-10162856D01*
X8937023Y-10162856D02*
X8865595Y-10162856D01*
X8865595Y-10162856D02*
X8770357Y-10191428D01*
X8770357Y-10191428D02*
X8722738Y-10219999D01*
X8722738Y-10219999D02*
X8675119Y-10277142D01*
X8675119Y-10277142D02*
X8651309Y-10362856D01*
X8651309Y-10362856D02*
X8651309Y-10419999D01*
X8651309Y-10419999D02*
X8675119Y-10505713D01*
X8675119Y-10505713D02*
X8698928Y-10534285D01*
X9151309Y-11105713D02*
X9151309Y-10762856D01*
X9151309Y-10934285D02*
X8651309Y-10934285D01*
X8651309Y-10934285D02*
X8722738Y-10877142D01*
X8722738Y-10877142D02*
X8770357Y-10819999D01*
X8770357Y-10819999D02*
X8794166Y-10762856D01*
X8651309Y-11477142D02*
X8651309Y-11534285D01*
X8651309Y-11534285D02*
X8675119Y-11591428D01*
X8675119Y-11591428D02*
X8698928Y-11620000D01*
X8698928Y-11620000D02*
X8746547Y-11648571D01*
X8746547Y-11648571D02*
X8841785Y-11677142D01*
X8841785Y-11677142D02*
X8960833Y-11677142D01*
X8960833Y-11677142D02*
X9056071Y-11648571D01*
X9056071Y-11648571D02*
X9103690Y-11620000D01*
X9103690Y-11620000D02*
X9127500Y-11591428D01*
X9127500Y-11591428D02*
X9151309Y-11534285D01*
X9151309Y-11534285D02*
X9151309Y-11477142D01*
X9151309Y-11477142D02*
X9127500Y-11420000D01*
X9127500Y-11420000D02*
X9103690Y-11391428D01*
X9103690Y-11391428D02*
X9056071Y-11362857D01*
X9056071Y-11362857D02*
X8960833Y-11334285D01*
X8960833Y-11334285D02*
X8841785Y-11334285D01*
X8841785Y-11334285D02*
X8746547Y-11362857D01*
X8746547Y-11362857D02*
X8698928Y-11391428D01*
X8698928Y-11391428D02*
X8675119Y-11420000D01*
X8675119Y-11420000D02*
X8651309Y-11477142D01*
X4981309Y1764286D02*
X4981309Y2050000D01*
X4981309Y2050000D02*
X5219404Y2078572D01*
X5219404Y2078572D02*
X5195595Y2050000D01*
X5195595Y2050000D02*
X5171785Y1992857D01*
X5171785Y1992857D02*
X5171785Y1850000D01*
X5171785Y1850000D02*
X5195595Y1792857D01*
X5195595Y1792857D02*
X5219404Y1764286D01*
X5219404Y1764286D02*
X5267023Y1735715D01*
X5267023Y1735715D02*
X5386071Y1735715D01*
X5386071Y1735715D02*
X5433690Y1764286D01*
X5433690Y1764286D02*
X5457500Y1792857D01*
X5457500Y1792857D02*
X5481309Y1850000D01*
X5481309Y1850000D02*
X5481309Y1992857D01*
X5481309Y1992857D02*
X5457500Y2050000D01*
X5457500Y2050000D02*
X5433690Y2078572D01*
X4981309Y1564286D02*
X5481309Y1364286D01*
X5481309Y1364286D02*
X4981309Y1164286D01*
X7081309Y-25211428D02*
X6581309Y-25211428D01*
X6581309Y-25211428D02*
X6581309Y-25354285D01*
X6581309Y-25354285D02*
X6605119Y-25439999D01*
X6605119Y-25439999D02*
X6652738Y-25497142D01*
X6652738Y-25497142D02*
X6700357Y-25525713D01*
X6700357Y-25525713D02*
X6795595Y-25554285D01*
X6795595Y-25554285D02*
X6867023Y-25554285D01*
X6867023Y-25554285D02*
X6962261Y-25525713D01*
X6962261Y-25525713D02*
X7009880Y-25497142D01*
X7009880Y-25497142D02*
X7057500Y-25439999D01*
X7057500Y-25439999D02*
X7081309Y-25354285D01*
X7081309Y-25354285D02*
X7081309Y-25211428D01*
X7081309Y-26125713D02*
X7081309Y-25782856D01*
X7081309Y-25954285D02*
X6581309Y-25954285D01*
X6581309Y-25954285D02*
X6652738Y-25897142D01*
X6652738Y-25897142D02*
X6700357Y-25839999D01*
X6700357Y-25839999D02*
X6724166Y-25782856D01*
X6628928Y-26354285D02*
X6605119Y-26382857D01*
X6605119Y-26382857D02*
X6581309Y-26440000D01*
X6581309Y-26440000D02*
X6581309Y-26582857D01*
X6581309Y-26582857D02*
X6605119Y-26640000D01*
X6605119Y-26640000D02*
X6628928Y-26668571D01*
X6628928Y-26668571D02*
X6676547Y-26697142D01*
X6676547Y-26697142D02*
X6724166Y-26697142D01*
X6724166Y-26697142D02*
X6795595Y-26668571D01*
X6795595Y-26668571D02*
X7081309Y-26325714D01*
X7081309Y-26325714D02*
X7081309Y-26697142D01*
X13781309Y1764286D02*
X13781309Y2050000D01*
X13781309Y2050000D02*
X14019404Y2078572D01*
X14019404Y2078572D02*
X13995595Y2050000D01*
X13995595Y2050000D02*
X13971785Y1992857D01*
X13971785Y1992857D02*
X13971785Y1850000D01*
X13971785Y1850000D02*
X13995595Y1792857D01*
X13995595Y1792857D02*
X14019404Y1764286D01*
X14019404Y1764286D02*
X14067023Y1735715D01*
X14067023Y1735715D02*
X14186071Y1735715D01*
X14186071Y1735715D02*
X14233690Y1764286D01*
X14233690Y1764286D02*
X14257500Y1792857D01*
X14257500Y1792857D02*
X14281309Y1850000D01*
X14281309Y1850000D02*
X14281309Y1992857D01*
X14281309Y1992857D02*
X14257500Y2050000D01*
X14257500Y2050000D02*
X14233690Y2078572D01*
X13781309Y1564286D02*
X14281309Y1364286D01*
X14281309Y1364286D02*
X13781309Y1164286D01*
X-1661429Y-25098452D02*
X-1947143Y-25098452D01*
X-1604286Y-25241309D02*
X-1804286Y-24741309D01*
X-1804286Y-24741309D02*
X-2004286Y-25241309D01*
X-2290001Y-24955595D02*
X-2232858Y-24931785D01*
X-2232858Y-24931785D02*
X-2204287Y-24907976D01*
X-2204287Y-24907976D02*
X-2175715Y-24860357D01*
X-2175715Y-24860357D02*
X-2175715Y-24836547D01*
X-2175715Y-24836547D02*
X-2204287Y-24788928D01*
X-2204287Y-24788928D02*
X-2232858Y-24765119D01*
X-2232858Y-24765119D02*
X-2290001Y-24741309D01*
X-2290001Y-24741309D02*
X-2404287Y-24741309D01*
X-2404287Y-24741309D02*
X-2461429Y-24765119D01*
X-2461429Y-24765119D02*
X-2490001Y-24788928D01*
X-2490001Y-24788928D02*
X-2518572Y-24836547D01*
X-2518572Y-24836547D02*
X-2518572Y-24860357D01*
X-2518572Y-24860357D02*
X-2490001Y-24907976D01*
X-2490001Y-24907976D02*
X-2461429Y-24931785D01*
X-2461429Y-24931785D02*
X-2404287Y-24955595D01*
X-2404287Y-24955595D02*
X-2290001Y-24955595D01*
X-2290001Y-24955595D02*
X-2232858Y-24979404D01*
X-2232858Y-24979404D02*
X-2204287Y-25003214D01*
X-2204287Y-25003214D02*
X-2175715Y-25050833D01*
X-2175715Y-25050833D02*
X-2175715Y-25146071D01*
X-2175715Y-25146071D02*
X-2204287Y-25193690D01*
X-2204287Y-25193690D02*
X-2232858Y-25217500D01*
X-2232858Y-25217500D02*
X-2290001Y-25241309D01*
X-2290001Y-25241309D02*
X-2404287Y-25241309D01*
X-2404287Y-25241309D02*
X-2461429Y-25217500D01*
X-2461429Y-25217500D02*
X-2490001Y-25193690D01*
X-2490001Y-25193690D02*
X-2518572Y-25146071D01*
X-2518572Y-25146071D02*
X-2518572Y-25050833D01*
X-2518572Y-25050833D02*
X-2490001Y-25003214D01*
X-2490001Y-25003214D02*
X-2461429Y-24979404D01*
X-2461429Y-24979404D02*
X-2404287Y-24955595D01*
X12222619Y-31083690D02*
X12246428Y-31107500D01*
X12246428Y-31107500D02*
X12317857Y-31131309D01*
X12317857Y-31131309D02*
X12365476Y-31131309D01*
X12365476Y-31131309D02*
X12436904Y-31107500D01*
X12436904Y-31107500D02*
X12484523Y-31059880D01*
X12484523Y-31059880D02*
X12508333Y-31012261D01*
X12508333Y-31012261D02*
X12532142Y-30917023D01*
X12532142Y-30917023D02*
X12532142Y-30845595D01*
X12532142Y-30845595D02*
X12508333Y-30750357D01*
X12508333Y-30750357D02*
X12484523Y-30702738D01*
X12484523Y-30702738D02*
X12436904Y-30655119D01*
X12436904Y-30655119D02*
X12365476Y-30631309D01*
X12365476Y-30631309D02*
X12317857Y-30631309D01*
X12317857Y-30631309D02*
X12246428Y-30655119D01*
X12246428Y-30655119D02*
X12222619Y-30678928D01*
X11770238Y-31131309D02*
X12008333Y-31131309D01*
X12008333Y-31131309D02*
X12008333Y-30631309D01*
X11603571Y-31131309D02*
X11603571Y-30631309D01*
X11317857Y-31131309D02*
X11532142Y-30845595D01*
X11317857Y-30631309D02*
X11603571Y-30917023D01*
X5532856Y-23101309D02*
X5532856Y-22601309D01*
X5532856Y-22601309D02*
X5389999Y-22601309D01*
X5389999Y-22601309D02*
X5304285Y-22625119D01*
X5304285Y-22625119D02*
X5247142Y-22672738D01*
X5247142Y-22672738D02*
X5218571Y-22720357D01*
X5218571Y-22720357D02*
X5189999Y-22815595D01*
X5189999Y-22815595D02*
X5189999Y-22887023D01*
X5189999Y-22887023D02*
X5218571Y-22982261D01*
X5218571Y-22982261D02*
X5247142Y-23029880D01*
X5247142Y-23029880D02*
X5304285Y-23077500D01*
X5304285Y-23077500D02*
X5389999Y-23101309D01*
X5389999Y-23101309D02*
X5532856Y-23101309D01*
X4961428Y-22648928D02*
X4932856Y-22625119D01*
X4932856Y-22625119D02*
X4875714Y-22601309D01*
X4875714Y-22601309D02*
X4732856Y-22601309D01*
X4732856Y-22601309D02*
X4675714Y-22625119D01*
X4675714Y-22625119D02*
X4647142Y-22648928D01*
X4647142Y-22648928D02*
X4618571Y-22696547D01*
X4618571Y-22696547D02*
X4618571Y-22744166D01*
X4618571Y-22744166D02*
X4647142Y-22815595D01*
X4647142Y-22815595D02*
X4989999Y-23101309D01*
X4989999Y-23101309D02*
X4618571Y-23101309D01*
X14469404Y-28407143D02*
X14493214Y-28492857D01*
X14493214Y-28492857D02*
X14517023Y-28521428D01*
X14517023Y-28521428D02*
X14564642Y-28550000D01*
X14564642Y-28550000D02*
X14636071Y-28550000D01*
X14636071Y-28550000D02*
X14683690Y-28521428D01*
X14683690Y-28521428D02*
X14707500Y-28492857D01*
X14707500Y-28492857D02*
X14731309Y-28435714D01*
X14731309Y-28435714D02*
X14731309Y-28207143D01*
X14731309Y-28207143D02*
X14231309Y-28207143D01*
X14231309Y-28207143D02*
X14231309Y-28407143D01*
X14231309Y-28407143D02*
X14255119Y-28464286D01*
X14255119Y-28464286D02*
X14278928Y-28492857D01*
X14278928Y-28492857D02*
X14326547Y-28521428D01*
X14326547Y-28521428D02*
X14374166Y-28521428D01*
X14374166Y-28521428D02*
X14421785Y-28492857D01*
X14421785Y-28492857D02*
X14445595Y-28464286D01*
X14445595Y-28464286D02*
X14469404Y-28407143D01*
X14469404Y-28407143D02*
X14469404Y-28207143D01*
X14231309Y-28750000D02*
X14231309Y-29121428D01*
X14231309Y-29121428D02*
X14421785Y-28921428D01*
X14421785Y-28921428D02*
X14421785Y-29007143D01*
X14421785Y-29007143D02*
X14445595Y-29064286D01*
X14445595Y-29064286D02*
X14469404Y-29092857D01*
X14469404Y-29092857D02*
X14517023Y-29121428D01*
X14517023Y-29121428D02*
X14636071Y-29121428D01*
X14636071Y-29121428D02*
X14683690Y-29092857D01*
X14683690Y-29092857D02*
X14707500Y-29064286D01*
X14707500Y-29064286D02*
X14731309Y-29007143D01*
X14731309Y-29007143D02*
X14731309Y-28835714D01*
X14731309Y-28835714D02*
X14707500Y-28778571D01*
X14707500Y-28778571D02*
X14683690Y-28750000D01*
X18728452Y-611428D02*
X18728452Y-897143D01*
X18871309Y-554285D02*
X18371309Y-754285D01*
X18371309Y-754285D02*
X18871309Y-954285D01*
X18371309Y-1411429D02*
X18371309Y-1297143D01*
X18371309Y-1297143D02*
X18395119Y-1240000D01*
X18395119Y-1240000D02*
X18418928Y-1211429D01*
X18418928Y-1211429D02*
X18490357Y-1154286D01*
X18490357Y-1154286D02*
X18585595Y-1125714D01*
X18585595Y-1125714D02*
X18776071Y-1125714D01*
X18776071Y-1125714D02*
X18823690Y-1154286D01*
X18823690Y-1154286D02*
X18847500Y-1182857D01*
X18847500Y-1182857D02*
X18871309Y-1240000D01*
X18871309Y-1240000D02*
X18871309Y-1354286D01*
X18871309Y-1354286D02*
X18847500Y-1411429D01*
X18847500Y-1411429D02*
X18823690Y-1440000D01*
X18823690Y-1440000D02*
X18776071Y-1468571D01*
X18776071Y-1468571D02*
X18657023Y-1468571D01*
X18657023Y-1468571D02*
X18609404Y-1440000D01*
X18609404Y-1440000D02*
X18585595Y-1411429D01*
X18585595Y-1411429D02*
X18561785Y-1354286D01*
X18561785Y-1354286D02*
X18561785Y-1240000D01*
X18561785Y-1240000D02*
X18585595Y-1182857D01*
X18585595Y-1182857D02*
X18609404Y-1154286D01*
X18609404Y-1154286D02*
X18657023Y-1125714D01*
X9680952Y-30630119D02*
X9728571Y-30606309D01*
X9728571Y-30606309D02*
X9800000Y-30606309D01*
X9800000Y-30606309D02*
X9871428Y-30630119D01*
X9871428Y-30630119D02*
X9919047Y-30677738D01*
X9919047Y-30677738D02*
X9942857Y-30725357D01*
X9942857Y-30725357D02*
X9966666Y-30820595D01*
X9966666Y-30820595D02*
X9966666Y-30892023D01*
X9966666Y-30892023D02*
X9942857Y-30987261D01*
X9942857Y-30987261D02*
X9919047Y-31034880D01*
X9919047Y-31034880D02*
X9871428Y-31082500D01*
X9871428Y-31082500D02*
X9800000Y-31106309D01*
X9800000Y-31106309D02*
X9752381Y-31106309D01*
X9752381Y-31106309D02*
X9680952Y-31082500D01*
X9680952Y-31082500D02*
X9657143Y-31058690D01*
X9657143Y-31058690D02*
X9657143Y-30892023D01*
X9657143Y-30892023D02*
X9752381Y-30892023D01*
X9442857Y-31106309D02*
X9442857Y-30606309D01*
X9442857Y-30606309D02*
X9157143Y-31106309D01*
X9157143Y-31106309D02*
X9157143Y-30606309D01*
X8919047Y-31106309D02*
X8919047Y-30606309D01*
X8919047Y-30606309D02*
X8799999Y-30606309D01*
X8799999Y-30606309D02*
X8728571Y-30630119D01*
X8728571Y-30630119D02*
X8680952Y-30677738D01*
X8680952Y-30677738D02*
X8657142Y-30725357D01*
X8657142Y-30725357D02*
X8633333Y-30820595D01*
X8633333Y-30820595D02*
X8633333Y-30892023D01*
X8633333Y-30892023D02*
X8657142Y-30987261D01*
X8657142Y-30987261D02*
X8680952Y-31034880D01*
X8680952Y-31034880D02*
X8728571Y-31082500D01*
X8728571Y-31082500D02*
X8799999Y-31106309D01*
X8799999Y-31106309D02*
X8919047Y-31106309D01*
X-995714Y-23508452D02*
X-1281428Y-23508452D01*
X-938571Y-23651309D02*
X-1138571Y-23151309D01*
X-1138571Y-23151309D02*
X-1338571Y-23651309D01*
X-1852857Y-23651309D02*
X-1510000Y-23651309D01*
X-1681429Y-23651309D02*
X-1681429Y-23151309D01*
X-1681429Y-23151309D02*
X-1624286Y-23222738D01*
X-1624286Y-23222738D02*
X-1567143Y-23270357D01*
X-1567143Y-23270357D02*
X-1510000Y-23294166D01*
X-2224286Y-23151309D02*
X-2281429Y-23151309D01*
X-2281429Y-23151309D02*
X-2338572Y-23175119D01*
X-2338572Y-23175119D02*
X-2367143Y-23198928D01*
X-2367143Y-23198928D02*
X-2395715Y-23246547D01*
X-2395715Y-23246547D02*
X-2424286Y-23341785D01*
X-2424286Y-23341785D02*
X-2424286Y-23460833D01*
X-2424286Y-23460833D02*
X-2395715Y-23556071D01*
X-2395715Y-23556071D02*
X-2367143Y-23603690D01*
X-2367143Y-23603690D02*
X-2338572Y-23627500D01*
X-2338572Y-23627500D02*
X-2281429Y-23651309D01*
X-2281429Y-23651309D02*
X-2224286Y-23651309D01*
X-2224286Y-23651309D02*
X-2167143Y-23627500D01*
X-2167143Y-23627500D02*
X-2138572Y-23603690D01*
X-2138572Y-23603690D02*
X-2110001Y-23556071D01*
X-2110001Y-23556071D02*
X-2081429Y-23460833D01*
X-2081429Y-23460833D02*
X-2081429Y-23341785D01*
X-2081429Y-23341785D02*
X-2110001Y-23246547D01*
X-2110001Y-23246547D02*
X-2138572Y-23198928D01*
X-2138572Y-23198928D02*
X-2167143Y-23175119D01*
X-2167143Y-23175119D02*
X-2224286Y-23151309D01*
X14443690Y-890000D02*
X14467500Y-861428D01*
X14467500Y-861428D02*
X14491309Y-775714D01*
X14491309Y-775714D02*
X14491309Y-718571D01*
X14491309Y-718571D02*
X14467500Y-632857D01*
X14467500Y-632857D02*
X14419880Y-575714D01*
X14419880Y-575714D02*
X14372261Y-547143D01*
X14372261Y-547143D02*
X14277023Y-518571D01*
X14277023Y-518571D02*
X14205595Y-518571D01*
X14205595Y-518571D02*
X14110357Y-547143D01*
X14110357Y-547143D02*
X14062738Y-575714D01*
X14062738Y-575714D02*
X14015119Y-632857D01*
X14015119Y-632857D02*
X13991309Y-718571D01*
X13991309Y-718571D02*
X13991309Y-775714D01*
X13991309Y-775714D02*
X14015119Y-861428D01*
X14015119Y-861428D02*
X14038928Y-890000D01*
X13991309Y-1090000D02*
X13991309Y-1461428D01*
X13991309Y-1461428D02*
X14181785Y-1261428D01*
X14181785Y-1261428D02*
X14181785Y-1347143D01*
X14181785Y-1347143D02*
X14205595Y-1404286D01*
X14205595Y-1404286D02*
X14229404Y-1432857D01*
X14229404Y-1432857D02*
X14277023Y-1461428D01*
X14277023Y-1461428D02*
X14396071Y-1461428D01*
X14396071Y-1461428D02*
X14443690Y-1432857D01*
X14443690Y-1432857D02*
X14467500Y-1404286D01*
X14467500Y-1404286D02*
X14491309Y-1347143D01*
X14491309Y-1347143D02*
X14491309Y-1175714D01*
X14491309Y-1175714D02*
X14467500Y-1118571D01*
X14467500Y-1118571D02*
X14443690Y-1090000D01*
X9311309Y-25377143D02*
X8811309Y-25377143D01*
X8811309Y-25377143D02*
X8811309Y-25520000D01*
X8811309Y-25520000D02*
X8835119Y-25605714D01*
X8835119Y-25605714D02*
X8882738Y-25662857D01*
X8882738Y-25662857D02*
X8930357Y-25691428D01*
X8930357Y-25691428D02*
X9025595Y-25720000D01*
X9025595Y-25720000D02*
X9097023Y-25720000D01*
X9097023Y-25720000D02*
X9192261Y-25691428D01*
X9192261Y-25691428D02*
X9239880Y-25662857D01*
X9239880Y-25662857D02*
X9287500Y-25605714D01*
X9287500Y-25605714D02*
X9311309Y-25520000D01*
X9311309Y-25520000D02*
X9311309Y-25377143D01*
X8811309Y-26091428D02*
X8811309Y-26148571D01*
X8811309Y-26148571D02*
X8835119Y-26205714D01*
X8835119Y-26205714D02*
X8858928Y-26234286D01*
X8858928Y-26234286D02*
X8906547Y-26262857D01*
X8906547Y-26262857D02*
X9001785Y-26291428D01*
X9001785Y-26291428D02*
X9120833Y-26291428D01*
X9120833Y-26291428D02*
X9216071Y-26262857D01*
X9216071Y-26262857D02*
X9263690Y-26234286D01*
X9263690Y-26234286D02*
X9287500Y-26205714D01*
X9287500Y-26205714D02*
X9311309Y-26148571D01*
X9311309Y-26148571D02*
X9311309Y-26091428D01*
X9311309Y-26091428D02*
X9287500Y-26034286D01*
X9287500Y-26034286D02*
X9263690Y-26005714D01*
X9263690Y-26005714D02*
X9216071Y-25977143D01*
X9216071Y-25977143D02*
X9120833Y-25948571D01*
X9120833Y-25948571D02*
X9001785Y-25948571D01*
X9001785Y-25948571D02*
X8906547Y-25977143D01*
X8906547Y-25977143D02*
X8858928Y-26005714D01*
X8858928Y-26005714D02*
X8835119Y-26034286D01*
X8835119Y-26034286D02*
X8811309Y-26091428D01*
X18969404Y-22235714D02*
X18969404Y-22435714D01*
X19231309Y-22521428D02*
X19231309Y-22235714D01*
X19231309Y-22235714D02*
X18731309Y-22235714D01*
X18731309Y-22235714D02*
X18731309Y-22521428D01*
X18897976Y-23035714D02*
X19231309Y-23035714D01*
X18707500Y-22892856D02*
X19064642Y-22749999D01*
X19064642Y-22749999D02*
X19064642Y-23121428D01*
X19895119Y-31272857D02*
X19871309Y-31215715D01*
X19871309Y-31215715D02*
X19871309Y-31130000D01*
X19871309Y-31130000D02*
X19895119Y-31044286D01*
X19895119Y-31044286D02*
X19942738Y-30987143D01*
X19942738Y-30987143D02*
X19990357Y-30958572D01*
X19990357Y-30958572D02*
X20085595Y-30930000D01*
X20085595Y-30930000D02*
X20157023Y-30930000D01*
X20157023Y-30930000D02*
X20252261Y-30958572D01*
X20252261Y-30958572D02*
X20299880Y-30987143D01*
X20299880Y-30987143D02*
X20347500Y-31044286D01*
X20347500Y-31044286D02*
X20371309Y-31130000D01*
X20371309Y-31130000D02*
X20371309Y-31187143D01*
X20371309Y-31187143D02*
X20347500Y-31272857D01*
X20347500Y-31272857D02*
X20323690Y-31301429D01*
X20323690Y-31301429D02*
X20157023Y-31301429D01*
X20157023Y-31301429D02*
X20157023Y-31187143D01*
X20371309Y-31558572D02*
X19871309Y-31558572D01*
X19871309Y-31558572D02*
X20371309Y-31901429D01*
X20371309Y-31901429D02*
X19871309Y-31901429D01*
X20371309Y-32187143D02*
X19871309Y-32187143D01*
X19871309Y-32187143D02*
X19871309Y-32330000D01*
X19871309Y-32330000D02*
X19895119Y-32415714D01*
X19895119Y-32415714D02*
X19942738Y-32472857D01*
X19942738Y-32472857D02*
X19990357Y-32501428D01*
X19990357Y-32501428D02*
X20085595Y-32530000D01*
X20085595Y-32530000D02*
X20157023Y-32530000D01*
X20157023Y-32530000D02*
X20252261Y-32501428D01*
X20252261Y-32501428D02*
X20299880Y-32472857D01*
X20299880Y-32472857D02*
X20347500Y-32415714D01*
X20347500Y-32415714D02*
X20371309Y-32330000D01*
X20371309Y-32330000D02*
X20371309Y-32187143D01*
X22521309Y-31298570D02*
X22521309Y-30955713D01*
X22521309Y-31127142D02*
X22021309Y-31127142D01*
X22021309Y-31127142D02*
X22092738Y-31069999D01*
X22092738Y-31069999D02*
X22140357Y-31012856D01*
X22140357Y-31012856D02*
X22164166Y-30955713D01*
X22021309Y-31669999D02*
X22021309Y-31727142D01*
X22021309Y-31727142D02*
X22045119Y-31784285D01*
X22045119Y-31784285D02*
X22068928Y-31812857D01*
X22068928Y-31812857D02*
X22116547Y-31841428D01*
X22116547Y-31841428D02*
X22211785Y-31869999D01*
X22211785Y-31869999D02*
X22330833Y-31869999D01*
X22330833Y-31869999D02*
X22426071Y-31841428D01*
X22426071Y-31841428D02*
X22473690Y-31812857D01*
X22473690Y-31812857D02*
X22497500Y-31784285D01*
X22497500Y-31784285D02*
X22521309Y-31727142D01*
X22521309Y-31727142D02*
X22521309Y-31669999D01*
X22521309Y-31669999D02*
X22497500Y-31612857D01*
X22497500Y-31612857D02*
X22473690Y-31584285D01*
X22473690Y-31584285D02*
X22426071Y-31555714D01*
X22426071Y-31555714D02*
X22330833Y-31527142D01*
X22330833Y-31527142D02*
X22211785Y-31527142D01*
X22211785Y-31527142D02*
X22116547Y-31555714D01*
X22116547Y-31555714D02*
X22068928Y-31584285D01*
X22068928Y-31584285D02*
X22045119Y-31612857D01*
X22045119Y-31612857D02*
X22021309Y-31669999D01*
X22021309Y-32041428D02*
X22521309Y-32241428D01*
X22521309Y-32241428D02*
X22021309Y-32441428D01*
X28625714Y-12593690D02*
X28654286Y-12617500D01*
X28654286Y-12617500D02*
X28740000Y-12641309D01*
X28740000Y-12641309D02*
X28797143Y-12641309D01*
X28797143Y-12641309D02*
X28882857Y-12617500D01*
X28882857Y-12617500D02*
X28940000Y-12569880D01*
X28940000Y-12569880D02*
X28968571Y-12522261D01*
X28968571Y-12522261D02*
X28997143Y-12427023D01*
X28997143Y-12427023D02*
X28997143Y-12355595D01*
X28997143Y-12355595D02*
X28968571Y-12260357D01*
X28968571Y-12260357D02*
X28940000Y-12212738D01*
X28940000Y-12212738D02*
X28882857Y-12165119D01*
X28882857Y-12165119D02*
X28797143Y-12141309D01*
X28797143Y-12141309D02*
X28740000Y-12141309D01*
X28740000Y-12141309D02*
X28654286Y-12165119D01*
X28654286Y-12165119D02*
X28625714Y-12188928D01*
X28054286Y-12641309D02*
X28397143Y-12641309D01*
X28225714Y-12641309D02*
X28225714Y-12141309D01*
X28225714Y-12141309D02*
X28282857Y-12212738D01*
X28282857Y-12212738D02*
X28340000Y-12260357D01*
X28340000Y-12260357D02*
X28397143Y-12284166D01*
X27854285Y-12141309D02*
X27482857Y-12141309D01*
X27482857Y-12141309D02*
X27682857Y-12331785D01*
X27682857Y-12331785D02*
X27597142Y-12331785D01*
X27597142Y-12331785D02*
X27540000Y-12355595D01*
X27540000Y-12355595D02*
X27511428Y-12379404D01*
X27511428Y-12379404D02*
X27482857Y-12427023D01*
X27482857Y-12427023D02*
X27482857Y-12546071D01*
X27482857Y-12546071D02*
X27511428Y-12593690D01*
X27511428Y-12593690D02*
X27540000Y-12617500D01*
X27540000Y-12617500D02*
X27597142Y-12641309D01*
X27597142Y-12641309D02*
X27768571Y-12641309D01*
X27768571Y-12641309D02*
X27825714Y-12617500D01*
X27825714Y-12617500D02*
X27854285Y-12593690D01*
X25113690Y-25574285D02*
X25137500Y-25545713D01*
X25137500Y-25545713D02*
X25161309Y-25459999D01*
X25161309Y-25459999D02*
X25161309Y-25402856D01*
X25161309Y-25402856D02*
X25137500Y-25317142D01*
X25137500Y-25317142D02*
X25089880Y-25259999D01*
X25089880Y-25259999D02*
X25042261Y-25231428D01*
X25042261Y-25231428D02*
X24947023Y-25202856D01*
X24947023Y-25202856D02*
X24875595Y-25202856D01*
X24875595Y-25202856D02*
X24780357Y-25231428D01*
X24780357Y-25231428D02*
X24732738Y-25259999D01*
X24732738Y-25259999D02*
X24685119Y-25317142D01*
X24685119Y-25317142D02*
X24661309Y-25402856D01*
X24661309Y-25402856D02*
X24661309Y-25459999D01*
X24661309Y-25459999D02*
X24685119Y-25545713D01*
X24685119Y-25545713D02*
X24708928Y-25574285D01*
X25161309Y-26145713D02*
X25161309Y-25802856D01*
X25161309Y-25974285D02*
X24661309Y-25974285D01*
X24661309Y-25974285D02*
X24732738Y-25917142D01*
X24732738Y-25917142D02*
X24780357Y-25859999D01*
X24780357Y-25859999D02*
X24804166Y-25802856D01*
X24661309Y-26688571D02*
X24661309Y-26402857D01*
X24661309Y-26402857D02*
X24899404Y-26374285D01*
X24899404Y-26374285D02*
X24875595Y-26402857D01*
X24875595Y-26402857D02*
X24851785Y-26460000D01*
X24851785Y-26460000D02*
X24851785Y-26602857D01*
X24851785Y-26602857D02*
X24875595Y-26660000D01*
X24875595Y-26660000D02*
X24899404Y-26688571D01*
X24899404Y-26688571D02*
X24947023Y-26717142D01*
X24947023Y-26717142D02*
X25066071Y-26717142D01*
X25066071Y-26717142D02*
X25113690Y-26688571D01*
X25113690Y-26688571D02*
X25137500Y-26660000D01*
X25137500Y-26660000D02*
X25161309Y-26602857D01*
X25161309Y-26602857D02*
X25161309Y-26460000D01*
X25161309Y-26460000D02*
X25137500Y-26402857D01*
X25137500Y-26402857D02*
X25113690Y-26374285D01*
X6961904Y-31081309D02*
X6961904Y-30581309D01*
X6628571Y-30581309D02*
X6533333Y-30581309D01*
X6533333Y-30581309D02*
X6485714Y-30605119D01*
X6485714Y-30605119D02*
X6438095Y-30652738D01*
X6438095Y-30652738D02*
X6414285Y-30747976D01*
X6414285Y-30747976D02*
X6414285Y-30914642D01*
X6414285Y-30914642D02*
X6438095Y-31009880D01*
X6438095Y-31009880D02*
X6485714Y-31057500D01*
X6485714Y-31057500D02*
X6533333Y-31081309D01*
X6533333Y-31081309D02*
X6628571Y-31081309D01*
X6628571Y-31081309D02*
X6676190Y-31057500D01*
X6676190Y-31057500D02*
X6723809Y-31009880D01*
X6723809Y-31009880D02*
X6747618Y-30914642D01*
X6747618Y-30914642D02*
X6747618Y-30747976D01*
X6747618Y-30747976D02*
X6723809Y-30652738D01*
X6723809Y-30652738D02*
X6676190Y-30605119D01*
X6676190Y-30605119D02*
X6628571Y-30581309D01*
X4810714Y-31083690D02*
X4789285Y-31107500D01*
X4789285Y-31107500D02*
X4810714Y-31131309D01*
X4810714Y-31131309D02*
X4832142Y-31107500D01*
X4832142Y-31107500D02*
X4810714Y-31083690D01*
X4810714Y-31083690D02*
X4810714Y-31131309D01*
X4810714Y-30940833D02*
X4832142Y-30655119D01*
X4832142Y-30655119D02*
X4810714Y-30631309D01*
X4810714Y-30631309D02*
X4789285Y-30655119D01*
X4789285Y-30655119D02*
X4810714Y-30940833D01*
X4810714Y-30940833D02*
X4810714Y-30631309D01*
X4339285Y-31131309D02*
X4489285Y-30893214D01*
X4596428Y-31131309D02*
X4596428Y-30631309D01*
X4596428Y-30631309D02*
X4424999Y-30631309D01*
X4424999Y-30631309D02*
X4382142Y-30655119D01*
X4382142Y-30655119D02*
X4360713Y-30678928D01*
X4360713Y-30678928D02*
X4339285Y-30726547D01*
X4339285Y-30726547D02*
X4339285Y-30797976D01*
X4339285Y-30797976D02*
X4360713Y-30845595D01*
X4360713Y-30845595D02*
X4382142Y-30869404D01*
X4382142Y-30869404D02*
X4424999Y-30893214D01*
X4424999Y-30893214D02*
X4596428Y-30893214D01*
X4167856Y-31107500D02*
X4103571Y-31131309D01*
X4103571Y-31131309D02*
X3996428Y-31131309D01*
X3996428Y-31131309D02*
X3953571Y-31107500D01*
X3953571Y-31107500D02*
X3932142Y-31083690D01*
X3932142Y-31083690D02*
X3910713Y-31036071D01*
X3910713Y-31036071D02*
X3910713Y-30988452D01*
X3910713Y-30988452D02*
X3932142Y-30940833D01*
X3932142Y-30940833D02*
X3953571Y-30917023D01*
X3953571Y-30917023D02*
X3996428Y-30893214D01*
X3996428Y-30893214D02*
X4082142Y-30869404D01*
X4082142Y-30869404D02*
X4124999Y-30845595D01*
X4124999Y-30845595D02*
X4146428Y-30821785D01*
X4146428Y-30821785D02*
X4167856Y-30774166D01*
X4167856Y-30774166D02*
X4167856Y-30726547D01*
X4167856Y-30726547D02*
X4146428Y-30678928D01*
X4146428Y-30678928D02*
X4124999Y-30655119D01*
X4124999Y-30655119D02*
X4082142Y-30631309D01*
X4082142Y-30631309D02*
X3974999Y-30631309D01*
X3974999Y-30631309D02*
X3910713Y-30655119D01*
X3782142Y-30631309D02*
X3525000Y-30631309D01*
X3653571Y-31131309D02*
X3653571Y-30631309D01*
X11778571Y-16558452D02*
X11492857Y-16558452D01*
X11835714Y-16701309D02*
X11635714Y-16201309D01*
X11635714Y-16201309D02*
X11435714Y-16701309D01*
X11207142Y-16701309D02*
X11092856Y-16701309D01*
X11092856Y-16701309D02*
X11035713Y-16677500D01*
X11035713Y-16677500D02*
X11007142Y-16653690D01*
X11007142Y-16653690D02*
X10949999Y-16582261D01*
X10949999Y-16582261D02*
X10921428Y-16487023D01*
X10921428Y-16487023D02*
X10921428Y-16296547D01*
X10921428Y-16296547D02*
X10949999Y-16248928D01*
X10949999Y-16248928D02*
X10978571Y-16225119D01*
X10978571Y-16225119D02*
X11035713Y-16201309D01*
X11035713Y-16201309D02*
X11149999Y-16201309D01*
X11149999Y-16201309D02*
X11207142Y-16225119D01*
X11207142Y-16225119D02*
X11235713Y-16248928D01*
X11235713Y-16248928D02*
X11264285Y-16296547D01*
X11264285Y-16296547D02*
X11264285Y-16415595D01*
X11264285Y-16415595D02*
X11235713Y-16463214D01*
X11235713Y-16463214D02*
X11207142Y-16487023D01*
X11207142Y-16487023D02*
X11149999Y-16510833D01*
X11149999Y-16510833D02*
X11035713Y-16510833D01*
X11035713Y-16510833D02*
X10978571Y-16487023D01*
X10978571Y-16487023D02*
X10949999Y-16463214D01*
X10949999Y-16463214D02*
X10921428Y-16415595D01*
X3018452Y-10125713D02*
X3018452Y-10411428D01*
X3161309Y-10068570D02*
X2661309Y-10268570D01*
X2661309Y-10268570D02*
X3161309Y-10468570D01*
X3161309Y-10982856D02*
X3161309Y-10639999D01*
X3161309Y-10811428D02*
X2661309Y-10811428D01*
X2661309Y-10811428D02*
X2732738Y-10754285D01*
X2732738Y-10754285D02*
X2780357Y-10697142D01*
X2780357Y-10697142D02*
X2804166Y-10639999D01*
X2661309Y-11525714D02*
X2661309Y-11240000D01*
X2661309Y-11240000D02*
X2899404Y-11211428D01*
X2899404Y-11211428D02*
X2875595Y-11240000D01*
X2875595Y-11240000D02*
X2851785Y-11297143D01*
X2851785Y-11297143D02*
X2851785Y-11440000D01*
X2851785Y-11440000D02*
X2875595Y-11497143D01*
X2875595Y-11497143D02*
X2899404Y-11525714D01*
X2899404Y-11525714D02*
X2947023Y-11554285D01*
X2947023Y-11554285D02*
X3066071Y-11554285D01*
X3066071Y-11554285D02*
X3113690Y-11525714D01*
X3113690Y-11525714D02*
X3137500Y-11497143D01*
X3137500Y-11497143D02*
X3161309Y-11440000D01*
X3161309Y-11440000D02*
X3161309Y-11297143D01*
X3161309Y-11297143D02*
X3137500Y-11240000D01*
X3137500Y-11240000D02*
X3113690Y-11211428D01*
X7165119Y2077143D02*
X7141309Y2134285D01*
X7141309Y2134285D02*
X7141309Y2220000D01*
X7141309Y2220000D02*
X7165119Y2305714D01*
X7165119Y2305714D02*
X7212738Y2362857D01*
X7212738Y2362857D02*
X7260357Y2391428D01*
X7260357Y2391428D02*
X7355595Y2420000D01*
X7355595Y2420000D02*
X7427023Y2420000D01*
X7427023Y2420000D02*
X7522261Y2391428D01*
X7522261Y2391428D02*
X7569880Y2362857D01*
X7569880Y2362857D02*
X7617500Y2305714D01*
X7617500Y2305714D02*
X7641309Y2220000D01*
X7641309Y2220000D02*
X7641309Y2162857D01*
X7641309Y2162857D02*
X7617500Y2077143D01*
X7617500Y2077143D02*
X7593690Y2048571D01*
X7593690Y2048571D02*
X7427023Y2048571D01*
X7427023Y2048571D02*
X7427023Y2162857D01*
X7641309Y1791428D02*
X7141309Y1791428D01*
X7141309Y1791428D02*
X7641309Y1448571D01*
X7641309Y1448571D02*
X7141309Y1448571D01*
X7641309Y1162857D02*
X7141309Y1162857D01*
X7141309Y1162857D02*
X7141309Y1020000D01*
X7141309Y1020000D02*
X7165119Y934286D01*
X7165119Y934286D02*
X7212738Y877143D01*
X7212738Y877143D02*
X7260357Y848572D01*
X7260357Y848572D02*
X7355595Y820000D01*
X7355595Y820000D02*
X7427023Y820000D01*
X7427023Y820000D02*
X7522261Y848572D01*
X7522261Y848572D02*
X7569880Y877143D01*
X7569880Y877143D02*
X7617500Y934286D01*
X7617500Y934286D02*
X7641309Y1020000D01*
X7641309Y1020000D02*
X7641309Y1162857D01*
X22293690Y-3590000D02*
X22317500Y-3561428D01*
X22317500Y-3561428D02*
X22341309Y-3475714D01*
X22341309Y-3475714D02*
X22341309Y-3418571D01*
X22341309Y-3418571D02*
X22317500Y-3332857D01*
X22317500Y-3332857D02*
X22269880Y-3275714D01*
X22269880Y-3275714D02*
X22222261Y-3247143D01*
X22222261Y-3247143D02*
X22127023Y-3218571D01*
X22127023Y-3218571D02*
X22055595Y-3218571D01*
X22055595Y-3218571D02*
X21960357Y-3247143D01*
X21960357Y-3247143D02*
X21912738Y-3275714D01*
X21912738Y-3275714D02*
X21865119Y-3332857D01*
X21865119Y-3332857D02*
X21841309Y-3418571D01*
X21841309Y-3418571D02*
X21841309Y-3475714D01*
X21841309Y-3475714D02*
X21865119Y-3561428D01*
X21865119Y-3561428D02*
X21888928Y-3590000D01*
X21841309Y-3961428D02*
X21841309Y-4018571D01*
X21841309Y-4018571D02*
X21865119Y-4075714D01*
X21865119Y-4075714D02*
X21888928Y-4104286D01*
X21888928Y-4104286D02*
X21936547Y-4132857D01*
X21936547Y-4132857D02*
X22031785Y-4161428D01*
X22031785Y-4161428D02*
X22150833Y-4161428D01*
X22150833Y-4161428D02*
X22246071Y-4132857D01*
X22246071Y-4132857D02*
X22293690Y-4104286D01*
X22293690Y-4104286D02*
X22317500Y-4075714D01*
X22317500Y-4075714D02*
X22341309Y-4018571D01*
X22341309Y-4018571D02*
X22341309Y-3961428D01*
X22341309Y-3961428D02*
X22317500Y-3904286D01*
X22317500Y-3904286D02*
X22293690Y-3875714D01*
X22293690Y-3875714D02*
X22246071Y-3847143D01*
X22246071Y-3847143D02*
X22150833Y-3818571D01*
X22150833Y-3818571D02*
X22031785Y-3818571D01*
X22031785Y-3818571D02*
X21936547Y-3847143D01*
X21936547Y-3847143D02*
X21888928Y-3875714D01*
X21888928Y-3875714D02*
X21865119Y-3904286D01*
X21865119Y-3904286D02*
X21841309Y-3961428D01*
M02*
