G04 #@! TF.GenerationSoftware,KiCad,Pcbnew,(6.0.8)*
G04 #@! TF.CreationDate,2023-01-15T21:35:17+01:00*
G04 #@! TF.ProjectId,ultimateFC,756c7469-6d61-4746-9546-432e6b696361,rev?*
G04 #@! TF.SameCoordinates,Original*
G04 #@! TF.FileFunction,Soldermask,Top*
G04 #@! TF.FilePolarity,Negative*
%FSLAX46Y46*%
G04 Gerber Fmt 4.6, Leading zero omitted, Abs format (unit mm)*
G04 Created by KiCad (PCBNEW (6.0.8)) date 2023-01-15 21:35:17*
%MOMM*%
%LPD*%
G01*
G04 APERTURE LIST*
%ADD10O,1.650000X0.990000*%
%ADD11O,1.050000X1.350000*%
%ADD12C,0.500000*%
%ADD13C,1.100000*%
%ADD14C,5.700000*%
%ADD15O,1.700000X3.100000*%
%ADD16O,3.100000X1.700000*%
G04 APERTURE END LIST*
G36*
X111745546Y-107995955D02*
G01*
X111779220Y-108006126D01*
X111806013Y-108024004D01*
X111850757Y-108060386D01*
X111745329Y-108072777D01*
X111646431Y-108093480D01*
X111564651Y-108128154D01*
X111504475Y-108173010D01*
X111470389Y-108224259D01*
X111466882Y-108278110D01*
X111475603Y-108300585D01*
X111488886Y-108348818D01*
X111487049Y-108381984D01*
X111492698Y-108423742D01*
X111521864Y-108468990D01*
X111564883Y-108504722D01*
X111585020Y-108513852D01*
X111602054Y-108532493D01*
X111595016Y-108558910D01*
X111570521Y-108580115D01*
X111548794Y-108584952D01*
X111520969Y-108586559D01*
X111513860Y-108597651D01*
X111526015Y-108627630D01*
X111538463Y-108651870D01*
X111553570Y-108691552D01*
X111552991Y-108716047D01*
X111552358Y-108716719D01*
X111527761Y-108725505D01*
X111478704Y-108735134D01*
X111437053Y-108740910D01*
X111365094Y-108745228D01*
X111317365Y-108736772D01*
X111296358Y-108725466D01*
X111262367Y-108684382D01*
X111231297Y-108616958D01*
X111206135Y-108533906D01*
X111189870Y-108445939D01*
X111185491Y-108363771D01*
X111187633Y-108335745D01*
X111218455Y-108227072D01*
X111279903Y-108136846D01*
X111369392Y-108067089D01*
X111484333Y-108019823D01*
X111620802Y-107997159D01*
X111696266Y-107993477D01*
X111745546Y-107995955D01*
G37*
G36*
X111955799Y-109576949D02*
G01*
X111950452Y-109614424D01*
X111937008Y-109672553D01*
X111919364Y-109736933D01*
X111901417Y-109793159D01*
X111889227Y-109823039D01*
X111870473Y-109866154D01*
X111863280Y-109895711D01*
X111851462Y-109917236D01*
X111844639Y-109918869D01*
X111827479Y-109933528D01*
X111826112Y-109942358D01*
X111814571Y-109976575D01*
X111786067Y-110024205D01*
X111749784Y-110072407D01*
X111714904Y-110108336D01*
X111700704Y-110117756D01*
X111662961Y-110125440D01*
X111606820Y-110127254D01*
X111585630Y-110126209D01*
X111530979Y-110119378D01*
X111491655Y-110109403D01*
X111483733Y-110105277D01*
X111454105Y-110092425D01*
X111405413Y-110079847D01*
X111395368Y-110077922D01*
X111350810Y-110065749D01*
X111327086Y-110051193D01*
X111325894Y-110047716D01*
X111310238Y-110033744D01*
X111285611Y-110030029D01*
X111245328Y-110030029D01*
X111287135Y-109985528D01*
X111332498Y-109952214D01*
X111392368Y-109925590D01*
X111406758Y-109921433D01*
X111479678Y-109893740D01*
X111567838Y-109846284D01*
X111660623Y-109785840D01*
X111747415Y-109719182D01*
X111802552Y-109668824D01*
X111849176Y-109626942D01*
X111895239Y-109593618D01*
X111932768Y-109573631D01*
X111953793Y-109571759D01*
X111955799Y-109576949D01*
G37*
G36*
X111032550Y-109347954D02*
G01*
X111041861Y-109352565D01*
X111136989Y-109388357D01*
X111242184Y-109408326D01*
X111341690Y-109410191D01*
X111388133Y-109402712D01*
X111476426Y-109385441D01*
X111539556Y-109382875D01*
X111575240Y-109393250D01*
X111581199Y-109414807D01*
X111555152Y-109445784D01*
X111494817Y-109484420D01*
X111494295Y-109484699D01*
X111442690Y-109513978D01*
X111403930Y-109539041D01*
X111393325Y-109547601D01*
X111359261Y-109564364D01*
X111340063Y-109566863D01*
X111298362Y-109576561D01*
X111265030Y-109592905D01*
X111221107Y-109610621D01*
X111158262Y-109624144D01*
X111087663Y-109632559D01*
X111020478Y-109634954D01*
X110967877Y-109630415D01*
X110941972Y-109619337D01*
X110928261Y-109584200D01*
X110919329Y-109526306D01*
X110916079Y-109459747D01*
X110919420Y-109398616D01*
X110925798Y-109367702D01*
X110945506Y-109334920D01*
X110978914Y-109328622D01*
X111032550Y-109347954D01*
G37*
G36*
X112401283Y-109845453D02*
G01*
X112424983Y-109892090D01*
X112427132Y-109950146D01*
X112425215Y-109965186D01*
X112413367Y-110017649D01*
X112397511Y-110055002D01*
X112393527Y-110060017D01*
X112358989Y-110082800D01*
X112313146Y-110100447D01*
X112270013Y-110109009D01*
X112243605Y-110104535D01*
X112242074Y-110102700D01*
X112246060Y-110078974D01*
X112268605Y-110038839D01*
X112285369Y-110015805D01*
X112322470Y-109955954D01*
X112348828Y-109890981D01*
X112353088Y-109873243D01*
X112366542Y-109799826D01*
X112401283Y-109845453D01*
G37*
G36*
X111745546Y-107995955D02*
G01*
X111779220Y-108006126D01*
X111806013Y-108024004D01*
X111850757Y-108060386D01*
X111745329Y-108072777D01*
X111646431Y-108093480D01*
X111564651Y-108128154D01*
X111504475Y-108173010D01*
X111470389Y-108224259D01*
X111466882Y-108278110D01*
X111475603Y-108300585D01*
X111488886Y-108348818D01*
X111487049Y-108381984D01*
X111492698Y-108423742D01*
X111521864Y-108468990D01*
X111564883Y-108504722D01*
X111585020Y-108513852D01*
X111602054Y-108532493D01*
X111595016Y-108558910D01*
X111570521Y-108580115D01*
X111548794Y-108584952D01*
X111520969Y-108586559D01*
X111513860Y-108597651D01*
X111526015Y-108627630D01*
X111538463Y-108651870D01*
X111553570Y-108691552D01*
X111552991Y-108716047D01*
X111552358Y-108716719D01*
X111527761Y-108725505D01*
X111478704Y-108735134D01*
X111437053Y-108740910D01*
X111365094Y-108745228D01*
X111317365Y-108736772D01*
X111296358Y-108725466D01*
X111262367Y-108684382D01*
X111231297Y-108616958D01*
X111206135Y-108533906D01*
X111189870Y-108445939D01*
X111185491Y-108363771D01*
X111187633Y-108335745D01*
X111218455Y-108227072D01*
X111279903Y-108136846D01*
X111369392Y-108067089D01*
X111484333Y-108019823D01*
X111620802Y-107997159D01*
X111696266Y-107993477D01*
X111745546Y-107995955D01*
G37*
G36*
X111955799Y-109576949D02*
G01*
X111950452Y-109614424D01*
X111937008Y-109672553D01*
X111919364Y-109736933D01*
X111901417Y-109793159D01*
X111889227Y-109823039D01*
X111870473Y-109866154D01*
X111863280Y-109895711D01*
X111851462Y-109917236D01*
X111844639Y-109918869D01*
X111827479Y-109933528D01*
X111826112Y-109942358D01*
X111814571Y-109976575D01*
X111786067Y-110024205D01*
X111749784Y-110072407D01*
X111714904Y-110108336D01*
X111700704Y-110117756D01*
X111662961Y-110125440D01*
X111606820Y-110127254D01*
X111585630Y-110126209D01*
X111530979Y-110119378D01*
X111491655Y-110109403D01*
X111483733Y-110105277D01*
X111454105Y-110092425D01*
X111405413Y-110079847D01*
X111395368Y-110077922D01*
X111350810Y-110065749D01*
X111327086Y-110051193D01*
X111325894Y-110047716D01*
X111310238Y-110033744D01*
X111285611Y-110030029D01*
X111245328Y-110030029D01*
X111287135Y-109985528D01*
X111332498Y-109952214D01*
X111392368Y-109925590D01*
X111406758Y-109921433D01*
X111479678Y-109893740D01*
X111567838Y-109846284D01*
X111660623Y-109785840D01*
X111747415Y-109719182D01*
X111802552Y-109668824D01*
X111849176Y-109626942D01*
X111895239Y-109593618D01*
X111932768Y-109573631D01*
X111953793Y-109571759D01*
X111955799Y-109576949D01*
G37*
G36*
X111032550Y-109347954D02*
G01*
X111041861Y-109352565D01*
X111136989Y-109388357D01*
X111242184Y-109408326D01*
X111341690Y-109410191D01*
X111388133Y-109402712D01*
X111476426Y-109385441D01*
X111539556Y-109382875D01*
X111575240Y-109393250D01*
X111581199Y-109414807D01*
X111555152Y-109445784D01*
X111494817Y-109484420D01*
X111494295Y-109484699D01*
X111442690Y-109513978D01*
X111403930Y-109539041D01*
X111393325Y-109547601D01*
X111359261Y-109564364D01*
X111340063Y-109566863D01*
X111298362Y-109576561D01*
X111265030Y-109592905D01*
X111221107Y-109610621D01*
X111158262Y-109624144D01*
X111087663Y-109632559D01*
X111020478Y-109634954D01*
X110967877Y-109630415D01*
X110941972Y-109619337D01*
X110928261Y-109584200D01*
X110919329Y-109526306D01*
X110916079Y-109459747D01*
X110919420Y-109398616D01*
X110925798Y-109367702D01*
X110945506Y-109334920D01*
X110978914Y-109328622D01*
X111032550Y-109347954D01*
G37*
G36*
X112401283Y-109845453D02*
G01*
X112424983Y-109892090D01*
X112427132Y-109950146D01*
X112425215Y-109965186D01*
X112413367Y-110017649D01*
X112397511Y-110055002D01*
X112393527Y-110060017D01*
X112358989Y-110082800D01*
X112313146Y-110100447D01*
X112270013Y-110109009D01*
X112243605Y-110104535D01*
X112242074Y-110102700D01*
X112246060Y-110078974D01*
X112268605Y-110038839D01*
X112285369Y-110015805D01*
X112322470Y-109955954D01*
X112348828Y-109890981D01*
X112353088Y-109873243D01*
X112366542Y-109799826D01*
X112401283Y-109845453D01*
G37*
G36*
G01*
X100775000Y-105243750D02*
X100775000Y-105756250D01*
G75*
G02*
X100506250Y-106025000I-268750J0D01*
G01*
X100068750Y-106025000D01*
G75*
G02*
X99800000Y-105756250I0J268750D01*
G01*
X99800000Y-105243750D01*
G75*
G02*
X100068750Y-104975000I268750J0D01*
G01*
X100506250Y-104975000D01*
G75*
G02*
X100775000Y-105243750I0J-268750D01*
G01*
G37*
G36*
G01*
X99200000Y-105243750D02*
X99200000Y-105756250D01*
G75*
G02*
X98931250Y-106025000I-268750J0D01*
G01*
X98493750Y-106025000D01*
G75*
G02*
X98225000Y-105756250I0J268750D01*
G01*
X98225000Y-105243750D01*
G75*
G02*
X98493750Y-104975000I268750J0D01*
G01*
X98931250Y-104975000D01*
G75*
G02*
X99200000Y-105243750I0J-268750D01*
G01*
G37*
G36*
G01*
X100600000Y-109443750D02*
X100600000Y-109956250D01*
G75*
G02*
X100331250Y-110225000I-268750J0D01*
G01*
X99893750Y-110225000D01*
G75*
G02*
X99625000Y-109956250I0J268750D01*
G01*
X99625000Y-109443750D01*
G75*
G02*
X99893750Y-109175000I268750J0D01*
G01*
X100331250Y-109175000D01*
G75*
G02*
X100600000Y-109443750I0J-268750D01*
G01*
G37*
G36*
G01*
X99025000Y-109443750D02*
X99025000Y-109956250D01*
G75*
G02*
X98756250Y-110225000I-268750J0D01*
G01*
X98318750Y-110225000D01*
G75*
G02*
X98050000Y-109956250I0J268750D01*
G01*
X98050000Y-109443750D01*
G75*
G02*
X98318750Y-109175000I268750J0D01*
G01*
X98756250Y-109175000D01*
G75*
G02*
X99025000Y-109443750I0J-268750D01*
G01*
G37*
G36*
G01*
X100575000Y-108243750D02*
X100575000Y-108756250D01*
G75*
G02*
X100306250Y-109025000I-268750J0D01*
G01*
X99868750Y-109025000D01*
G75*
G02*
X99600000Y-108756250I0J268750D01*
G01*
X99600000Y-108243750D01*
G75*
G02*
X99868750Y-107975000I268750J0D01*
G01*
X100306250Y-107975000D01*
G75*
G02*
X100575000Y-108243750I0J-268750D01*
G01*
G37*
G36*
G01*
X99000000Y-108243750D02*
X99000000Y-108756250D01*
G75*
G02*
X98731250Y-109025000I-268750J0D01*
G01*
X98293750Y-109025000D01*
G75*
G02*
X98025000Y-108756250I0J268750D01*
G01*
X98025000Y-108243750D01*
G75*
G02*
X98293750Y-107975000I268750J0D01*
G01*
X98731250Y-107975000D01*
G75*
G02*
X99000000Y-108243750I0J-268750D01*
G01*
G37*
G36*
G01*
X101056250Y-106540000D02*
X101568750Y-106540000D01*
G75*
G02*
X101837500Y-106808750I0J-268750D01*
G01*
X101837500Y-107246250D01*
G75*
G02*
X101568750Y-107515000I-268750J0D01*
G01*
X101056250Y-107515000D01*
G75*
G02*
X100787500Y-107246250I0J268750D01*
G01*
X100787500Y-106808750D01*
G75*
G02*
X101056250Y-106540000I268750J0D01*
G01*
G37*
G36*
G01*
X101056250Y-108115000D02*
X101568750Y-108115000D01*
G75*
G02*
X101837500Y-108383750I0J-268750D01*
G01*
X101837500Y-108821250D01*
G75*
G02*
X101568750Y-109090000I-268750J0D01*
G01*
X101056250Y-109090000D01*
G75*
G02*
X100787500Y-108821250I0J268750D01*
G01*
X100787500Y-108383750D01*
G75*
G02*
X101056250Y-108115000I268750J0D01*
G01*
G37*
G36*
G01*
X129575000Y-110775000D02*
X128325000Y-110775000D01*
G75*
G02*
X128025000Y-110475000I0J300000D01*
G01*
X128025000Y-109725000D01*
G75*
G02*
X128325000Y-109425000I300000J0D01*
G01*
X129575000Y-109425000D01*
G75*
G02*
X129875000Y-109725000I0J-300000D01*
G01*
X129875000Y-110475000D01*
G75*
G02*
X129575000Y-110775000I-300000J0D01*
G01*
G37*
G36*
G01*
X129575000Y-107975000D02*
X128325000Y-107975000D01*
G75*
G02*
X128025000Y-107675000I0J300000D01*
G01*
X128025000Y-106925000D01*
G75*
G02*
X128325000Y-106625000I300000J0D01*
G01*
X129575000Y-106625000D01*
G75*
G02*
X129875000Y-106925000I0J-300000D01*
G01*
X129875000Y-107675000D01*
G75*
G02*
X129575000Y-107975000I-300000J0D01*
G01*
G37*
G36*
G01*
X131575000Y-110775000D02*
X130325000Y-110775000D01*
G75*
G02*
X130025000Y-110475000I0J300000D01*
G01*
X130025000Y-109725000D01*
G75*
G02*
X130325000Y-109425000I300000J0D01*
G01*
X131575000Y-109425000D01*
G75*
G02*
X131875000Y-109725000I0J-300000D01*
G01*
X131875000Y-110475000D01*
G75*
G02*
X131575000Y-110775000I-300000J0D01*
G01*
G37*
G36*
G01*
X131575000Y-107975000D02*
X130325000Y-107975000D01*
G75*
G02*
X130025000Y-107675000I0J300000D01*
G01*
X130025000Y-106925000D01*
G75*
G02*
X130325000Y-106625000I300000J0D01*
G01*
X131575000Y-106625000D01*
G75*
G02*
X131875000Y-106925000I0J-300000D01*
G01*
X131875000Y-107675000D01*
G75*
G02*
X131575000Y-107975000I-300000J0D01*
G01*
G37*
G36*
G01*
X124290000Y-112770000D02*
X124290000Y-112430000D01*
G75*
G02*
X124480000Y-112240000I190000J0D01*
G01*
X124760000Y-112240000D01*
G75*
G02*
X124950000Y-112430000I0J-190000D01*
G01*
X124950000Y-112770000D01*
G75*
G02*
X124760000Y-112960000I-190000J0D01*
G01*
X124480000Y-112960000D01*
G75*
G02*
X124290000Y-112770000I0J190000D01*
G01*
G37*
G36*
G01*
X125250000Y-112770000D02*
X125250000Y-112430000D01*
G75*
G02*
X125440000Y-112240000I190000J0D01*
G01*
X125720000Y-112240000D01*
G75*
G02*
X125910000Y-112430000I0J-190000D01*
G01*
X125910000Y-112770000D01*
G75*
G02*
X125720000Y-112960000I-190000J0D01*
G01*
X125440000Y-112960000D01*
G75*
G02*
X125250000Y-112770000I0J190000D01*
G01*
G37*
G36*
G01*
X124829999Y-109890001D02*
X125169999Y-109890001D01*
G75*
G02*
X125359999Y-110080001I0J-190000D01*
G01*
X125359999Y-110360001D01*
G75*
G02*
X125169999Y-110550001I-190000J0D01*
G01*
X124829999Y-110550001D01*
G75*
G02*
X124639999Y-110360001I0J190000D01*
G01*
X124639999Y-110080001D01*
G75*
G02*
X124829999Y-109890001I190000J0D01*
G01*
G37*
G36*
G01*
X124829999Y-110850001D02*
X125169999Y-110850001D01*
G75*
G02*
X125359999Y-111040001I0J-190000D01*
G01*
X125359999Y-111320001D01*
G75*
G02*
X125169999Y-111510001I-190000J0D01*
G01*
X124829999Y-111510001D01*
G75*
G02*
X124639999Y-111320001I0J190000D01*
G01*
X124639999Y-111040001D01*
G75*
G02*
X124829999Y-110850001I190000J0D01*
G01*
G37*
G36*
G01*
X127687501Y-106106250D02*
X127687501Y-105593750D01*
G75*
G02*
X127956251Y-105325000I268750J0D01*
G01*
X128393751Y-105325000D01*
G75*
G02*
X128662501Y-105593750I0J-268750D01*
G01*
X128662501Y-106106250D01*
G75*
G02*
X128393751Y-106375000I-268750J0D01*
G01*
X127956251Y-106375000D01*
G75*
G02*
X127687501Y-106106250I0J268750D01*
G01*
G37*
G36*
G01*
X129262501Y-106106250D02*
X129262501Y-105593750D01*
G75*
G02*
X129531251Y-105325000I268750J0D01*
G01*
X129968751Y-105325000D01*
G75*
G02*
X130237501Y-105593750I0J-268750D01*
G01*
X130237501Y-106106250D01*
G75*
G02*
X129968751Y-106375000I-268750J0D01*
G01*
X129531251Y-106375000D01*
G75*
G02*
X129262501Y-106106250I0J268750D01*
G01*
G37*
G36*
G01*
X125500000Y-104774999D02*
X125500000Y-103924999D01*
G75*
G02*
X125800000Y-103624999I300000J0D01*
G01*
X126700000Y-103624999D01*
G75*
G02*
X127000000Y-103924999I0J-300000D01*
G01*
X127000000Y-104774999D01*
G75*
G02*
X126700000Y-105074999I-300000J0D01*
G01*
X125800000Y-105074999D01*
G75*
G02*
X125500000Y-104774999I0J300000D01*
G01*
G37*
G36*
G01*
X128200000Y-104774999D02*
X128200000Y-103924999D01*
G75*
G02*
X128500000Y-103624999I300000J0D01*
G01*
X129400000Y-103624999D01*
G75*
G02*
X129700000Y-103924999I0J-300000D01*
G01*
X129700000Y-104774999D01*
G75*
G02*
X129400000Y-105074999I-300000J0D01*
G01*
X128500000Y-105074999D01*
G75*
G02*
X128200000Y-104774999I0J300000D01*
G01*
G37*
G36*
G01*
X129425000Y-111756250D02*
X129425000Y-111243750D01*
G75*
G02*
X129693750Y-110975000I268750J0D01*
G01*
X130131250Y-110975000D01*
G75*
G02*
X130400000Y-111243750I0J-268750D01*
G01*
X130400000Y-111756250D01*
G75*
G02*
X130131250Y-112025000I-268750J0D01*
G01*
X129693750Y-112025000D01*
G75*
G02*
X129425000Y-111756250I0J268750D01*
G01*
G37*
G36*
G01*
X131000000Y-111756250D02*
X131000000Y-111243750D01*
G75*
G02*
X131268750Y-110975000I268750J0D01*
G01*
X131706250Y-110975000D01*
G75*
G02*
X131975000Y-111243750I0J-268750D01*
G01*
X131975000Y-111756250D01*
G75*
G02*
X131706250Y-112025000I-268750J0D01*
G01*
X131268750Y-112025000D01*
G75*
G02*
X131000000Y-111756250I0J268750D01*
G01*
G37*
G36*
G01*
X125805000Y-103176250D02*
X125805000Y-102663750D01*
G75*
G02*
X126073750Y-102395000I268750J0D01*
G01*
X126511250Y-102395000D01*
G75*
G02*
X126780000Y-102663750I0J-268750D01*
G01*
X126780000Y-103176250D01*
G75*
G02*
X126511250Y-103445000I-268750J0D01*
G01*
X126073750Y-103445000D01*
G75*
G02*
X125805000Y-103176250I0J268750D01*
G01*
G37*
G36*
G01*
X127380000Y-103176250D02*
X127380000Y-102663750D01*
G75*
G02*
X127648750Y-102395000I268750J0D01*
G01*
X128086250Y-102395000D01*
G75*
G02*
X128355000Y-102663750I0J-268750D01*
G01*
X128355000Y-103176250D01*
G75*
G02*
X128086250Y-103445000I-268750J0D01*
G01*
X127648750Y-103445000D01*
G75*
G02*
X127380000Y-103176250I0J268750D01*
G01*
G37*
G36*
G01*
X127349998Y-108300000D02*
X125049998Y-108300000D01*
G75*
G02*
X124999998Y-108250000I0J50000D01*
G01*
X124999998Y-107400000D01*
G75*
G02*
X125049998Y-107350000I50000J0D01*
G01*
X127349998Y-107350000D01*
G75*
G02*
X127399998Y-107400000I0J-50000D01*
G01*
X127399998Y-108250000D01*
G75*
G02*
X127349998Y-108300000I-50000J0D01*
G01*
G37*
G36*
G01*
X127349998Y-106350000D02*
X125049998Y-106350000D01*
G75*
G02*
X124999998Y-106300000I0J50000D01*
G01*
X124999998Y-105450000D01*
G75*
G02*
X125049998Y-105400000I50000J0D01*
G01*
X127349998Y-105400000D01*
G75*
G02*
X127399998Y-105450000I0J-50000D01*
G01*
X127399998Y-106300000D01*
G75*
G02*
X127349998Y-106350000I-50000J0D01*
G01*
G37*
G36*
G01*
X125987499Y-109299999D02*
X125512499Y-109299999D01*
G75*
G02*
X125399999Y-109187499I0J112500D01*
G01*
X125399999Y-109062499D01*
G75*
G02*
X125512499Y-108949999I112500J0D01*
G01*
X125987499Y-108949999D01*
G75*
G02*
X126099999Y-109062499I0J-112500D01*
G01*
X126099999Y-109187499D01*
G75*
G02*
X125987499Y-109299999I-112500J0D01*
G01*
G37*
G36*
G01*
X125987499Y-109949999D02*
X125512499Y-109949999D01*
G75*
G02*
X125399999Y-109837499I0J112500D01*
G01*
X125399999Y-109712499D01*
G75*
G02*
X125512499Y-109599999I112500J0D01*
G01*
X125987499Y-109599999D01*
G75*
G02*
X126099999Y-109712499I0J-112500D01*
G01*
X126099999Y-109837499D01*
G75*
G02*
X125987499Y-109949999I-112500J0D01*
G01*
G37*
G36*
G01*
X125987499Y-110599999D02*
X125512499Y-110599999D01*
G75*
G02*
X125399999Y-110487499I0J112500D01*
G01*
X125399999Y-110362499D01*
G75*
G02*
X125512499Y-110249999I112500J0D01*
G01*
X125987499Y-110249999D01*
G75*
G02*
X126099999Y-110362499I0J-112500D01*
G01*
X126099999Y-110487499D01*
G75*
G02*
X125987499Y-110599999I-112500J0D01*
G01*
G37*
G36*
G01*
X125987499Y-111099999D02*
X125512499Y-111099999D01*
G75*
G02*
X125399999Y-110987499I0J112500D01*
G01*
X125399999Y-110862499D01*
G75*
G02*
X125512499Y-110749999I112500J0D01*
G01*
X125987499Y-110749999D01*
G75*
G02*
X126099999Y-110862499I0J-112500D01*
G01*
X126099999Y-110987499D01*
G75*
G02*
X125987499Y-111099999I-112500J0D01*
G01*
G37*
G36*
G01*
X126324999Y-111412499D02*
X126324999Y-111887499D01*
G75*
G02*
X126212499Y-111999999I-112500J0D01*
G01*
X126087499Y-111999999D01*
G75*
G02*
X125974999Y-111887499I0J112500D01*
G01*
X125974999Y-111412499D01*
G75*
G02*
X126087499Y-111299999I112500J0D01*
G01*
X126212499Y-111299999D01*
G75*
G02*
X126324999Y-111412499I0J-112500D01*
G01*
G37*
G36*
G01*
X126824999Y-111412499D02*
X126824999Y-111887499D01*
G75*
G02*
X126712499Y-111999999I-112500J0D01*
G01*
X126587499Y-111999999D01*
G75*
G02*
X126474999Y-111887499I0J112500D01*
G01*
X126474999Y-111412499D01*
G75*
G02*
X126587499Y-111299999I112500J0D01*
G01*
X126712499Y-111299999D01*
G75*
G02*
X126824999Y-111412499I0J-112500D01*
G01*
G37*
G36*
G01*
X127324999Y-111412499D02*
X127324999Y-111887499D01*
G75*
G02*
X127212499Y-111999999I-112500J0D01*
G01*
X127087499Y-111999999D01*
G75*
G02*
X126974999Y-111887499I0J112500D01*
G01*
X126974999Y-111412499D01*
G75*
G02*
X127087499Y-111299999I112500J0D01*
G01*
X127212499Y-111299999D01*
G75*
G02*
X127324999Y-111412499I0J-112500D01*
G01*
G37*
G36*
G01*
X127787499Y-111099999D02*
X127312499Y-111099999D01*
G75*
G02*
X127199999Y-110987499I0J112500D01*
G01*
X127199999Y-110862499D01*
G75*
G02*
X127312499Y-110749999I112500J0D01*
G01*
X127787499Y-110749999D01*
G75*
G02*
X127899999Y-110862499I0J-112500D01*
G01*
X127899999Y-110987499D01*
G75*
G02*
X127787499Y-111099999I-112500J0D01*
G01*
G37*
G36*
G01*
X127787499Y-110599999D02*
X127312499Y-110599999D01*
G75*
G02*
X127199999Y-110487499I0J112500D01*
G01*
X127199999Y-110362499D01*
G75*
G02*
X127312499Y-110249999I112500J0D01*
G01*
X127787499Y-110249999D01*
G75*
G02*
X127899999Y-110362499I0J-112500D01*
G01*
X127899999Y-110487499D01*
G75*
G02*
X127787499Y-110599999I-112500J0D01*
G01*
G37*
G36*
G01*
X127787499Y-109949999D02*
X127312499Y-109949999D01*
G75*
G02*
X127199999Y-109837499I0J112500D01*
G01*
X127199999Y-109712499D01*
G75*
G02*
X127312499Y-109599999I112500J0D01*
G01*
X127787499Y-109599999D01*
G75*
G02*
X127899999Y-109712499I0J-112500D01*
G01*
X127899999Y-109837499D01*
G75*
G02*
X127787499Y-109949999I-112500J0D01*
G01*
G37*
G36*
G01*
X127787499Y-109299999D02*
X127312499Y-109299999D01*
G75*
G02*
X127199999Y-109187499I0J112500D01*
G01*
X127199999Y-109062499D01*
G75*
G02*
X127312499Y-108949999I112500J0D01*
G01*
X127787499Y-108949999D01*
G75*
G02*
X127899999Y-109062499I0J-112500D01*
G01*
X127899999Y-109187499D01*
G75*
G02*
X127787499Y-109299999I-112500J0D01*
G01*
G37*
G36*
G01*
X126474999Y-110311999D02*
X126474999Y-108611999D01*
G75*
G02*
X126587499Y-108499499I112500J0D01*
G01*
X126712499Y-108499499D01*
G75*
G02*
X126824999Y-108611999I0J-112500D01*
G01*
X126824999Y-110311999D01*
G75*
G02*
X126712499Y-110424499I-112500J0D01*
G01*
X126587499Y-110424499D01*
G75*
G02*
X126474999Y-110311999I0J112500D01*
G01*
G37*
G36*
G01*
X98225000Y-104456250D02*
X98225000Y-103943750D01*
G75*
G02*
X98493750Y-103675000I268750J0D01*
G01*
X98931250Y-103675000D01*
G75*
G02*
X99200000Y-103943750I0J-268750D01*
G01*
X99200000Y-104456250D01*
G75*
G02*
X98931250Y-104725000I-268750J0D01*
G01*
X98493750Y-104725000D01*
G75*
G02*
X98225000Y-104456250I0J268750D01*
G01*
G37*
G36*
G01*
X99800000Y-104456250D02*
X99800000Y-103943750D01*
G75*
G02*
X100068750Y-103675000I268750J0D01*
G01*
X100506250Y-103675000D01*
G75*
G02*
X100775000Y-103943750I0J-268750D01*
G01*
X100775000Y-104456250D01*
G75*
G02*
X100506250Y-104725000I-268750J0D01*
G01*
X100068750Y-104725000D01*
G75*
G02*
X99800000Y-104456250I0J268750D01*
G01*
G37*
G36*
G01*
X101556250Y-111775000D02*
X101043750Y-111775000D01*
G75*
G02*
X100775000Y-111506250I0J268750D01*
G01*
X100775000Y-111068750D01*
G75*
G02*
X101043750Y-110800000I268750J0D01*
G01*
X101556250Y-110800000D01*
G75*
G02*
X101825000Y-111068750I0J-268750D01*
G01*
X101825000Y-111506250D01*
G75*
G02*
X101556250Y-111775000I-268750J0D01*
G01*
G37*
G36*
G01*
X101556250Y-110200000D02*
X101043750Y-110200000D01*
G75*
G02*
X100775000Y-109931250I0J268750D01*
G01*
X100775000Y-109493750D01*
G75*
G02*
X101043750Y-109225000I268750J0D01*
G01*
X101556250Y-109225000D01*
G75*
G02*
X101825000Y-109493750I0J-268750D01*
G01*
X101825000Y-109931250D01*
G75*
G02*
X101556250Y-110200000I-268750J0D01*
G01*
G37*
G36*
G01*
X121750000Y-115250000D02*
X119850000Y-115250000D01*
G75*
G02*
X119800000Y-115200000I0J50000D01*
G01*
X119800000Y-114800000D01*
G75*
G02*
X119850000Y-114750000I50000J0D01*
G01*
X121750000Y-114750000D01*
G75*
G02*
X121800000Y-114800000I0J-50000D01*
G01*
X121800000Y-115200000D01*
G75*
G02*
X121750000Y-115250000I-50000J0D01*
G01*
G37*
G36*
G01*
X121750000Y-114050000D02*
X119850000Y-114050000D01*
G75*
G02*
X119800000Y-114000000I0J50000D01*
G01*
X119800000Y-113600000D01*
G75*
G02*
X119850000Y-113550000I50000J0D01*
G01*
X121750000Y-113550000D01*
G75*
G02*
X121800000Y-113600000I0J-50000D01*
G01*
X121800000Y-114000000D01*
G75*
G02*
X121750000Y-114050000I-50000J0D01*
G01*
G37*
G36*
G01*
X121750000Y-112850000D02*
X119850000Y-112850000D01*
G75*
G02*
X119800000Y-112800000I0J50000D01*
G01*
X119800000Y-112400000D01*
G75*
G02*
X119850000Y-112350000I50000J0D01*
G01*
X121750000Y-112350000D01*
G75*
G02*
X121800000Y-112400000I0J-50000D01*
G01*
X121800000Y-112800000D01*
G75*
G02*
X121750000Y-112850000I-50000J0D01*
G01*
G37*
G36*
G01*
X100425000Y-116050000D02*
X101775000Y-116050000D01*
G75*
G02*
X101825000Y-116100000I0J-50000D01*
G01*
X101825000Y-116500000D01*
G75*
G02*
X101775000Y-116550000I-50000J0D01*
G01*
X100425000Y-116550000D01*
G75*
G02*
X100375000Y-116500000I0J50000D01*
G01*
X100375000Y-116100000D01*
G75*
G02*
X100425000Y-116050000I50000J0D01*
G01*
G37*
G36*
G01*
X100425000Y-116700000D02*
X101775000Y-116700000D01*
G75*
G02*
X101825000Y-116750000I0J-50000D01*
G01*
X101825000Y-117150000D01*
G75*
G02*
X101775000Y-117200000I-50000J0D01*
G01*
X100425000Y-117200000D01*
G75*
G02*
X100375000Y-117150000I0J50000D01*
G01*
X100375000Y-116750000D01*
G75*
G02*
X100425000Y-116700000I50000J0D01*
G01*
G37*
G36*
G01*
X100425000Y-117350000D02*
X101775000Y-117350000D01*
G75*
G02*
X101825000Y-117400000I0J-50000D01*
G01*
X101825000Y-117800000D01*
G75*
G02*
X101775000Y-117850000I-50000J0D01*
G01*
X100425000Y-117850000D01*
G75*
G02*
X100375000Y-117800000I0J50000D01*
G01*
X100375000Y-117400000D01*
G75*
G02*
X100425000Y-117350000I50000J0D01*
G01*
G37*
G36*
G01*
X100425000Y-118000000D02*
X101775000Y-118000000D01*
G75*
G02*
X101825000Y-118050000I0J-50000D01*
G01*
X101825000Y-118450000D01*
G75*
G02*
X101775000Y-118500000I-50000J0D01*
G01*
X100425000Y-118500000D01*
G75*
G02*
X100375000Y-118450000I0J50000D01*
G01*
X100375000Y-118050000D01*
G75*
G02*
X100425000Y-118000000I50000J0D01*
G01*
G37*
G36*
G01*
X100425000Y-118650000D02*
X101775000Y-118650000D01*
G75*
G02*
X101825000Y-118700000I0J-50000D01*
G01*
X101825000Y-119100000D01*
G75*
G02*
X101775000Y-119150000I-50000J0D01*
G01*
X100425000Y-119150000D01*
G75*
G02*
X100375000Y-119100000I0J50000D01*
G01*
X100375000Y-118700000D01*
G75*
G02*
X100425000Y-118650000I50000J0D01*
G01*
G37*
G36*
G01*
X97625000Y-119850000D02*
X99175000Y-119850000D01*
G75*
G02*
X99225000Y-119900000I0J-50000D01*
G01*
X99225000Y-121100000D01*
G75*
G02*
X99175000Y-121150000I-50000J0D01*
G01*
X97625000Y-121150000D01*
G75*
G02*
X97575000Y-121100000I0J50000D01*
G01*
X97575000Y-119900000D01*
G75*
G02*
X97625000Y-119850000I50000J0D01*
G01*
G37*
D10*
X98400000Y-114100000D03*
D11*
X101100000Y-120100000D03*
G36*
G01*
X97625000Y-114050000D02*
X99175000Y-114050000D01*
G75*
G02*
X99225000Y-114100000I0J-50000D01*
G01*
X99225000Y-115300000D01*
G75*
G02*
X99175000Y-115350000I-50000J0D01*
G01*
X97625000Y-115350000D01*
G75*
G02*
X97575000Y-115300000I0J50000D01*
G01*
X97575000Y-114100000D01*
G75*
G02*
X97625000Y-114050000I50000J0D01*
G01*
G37*
X101100000Y-115100000D03*
G36*
G01*
X97625000Y-117800000D02*
X99175000Y-117800000D01*
G75*
G02*
X99225000Y-117850000I0J-50000D01*
G01*
X99225000Y-119350000D01*
G75*
G02*
X99175000Y-119400000I-50000J0D01*
G01*
X97625000Y-119400000D01*
G75*
G02*
X97575000Y-119350000I0J50000D01*
G01*
X97575000Y-117850000D01*
G75*
G02*
X97625000Y-117800000I50000J0D01*
G01*
G37*
G36*
G01*
X97625000Y-115800000D02*
X99175000Y-115800000D01*
G75*
G02*
X99225000Y-115850000I0J-50000D01*
G01*
X99225000Y-117350000D01*
G75*
G02*
X99175000Y-117400000I-50000J0D01*
G01*
X97625000Y-117400000D01*
G75*
G02*
X97575000Y-117350000I0J50000D01*
G01*
X97575000Y-115850000D01*
G75*
G02*
X97625000Y-115800000I50000J0D01*
G01*
G37*
D10*
X98400000Y-121100000D03*
G36*
G01*
X107550000Y-112625000D02*
X107550000Y-112775000D01*
G75*
G02*
X107425000Y-112900000I-125000J0D01*
G01*
X107025000Y-112900000D01*
G75*
G02*
X106900000Y-112775000I0J125000D01*
G01*
X106900000Y-112625000D01*
G75*
G02*
X107025000Y-112500000I125000J0D01*
G01*
X107425000Y-112500000D01*
G75*
G02*
X107550000Y-112625000I0J-125000D01*
G01*
G37*
G36*
G01*
X107550000Y-112125000D02*
X107550000Y-112275000D01*
G75*
G02*
X107425000Y-112400000I-125000J0D01*
G01*
X107025000Y-112400000D01*
G75*
G02*
X106900000Y-112275000I0J125000D01*
G01*
X106900000Y-112125000D01*
G75*
G02*
X107025000Y-112000000I125000J0D01*
G01*
X107425000Y-112000000D01*
G75*
G02*
X107550000Y-112125000I0J-125000D01*
G01*
G37*
G36*
G01*
X107550000Y-111625000D02*
X107550000Y-111775000D01*
G75*
G02*
X107425000Y-111900000I-125000J0D01*
G01*
X107025000Y-111900000D01*
G75*
G02*
X106900000Y-111775000I0J125000D01*
G01*
X106900000Y-111625000D01*
G75*
G02*
X107025000Y-111500000I125000J0D01*
G01*
X107425000Y-111500000D01*
G75*
G02*
X107550000Y-111625000I0J-125000D01*
G01*
G37*
G36*
G01*
X107550000Y-111125000D02*
X107550000Y-111275000D01*
G75*
G02*
X107425000Y-111400000I-125000J0D01*
G01*
X107025000Y-111400000D01*
G75*
G02*
X106900000Y-111275000I0J125000D01*
G01*
X106900000Y-111125000D01*
G75*
G02*
X107025000Y-111000000I125000J0D01*
G01*
X107425000Y-111000000D01*
G75*
G02*
X107550000Y-111125000I0J-125000D01*
G01*
G37*
G36*
G01*
X107550000Y-110625000D02*
X107550000Y-110775000D01*
G75*
G02*
X107425000Y-110900000I-125000J0D01*
G01*
X107025000Y-110900000D01*
G75*
G02*
X106900000Y-110775000I0J125000D01*
G01*
X106900000Y-110625000D01*
G75*
G02*
X107025000Y-110500000I125000J0D01*
G01*
X107425000Y-110500000D01*
G75*
G02*
X107550000Y-110625000I0J-125000D01*
G01*
G37*
G36*
G01*
X106700000Y-110275000D02*
X106700000Y-110675000D01*
G75*
G02*
X106575000Y-110800000I-125000J0D01*
G01*
X106425000Y-110800000D01*
G75*
G02*
X106300000Y-110675000I0J125000D01*
G01*
X106300000Y-110275000D01*
G75*
G02*
X106425000Y-110150000I125000J0D01*
G01*
X106575000Y-110150000D01*
G75*
G02*
X106700000Y-110275000I0J-125000D01*
G01*
G37*
G36*
G01*
X106200000Y-110275000D02*
X106200000Y-110675000D01*
G75*
G02*
X106075000Y-110800000I-125000J0D01*
G01*
X105925000Y-110800000D01*
G75*
G02*
X105800000Y-110675000I0J125000D01*
G01*
X105800000Y-110275000D01*
G75*
G02*
X105925000Y-110150000I125000J0D01*
G01*
X106075000Y-110150000D01*
G75*
G02*
X106200000Y-110275000I0J-125000D01*
G01*
G37*
G36*
G01*
X105700000Y-110275000D02*
X105700000Y-110675000D01*
G75*
G02*
X105575000Y-110800000I-125000J0D01*
G01*
X105425000Y-110800000D01*
G75*
G02*
X105300000Y-110675000I0J125000D01*
G01*
X105300000Y-110275000D01*
G75*
G02*
X105425000Y-110150000I125000J0D01*
G01*
X105575000Y-110150000D01*
G75*
G02*
X105700000Y-110275000I0J-125000D01*
G01*
G37*
G36*
G01*
X105100000Y-110625000D02*
X105100000Y-110775000D01*
G75*
G02*
X104975000Y-110900000I-125000J0D01*
G01*
X104575000Y-110900000D01*
G75*
G02*
X104450000Y-110775000I0J125000D01*
G01*
X104450000Y-110625000D01*
G75*
G02*
X104575000Y-110500000I125000J0D01*
G01*
X104975000Y-110500000D01*
G75*
G02*
X105100000Y-110625000I0J-125000D01*
G01*
G37*
G36*
G01*
X105100000Y-111125000D02*
X105100000Y-111275000D01*
G75*
G02*
X104975000Y-111400000I-125000J0D01*
G01*
X104575000Y-111400000D01*
G75*
G02*
X104450000Y-111275000I0J125000D01*
G01*
X104450000Y-111125000D01*
G75*
G02*
X104575000Y-111000000I125000J0D01*
G01*
X104975000Y-111000000D01*
G75*
G02*
X105100000Y-111125000I0J-125000D01*
G01*
G37*
G36*
G01*
X105100000Y-111625000D02*
X105100000Y-111775000D01*
G75*
G02*
X104975000Y-111900000I-125000J0D01*
G01*
X104575000Y-111900000D01*
G75*
G02*
X104450000Y-111775000I0J125000D01*
G01*
X104450000Y-111625000D01*
G75*
G02*
X104575000Y-111500000I125000J0D01*
G01*
X104975000Y-111500000D01*
G75*
G02*
X105100000Y-111625000I0J-125000D01*
G01*
G37*
G36*
G01*
X105100000Y-112125000D02*
X105100000Y-112275000D01*
G75*
G02*
X104975000Y-112400000I-125000J0D01*
G01*
X104575000Y-112400000D01*
G75*
G02*
X104450000Y-112275000I0J125000D01*
G01*
X104450000Y-112125000D01*
G75*
G02*
X104575000Y-112000000I125000J0D01*
G01*
X104975000Y-112000000D01*
G75*
G02*
X105100000Y-112125000I0J-125000D01*
G01*
G37*
G36*
G01*
X105100000Y-112625000D02*
X105100000Y-112775000D01*
G75*
G02*
X104975000Y-112900000I-125000J0D01*
G01*
X104575000Y-112900000D01*
G75*
G02*
X104450000Y-112775000I0J125000D01*
G01*
X104450000Y-112625000D01*
G75*
G02*
X104575000Y-112500000I125000J0D01*
G01*
X104975000Y-112500000D01*
G75*
G02*
X105100000Y-112625000I0J-125000D01*
G01*
G37*
G36*
G01*
X105700000Y-112725000D02*
X105700000Y-113125000D01*
G75*
G02*
X105575000Y-113250000I-125000J0D01*
G01*
X105425000Y-113250000D01*
G75*
G02*
X105300000Y-113125000I0J125000D01*
G01*
X105300000Y-112725000D01*
G75*
G02*
X105425000Y-112600000I125000J0D01*
G01*
X105575000Y-112600000D01*
G75*
G02*
X105700000Y-112725000I0J-125000D01*
G01*
G37*
G36*
G01*
X106200000Y-112725000D02*
X106200000Y-113125000D01*
G75*
G02*
X106075000Y-113250000I-125000J0D01*
G01*
X105925000Y-113250000D01*
G75*
G02*
X105800000Y-113125000I0J125000D01*
G01*
X105800000Y-112725000D01*
G75*
G02*
X105925000Y-112600000I125000J0D01*
G01*
X106075000Y-112600000D01*
G75*
G02*
X106200000Y-112725000I0J-125000D01*
G01*
G37*
G36*
G01*
X106700000Y-112725000D02*
X106700000Y-113125000D01*
G75*
G02*
X106575000Y-113250000I-125000J0D01*
G01*
X106425000Y-113250000D01*
G75*
G02*
X106300000Y-113125000I0J125000D01*
G01*
X106300000Y-112725000D01*
G75*
G02*
X106425000Y-112600000I125000J0D01*
G01*
X106575000Y-112600000D01*
G75*
G02*
X106700000Y-112725000I0J-125000D01*
G01*
G37*
G36*
G01*
X117500000Y-124200000D02*
X117500000Y-123600000D01*
G75*
G02*
X117550000Y-123550000I50000J0D01*
G01*
X117850000Y-123550000D01*
G75*
G02*
X117900000Y-123600000I0J-50000D01*
G01*
X117900000Y-124200000D01*
G75*
G02*
X117850000Y-124250000I-50000J0D01*
G01*
X117550000Y-124250000D01*
G75*
G02*
X117500000Y-124200000I0J50000D01*
G01*
G37*
G36*
G01*
X118300000Y-124200000D02*
X118300000Y-123600000D01*
G75*
G02*
X118350000Y-123550000I50000J0D01*
G01*
X118650000Y-123550000D01*
G75*
G02*
X118700000Y-123600000I0J-50000D01*
G01*
X118700000Y-124200000D01*
G75*
G02*
X118650000Y-124250000I-50000J0D01*
G01*
X118350000Y-124250000D01*
G75*
G02*
X118300000Y-124200000I0J50000D01*
G01*
G37*
G36*
G01*
X119100000Y-124200000D02*
X119100000Y-123600000D01*
G75*
G02*
X119150000Y-123550000I50000J0D01*
G01*
X119450000Y-123550000D01*
G75*
G02*
X119500000Y-123600000I0J-50000D01*
G01*
X119500000Y-124200000D01*
G75*
G02*
X119450000Y-124250000I-50000J0D01*
G01*
X119150000Y-124250000D01*
G75*
G02*
X119100000Y-124200000I0J50000D01*
G01*
G37*
G36*
G01*
X119900000Y-124200000D02*
X119900000Y-123600000D01*
G75*
G02*
X119950000Y-123550000I50000J0D01*
G01*
X120250000Y-123550000D01*
G75*
G02*
X120300000Y-123600000I0J-50000D01*
G01*
X120300000Y-124200000D01*
G75*
G02*
X120250000Y-124250000I-50000J0D01*
G01*
X119950000Y-124250000D01*
G75*
G02*
X119900000Y-124200000I0J50000D01*
G01*
G37*
G36*
G01*
X119900000Y-120400000D02*
X119900000Y-119800000D01*
G75*
G02*
X119950000Y-119750000I50000J0D01*
G01*
X120250000Y-119750000D01*
G75*
G02*
X120300000Y-119800000I0J-50000D01*
G01*
X120300000Y-120400000D01*
G75*
G02*
X120250000Y-120450000I-50000J0D01*
G01*
X119950000Y-120450000D01*
G75*
G02*
X119900000Y-120400000I0J50000D01*
G01*
G37*
G36*
G01*
X119100000Y-120400000D02*
X119100000Y-119800000D01*
G75*
G02*
X119150000Y-119750000I50000J0D01*
G01*
X119450000Y-119750000D01*
G75*
G02*
X119500000Y-119800000I0J-50000D01*
G01*
X119500000Y-120400000D01*
G75*
G02*
X119450000Y-120450000I-50000J0D01*
G01*
X119150000Y-120450000D01*
G75*
G02*
X119100000Y-120400000I0J50000D01*
G01*
G37*
G36*
G01*
X118300000Y-120400000D02*
X118300000Y-119800000D01*
G75*
G02*
X118350000Y-119750000I50000J0D01*
G01*
X118650000Y-119750000D01*
G75*
G02*
X118700000Y-119800000I0J-50000D01*
G01*
X118700000Y-120400000D01*
G75*
G02*
X118650000Y-120450000I-50000J0D01*
G01*
X118350000Y-120450000D01*
G75*
G02*
X118300000Y-120400000I0J50000D01*
G01*
G37*
G36*
G01*
X117500000Y-120400000D02*
X117500000Y-119800000D01*
G75*
G02*
X117550000Y-119750000I50000J0D01*
G01*
X117850000Y-119750000D01*
G75*
G02*
X117900000Y-119800000I0J-50000D01*
G01*
X117900000Y-120400000D01*
G75*
G02*
X117850000Y-120450000I-50000J0D01*
G01*
X117550000Y-120450000D01*
G75*
G02*
X117500000Y-120400000I0J50000D01*
G01*
G37*
G36*
G01*
X120200000Y-123050000D02*
X117600000Y-123050000D01*
G75*
G02*
X117550000Y-123000000I0J50000D01*
G01*
X117550000Y-121000000D01*
G75*
G02*
X117600000Y-120950000I50000J0D01*
G01*
X120200000Y-120950000D01*
G75*
G02*
X120250000Y-121000000I0J-50000D01*
G01*
X120250000Y-123000000D01*
G75*
G02*
X120200000Y-123050000I-50000J0D01*
G01*
G37*
G36*
G01*
X104870000Y-114072500D02*
X104870000Y-113727500D01*
G75*
G02*
X105067500Y-113530000I197500J0D01*
G01*
X105362500Y-113530000D01*
G75*
G02*
X105560000Y-113727500I0J-197500D01*
G01*
X105560000Y-114072500D01*
G75*
G02*
X105362500Y-114270000I-197500J0D01*
G01*
X105067500Y-114270000D01*
G75*
G02*
X104870000Y-114072500I0J197500D01*
G01*
G37*
G36*
G01*
X105840000Y-114072500D02*
X105840000Y-113727500D01*
G75*
G02*
X106037500Y-113530000I197500J0D01*
G01*
X106332500Y-113530000D01*
G75*
G02*
X106530000Y-113727500I0J-197500D01*
G01*
X106530000Y-114072500D01*
G75*
G02*
X106332500Y-114270000I-197500J0D01*
G01*
X106037500Y-114270000D01*
G75*
G02*
X105840000Y-114072500I0J197500D01*
G01*
G37*
G36*
G01*
X118400000Y-106900000D02*
X118750000Y-106900000D01*
G75*
G02*
X118800000Y-106950000I0J-50000D01*
G01*
X118800000Y-107450000D01*
G75*
G02*
X118750000Y-107500000I-50000J0D01*
G01*
X118400000Y-107500000D01*
G75*
G02*
X118350000Y-107450000I0J50000D01*
G01*
X118350000Y-106950000D01*
G75*
G02*
X118400000Y-106900000I50000J0D01*
G01*
G37*
G36*
G01*
X117750000Y-106900000D02*
X118100000Y-106900000D01*
G75*
G02*
X118150000Y-106950000I0J-50000D01*
G01*
X118150000Y-107450000D01*
G75*
G02*
X118100000Y-107500000I-50000J0D01*
G01*
X117750000Y-107500000D01*
G75*
G02*
X117700000Y-107450000I0J50000D01*
G01*
X117700000Y-106950000D01*
G75*
G02*
X117750000Y-106900000I50000J0D01*
G01*
G37*
G36*
G01*
X117100000Y-106900000D02*
X117450000Y-106900000D01*
G75*
G02*
X117500000Y-106950000I0J-50000D01*
G01*
X117500000Y-107450000D01*
G75*
G02*
X117450000Y-107500000I-50000J0D01*
G01*
X117100000Y-107500000D01*
G75*
G02*
X117050000Y-107450000I0J50000D01*
G01*
X117050000Y-106950000D01*
G75*
G02*
X117100000Y-106900000I50000J0D01*
G01*
G37*
G36*
G01*
X116450000Y-106900000D02*
X116800000Y-106900000D01*
G75*
G02*
X116850000Y-106950000I0J-50000D01*
G01*
X116850000Y-107450000D01*
G75*
G02*
X116800000Y-107500000I-50000J0D01*
G01*
X116450000Y-107500000D01*
G75*
G02*
X116400000Y-107450000I0J50000D01*
G01*
X116400000Y-106950000D01*
G75*
G02*
X116450000Y-106900000I50000J0D01*
G01*
G37*
G36*
G01*
X116450000Y-105300000D02*
X116800000Y-105300000D01*
G75*
G02*
X116850000Y-105350000I0J-50000D01*
G01*
X116850000Y-105850000D01*
G75*
G02*
X116800000Y-105900000I-50000J0D01*
G01*
X116450000Y-105900000D01*
G75*
G02*
X116400000Y-105850000I0J50000D01*
G01*
X116400000Y-105350000D01*
G75*
G02*
X116450000Y-105300000I50000J0D01*
G01*
G37*
G36*
G01*
X117100000Y-105300000D02*
X117450000Y-105300000D01*
G75*
G02*
X117500000Y-105350000I0J-50000D01*
G01*
X117500000Y-105850000D01*
G75*
G02*
X117450000Y-105900000I-50000J0D01*
G01*
X117100000Y-105900000D01*
G75*
G02*
X117050000Y-105850000I0J50000D01*
G01*
X117050000Y-105350000D01*
G75*
G02*
X117100000Y-105300000I50000J0D01*
G01*
G37*
G36*
G01*
X117750000Y-105300000D02*
X118100000Y-105300000D01*
G75*
G02*
X118150000Y-105350000I0J-50000D01*
G01*
X118150000Y-105850000D01*
G75*
G02*
X118100000Y-105900000I-50000J0D01*
G01*
X117750000Y-105900000D01*
G75*
G02*
X117700000Y-105850000I0J50000D01*
G01*
X117700000Y-105350000D01*
G75*
G02*
X117750000Y-105300000I50000J0D01*
G01*
G37*
G36*
G01*
X118400000Y-105300000D02*
X118750000Y-105300000D01*
G75*
G02*
X118800000Y-105350000I0J-50000D01*
G01*
X118800000Y-105850000D01*
G75*
G02*
X118750000Y-105900000I-50000J0D01*
G01*
X118400000Y-105900000D01*
G75*
G02*
X118350000Y-105850000I0J50000D01*
G01*
X118350000Y-105350000D01*
G75*
G02*
X118400000Y-105300000I50000J0D01*
G01*
G37*
G36*
G01*
X128215000Y-110970000D02*
X128585000Y-110970000D01*
G75*
G02*
X128770000Y-111155000I0J-185000D01*
G01*
X128770000Y-111425000D01*
G75*
G02*
X128585000Y-111610000I-185000J0D01*
G01*
X128215000Y-111610000D01*
G75*
G02*
X128030000Y-111425000I0J185000D01*
G01*
X128030000Y-111155000D01*
G75*
G02*
X128215000Y-110970000I185000J0D01*
G01*
G37*
G36*
G01*
X128215000Y-111990000D02*
X128585000Y-111990000D01*
G75*
G02*
X128770000Y-112175000I0J-185000D01*
G01*
X128770000Y-112445000D01*
G75*
G02*
X128585000Y-112630000I-185000J0D01*
G01*
X128215000Y-112630000D01*
G75*
G02*
X128030000Y-112445000I0J185000D01*
G01*
X128030000Y-112175000D01*
G75*
G02*
X128215000Y-111990000I185000J0D01*
G01*
G37*
G36*
G01*
X127730000Y-112415000D02*
X127730000Y-112785000D01*
G75*
G02*
X127545000Y-112970000I-185000J0D01*
G01*
X127275000Y-112970000D01*
G75*
G02*
X127090000Y-112785000I0J185000D01*
G01*
X127090000Y-112415000D01*
G75*
G02*
X127275000Y-112230000I185000J0D01*
G01*
X127545000Y-112230000D01*
G75*
G02*
X127730000Y-112415000I0J-185000D01*
G01*
G37*
G36*
G01*
X126710000Y-112415000D02*
X126710000Y-112785000D01*
G75*
G02*
X126525000Y-112970000I-185000J0D01*
G01*
X126255000Y-112970000D01*
G75*
G02*
X126070000Y-112785000I0J185000D01*
G01*
X126070000Y-112415000D01*
G75*
G02*
X126255000Y-112230000I185000J0D01*
G01*
X126525000Y-112230000D01*
G75*
G02*
X126710000Y-112415000I0J-185000D01*
G01*
G37*
G36*
G01*
X100242500Y-110580000D02*
X100242500Y-110950000D01*
G75*
G02*
X100057500Y-111135000I-185000J0D01*
G01*
X99787500Y-111135000D01*
G75*
G02*
X99602500Y-110950000I0J185000D01*
G01*
X99602500Y-110580000D01*
G75*
G02*
X99787500Y-110395000I185000J0D01*
G01*
X100057500Y-110395000D01*
G75*
G02*
X100242500Y-110580000I0J-185000D01*
G01*
G37*
G36*
G01*
X99222500Y-110580000D02*
X99222500Y-110950000D01*
G75*
G02*
X99037500Y-111135000I-185000J0D01*
G01*
X98767500Y-111135000D01*
G75*
G02*
X98582500Y-110950000I0J185000D01*
G01*
X98582500Y-110580000D01*
G75*
G02*
X98767500Y-110395000I185000J0D01*
G01*
X99037500Y-110395000D01*
G75*
G02*
X99222500Y-110580000I0J-185000D01*
G01*
G37*
G36*
G01*
X98205000Y-107825000D02*
X97835000Y-107825000D01*
G75*
G02*
X97650000Y-107640000I0J185000D01*
G01*
X97650000Y-107370000D01*
G75*
G02*
X97835000Y-107185000I185000J0D01*
G01*
X98205000Y-107185000D01*
G75*
G02*
X98390000Y-107370000I0J-185000D01*
G01*
X98390000Y-107640000D01*
G75*
G02*
X98205000Y-107825000I-185000J0D01*
G01*
G37*
G36*
G01*
X98205000Y-106805000D02*
X97835000Y-106805000D01*
G75*
G02*
X97650000Y-106620000I0J185000D01*
G01*
X97650000Y-106350000D01*
G75*
G02*
X97835000Y-106165000I185000J0D01*
G01*
X98205000Y-106165000D01*
G75*
G02*
X98390000Y-106350000I0J-185000D01*
G01*
X98390000Y-106620000D01*
G75*
G02*
X98205000Y-106805000I-185000J0D01*
G01*
G37*
G36*
G01*
X114615000Y-105770000D02*
X114985000Y-105770000D01*
G75*
G02*
X115170000Y-105955000I0J-185000D01*
G01*
X115170000Y-106225000D01*
G75*
G02*
X114985000Y-106410000I-185000J0D01*
G01*
X114615000Y-106410000D01*
G75*
G02*
X114430000Y-106225000I0J185000D01*
G01*
X114430000Y-105955000D01*
G75*
G02*
X114615000Y-105770000I185000J0D01*
G01*
G37*
G36*
G01*
X114615000Y-106790000D02*
X114985000Y-106790000D01*
G75*
G02*
X115170000Y-106975000I0J-185000D01*
G01*
X115170000Y-107245000D01*
G75*
G02*
X114985000Y-107430000I-185000J0D01*
G01*
X114615000Y-107430000D01*
G75*
G02*
X114430000Y-107245000I0J185000D01*
G01*
X114430000Y-106975000D01*
G75*
G02*
X114615000Y-106790000I185000J0D01*
G01*
G37*
G36*
G01*
X115515000Y-105770000D02*
X115885000Y-105770000D01*
G75*
G02*
X116070000Y-105955000I0J-185000D01*
G01*
X116070000Y-106225000D01*
G75*
G02*
X115885000Y-106410000I-185000J0D01*
G01*
X115515000Y-106410000D01*
G75*
G02*
X115330000Y-106225000I0J185000D01*
G01*
X115330000Y-105955000D01*
G75*
G02*
X115515000Y-105770000I185000J0D01*
G01*
G37*
G36*
G01*
X115515000Y-106790000D02*
X115885000Y-106790000D01*
G75*
G02*
X116070000Y-106975000I0J-185000D01*
G01*
X116070000Y-107245000D01*
G75*
G02*
X115885000Y-107430000I-185000J0D01*
G01*
X115515000Y-107430000D01*
G75*
G02*
X115330000Y-107245000I0J185000D01*
G01*
X115330000Y-106975000D01*
G75*
G02*
X115515000Y-106790000I185000J0D01*
G01*
G37*
G36*
G01*
X100222500Y-111495000D02*
X100222500Y-111835000D01*
G75*
G02*
X100032500Y-112025000I-190000J0D01*
G01*
X99752500Y-112025000D01*
G75*
G02*
X99562500Y-111835000I0J190000D01*
G01*
X99562500Y-111495000D01*
G75*
G02*
X99752500Y-111305000I190000J0D01*
G01*
X100032500Y-111305000D01*
G75*
G02*
X100222500Y-111495000I0J-190000D01*
G01*
G37*
G36*
G01*
X99262500Y-111495000D02*
X99262500Y-111835000D01*
G75*
G02*
X99072500Y-112025000I-190000J0D01*
G01*
X98792500Y-112025000D01*
G75*
G02*
X98602500Y-111835000I0J190000D01*
G01*
X98602500Y-111495000D01*
G75*
G02*
X98792500Y-111305000I190000J0D01*
G01*
X99072500Y-111305000D01*
G75*
G02*
X99262500Y-111495000I0J-190000D01*
G01*
G37*
G36*
G01*
X98550000Y-106690000D02*
X98550000Y-106540000D01*
G75*
G02*
X98650000Y-106440000I100000J0D01*
G01*
X99150000Y-106440000D01*
G75*
G02*
X99250000Y-106540000I0J-100000D01*
G01*
X99250000Y-106690000D01*
G75*
G02*
X99150000Y-106790000I-100000J0D01*
G01*
X98650000Y-106790000D01*
G75*
G02*
X98550000Y-106690000I0J100000D01*
G01*
G37*
G36*
G01*
X98550000Y-107190000D02*
X98550000Y-107040000D01*
G75*
G02*
X98650000Y-106940000I100000J0D01*
G01*
X99150000Y-106940000D01*
G75*
G02*
X99250000Y-107040000I0J-100000D01*
G01*
X99250000Y-107190000D01*
G75*
G02*
X99150000Y-107290000I-100000J0D01*
G01*
X98650000Y-107290000D01*
G75*
G02*
X98550000Y-107190000I0J100000D01*
G01*
G37*
G36*
G01*
X98550000Y-107690000D02*
X98550000Y-107540000D01*
G75*
G02*
X98650000Y-107440000I100000J0D01*
G01*
X99150000Y-107440000D01*
G75*
G02*
X99250000Y-107540000I0J-100000D01*
G01*
X99250000Y-107690000D01*
G75*
G02*
X99150000Y-107790000I-100000J0D01*
G01*
X98650000Y-107790000D01*
G75*
G02*
X98550000Y-107690000I0J100000D01*
G01*
G37*
G36*
G01*
X99450000Y-107675000D02*
X99450000Y-107555000D01*
G75*
G02*
X99540000Y-107465000I90000J0D01*
G01*
X100460000Y-107465000D01*
G75*
G02*
X100550000Y-107555000I0J-90000D01*
G01*
X100550000Y-107675000D01*
G75*
G02*
X100460000Y-107765000I-90000J0D01*
G01*
X99540000Y-107765000D01*
G75*
G02*
X99450000Y-107675000I0J90000D01*
G01*
G37*
G36*
G01*
X99450000Y-107175000D02*
X99450000Y-107055000D01*
G75*
G02*
X99540000Y-106965000I90000J0D01*
G01*
X100460000Y-106965000D01*
G75*
G02*
X100550000Y-107055000I0J-90000D01*
G01*
X100550000Y-107175000D01*
G75*
G02*
X100460000Y-107265000I-90000J0D01*
G01*
X99540000Y-107265000D01*
G75*
G02*
X99450000Y-107175000I0J90000D01*
G01*
G37*
G36*
G01*
X99450000Y-106675000D02*
X99450000Y-106555000D01*
G75*
G02*
X99540000Y-106465000I90000J0D01*
G01*
X100460000Y-106465000D01*
G75*
G02*
X100550000Y-106555000I0J-90000D01*
G01*
X100550000Y-106675000D01*
G75*
G02*
X100460000Y-106765000I-90000J0D01*
G01*
X99540000Y-106765000D01*
G75*
G02*
X99450000Y-106675000I0J90000D01*
G01*
G37*
G36*
G01*
X127505000Y-113190000D02*
X127955000Y-113190000D01*
G75*
G02*
X128005000Y-113240000I0J-50000D01*
G01*
X128005000Y-113840000D01*
G75*
G02*
X127955000Y-113890000I-50000J0D01*
G01*
X127505000Y-113890000D01*
G75*
G02*
X127455000Y-113840000I0J50000D01*
G01*
X127455000Y-113240000D01*
G75*
G02*
X127505000Y-113190000I50000J0D01*
G01*
G37*
G36*
G01*
X127505000Y-115290000D02*
X127955000Y-115290000D01*
G75*
G02*
X128005000Y-115340000I0J-50000D01*
G01*
X128005000Y-115940000D01*
G75*
G02*
X127955000Y-115990000I-50000J0D01*
G01*
X127505000Y-115990000D01*
G75*
G02*
X127455000Y-115940000I0J50000D01*
G01*
X127455000Y-115340000D01*
G75*
G02*
X127505000Y-115290000I50000J0D01*
G01*
G37*
D12*
X118600000Y-118600000D03*
X117800000Y-118600000D03*
X117000000Y-118600000D03*
X116200000Y-118600000D03*
X115400000Y-118600000D03*
X114600000Y-118600000D03*
X113800000Y-118600000D03*
X113000000Y-118600000D03*
X112200000Y-118600000D03*
X111400000Y-118600000D03*
X118600000Y-117800000D03*
X117800000Y-117800000D03*
X117000000Y-117800000D03*
X116200000Y-117800000D03*
X115400000Y-117800000D03*
X114600000Y-117800000D03*
X113800000Y-117800000D03*
X113000000Y-117800000D03*
X112200000Y-117800000D03*
X111400000Y-117800000D03*
X118600000Y-117000000D03*
X117800000Y-117000000D03*
X117000000Y-117000000D03*
X116200000Y-117000000D03*
X115400000Y-117000000D03*
X114600000Y-117000000D03*
X113800000Y-117000000D03*
X113000000Y-117000000D03*
X112200000Y-117000000D03*
X111400000Y-117000000D03*
X118600000Y-116200000D03*
X117800000Y-116200000D03*
X117000000Y-116200000D03*
X116200000Y-116200000D03*
X115400000Y-116200000D03*
X114600000Y-116200000D03*
X113800000Y-116200000D03*
X113000000Y-116200000D03*
X112200000Y-116200000D03*
X111400000Y-116200000D03*
X118600000Y-115400000D03*
X117800000Y-115400000D03*
X117000000Y-115400000D03*
X116200000Y-115400000D03*
X115400000Y-115400000D03*
X114600000Y-115400000D03*
X113800000Y-115400000D03*
X113000000Y-115400000D03*
X112200000Y-115400000D03*
X111400000Y-115400000D03*
X118600000Y-114600000D03*
X117800000Y-114600000D03*
X117000000Y-114600000D03*
X116200000Y-114600000D03*
X115400000Y-114600000D03*
X114600000Y-114600000D03*
X113800000Y-114600000D03*
X113000000Y-114600000D03*
X112200000Y-114600000D03*
X111400000Y-114600000D03*
X118600000Y-113800000D03*
X117800000Y-113800000D03*
X117000000Y-113800000D03*
X116200000Y-113800000D03*
X115400000Y-113800000D03*
X114600000Y-113800000D03*
X113800000Y-113800000D03*
X113000000Y-113800000D03*
X112200000Y-113800000D03*
X111400000Y-113800000D03*
X118600000Y-113000000D03*
X117800000Y-113000000D03*
X117000000Y-113000000D03*
X116200000Y-113000000D03*
X115400000Y-113000000D03*
X114600000Y-113000000D03*
X113800000Y-113000000D03*
X113000000Y-113000000D03*
X112200000Y-113000000D03*
X111400000Y-113000000D03*
X118600000Y-112200000D03*
X117800000Y-112200000D03*
X117000000Y-112200000D03*
X116200000Y-112200000D03*
X115400000Y-112200000D03*
X114600000Y-112200000D03*
X113800000Y-112200000D03*
X113000000Y-112200000D03*
X112200000Y-112200000D03*
X111400000Y-112200000D03*
X118600000Y-111400000D03*
X117800000Y-111400000D03*
X117000000Y-111400000D03*
X116200000Y-111400000D03*
X115400000Y-111400000D03*
X114600000Y-111400000D03*
X113800000Y-111400000D03*
X113000000Y-111400000D03*
X112200000Y-111400000D03*
X111400000Y-111400000D03*
G36*
G01*
X103250000Y-132380000D02*
X103250000Y-130620000D01*
G75*
G02*
X103570000Y-130300000I320000J0D01*
G01*
X104830000Y-130300000D01*
G75*
G02*
X105150000Y-130620000I0J-320000D01*
G01*
X105150000Y-132380000D01*
G75*
G02*
X104830000Y-132700000I-320000J0D01*
G01*
X103570000Y-132700000D01*
G75*
G02*
X103250000Y-132380000I0J320000D01*
G01*
G37*
G36*
G01*
X120700000Y-104475000D02*
X120700000Y-102925000D01*
G75*
G02*
X120975000Y-102650000I275000J0D01*
G01*
X122025000Y-102650000D01*
G75*
G02*
X122300000Y-102925000I0J-275000D01*
G01*
X122300000Y-104475000D01*
G75*
G02*
X122025000Y-104750000I-275000J0D01*
G01*
X120975000Y-104750000D01*
G75*
G02*
X120700000Y-104475000I0J275000D01*
G01*
G37*
G36*
G01*
X120000000Y-129475000D02*
X120000000Y-127925000D01*
G75*
G02*
X120275000Y-127650000I275000J0D01*
G01*
X121325000Y-127650000D01*
G75*
G02*
X121600000Y-127925000I0J-275000D01*
G01*
X121600000Y-129475000D01*
G75*
G02*
X121325000Y-129750000I-275000J0D01*
G01*
X120275000Y-129750000D01*
G75*
G02*
X120000000Y-129475000I0J275000D01*
G01*
G37*
G36*
G01*
X132542500Y-104930000D02*
X132267500Y-104930000D01*
G75*
G02*
X132080000Y-104742500I0J187500D01*
G01*
X132080000Y-104417500D01*
G75*
G02*
X132267500Y-104230000I187500J0D01*
G01*
X132542500Y-104230000D01*
G75*
G02*
X132730000Y-104417500I0J-187500D01*
G01*
X132730000Y-104742500D01*
G75*
G02*
X132542500Y-104930000I-187500J0D01*
G01*
G37*
G36*
X130583806Y-105235866D02*
G01*
X130594645Y-105219645D01*
X130610866Y-105208806D01*
X130630000Y-105205000D01*
X131155000Y-105205000D01*
X131174134Y-105208806D01*
X131190355Y-105219645D01*
X131250710Y-105280000D01*
X131609290Y-105280000D01*
X131669645Y-105219645D01*
X131685866Y-105208806D01*
X131705000Y-105205000D01*
X132230000Y-105205000D01*
X132249134Y-105208806D01*
X132265355Y-105219645D01*
X132276194Y-105235866D01*
X132280000Y-105255000D01*
X132280000Y-105830000D01*
X132276194Y-105849134D01*
X132265355Y-105865355D01*
X132249134Y-105876194D01*
X132230000Y-105880000D01*
X130630000Y-105880000D01*
X130610866Y-105876194D01*
X130594645Y-105865355D01*
X130583806Y-105849134D01*
X130580000Y-105830000D01*
X130580000Y-105255000D01*
X130583806Y-105235866D01*
G37*
G36*
X130583806Y-103310866D02*
G01*
X130594645Y-103294645D01*
X130610866Y-103283806D01*
X130630000Y-103280000D01*
X132230000Y-103280000D01*
X132249134Y-103283806D01*
X132265355Y-103294645D01*
X132276194Y-103310866D01*
X132280000Y-103330000D01*
X132280000Y-103905000D01*
X132276194Y-103924134D01*
X132265355Y-103940355D01*
X132249134Y-103951194D01*
X132230000Y-103955000D01*
X131705000Y-103955000D01*
X131685866Y-103951194D01*
X131669645Y-103940355D01*
X131609290Y-103880000D01*
X131250710Y-103880000D01*
X131190355Y-103940355D01*
X131174134Y-103951194D01*
X131155000Y-103955000D01*
X130630000Y-103955000D01*
X130610866Y-103951194D01*
X130594645Y-103940355D01*
X130583806Y-103924134D01*
X130580000Y-103905000D01*
X130580000Y-103330000D01*
X130583806Y-103310866D01*
G37*
G36*
G01*
X130567500Y-104930000D02*
X130292500Y-104930000D01*
G75*
G02*
X130105000Y-104742500I0J187500D01*
G01*
X130105000Y-104417500D01*
G75*
G02*
X130292500Y-104230000I187500J0D01*
G01*
X130567500Y-104230000D01*
G75*
G02*
X130755000Y-104417500I0J-187500D01*
G01*
X130755000Y-104742500D01*
G75*
G02*
X130567500Y-104930000I-187500J0D01*
G01*
G37*
G36*
G01*
X99030000Y-124615000D02*
X99030000Y-124985000D01*
G75*
G02*
X98845000Y-125170000I-185000J0D01*
G01*
X98575000Y-125170000D01*
G75*
G02*
X98390000Y-124985000I0J185000D01*
G01*
X98390000Y-124615000D01*
G75*
G02*
X98575000Y-124430000I185000J0D01*
G01*
X98845000Y-124430000D01*
G75*
G02*
X99030000Y-124615000I0J-185000D01*
G01*
G37*
G36*
G01*
X98010000Y-124615000D02*
X98010000Y-124985000D01*
G75*
G02*
X97825000Y-125170000I-185000J0D01*
G01*
X97555000Y-125170000D01*
G75*
G02*
X97370000Y-124985000I0J185000D01*
G01*
X97370000Y-124615000D01*
G75*
G02*
X97555000Y-124430000I185000J0D01*
G01*
X97825000Y-124430000D01*
G75*
G02*
X98010000Y-124615000I0J-185000D01*
G01*
G37*
D13*
X121970000Y-98820000D03*
G36*
G01*
X121370000Y-98895000D02*
X121370000Y-97845000D01*
G75*
G02*
X121895000Y-97320000I525000J0D01*
G01*
X122845000Y-97320000D01*
G75*
G02*
X123370000Y-97845000I0J-525000D01*
G01*
X123370000Y-98895000D01*
G75*
G02*
X122845000Y-99420000I-525000J0D01*
G01*
X121895000Y-99420000D01*
G75*
G02*
X121370000Y-98895000I0J525000D01*
G01*
G37*
G36*
G01*
X119400000Y-127925000D02*
X119400000Y-129475000D01*
G75*
G02*
X119125000Y-129750000I-275000J0D01*
G01*
X118075000Y-129750000D01*
G75*
G02*
X117800000Y-129475000I0J275000D01*
G01*
X117800000Y-127925000D01*
G75*
G02*
X118075000Y-127650000I275000J0D01*
G01*
X119125000Y-127650000D01*
G75*
G02*
X119400000Y-127925000I0J-275000D01*
G01*
G37*
G36*
G01*
X119600000Y-101775000D02*
X119600000Y-100225000D01*
G75*
G02*
X119875000Y-99950000I275000J0D01*
G01*
X120925000Y-99950000D01*
G75*
G02*
X121200000Y-100225000I0J-275000D01*
G01*
X121200000Y-101775000D01*
G75*
G02*
X120925000Y-102050000I-275000J0D01*
G01*
X119875000Y-102050000D01*
G75*
G02*
X119600000Y-101775000I0J275000D01*
G01*
G37*
G36*
G01*
X109430000Y-112015000D02*
X109430000Y-112385000D01*
G75*
G02*
X109245000Y-112570000I-185000J0D01*
G01*
X108975000Y-112570000D01*
G75*
G02*
X108790000Y-112385000I0J185000D01*
G01*
X108790000Y-112015000D01*
G75*
G02*
X108975000Y-111830000I185000J0D01*
G01*
X109245000Y-111830000D01*
G75*
G02*
X109430000Y-112015000I0J-185000D01*
G01*
G37*
G36*
G01*
X108410000Y-112015000D02*
X108410000Y-112385000D01*
G75*
G02*
X108225000Y-112570000I-185000J0D01*
G01*
X107955000Y-112570000D01*
G75*
G02*
X107770000Y-112385000I0J185000D01*
G01*
X107770000Y-112015000D01*
G75*
G02*
X107955000Y-111830000I185000J0D01*
G01*
X108225000Y-111830000D01*
G75*
G02*
X108410000Y-112015000I0J-185000D01*
G01*
G37*
G36*
G01*
X106050000Y-125290000D02*
X106050000Y-126190000D01*
G75*
G02*
X106000000Y-126240000I-50000J0D01*
G01*
X104500000Y-126240000D01*
G75*
G02*
X104450000Y-126190000I0J50000D01*
G01*
X104450000Y-125290000D01*
G75*
G02*
X104500000Y-125240000I50000J0D01*
G01*
X106000000Y-125240000D01*
G75*
G02*
X106050000Y-125290000I0J-50000D01*
G01*
G37*
G36*
G01*
X106050000Y-121990000D02*
X106050000Y-122890000D01*
G75*
G02*
X106000000Y-122940000I-50000J0D01*
G01*
X104500000Y-122940000D01*
G75*
G02*
X104450000Y-122890000I0J50000D01*
G01*
X104450000Y-121990000D01*
G75*
G02*
X104500000Y-121940000I50000J0D01*
G01*
X106000000Y-121940000D01*
G75*
G02*
X106050000Y-121990000I0J-50000D01*
G01*
G37*
G36*
G01*
X101150000Y-121990000D02*
X101150000Y-122890000D01*
G75*
G02*
X101100000Y-122940000I-50000J0D01*
G01*
X99600000Y-122940000D01*
G75*
G02*
X99550000Y-122890000I0J50000D01*
G01*
X99550000Y-121990000D01*
G75*
G02*
X99600000Y-121940000I50000J0D01*
G01*
X101100000Y-121940000D01*
G75*
G02*
X101150000Y-121990000I0J-50000D01*
G01*
G37*
G36*
G01*
X101150000Y-125290000D02*
X101150000Y-126190000D01*
G75*
G02*
X101100000Y-126240000I-50000J0D01*
G01*
X99600000Y-126240000D01*
G75*
G02*
X99550000Y-126190000I0J50000D01*
G01*
X99550000Y-125290000D01*
G75*
G02*
X99600000Y-125240000I50000J0D01*
G01*
X101100000Y-125240000D01*
G75*
G02*
X101150000Y-125290000I0J-50000D01*
G01*
G37*
G36*
G01*
X122770000Y-129610000D02*
X122430000Y-129610000D01*
G75*
G02*
X122240000Y-129420000I0J190000D01*
G01*
X122240000Y-129140000D01*
G75*
G02*
X122430000Y-128950000I190000J0D01*
G01*
X122770000Y-128950000D01*
G75*
G02*
X122960000Y-129140000I0J-190000D01*
G01*
X122960000Y-129420000D01*
G75*
G02*
X122770000Y-129610000I-190000J0D01*
G01*
G37*
G36*
G01*
X122770000Y-128650000D02*
X122430000Y-128650000D01*
G75*
G02*
X122240000Y-128460000I0J190000D01*
G01*
X122240000Y-128180000D01*
G75*
G02*
X122430000Y-127990000I190000J0D01*
G01*
X122770000Y-127990000D01*
G75*
G02*
X122960000Y-128180000I0J-190000D01*
G01*
X122960000Y-128460000D01*
G75*
G02*
X122770000Y-128650000I-190000J0D01*
G01*
G37*
G36*
G01*
X126805000Y-102200000D02*
X126435000Y-102200000D01*
G75*
G02*
X126250000Y-102015000I0J185000D01*
G01*
X126250000Y-101745000D01*
G75*
G02*
X126435000Y-101560000I185000J0D01*
G01*
X126805000Y-101560000D01*
G75*
G02*
X126990000Y-101745000I0J-185000D01*
G01*
X126990000Y-102015000D01*
G75*
G02*
X126805000Y-102200000I-185000J0D01*
G01*
G37*
G36*
G01*
X126805000Y-101180000D02*
X126435000Y-101180000D01*
G75*
G02*
X126250000Y-100995000I0J185000D01*
G01*
X126250000Y-100725000D01*
G75*
G02*
X126435000Y-100540000I185000J0D01*
G01*
X126805000Y-100540000D01*
G75*
G02*
X126990000Y-100725000I0J-185000D01*
G01*
X126990000Y-100995000D01*
G75*
G02*
X126805000Y-101180000I-185000J0D01*
G01*
G37*
G36*
G01*
X102585000Y-116530000D02*
X102215000Y-116530000D01*
G75*
G02*
X102030000Y-116345000I0J185000D01*
G01*
X102030000Y-116075000D01*
G75*
G02*
X102215000Y-115890000I185000J0D01*
G01*
X102585000Y-115890000D01*
G75*
G02*
X102770000Y-116075000I0J-185000D01*
G01*
X102770000Y-116345000D01*
G75*
G02*
X102585000Y-116530000I-185000J0D01*
G01*
G37*
G36*
G01*
X102585000Y-115510000D02*
X102215000Y-115510000D01*
G75*
G02*
X102030000Y-115325000I0J185000D01*
G01*
X102030000Y-115055000D01*
G75*
G02*
X102215000Y-114870000I185000J0D01*
G01*
X102585000Y-114870000D01*
G75*
G02*
X102770000Y-115055000I0J-185000D01*
G01*
X102770000Y-115325000D01*
G75*
G02*
X102585000Y-115510000I-185000J0D01*
G01*
G37*
G36*
G01*
X106400000Y-101775000D02*
X106400000Y-100225000D01*
G75*
G02*
X106675000Y-99950000I275000J0D01*
G01*
X107725000Y-99950000D01*
G75*
G02*
X108000000Y-100225000I0J-275000D01*
G01*
X108000000Y-101775000D01*
G75*
G02*
X107725000Y-102050000I-275000J0D01*
G01*
X106675000Y-102050000D01*
G75*
G02*
X106400000Y-101775000I0J275000D01*
G01*
G37*
G36*
G01*
X102470000Y-109785000D02*
X102470000Y-109415000D01*
G75*
G02*
X102655000Y-109230000I185000J0D01*
G01*
X102925000Y-109230000D01*
G75*
G02*
X103110000Y-109415000I0J-185000D01*
G01*
X103110000Y-109785000D01*
G75*
G02*
X102925000Y-109970000I-185000J0D01*
G01*
X102655000Y-109970000D01*
G75*
G02*
X102470000Y-109785000I0J185000D01*
G01*
G37*
G36*
G01*
X103490000Y-109785000D02*
X103490000Y-109415000D01*
G75*
G02*
X103675000Y-109230000I185000J0D01*
G01*
X103945000Y-109230000D01*
G75*
G02*
X104130000Y-109415000I0J-185000D01*
G01*
X104130000Y-109785000D01*
G75*
G02*
X103945000Y-109970000I-185000J0D01*
G01*
X103675000Y-109970000D01*
G75*
G02*
X103490000Y-109785000I0J185000D01*
G01*
G37*
G36*
G01*
X126137500Y-97587500D02*
X126482500Y-97587500D01*
G75*
G02*
X126680000Y-97785000I0J-197500D01*
G01*
X126680000Y-98080000D01*
G75*
G02*
X126482500Y-98277500I-197500J0D01*
G01*
X126137500Y-98277500D01*
G75*
G02*
X125940000Y-98080000I0J197500D01*
G01*
X125940000Y-97785000D01*
G75*
G02*
X126137500Y-97587500I197500J0D01*
G01*
G37*
G36*
G01*
X126137500Y-98557500D02*
X126482500Y-98557500D01*
G75*
G02*
X126680000Y-98755000I0J-197500D01*
G01*
X126680000Y-99050000D01*
G75*
G02*
X126482500Y-99247500I-197500J0D01*
G01*
X126137500Y-99247500D01*
G75*
G02*
X125940000Y-99050000I0J197500D01*
G01*
X125940000Y-98755000D01*
G75*
G02*
X126137500Y-98557500I197500J0D01*
G01*
G37*
G36*
G01*
X103970000Y-107085000D02*
X103970000Y-106715000D01*
G75*
G02*
X104155000Y-106530000I185000J0D01*
G01*
X104425000Y-106530000D01*
G75*
G02*
X104610000Y-106715000I0J-185000D01*
G01*
X104610000Y-107085000D01*
G75*
G02*
X104425000Y-107270000I-185000J0D01*
G01*
X104155000Y-107270000D01*
G75*
G02*
X103970000Y-107085000I0J185000D01*
G01*
G37*
G36*
G01*
X104990000Y-107085000D02*
X104990000Y-106715000D01*
G75*
G02*
X105175000Y-106530000I185000J0D01*
G01*
X105445000Y-106530000D01*
G75*
G02*
X105630000Y-106715000I0J-185000D01*
G01*
X105630000Y-107085000D01*
G75*
G02*
X105445000Y-107270000I-185000J0D01*
G01*
X105175000Y-107270000D01*
G75*
G02*
X104990000Y-107085000I0J185000D01*
G01*
G37*
G36*
G01*
X126300000Y-123050000D02*
X126300000Y-124350000D01*
G75*
G02*
X126000000Y-124650000I-300000J0D01*
G01*
X125350000Y-124650000D01*
G75*
G02*
X125050000Y-124350000I0J300000D01*
G01*
X125050000Y-123050000D01*
G75*
G02*
X125350000Y-122750000I300000J0D01*
G01*
X126000000Y-122750000D01*
G75*
G02*
X126300000Y-123050000I0J-300000D01*
G01*
G37*
G36*
G01*
X123350000Y-123050000D02*
X123350000Y-124350000D01*
G75*
G02*
X123050000Y-124650000I-300000J0D01*
G01*
X122400000Y-124650000D01*
G75*
G02*
X122100000Y-124350000I0J300000D01*
G01*
X122100000Y-123050000D01*
G75*
G02*
X122400000Y-122750000I300000J0D01*
G01*
X123050000Y-122750000D01*
G75*
G02*
X123350000Y-123050000I0J-300000D01*
G01*
G37*
G36*
G01*
X132225000Y-124140000D02*
X131175000Y-124140000D01*
G75*
G02*
X130650000Y-123615000I0J525000D01*
G01*
X130650000Y-122665000D01*
G75*
G02*
X131175000Y-122140000I525000J0D01*
G01*
X132225000Y-122140000D01*
G75*
G02*
X132750000Y-122665000I0J-525000D01*
G01*
X132750000Y-123615000D01*
G75*
G02*
X132225000Y-124140000I-525000J0D01*
G01*
G37*
X132150000Y-123540000D03*
X104370000Y-98820000D03*
G36*
G01*
X103770000Y-98895000D02*
X103770000Y-97845000D01*
G75*
G02*
X104295000Y-97320000I525000J0D01*
G01*
X105245000Y-97320000D01*
G75*
G02*
X105770000Y-97845000I0J-525000D01*
G01*
X105770000Y-98895000D01*
G75*
G02*
X105245000Y-99420000I-525000J0D01*
G01*
X104295000Y-99420000D01*
G75*
G02*
X103770000Y-98895000I0J525000D01*
G01*
G37*
G36*
G01*
X127650000Y-123250000D02*
X129950000Y-123250000D01*
G75*
G02*
X130000000Y-123300000I0J-50000D01*
G01*
X130000000Y-124150000D01*
G75*
G02*
X129950000Y-124200000I-50000J0D01*
G01*
X127650000Y-124200000D01*
G75*
G02*
X127600000Y-124150000I0J50000D01*
G01*
X127600000Y-123300000D01*
G75*
G02*
X127650000Y-123250000I50000J0D01*
G01*
G37*
G36*
G01*
X127650000Y-125200000D02*
X129950000Y-125200000D01*
G75*
G02*
X130000000Y-125250000I0J-50000D01*
G01*
X130000000Y-126100000D01*
G75*
G02*
X129950000Y-126150000I-50000J0D01*
G01*
X127650000Y-126150000D01*
G75*
G02*
X127600000Y-126100000I0J50000D01*
G01*
X127600000Y-125250000D01*
G75*
G02*
X127650000Y-125200000I50000J0D01*
G01*
G37*
X117080000Y-132160000D03*
G36*
G01*
X116480000Y-132235000D02*
X116480000Y-131185000D01*
G75*
G02*
X117005000Y-130660000I525000J0D01*
G01*
X117955000Y-130660000D01*
G75*
G02*
X118480000Y-131185000I0J-525000D01*
G01*
X118480000Y-132235000D01*
G75*
G02*
X117955000Y-132760000I-525000J0D01*
G01*
X117005000Y-132760000D01*
G75*
G02*
X116480000Y-132235000I0J525000D01*
G01*
G37*
G36*
G01*
X121800000Y-101775000D02*
X121800000Y-100225000D01*
G75*
G02*
X122075000Y-99950000I275000J0D01*
G01*
X123125000Y-99950000D01*
G75*
G02*
X123400000Y-100225000I0J-275000D01*
G01*
X123400000Y-101775000D01*
G75*
G02*
X123125000Y-102050000I-275000J0D01*
G01*
X122075000Y-102050000D01*
G75*
G02*
X121800000Y-101775000I0J275000D01*
G01*
G37*
G36*
G01*
X105980000Y-117565000D02*
X106320000Y-117565000D01*
G75*
G02*
X106510000Y-117755000I0J-190000D01*
G01*
X106510000Y-118035000D01*
G75*
G02*
X106320000Y-118225000I-190000J0D01*
G01*
X105980000Y-118225000D01*
G75*
G02*
X105790000Y-118035000I0J190000D01*
G01*
X105790000Y-117755000D01*
G75*
G02*
X105980000Y-117565000I190000J0D01*
G01*
G37*
G36*
G01*
X105980000Y-118525000D02*
X106320000Y-118525000D01*
G75*
G02*
X106510000Y-118715000I0J-190000D01*
G01*
X106510000Y-118995000D01*
G75*
G02*
X106320000Y-119185000I-190000J0D01*
G01*
X105980000Y-119185000D01*
G75*
G02*
X105790000Y-118995000I0J190000D01*
G01*
X105790000Y-118715000D01*
G75*
G02*
X105980000Y-118525000I190000J0D01*
G01*
G37*
G36*
G01*
X122350000Y-118300000D02*
X123650000Y-118300000D01*
G75*
G02*
X123950000Y-118600000I0J-300000D01*
G01*
X123950000Y-119250000D01*
G75*
G02*
X123650000Y-119550000I-300000J0D01*
G01*
X122350000Y-119550000D01*
G75*
G02*
X122050000Y-119250000I0J300000D01*
G01*
X122050000Y-118600000D01*
G75*
G02*
X122350000Y-118300000I300000J0D01*
G01*
G37*
G36*
G01*
X122350000Y-121250000D02*
X123650000Y-121250000D01*
G75*
G02*
X123950000Y-121550000I0J-300000D01*
G01*
X123950000Y-122200000D01*
G75*
G02*
X123650000Y-122500000I-300000J0D01*
G01*
X122350000Y-122500000D01*
G75*
G02*
X122050000Y-122200000I0J300000D01*
G01*
X122050000Y-121550000D01*
G75*
G02*
X122350000Y-121250000I300000J0D01*
G01*
G37*
G36*
G01*
X103970000Y-108885000D02*
X103970000Y-108515000D01*
G75*
G02*
X104155000Y-108330000I185000J0D01*
G01*
X104425000Y-108330000D01*
G75*
G02*
X104610000Y-108515000I0J-185000D01*
G01*
X104610000Y-108885000D01*
G75*
G02*
X104425000Y-109070000I-185000J0D01*
G01*
X104155000Y-109070000D01*
G75*
G02*
X103970000Y-108885000I0J185000D01*
G01*
G37*
G36*
G01*
X104990000Y-108885000D02*
X104990000Y-108515000D01*
G75*
G02*
X105175000Y-108330000I185000J0D01*
G01*
X105445000Y-108330000D01*
G75*
G02*
X105630000Y-108515000I0J-185000D01*
G01*
X105630000Y-108885000D01*
G75*
G02*
X105445000Y-109070000I-185000J0D01*
G01*
X105175000Y-109070000D01*
G75*
G02*
X104990000Y-108885000I0J185000D01*
G01*
G37*
G36*
G01*
X106575000Y-108350000D02*
X106325000Y-108350000D01*
G75*
G02*
X106275000Y-108300000I0J50000D01*
G01*
X106275000Y-107625000D01*
G75*
G02*
X106325000Y-107575000I50000J0D01*
G01*
X106575000Y-107575000D01*
G75*
G02*
X106625000Y-107625000I0J-50000D01*
G01*
X106625000Y-108300000D01*
G75*
G02*
X106575000Y-108350000I-50000J0D01*
G01*
G37*
G36*
G01*
X107075000Y-108350000D02*
X106825000Y-108350000D01*
G75*
G02*
X106775000Y-108300000I0J50000D01*
G01*
X106775000Y-107625000D01*
G75*
G02*
X106825000Y-107575000I50000J0D01*
G01*
X107075000Y-107575000D01*
G75*
G02*
X107125000Y-107625000I0J-50000D01*
G01*
X107125000Y-108300000D01*
G75*
G02*
X107075000Y-108350000I-50000J0D01*
G01*
G37*
G36*
G01*
X107575000Y-108350000D02*
X107325000Y-108350000D01*
G75*
G02*
X107275000Y-108300000I0J50000D01*
G01*
X107275000Y-107625000D01*
G75*
G02*
X107325000Y-107575000I50000J0D01*
G01*
X107575000Y-107575000D01*
G75*
G02*
X107625000Y-107625000I0J-50000D01*
G01*
X107625000Y-108300000D01*
G75*
G02*
X107575000Y-108350000I-50000J0D01*
G01*
G37*
G36*
G01*
X108075000Y-108350000D02*
X107825000Y-108350000D01*
G75*
G02*
X107775000Y-108300000I0J50000D01*
G01*
X107775000Y-107625000D01*
G75*
G02*
X107825000Y-107575000I50000J0D01*
G01*
X108075000Y-107575000D01*
G75*
G02*
X108125000Y-107625000I0J-50000D01*
G01*
X108125000Y-108300000D01*
G75*
G02*
X108075000Y-108350000I-50000J0D01*
G01*
G37*
G36*
G01*
X108550000Y-107375000D02*
X107875000Y-107375000D01*
G75*
G02*
X107825000Y-107325000I0J50000D01*
G01*
X107825000Y-107075000D01*
G75*
G02*
X107875000Y-107025000I50000J0D01*
G01*
X108550000Y-107025000D01*
G75*
G02*
X108600000Y-107075000I0J-50000D01*
G01*
X108600000Y-107325000D01*
G75*
G02*
X108550000Y-107375000I-50000J0D01*
G01*
G37*
G36*
G01*
X108550000Y-106875000D02*
X107875000Y-106875000D01*
G75*
G02*
X107825000Y-106825000I0J50000D01*
G01*
X107825000Y-106575000D01*
G75*
G02*
X107875000Y-106525000I50000J0D01*
G01*
X108550000Y-106525000D01*
G75*
G02*
X108600000Y-106575000I0J-50000D01*
G01*
X108600000Y-106825000D01*
G75*
G02*
X108550000Y-106875000I-50000J0D01*
G01*
G37*
G36*
G01*
X108550000Y-106375000D02*
X107875000Y-106375000D01*
G75*
G02*
X107825000Y-106325000I0J50000D01*
G01*
X107825000Y-106075000D01*
G75*
G02*
X107875000Y-106025000I50000J0D01*
G01*
X108550000Y-106025000D01*
G75*
G02*
X108600000Y-106075000I0J-50000D01*
G01*
X108600000Y-106325000D01*
G75*
G02*
X108550000Y-106375000I-50000J0D01*
G01*
G37*
G36*
G01*
X108075000Y-105825000D02*
X107825000Y-105825000D01*
G75*
G02*
X107775000Y-105775000I0J50000D01*
G01*
X107775000Y-105100000D01*
G75*
G02*
X107825000Y-105050000I50000J0D01*
G01*
X108075000Y-105050000D01*
G75*
G02*
X108125000Y-105100000I0J-50000D01*
G01*
X108125000Y-105775000D01*
G75*
G02*
X108075000Y-105825000I-50000J0D01*
G01*
G37*
G36*
G01*
X107575000Y-105825000D02*
X107325000Y-105825000D01*
G75*
G02*
X107275000Y-105775000I0J50000D01*
G01*
X107275000Y-105100000D01*
G75*
G02*
X107325000Y-105050000I50000J0D01*
G01*
X107575000Y-105050000D01*
G75*
G02*
X107625000Y-105100000I0J-50000D01*
G01*
X107625000Y-105775000D01*
G75*
G02*
X107575000Y-105825000I-50000J0D01*
G01*
G37*
G36*
G01*
X107075000Y-105825000D02*
X106825000Y-105825000D01*
G75*
G02*
X106775000Y-105775000I0J50000D01*
G01*
X106775000Y-105100000D01*
G75*
G02*
X106825000Y-105050000I50000J0D01*
G01*
X107075000Y-105050000D01*
G75*
G02*
X107125000Y-105100000I0J-50000D01*
G01*
X107125000Y-105775000D01*
G75*
G02*
X107075000Y-105825000I-50000J0D01*
G01*
G37*
G36*
G01*
X106575000Y-105825000D02*
X106325000Y-105825000D01*
G75*
G02*
X106275000Y-105775000I0J50000D01*
G01*
X106275000Y-105100000D01*
G75*
G02*
X106325000Y-105050000I50000J0D01*
G01*
X106575000Y-105050000D01*
G75*
G02*
X106625000Y-105100000I0J-50000D01*
G01*
X106625000Y-105775000D01*
G75*
G02*
X106575000Y-105825000I-50000J0D01*
G01*
G37*
G36*
G01*
X106525000Y-106375000D02*
X105850000Y-106375000D01*
G75*
G02*
X105800000Y-106325000I0J50000D01*
G01*
X105800000Y-106075000D01*
G75*
G02*
X105850000Y-106025000I50000J0D01*
G01*
X106525000Y-106025000D01*
G75*
G02*
X106575000Y-106075000I0J-50000D01*
G01*
X106575000Y-106325000D01*
G75*
G02*
X106525000Y-106375000I-50000J0D01*
G01*
G37*
G36*
G01*
X106525000Y-106875000D02*
X105850000Y-106875000D01*
G75*
G02*
X105800000Y-106825000I0J50000D01*
G01*
X105800000Y-106575000D01*
G75*
G02*
X105850000Y-106525000I50000J0D01*
G01*
X106525000Y-106525000D01*
G75*
G02*
X106575000Y-106575000I0J-50000D01*
G01*
X106575000Y-106825000D01*
G75*
G02*
X106525000Y-106875000I-50000J0D01*
G01*
G37*
G36*
G01*
X106525000Y-107375000D02*
X105850000Y-107375000D01*
G75*
G02*
X105800000Y-107325000I0J50000D01*
G01*
X105800000Y-107075000D01*
G75*
G02*
X105850000Y-107025000I50000J0D01*
G01*
X106525000Y-107025000D01*
G75*
G02*
X106575000Y-107075000I0J-50000D01*
G01*
X106575000Y-107325000D01*
G75*
G02*
X106525000Y-107375000I-50000J0D01*
G01*
G37*
G36*
G01*
X125950000Y-125275000D02*
X125950000Y-127125000D01*
G75*
G02*
X125650000Y-127425000I-300000J0D01*
G01*
X124825000Y-127425000D01*
G75*
G02*
X124525000Y-127125000I0J300000D01*
G01*
X124525000Y-125275000D01*
G75*
G02*
X124825000Y-124975000I300000J0D01*
G01*
X125650000Y-124975000D01*
G75*
G02*
X125950000Y-125275000I0J-300000D01*
G01*
G37*
G36*
G01*
X122875000Y-125275000D02*
X122875000Y-127125000D01*
G75*
G02*
X122575000Y-127425000I-300000J0D01*
G01*
X121750000Y-127425000D01*
G75*
G02*
X121450000Y-127125000I0J300000D01*
G01*
X121450000Y-125275000D01*
G75*
G02*
X121750000Y-124975000I300000J0D01*
G01*
X122575000Y-124975000D01*
G75*
G02*
X122875000Y-125275000I0J-300000D01*
G01*
G37*
G36*
G01*
X106830000Y-117565000D02*
X107170000Y-117565000D01*
G75*
G02*
X107360000Y-117755000I0J-190000D01*
G01*
X107360000Y-118035000D01*
G75*
G02*
X107170000Y-118225000I-190000J0D01*
G01*
X106830000Y-118225000D01*
G75*
G02*
X106640000Y-118035000I0J190000D01*
G01*
X106640000Y-117755000D01*
G75*
G02*
X106830000Y-117565000I190000J0D01*
G01*
G37*
G36*
G01*
X106830000Y-118525000D02*
X107170000Y-118525000D01*
G75*
G02*
X107360000Y-118715000I0J-190000D01*
G01*
X107360000Y-118995000D01*
G75*
G02*
X107170000Y-119185000I-190000J0D01*
G01*
X106830000Y-119185000D01*
G75*
G02*
X106640000Y-118995000I0J190000D01*
G01*
X106640000Y-118715000D01*
G75*
G02*
X106830000Y-118525000I190000J0D01*
G01*
G37*
G36*
G01*
X111200000Y-129475000D02*
X111200000Y-127925000D01*
G75*
G02*
X111475000Y-127650000I275000J0D01*
G01*
X112525000Y-127650000D01*
G75*
G02*
X112800000Y-127925000I0J-275000D01*
G01*
X112800000Y-129475000D01*
G75*
G02*
X112525000Y-129750000I-275000J0D01*
G01*
X111475000Y-129750000D01*
G75*
G02*
X111200000Y-129475000I0J275000D01*
G01*
G37*
G36*
G01*
X104200000Y-101775000D02*
X104200000Y-100225000D01*
G75*
G02*
X104475000Y-99950000I275000J0D01*
G01*
X105525000Y-99950000D01*
G75*
G02*
X105800000Y-100225000I0J-275000D01*
G01*
X105800000Y-101775000D01*
G75*
G02*
X105525000Y-102050000I-275000J0D01*
G01*
X104475000Y-102050000D01*
G75*
G02*
X104200000Y-101775000I0J275000D01*
G01*
G37*
G36*
G01*
X110800000Y-101775000D02*
X110800000Y-100225000D01*
G75*
G02*
X111075000Y-99950000I275000J0D01*
G01*
X112125000Y-99950000D01*
G75*
G02*
X112400000Y-100225000I0J-275000D01*
G01*
X112400000Y-101775000D01*
G75*
G02*
X112125000Y-102050000I-275000J0D01*
G01*
X111075000Y-102050000D01*
G75*
G02*
X110800000Y-101775000I0J275000D01*
G01*
G37*
G36*
G01*
X103970000Y-106185000D02*
X103970000Y-105815000D01*
G75*
G02*
X104155000Y-105630000I185000J0D01*
G01*
X104425000Y-105630000D01*
G75*
G02*
X104610000Y-105815000I0J-185000D01*
G01*
X104610000Y-106185000D01*
G75*
G02*
X104425000Y-106370000I-185000J0D01*
G01*
X104155000Y-106370000D01*
G75*
G02*
X103970000Y-106185000I0J185000D01*
G01*
G37*
G36*
G01*
X104990000Y-106185000D02*
X104990000Y-105815000D01*
G75*
G02*
X105175000Y-105630000I185000J0D01*
G01*
X105445000Y-105630000D01*
G75*
G02*
X105630000Y-105815000I0J-185000D01*
G01*
X105630000Y-106185000D01*
G75*
G02*
X105445000Y-106370000I-185000J0D01*
G01*
X105175000Y-106370000D01*
G75*
G02*
X104990000Y-106185000I0J185000D01*
G01*
G37*
G36*
G01*
X113400000Y-129475000D02*
X113400000Y-127925000D01*
G75*
G02*
X113675000Y-127650000I275000J0D01*
G01*
X114725000Y-127650000D01*
G75*
G02*
X115000000Y-127925000I0J-275000D01*
G01*
X115000000Y-129475000D01*
G75*
G02*
X114725000Y-129750000I-275000J0D01*
G01*
X113675000Y-129750000D01*
G75*
G02*
X113400000Y-129475000I0J275000D01*
G01*
G37*
G36*
G01*
X111065000Y-124095000D02*
X111065000Y-123755000D01*
G75*
G02*
X111255000Y-123565000I190000J0D01*
G01*
X111535000Y-123565000D01*
G75*
G02*
X111725000Y-123755000I0J-190000D01*
G01*
X111725000Y-124095000D01*
G75*
G02*
X111535000Y-124285000I-190000J0D01*
G01*
X111255000Y-124285000D01*
G75*
G02*
X111065000Y-124095000I0J190000D01*
G01*
G37*
G36*
G01*
X112025000Y-124095000D02*
X112025000Y-123755000D01*
G75*
G02*
X112215000Y-123565000I190000J0D01*
G01*
X112495000Y-123565000D01*
G75*
G02*
X112685000Y-123755000I0J-190000D01*
G01*
X112685000Y-124095000D01*
G75*
G02*
X112495000Y-124285000I-190000J0D01*
G01*
X112215000Y-124285000D01*
G75*
G02*
X112025000Y-124095000I0J190000D01*
G01*
G37*
G36*
G01*
X103655000Y-101560000D02*
X103285000Y-101560000D01*
G75*
G02*
X103100000Y-101375000I0J185000D01*
G01*
X103100000Y-101105000D01*
G75*
G02*
X103285000Y-100920000I185000J0D01*
G01*
X103655000Y-100920000D01*
G75*
G02*
X103840000Y-101105000I0J-185000D01*
G01*
X103840000Y-101375000D01*
G75*
G02*
X103655000Y-101560000I-185000J0D01*
G01*
G37*
G36*
G01*
X103655000Y-100540000D02*
X103285000Y-100540000D01*
G75*
G02*
X103100000Y-100355000I0J185000D01*
G01*
X103100000Y-100085000D01*
G75*
G02*
X103285000Y-99900000I185000J0D01*
G01*
X103655000Y-99900000D01*
G75*
G02*
X103840000Y-100085000I0J-185000D01*
G01*
X103840000Y-100355000D01*
G75*
G02*
X103655000Y-100540000I-185000J0D01*
G01*
G37*
G36*
G01*
X108050000Y-125950000D02*
X108750000Y-125950000D01*
G75*
G02*
X108800000Y-126000000I0J-50000D01*
G01*
X108800000Y-126600000D01*
G75*
G02*
X108750000Y-126650000I-50000J0D01*
G01*
X108050000Y-126650000D01*
G75*
G02*
X108000000Y-126600000I0J50000D01*
G01*
X108000000Y-126000000D01*
G75*
G02*
X108050000Y-125950000I50000J0D01*
G01*
G37*
G36*
G01*
X108050000Y-124550000D02*
X108750000Y-124550000D01*
G75*
G02*
X108800000Y-124600000I0J-50000D01*
G01*
X108800000Y-125200000D01*
G75*
G02*
X108750000Y-125250000I-50000J0D01*
G01*
X108050000Y-125250000D01*
G75*
G02*
X108000000Y-125200000I0J50000D01*
G01*
X108000000Y-124600000D01*
G75*
G02*
X108050000Y-124550000I50000J0D01*
G01*
G37*
G36*
G01*
X110100000Y-126775000D02*
X110100000Y-125225000D01*
G75*
G02*
X110375000Y-124950000I275000J0D01*
G01*
X111425000Y-124950000D01*
G75*
G02*
X111700000Y-125225000I0J-275000D01*
G01*
X111700000Y-126775000D01*
G75*
G02*
X111425000Y-127050000I-275000J0D01*
G01*
X110375000Y-127050000D01*
G75*
G02*
X110100000Y-126775000I0J275000D01*
G01*
G37*
G36*
G01*
X99030000Y-122227500D02*
X99030000Y-122572500D01*
G75*
G02*
X98832500Y-122770000I-197500J0D01*
G01*
X98537500Y-122770000D01*
G75*
G02*
X98340000Y-122572500I0J197500D01*
G01*
X98340000Y-122227500D01*
G75*
G02*
X98537500Y-122030000I197500J0D01*
G01*
X98832500Y-122030000D01*
G75*
G02*
X99030000Y-122227500I0J-197500D01*
G01*
G37*
G36*
G01*
X98060000Y-122227500D02*
X98060000Y-122572500D01*
G75*
G02*
X97862500Y-122770000I-197500J0D01*
G01*
X97567500Y-122770000D01*
G75*
G02*
X97370000Y-122572500I0J197500D01*
G01*
X97370000Y-122227500D01*
G75*
G02*
X97567500Y-122030000I197500J0D01*
G01*
X97862500Y-122030000D01*
G75*
G02*
X98060000Y-122227500I0J-197500D01*
G01*
G37*
G36*
G01*
X128562500Y-122250000D02*
X129037500Y-122250000D01*
G75*
G02*
X129150000Y-122362500I0J-112500D01*
G01*
X129150000Y-122487500D01*
G75*
G02*
X129037500Y-122600000I-112500J0D01*
G01*
X128562500Y-122600000D01*
G75*
G02*
X128450000Y-122487500I0J112500D01*
G01*
X128450000Y-122362500D01*
G75*
G02*
X128562500Y-122250000I112500J0D01*
G01*
G37*
G36*
G01*
X128562500Y-121600000D02*
X129037500Y-121600000D01*
G75*
G02*
X129150000Y-121712500I0J-112500D01*
G01*
X129150000Y-121837500D01*
G75*
G02*
X129037500Y-121950000I-112500J0D01*
G01*
X128562500Y-121950000D01*
G75*
G02*
X128450000Y-121837500I0J112500D01*
G01*
X128450000Y-121712500D01*
G75*
G02*
X128562500Y-121600000I112500J0D01*
G01*
G37*
G36*
G01*
X128562500Y-120950000D02*
X129037500Y-120950000D01*
G75*
G02*
X129150000Y-121062500I0J-112500D01*
G01*
X129150000Y-121187500D01*
G75*
G02*
X129037500Y-121300000I-112500J0D01*
G01*
X128562500Y-121300000D01*
G75*
G02*
X128450000Y-121187500I0J112500D01*
G01*
X128450000Y-121062500D01*
G75*
G02*
X128562500Y-120950000I112500J0D01*
G01*
G37*
G36*
G01*
X128562500Y-120450000D02*
X129037500Y-120450000D01*
G75*
G02*
X129150000Y-120562500I0J-112500D01*
G01*
X129150000Y-120687500D01*
G75*
G02*
X129037500Y-120800000I-112500J0D01*
G01*
X128562500Y-120800000D01*
G75*
G02*
X128450000Y-120687500I0J112500D01*
G01*
X128450000Y-120562500D01*
G75*
G02*
X128562500Y-120450000I112500J0D01*
G01*
G37*
G36*
G01*
X128225000Y-120137500D02*
X128225000Y-119662500D01*
G75*
G02*
X128337500Y-119550000I112500J0D01*
G01*
X128462500Y-119550000D01*
G75*
G02*
X128575000Y-119662500I0J-112500D01*
G01*
X128575000Y-120137500D01*
G75*
G02*
X128462500Y-120250000I-112500J0D01*
G01*
X128337500Y-120250000D01*
G75*
G02*
X128225000Y-120137500I0J112500D01*
G01*
G37*
G36*
G01*
X127725000Y-120137500D02*
X127725000Y-119662500D01*
G75*
G02*
X127837500Y-119550000I112500J0D01*
G01*
X127962500Y-119550000D01*
G75*
G02*
X128075000Y-119662500I0J-112500D01*
G01*
X128075000Y-120137500D01*
G75*
G02*
X127962500Y-120250000I-112500J0D01*
G01*
X127837500Y-120250000D01*
G75*
G02*
X127725000Y-120137500I0J112500D01*
G01*
G37*
G36*
G01*
X127225000Y-120137500D02*
X127225000Y-119662500D01*
G75*
G02*
X127337500Y-119550000I112500J0D01*
G01*
X127462500Y-119550000D01*
G75*
G02*
X127575000Y-119662500I0J-112500D01*
G01*
X127575000Y-120137500D01*
G75*
G02*
X127462500Y-120250000I-112500J0D01*
G01*
X127337500Y-120250000D01*
G75*
G02*
X127225000Y-120137500I0J112500D01*
G01*
G37*
G36*
G01*
X126762500Y-120450000D02*
X127237500Y-120450000D01*
G75*
G02*
X127350000Y-120562500I0J-112500D01*
G01*
X127350000Y-120687500D01*
G75*
G02*
X127237500Y-120800000I-112500J0D01*
G01*
X126762500Y-120800000D01*
G75*
G02*
X126650000Y-120687500I0J112500D01*
G01*
X126650000Y-120562500D01*
G75*
G02*
X126762500Y-120450000I112500J0D01*
G01*
G37*
G36*
G01*
X126762500Y-120950000D02*
X127237500Y-120950000D01*
G75*
G02*
X127350000Y-121062500I0J-112500D01*
G01*
X127350000Y-121187500D01*
G75*
G02*
X127237500Y-121300000I-112500J0D01*
G01*
X126762500Y-121300000D01*
G75*
G02*
X126650000Y-121187500I0J112500D01*
G01*
X126650000Y-121062500D01*
G75*
G02*
X126762500Y-120950000I112500J0D01*
G01*
G37*
G36*
G01*
X126762500Y-121600000D02*
X127237500Y-121600000D01*
G75*
G02*
X127350000Y-121712500I0J-112500D01*
G01*
X127350000Y-121837500D01*
G75*
G02*
X127237500Y-121950000I-112500J0D01*
G01*
X126762500Y-121950000D01*
G75*
G02*
X126650000Y-121837500I0J112500D01*
G01*
X126650000Y-121712500D01*
G75*
G02*
X126762500Y-121600000I112500J0D01*
G01*
G37*
G36*
G01*
X126762500Y-122250000D02*
X127237500Y-122250000D01*
G75*
G02*
X127350000Y-122362500I0J-112500D01*
G01*
X127350000Y-122487500D01*
G75*
G02*
X127237500Y-122600000I-112500J0D01*
G01*
X126762500Y-122600000D01*
G75*
G02*
X126650000Y-122487500I0J112500D01*
G01*
X126650000Y-122362500D01*
G75*
G02*
X126762500Y-122250000I112500J0D01*
G01*
G37*
G36*
G01*
X128075000Y-121238000D02*
X128075000Y-122938000D01*
G75*
G02*
X127962500Y-123050500I-112500J0D01*
G01*
X127837500Y-123050500D01*
G75*
G02*
X127725000Y-122938000I0J112500D01*
G01*
X127725000Y-121238000D01*
G75*
G02*
X127837500Y-121125500I112500J0D01*
G01*
X127962500Y-121125500D01*
G75*
G02*
X128075000Y-121238000I0J-112500D01*
G01*
G37*
G36*
G01*
X112685000Y-122055000D02*
X112685000Y-122395000D01*
G75*
G02*
X112495000Y-122585000I-190000J0D01*
G01*
X112215000Y-122585000D01*
G75*
G02*
X112025000Y-122395000I0J190000D01*
G01*
X112025000Y-122055000D01*
G75*
G02*
X112215000Y-121865000I190000J0D01*
G01*
X112495000Y-121865000D01*
G75*
G02*
X112685000Y-122055000I0J-190000D01*
G01*
G37*
G36*
G01*
X111725000Y-122055000D02*
X111725000Y-122395000D01*
G75*
G02*
X111535000Y-122585000I-190000J0D01*
G01*
X111255000Y-122585000D01*
G75*
G02*
X111065000Y-122395000I0J190000D01*
G01*
X111065000Y-122055000D01*
G75*
G02*
X111255000Y-121865000I190000J0D01*
G01*
X111535000Y-121865000D01*
G75*
G02*
X111725000Y-122055000I0J-190000D01*
G01*
G37*
X115370000Y-97920000D03*
G36*
G01*
X116770000Y-97845000D02*
X116770000Y-98895000D01*
G75*
G02*
X116245000Y-99420000I-525000J0D01*
G01*
X115295000Y-99420000D01*
G75*
G02*
X114770000Y-98895000I0J525000D01*
G01*
X114770000Y-97845000D01*
G75*
G02*
X115295000Y-97320000I525000J0D01*
G01*
X116245000Y-97320000D01*
G75*
G02*
X116770000Y-97845000I0J-525000D01*
G01*
G37*
G36*
G01*
X108350000Y-132380000D02*
X108350000Y-130620000D01*
G75*
G02*
X108670000Y-130300000I320000J0D01*
G01*
X109930000Y-130300000D01*
G75*
G02*
X110250000Y-130620000I0J-320000D01*
G01*
X110250000Y-132380000D01*
G75*
G02*
X109930000Y-132700000I-320000J0D01*
G01*
X108670000Y-132700000D01*
G75*
G02*
X108350000Y-132380000I0J320000D01*
G01*
G37*
G36*
G01*
X108170000Y-98895000D02*
X108170000Y-97845000D01*
G75*
G02*
X108695000Y-97320000I525000J0D01*
G01*
X109645000Y-97320000D01*
G75*
G02*
X110170000Y-97845000I0J-525000D01*
G01*
X110170000Y-98895000D01*
G75*
G02*
X109645000Y-99420000I-525000J0D01*
G01*
X108695000Y-99420000D01*
G75*
G02*
X108170000Y-98895000I0J525000D01*
G01*
G37*
X108770000Y-98820000D03*
G36*
G01*
X126370000Y-119185000D02*
X126370000Y-118815000D01*
G75*
G02*
X126555000Y-118630000I185000J0D01*
G01*
X126825000Y-118630000D01*
G75*
G02*
X127010000Y-118815000I0J-185000D01*
G01*
X127010000Y-119185000D01*
G75*
G02*
X126825000Y-119370000I-185000J0D01*
G01*
X126555000Y-119370000D01*
G75*
G02*
X126370000Y-119185000I0J185000D01*
G01*
G37*
G36*
G01*
X127390000Y-119185000D02*
X127390000Y-118815000D01*
G75*
G02*
X127575000Y-118630000I185000J0D01*
G01*
X127845000Y-118630000D01*
G75*
G02*
X128030000Y-118815000I0J-185000D01*
G01*
X128030000Y-119185000D01*
G75*
G02*
X127845000Y-119370000I-185000J0D01*
G01*
X127575000Y-119370000D01*
G75*
G02*
X127390000Y-119185000I0J185000D01*
G01*
G37*
G36*
G01*
X127056250Y-127775000D02*
X126543750Y-127775000D01*
G75*
G02*
X126275000Y-127506250I0J268750D01*
G01*
X126275000Y-127068750D01*
G75*
G02*
X126543750Y-126800000I268750J0D01*
G01*
X127056250Y-126800000D01*
G75*
G02*
X127325000Y-127068750I0J-268750D01*
G01*
X127325000Y-127506250D01*
G75*
G02*
X127056250Y-127775000I-268750J0D01*
G01*
G37*
G36*
G01*
X127056250Y-126200000D02*
X126543750Y-126200000D01*
G75*
G02*
X126275000Y-125931250I0J268750D01*
G01*
X126275000Y-125493750D01*
G75*
G02*
X126543750Y-125225000I268750J0D01*
G01*
X127056250Y-125225000D01*
G75*
G02*
X127325000Y-125493750I0J-268750D01*
G01*
X127325000Y-125931250D01*
G75*
G02*
X127056250Y-126200000I-268750J0D01*
G01*
G37*
D14*
X100000000Y-130000000D03*
G36*
G01*
X118500000Y-104475000D02*
X118500000Y-102925000D01*
G75*
G02*
X118775000Y-102650000I275000J0D01*
G01*
X119825000Y-102650000D01*
G75*
G02*
X120100000Y-102925000I0J-275000D01*
G01*
X120100000Y-104475000D01*
G75*
G02*
X119825000Y-104750000I-275000J0D01*
G01*
X118775000Y-104750000D01*
G75*
G02*
X118500000Y-104475000I0J275000D01*
G01*
G37*
G36*
G01*
X118680000Y-132235000D02*
X118680000Y-131185000D01*
G75*
G02*
X119205000Y-130660000I525000J0D01*
G01*
X120155000Y-130660000D01*
G75*
G02*
X120680000Y-131185000I0J-525000D01*
G01*
X120680000Y-132235000D01*
G75*
G02*
X120155000Y-132760000I-525000J0D01*
G01*
X119205000Y-132760000D01*
G75*
G02*
X118680000Y-132235000I0J525000D01*
G01*
G37*
D13*
X119280000Y-132160000D03*
G36*
G01*
X105470000Y-119185000D02*
X105130000Y-119185000D01*
G75*
G02*
X104940000Y-118995000I0J190000D01*
G01*
X104940000Y-118715000D01*
G75*
G02*
X105130000Y-118525000I190000J0D01*
G01*
X105470000Y-118525000D01*
G75*
G02*
X105660000Y-118715000I0J-190000D01*
G01*
X105660000Y-118995000D01*
G75*
G02*
X105470000Y-119185000I-190000J0D01*
G01*
G37*
G36*
G01*
X105470000Y-118225000D02*
X105130000Y-118225000D01*
G75*
G02*
X104940000Y-118035000I0J190000D01*
G01*
X104940000Y-117755000D01*
G75*
G02*
X105130000Y-117565000I190000J0D01*
G01*
X105470000Y-117565000D01*
G75*
G02*
X105660000Y-117755000I0J-190000D01*
G01*
X105660000Y-118035000D01*
G75*
G02*
X105470000Y-118225000I-190000J0D01*
G01*
G37*
D14*
X130000000Y-130000000D03*
G36*
G01*
X127775000Y-116643750D02*
X127775000Y-117156250D01*
G75*
G02*
X127506250Y-117425000I-268750J0D01*
G01*
X127068750Y-117425000D01*
G75*
G02*
X126800000Y-117156250I0J268750D01*
G01*
X126800000Y-116643750D01*
G75*
G02*
X127068750Y-116375000I268750J0D01*
G01*
X127506250Y-116375000D01*
G75*
G02*
X127775000Y-116643750I0J-268750D01*
G01*
G37*
G36*
G01*
X126200000Y-116643750D02*
X126200000Y-117156250D01*
G75*
G02*
X125931250Y-117425000I-268750J0D01*
G01*
X125493750Y-117425000D01*
G75*
G02*
X125225000Y-117156250I0J268750D01*
G01*
X125225000Y-116643750D01*
G75*
G02*
X125493750Y-116375000I268750J0D01*
G01*
X125931250Y-116375000D01*
G75*
G02*
X126200000Y-116643750I0J-268750D01*
G01*
G37*
G36*
G01*
X108600000Y-101775000D02*
X108600000Y-100225000D01*
G75*
G02*
X108875000Y-99950000I275000J0D01*
G01*
X109925000Y-99950000D01*
G75*
G02*
X110200000Y-100225000I0J-275000D01*
G01*
X110200000Y-101775000D01*
G75*
G02*
X109925000Y-102050000I-275000J0D01*
G01*
X108875000Y-102050000D01*
G75*
G02*
X108600000Y-101775000I0J275000D01*
G01*
G37*
G36*
G01*
X102927500Y-97230000D02*
X103272500Y-97230000D01*
G75*
G02*
X103470000Y-97427500I0J-197500D01*
G01*
X103470000Y-97722500D01*
G75*
G02*
X103272500Y-97920000I-197500J0D01*
G01*
X102927500Y-97920000D01*
G75*
G02*
X102730000Y-97722500I0J197500D01*
G01*
X102730000Y-97427500D01*
G75*
G02*
X102927500Y-97230000I197500J0D01*
G01*
G37*
G36*
G01*
X102927500Y-98200000D02*
X103272500Y-98200000D01*
G75*
G02*
X103470000Y-98397500I0J-197500D01*
G01*
X103470000Y-98692500D01*
G75*
G02*
X103272500Y-98890000I-197500J0D01*
G01*
X102927500Y-98890000D01*
G75*
G02*
X102730000Y-98692500I0J197500D01*
G01*
X102730000Y-98397500D01*
G75*
G02*
X102927500Y-98200000I197500J0D01*
G01*
G37*
G36*
G01*
X126830000Y-115415000D02*
X126830000Y-115785000D01*
G75*
G02*
X126645000Y-115970000I-185000J0D01*
G01*
X126375000Y-115970000D01*
G75*
G02*
X126190000Y-115785000I0J185000D01*
G01*
X126190000Y-115415000D01*
G75*
G02*
X126375000Y-115230000I185000J0D01*
G01*
X126645000Y-115230000D01*
G75*
G02*
X126830000Y-115415000I0J-185000D01*
G01*
G37*
G36*
G01*
X125810000Y-115415000D02*
X125810000Y-115785000D01*
G75*
G02*
X125625000Y-115970000I-185000J0D01*
G01*
X125355000Y-115970000D01*
G75*
G02*
X125170000Y-115785000I0J185000D01*
G01*
X125170000Y-115415000D01*
G75*
G02*
X125355000Y-115230000I185000J0D01*
G01*
X125625000Y-115230000D01*
G75*
G02*
X125810000Y-115415000I0J-185000D01*
G01*
G37*
G36*
G01*
X103970000Y-107985000D02*
X103970000Y-107615000D01*
G75*
G02*
X104155000Y-107430000I185000J0D01*
G01*
X104425000Y-107430000D01*
G75*
G02*
X104610000Y-107615000I0J-185000D01*
G01*
X104610000Y-107985000D01*
G75*
G02*
X104425000Y-108170000I-185000J0D01*
G01*
X104155000Y-108170000D01*
G75*
G02*
X103970000Y-107985000I0J185000D01*
G01*
G37*
G36*
G01*
X104990000Y-107985000D02*
X104990000Y-107615000D01*
G75*
G02*
X105175000Y-107430000I185000J0D01*
G01*
X105445000Y-107430000D01*
G75*
G02*
X105630000Y-107615000I0J-185000D01*
G01*
X105630000Y-107985000D01*
G75*
G02*
X105445000Y-108170000I-185000J0D01*
G01*
X105175000Y-108170000D01*
G75*
G02*
X104990000Y-107985000I0J185000D01*
G01*
G37*
G36*
G01*
X129450000Y-114750000D02*
X129450000Y-113250000D01*
G75*
G02*
X130250000Y-112450000I800000J0D01*
G01*
X131750000Y-112450000D01*
G75*
G02*
X132550000Y-113250000I0J-800000D01*
G01*
X132550000Y-114750000D01*
G75*
G02*
X131750000Y-115550000I-800000J0D01*
G01*
X130250000Y-115550000D01*
G75*
G02*
X129450000Y-114750000I0J800000D01*
G01*
G37*
D15*
X131000000Y-114000000D03*
D13*
X121480000Y-132160000D03*
G36*
G01*
X120880000Y-132235000D02*
X120880000Y-131185000D01*
G75*
G02*
X121405000Y-130660000I525000J0D01*
G01*
X122355000Y-130660000D01*
G75*
G02*
X122880000Y-131185000I0J-525000D01*
G01*
X122880000Y-132235000D01*
G75*
G02*
X122355000Y-132760000I-525000J0D01*
G01*
X121405000Y-132760000D01*
G75*
G02*
X120880000Y-132235000I0J525000D01*
G01*
G37*
G36*
G01*
X116300000Y-104475000D02*
X116300000Y-102925000D01*
G75*
G02*
X116575000Y-102650000I275000J0D01*
G01*
X117625000Y-102650000D01*
G75*
G02*
X117900000Y-102925000I0J-275000D01*
G01*
X117900000Y-104475000D01*
G75*
G02*
X117625000Y-104750000I-275000J0D01*
G01*
X116575000Y-104750000D01*
G75*
G02*
X116300000Y-104475000I0J275000D01*
G01*
G37*
G36*
G01*
X132225000Y-126340000D02*
X131175000Y-126340000D01*
G75*
G02*
X130650000Y-125815000I0J525000D01*
G01*
X130650000Y-124865000D01*
G75*
G02*
X131175000Y-124340000I525000J0D01*
G01*
X132225000Y-124340000D01*
G75*
G02*
X132750000Y-124865000I0J-525000D01*
G01*
X132750000Y-125815000D01*
G75*
G02*
X132225000Y-126340000I-525000J0D01*
G01*
G37*
X132150000Y-125740000D03*
G36*
G01*
X110630000Y-104115000D02*
X110630000Y-104485000D01*
G75*
G02*
X110445000Y-104670000I-185000J0D01*
G01*
X110175000Y-104670000D01*
G75*
G02*
X109990000Y-104485000I0J185000D01*
G01*
X109990000Y-104115000D01*
G75*
G02*
X110175000Y-103930000I185000J0D01*
G01*
X110445000Y-103930000D01*
G75*
G02*
X110630000Y-104115000I0J-185000D01*
G01*
G37*
G36*
G01*
X109610000Y-104115000D02*
X109610000Y-104485000D01*
G75*
G02*
X109425000Y-104670000I-185000J0D01*
G01*
X109155000Y-104670000D01*
G75*
G02*
X108970000Y-104485000I0J185000D01*
G01*
X108970000Y-104115000D01*
G75*
G02*
X109155000Y-103930000I185000J0D01*
G01*
X109425000Y-103930000D01*
G75*
G02*
X109610000Y-104115000I0J-185000D01*
G01*
G37*
G36*
G01*
X104620000Y-119185000D02*
X104280000Y-119185000D01*
G75*
G02*
X104090000Y-118995000I0J190000D01*
G01*
X104090000Y-118715000D01*
G75*
G02*
X104280000Y-118525000I190000J0D01*
G01*
X104620000Y-118525000D01*
G75*
G02*
X104810000Y-118715000I0J-190000D01*
G01*
X104810000Y-118995000D01*
G75*
G02*
X104620000Y-119185000I-190000J0D01*
G01*
G37*
G36*
G01*
X104620000Y-118225000D02*
X104280000Y-118225000D01*
G75*
G02*
X104090000Y-118035000I0J190000D01*
G01*
X104090000Y-117755000D01*
G75*
G02*
X104280000Y-117565000I190000J0D01*
G01*
X104620000Y-117565000D01*
G75*
G02*
X104810000Y-117755000I0J-190000D01*
G01*
X104810000Y-118035000D01*
G75*
G02*
X104620000Y-118225000I-190000J0D01*
G01*
G37*
G36*
G01*
X123582500Y-132672500D02*
X123237500Y-132672500D01*
G75*
G02*
X123040000Y-132475000I0J197500D01*
G01*
X123040000Y-132180000D01*
G75*
G02*
X123237500Y-131982500I197500J0D01*
G01*
X123582500Y-131982500D01*
G75*
G02*
X123780000Y-132180000I0J-197500D01*
G01*
X123780000Y-132475000D01*
G75*
G02*
X123582500Y-132672500I-197500J0D01*
G01*
G37*
G36*
G01*
X123582500Y-131702500D02*
X123237500Y-131702500D01*
G75*
G02*
X123040000Y-131505000I0J197500D01*
G01*
X123040000Y-131210000D01*
G75*
G02*
X123237500Y-131012500I197500J0D01*
G01*
X123582500Y-131012500D01*
G75*
G02*
X123780000Y-131210000I0J-197500D01*
G01*
X123780000Y-131505000D01*
G75*
G02*
X123582500Y-131702500I-197500J0D01*
G01*
G37*
G36*
G01*
X111065000Y-123245000D02*
X111065000Y-122905000D01*
G75*
G02*
X111255000Y-122715000I190000J0D01*
G01*
X111535000Y-122715000D01*
G75*
G02*
X111725000Y-122905000I0J-190000D01*
G01*
X111725000Y-123245000D01*
G75*
G02*
X111535000Y-123435000I-190000J0D01*
G01*
X111255000Y-123435000D01*
G75*
G02*
X111065000Y-123245000I0J190000D01*
G01*
G37*
G36*
G01*
X112025000Y-123245000D02*
X112025000Y-122905000D01*
G75*
G02*
X112215000Y-122715000I190000J0D01*
G01*
X112495000Y-122715000D01*
G75*
G02*
X112685000Y-122905000I0J-190000D01*
G01*
X112685000Y-123245000D01*
G75*
G02*
X112495000Y-123435000I-190000J0D01*
G01*
X112215000Y-123435000D01*
G75*
G02*
X112025000Y-123245000I0J190000D01*
G01*
G37*
G36*
G01*
X115600000Y-129475000D02*
X115600000Y-127925000D01*
G75*
G02*
X115875000Y-127650000I275000J0D01*
G01*
X116925000Y-127650000D01*
G75*
G02*
X117200000Y-127925000I0J-275000D01*
G01*
X117200000Y-129475000D01*
G75*
G02*
X116925000Y-129750000I-275000J0D01*
G01*
X115875000Y-129750000D01*
G75*
G02*
X115600000Y-129475000I0J275000D01*
G01*
G37*
G36*
G01*
X97950000Y-112450000D02*
X97950000Y-113150000D01*
G75*
G02*
X97900000Y-113200000I-50000J0D01*
G01*
X97300000Y-113200000D01*
G75*
G02*
X97250000Y-113150000I0J50000D01*
G01*
X97250000Y-112450000D01*
G75*
G02*
X97300000Y-112400000I50000J0D01*
G01*
X97900000Y-112400000D01*
G75*
G02*
X97950000Y-112450000I0J-50000D01*
G01*
G37*
G36*
G01*
X99350000Y-112450000D02*
X99350000Y-113150000D01*
G75*
G02*
X99300000Y-113200000I-50000J0D01*
G01*
X98700000Y-113200000D01*
G75*
G02*
X98650000Y-113150000I0J50000D01*
G01*
X98650000Y-112450000D01*
G75*
G02*
X98700000Y-112400000I50000J0D01*
G01*
X99300000Y-112400000D01*
G75*
G02*
X99350000Y-112450000I0J-50000D01*
G01*
G37*
G36*
G01*
X124000000Y-101775000D02*
X124000000Y-100225000D01*
G75*
G02*
X124275000Y-99950000I275000J0D01*
G01*
X125325000Y-99950000D01*
G75*
G02*
X125600000Y-100225000I0J-275000D01*
G01*
X125600000Y-101775000D01*
G75*
G02*
X125325000Y-102050000I-275000J0D01*
G01*
X124275000Y-102050000D01*
G75*
G02*
X124000000Y-101775000I0J275000D01*
G01*
G37*
G36*
G01*
X125190000Y-113770000D02*
X125190000Y-113430000D01*
G75*
G02*
X125380000Y-113240000I190000J0D01*
G01*
X125660000Y-113240000D01*
G75*
G02*
X125850000Y-113430000I0J-190000D01*
G01*
X125850000Y-113770000D01*
G75*
G02*
X125660000Y-113960000I-190000J0D01*
G01*
X125380000Y-113960000D01*
G75*
G02*
X125190000Y-113770000I0J190000D01*
G01*
G37*
G36*
G01*
X126150000Y-113770000D02*
X126150000Y-113430000D01*
G75*
G02*
X126340000Y-113240000I190000J0D01*
G01*
X126620000Y-113240000D01*
G75*
G02*
X126810000Y-113430000I0J-190000D01*
G01*
X126810000Y-113770000D01*
G75*
G02*
X126620000Y-113960000I-190000J0D01*
G01*
X126340000Y-113960000D01*
G75*
G02*
X126150000Y-113770000I0J190000D01*
G01*
G37*
G36*
G01*
X109430000Y-111115000D02*
X109430000Y-111485000D01*
G75*
G02*
X109245000Y-111670000I-185000J0D01*
G01*
X108975000Y-111670000D01*
G75*
G02*
X108790000Y-111485000I0J185000D01*
G01*
X108790000Y-111115000D01*
G75*
G02*
X108975000Y-110930000I185000J0D01*
G01*
X109245000Y-110930000D01*
G75*
G02*
X109430000Y-111115000I0J-185000D01*
G01*
G37*
G36*
G01*
X108410000Y-111115000D02*
X108410000Y-111485000D01*
G75*
G02*
X108225000Y-111670000I-185000J0D01*
G01*
X107955000Y-111670000D01*
G75*
G02*
X107770000Y-111485000I0J185000D01*
G01*
X107770000Y-111115000D01*
G75*
G02*
X107955000Y-110930000I185000J0D01*
G01*
X108225000Y-110930000D01*
G75*
G02*
X108410000Y-111115000I0J-185000D01*
G01*
G37*
G36*
G01*
X123140000Y-115812500D02*
X123140000Y-115537500D01*
G75*
G02*
X123327500Y-115350000I187500J0D01*
G01*
X123652500Y-115350000D01*
G75*
G02*
X123840000Y-115537500I0J-187500D01*
G01*
X123840000Y-115812500D01*
G75*
G02*
X123652500Y-116000000I-187500J0D01*
G01*
X123327500Y-116000000D01*
G75*
G02*
X123140000Y-115812500I0J187500D01*
G01*
G37*
G36*
X122834134Y-113853806D02*
G01*
X122850355Y-113864645D01*
X122861194Y-113880866D01*
X122865000Y-113900000D01*
X122865000Y-114425000D01*
X122861194Y-114444134D01*
X122850355Y-114460355D01*
X122790000Y-114520710D01*
X122790000Y-114879290D01*
X122850355Y-114939645D01*
X122861194Y-114955866D01*
X122865000Y-114975000D01*
X122865000Y-115500000D01*
X122861194Y-115519134D01*
X122850355Y-115535355D01*
X122834134Y-115546194D01*
X122815000Y-115550000D01*
X122240000Y-115550000D01*
X122220866Y-115546194D01*
X122204645Y-115535355D01*
X122193806Y-115519134D01*
X122190000Y-115500000D01*
X122190000Y-113900000D01*
X122193806Y-113880866D01*
X122204645Y-113864645D01*
X122220866Y-113853806D01*
X122240000Y-113850000D01*
X122815000Y-113850000D01*
X122834134Y-113853806D01*
G37*
G36*
X124759134Y-113853806D02*
G01*
X124775355Y-113864645D01*
X124786194Y-113880866D01*
X124790000Y-113900000D01*
X124790000Y-115500000D01*
X124786194Y-115519134D01*
X124775355Y-115535355D01*
X124759134Y-115546194D01*
X124740000Y-115550000D01*
X124165000Y-115550000D01*
X124145866Y-115546194D01*
X124129645Y-115535355D01*
X124118806Y-115519134D01*
X124115000Y-115500000D01*
X124115000Y-114975000D01*
X124118806Y-114955866D01*
X124129645Y-114939645D01*
X124190000Y-114879290D01*
X124190000Y-114520710D01*
X124129645Y-114460355D01*
X124118806Y-114444134D01*
X124115000Y-114425000D01*
X124115000Y-113900000D01*
X124118806Y-113880866D01*
X124129645Y-113864645D01*
X124145866Y-113853806D01*
X124165000Y-113850000D01*
X124740000Y-113850000D01*
X124759134Y-113853806D01*
G37*
G36*
G01*
X123140000Y-113837500D02*
X123140000Y-113562500D01*
G75*
G02*
X123327500Y-113375000I187500J0D01*
G01*
X123652500Y-113375000D01*
G75*
G02*
X123840000Y-113562500I0J-187500D01*
G01*
X123840000Y-113837500D01*
G75*
G02*
X123652500Y-114025000I-187500J0D01*
G01*
X123327500Y-114025000D01*
G75*
G02*
X123140000Y-113837500I0J187500D01*
G01*
G37*
G36*
G01*
X124450000Y-118300000D02*
X125750000Y-118300000D01*
G75*
G02*
X126050000Y-118600000I0J-300000D01*
G01*
X126050000Y-119250000D01*
G75*
G02*
X125750000Y-119550000I-300000J0D01*
G01*
X124450000Y-119550000D01*
G75*
G02*
X124150000Y-119250000I0J300000D01*
G01*
X124150000Y-118600000D01*
G75*
G02*
X124450000Y-118300000I300000J0D01*
G01*
G37*
G36*
G01*
X124450000Y-121250000D02*
X125750000Y-121250000D01*
G75*
G02*
X126050000Y-121550000I0J-300000D01*
G01*
X126050000Y-122200000D01*
G75*
G02*
X125750000Y-122500000I-300000J0D01*
G01*
X124450000Y-122500000D01*
G75*
G02*
X124150000Y-122200000I0J300000D01*
G01*
X124150000Y-121550000D01*
G75*
G02*
X124450000Y-121250000I300000J0D01*
G01*
G37*
X117570000Y-98820000D03*
G36*
G01*
X116970000Y-98895000D02*
X116970000Y-97845000D01*
G75*
G02*
X117495000Y-97320000I525000J0D01*
G01*
X118445000Y-97320000D01*
G75*
G02*
X118970000Y-97845000I0J-525000D01*
G01*
X118970000Y-98895000D01*
G75*
G02*
X118445000Y-99420000I-525000J0D01*
G01*
X117495000Y-99420000D01*
G75*
G02*
X116970000Y-98895000I0J525000D01*
G01*
G37*
G36*
G01*
X99030000Y-123415000D02*
X99030000Y-123785000D01*
G75*
G02*
X98845000Y-123970000I-185000J0D01*
G01*
X98575000Y-123970000D01*
G75*
G02*
X98390000Y-123785000I0J185000D01*
G01*
X98390000Y-123415000D01*
G75*
G02*
X98575000Y-123230000I185000J0D01*
G01*
X98845000Y-123230000D01*
G75*
G02*
X99030000Y-123415000I0J-185000D01*
G01*
G37*
G36*
G01*
X98010000Y-123415000D02*
X98010000Y-123785000D01*
G75*
G02*
X97825000Y-123970000I-185000J0D01*
G01*
X97555000Y-123970000D01*
G75*
G02*
X97370000Y-123785000I0J185000D01*
G01*
X97370000Y-123415000D01*
G75*
G02*
X97555000Y-123230000I185000J0D01*
G01*
X97825000Y-123230000D01*
G75*
G02*
X98010000Y-123415000I0J-185000D01*
G01*
G37*
G36*
G01*
X128030000Y-117815000D02*
X128030000Y-118185000D01*
G75*
G02*
X127845000Y-118370000I-185000J0D01*
G01*
X127575000Y-118370000D01*
G75*
G02*
X127390000Y-118185000I0J185000D01*
G01*
X127390000Y-117815000D01*
G75*
G02*
X127575000Y-117630000I185000J0D01*
G01*
X127845000Y-117630000D01*
G75*
G02*
X128030000Y-117815000I0J-185000D01*
G01*
G37*
G36*
G01*
X127010000Y-117815000D02*
X127010000Y-118185000D01*
G75*
G02*
X126825000Y-118370000I-185000J0D01*
G01*
X126555000Y-118370000D01*
G75*
G02*
X126370000Y-118185000I0J185000D01*
G01*
X126370000Y-117815000D01*
G75*
G02*
X126555000Y-117630000I185000J0D01*
G01*
X126825000Y-117630000D01*
G75*
G02*
X127010000Y-117815000I0J-185000D01*
G01*
G37*
G36*
G01*
X112685000Y-121205000D02*
X112685000Y-121545000D01*
G75*
G02*
X112495000Y-121735000I-190000J0D01*
G01*
X112215000Y-121735000D01*
G75*
G02*
X112025000Y-121545000I0J190000D01*
G01*
X112025000Y-121205000D01*
G75*
G02*
X112215000Y-121015000I190000J0D01*
G01*
X112495000Y-121015000D01*
G75*
G02*
X112685000Y-121205000I0J-190000D01*
G01*
G37*
G36*
G01*
X111725000Y-121205000D02*
X111725000Y-121545000D01*
G75*
G02*
X111535000Y-121735000I-190000J0D01*
G01*
X111255000Y-121735000D01*
G75*
G02*
X111065000Y-121545000I0J190000D01*
G01*
X111065000Y-121205000D01*
G75*
G02*
X111255000Y-121015000I190000J0D01*
G01*
X111535000Y-121015000D01*
G75*
G02*
X111725000Y-121205000I0J-190000D01*
G01*
G37*
G36*
G01*
X99030000Y-125827500D02*
X99030000Y-126172500D01*
G75*
G02*
X98832500Y-126370000I-197500J0D01*
G01*
X98537500Y-126370000D01*
G75*
G02*
X98340000Y-126172500I0J197500D01*
G01*
X98340000Y-125827500D01*
G75*
G02*
X98537500Y-125630000I197500J0D01*
G01*
X98832500Y-125630000D01*
G75*
G02*
X99030000Y-125827500I0J-197500D01*
G01*
G37*
G36*
G01*
X98060000Y-125827500D02*
X98060000Y-126172500D01*
G75*
G02*
X97862500Y-126370000I-197500J0D01*
G01*
X97567500Y-126370000D01*
G75*
G02*
X97370000Y-126172500I0J197500D01*
G01*
X97370000Y-125827500D01*
G75*
G02*
X97567500Y-125630000I197500J0D01*
G01*
X97862500Y-125630000D01*
G75*
G02*
X98060000Y-125827500I0J-197500D01*
G01*
G37*
G36*
G01*
X103685000Y-116830000D02*
X103315000Y-116830000D01*
G75*
G02*
X103130000Y-116645000I0J185000D01*
G01*
X103130000Y-116375000D01*
G75*
G02*
X103315000Y-116190000I185000J0D01*
G01*
X103685000Y-116190000D01*
G75*
G02*
X103870000Y-116375000I0J-185000D01*
G01*
X103870000Y-116645000D01*
G75*
G02*
X103685000Y-116830000I-185000J0D01*
G01*
G37*
G36*
G01*
X103685000Y-115810000D02*
X103315000Y-115810000D01*
G75*
G02*
X103130000Y-115625000I0J185000D01*
G01*
X103130000Y-115355000D01*
G75*
G02*
X103315000Y-115170000I185000J0D01*
G01*
X103685000Y-115170000D01*
G75*
G02*
X103870000Y-115355000I0J-185000D01*
G01*
X103870000Y-115625000D01*
G75*
G02*
X103685000Y-115810000I-185000J0D01*
G01*
G37*
G36*
G01*
X113015000Y-122070000D02*
X113385000Y-122070000D01*
G75*
G02*
X113570000Y-122255000I0J-185000D01*
G01*
X113570000Y-122525000D01*
G75*
G02*
X113385000Y-122710000I-185000J0D01*
G01*
X113015000Y-122710000D01*
G75*
G02*
X112830000Y-122525000I0J185000D01*
G01*
X112830000Y-122255000D01*
G75*
G02*
X113015000Y-122070000I185000J0D01*
G01*
G37*
G36*
G01*
X113015000Y-123090000D02*
X113385000Y-123090000D01*
G75*
G02*
X113570000Y-123275000I0J-185000D01*
G01*
X113570000Y-123545000D01*
G75*
G02*
X113385000Y-123730000I-185000J0D01*
G01*
X113015000Y-123730000D01*
G75*
G02*
X112830000Y-123545000I0J185000D01*
G01*
X112830000Y-123275000D01*
G75*
G02*
X113015000Y-123090000I185000J0D01*
G01*
G37*
G36*
G01*
X105970000Y-98895000D02*
X105970000Y-97845000D01*
G75*
G02*
X106495000Y-97320000I525000J0D01*
G01*
X107445000Y-97320000D01*
G75*
G02*
X107970000Y-97845000I0J-525000D01*
G01*
X107970000Y-98895000D01*
G75*
G02*
X107445000Y-99420000I-525000J0D01*
G01*
X106495000Y-99420000D01*
G75*
G02*
X105970000Y-98895000I0J525000D01*
G01*
G37*
X106570000Y-98820000D03*
G36*
G01*
X112570000Y-98895000D02*
X112570000Y-97845000D01*
G75*
G02*
X113095000Y-97320000I525000J0D01*
G01*
X114045000Y-97320000D01*
G75*
G02*
X114570000Y-97845000I0J-525000D01*
G01*
X114570000Y-98895000D01*
G75*
G02*
X114045000Y-99420000I-525000J0D01*
G01*
X113095000Y-99420000D01*
G75*
G02*
X112570000Y-98895000I0J525000D01*
G01*
G37*
X113170000Y-98820000D03*
G36*
G01*
X113450000Y-132380000D02*
X113450000Y-130620000D01*
G75*
G02*
X113770000Y-130300000I320000J0D01*
G01*
X115030000Y-130300000D01*
G75*
G02*
X115350000Y-130620000I0J-320000D01*
G01*
X115350000Y-132380000D01*
G75*
G02*
X115030000Y-132700000I-320000J0D01*
G01*
X113770000Y-132700000D01*
G75*
G02*
X113450000Y-132380000I0J320000D01*
G01*
G37*
D14*
X100000000Y-100000000D03*
G36*
G01*
X111200000Y-105005000D02*
X111200000Y-103155000D01*
G75*
G02*
X111500000Y-102855000I300000J0D01*
G01*
X112325000Y-102855000D01*
G75*
G02*
X112625000Y-103155000I0J-300000D01*
G01*
X112625000Y-105005000D01*
G75*
G02*
X112325000Y-105305000I-300000J0D01*
G01*
X111500000Y-105305000D01*
G75*
G02*
X111200000Y-105005000I0J300000D01*
G01*
G37*
G36*
G01*
X114275000Y-105005000D02*
X114275000Y-103155000D01*
G75*
G02*
X114575000Y-102855000I300000J0D01*
G01*
X115400000Y-102855000D01*
G75*
G02*
X115700000Y-103155000I0J-300000D01*
G01*
X115700000Y-105005000D01*
G75*
G02*
X115400000Y-105305000I-300000J0D01*
G01*
X114575000Y-105305000D01*
G75*
G02*
X114275000Y-105005000I0J300000D01*
G01*
G37*
X130000000Y-100000000D03*
G36*
G01*
X122900000Y-104475000D02*
X122900000Y-102925000D01*
G75*
G02*
X123175000Y-102650000I275000J0D01*
G01*
X124225000Y-102650000D01*
G75*
G02*
X124500000Y-102925000I0J-275000D01*
G01*
X124500000Y-104475000D01*
G75*
G02*
X124225000Y-104750000I-275000J0D01*
G01*
X123175000Y-104750000D01*
G75*
G02*
X122900000Y-104475000I0J275000D01*
G01*
G37*
G36*
G01*
X107915000Y-109070000D02*
X108285000Y-109070000D01*
G75*
G02*
X108470000Y-109255000I0J-185000D01*
G01*
X108470000Y-109525000D01*
G75*
G02*
X108285000Y-109710000I-185000J0D01*
G01*
X107915000Y-109710000D01*
G75*
G02*
X107730000Y-109525000I0J185000D01*
G01*
X107730000Y-109255000D01*
G75*
G02*
X107915000Y-109070000I185000J0D01*
G01*
G37*
G36*
G01*
X107915000Y-110090000D02*
X108285000Y-110090000D01*
G75*
G02*
X108470000Y-110275000I0J-185000D01*
G01*
X108470000Y-110545000D01*
G75*
G02*
X108285000Y-110730000I-185000J0D01*
G01*
X107915000Y-110730000D01*
G75*
G02*
X107730000Y-110545000I0J185000D01*
G01*
X107730000Y-110275000D01*
G75*
G02*
X107915000Y-110090000I185000J0D01*
G01*
G37*
G36*
G01*
X123245000Y-129230000D02*
X123615000Y-129230000D01*
G75*
G02*
X123800000Y-129415000I0J-185000D01*
G01*
X123800000Y-129685000D01*
G75*
G02*
X123615000Y-129870000I-185000J0D01*
G01*
X123245000Y-129870000D01*
G75*
G02*
X123060000Y-129685000I0J185000D01*
G01*
X123060000Y-129415000D01*
G75*
G02*
X123245000Y-129230000I185000J0D01*
G01*
G37*
G36*
G01*
X123245000Y-130250000D02*
X123615000Y-130250000D01*
G75*
G02*
X123800000Y-130435000I0J-185000D01*
G01*
X123800000Y-130705000D01*
G75*
G02*
X123615000Y-130890000I-185000J0D01*
G01*
X123245000Y-130890000D01*
G75*
G02*
X123060000Y-130705000I0J185000D01*
G01*
X123060000Y-130435000D01*
G75*
G02*
X123245000Y-130250000I185000J0D01*
G01*
G37*
G36*
G01*
X110950000Y-132380000D02*
X110950000Y-130620000D01*
G75*
G02*
X111270000Y-130300000I320000J0D01*
G01*
X112530000Y-130300000D01*
G75*
G02*
X112850000Y-130620000I0J-320000D01*
G01*
X112850000Y-132380000D01*
G75*
G02*
X112530000Y-132700000I-320000J0D01*
G01*
X111270000Y-132700000D01*
G75*
G02*
X110950000Y-132380000I0J320000D01*
G01*
G37*
G36*
G01*
X103320000Y-128000000D02*
X103320000Y-127000000D01*
G75*
G02*
X103370000Y-126950000I50000J0D01*
G01*
X104270000Y-126950000D01*
G75*
G02*
X104320000Y-127000000I0J-50000D01*
G01*
X104320000Y-128000000D01*
G75*
G02*
X104270000Y-128050000I-50000J0D01*
G01*
X103370000Y-128050000D01*
G75*
G02*
X103320000Y-128000000I0J50000D01*
G01*
G37*
G36*
G01*
X107420000Y-128000000D02*
X107420000Y-127000000D01*
G75*
G02*
X107470000Y-126950000I50000J0D01*
G01*
X108370000Y-126950000D01*
G75*
G02*
X108420000Y-127000000I0J-50000D01*
G01*
X108420000Y-128000000D01*
G75*
G02*
X108370000Y-128050000I-50000J0D01*
G01*
X107470000Y-128050000D01*
G75*
G02*
X107420000Y-128000000I0J50000D01*
G01*
G37*
G36*
G01*
X107420000Y-129600000D02*
X107420000Y-128600000D01*
G75*
G02*
X107470000Y-128550000I50000J0D01*
G01*
X108370000Y-128550000D01*
G75*
G02*
X108420000Y-128600000I0J-50000D01*
G01*
X108420000Y-129600000D01*
G75*
G02*
X108370000Y-129650000I-50000J0D01*
G01*
X107470000Y-129650000D01*
G75*
G02*
X107420000Y-129600000I0J50000D01*
G01*
G37*
G36*
G01*
X103320000Y-129600000D02*
X103320000Y-128600000D01*
G75*
G02*
X103370000Y-128550000I50000J0D01*
G01*
X104270000Y-128550000D01*
G75*
G02*
X104320000Y-128600000I0J-50000D01*
G01*
X104320000Y-129600000D01*
G75*
G02*
X104270000Y-129650000I-50000J0D01*
G01*
X103370000Y-129650000D01*
G75*
G02*
X103320000Y-129600000I0J50000D01*
G01*
G37*
G36*
G01*
X104970000Y-127150000D02*
X104970000Y-126600000D01*
G75*
G02*
X105020000Y-126550000I50000J0D01*
G01*
X106720000Y-126550000D01*
G75*
G02*
X106770000Y-126600000I0J-50000D01*
G01*
X106770000Y-127150000D01*
G75*
G02*
X106720000Y-127200000I-50000J0D01*
G01*
X105020000Y-127200000D01*
G75*
G02*
X104970000Y-127150000I0J50000D01*
G01*
G37*
G36*
G01*
X127085000Y-124930000D02*
X126715000Y-124930000D01*
G75*
G02*
X126530000Y-124745000I0J185000D01*
G01*
X126530000Y-124475000D01*
G75*
G02*
X126715000Y-124290000I185000J0D01*
G01*
X127085000Y-124290000D01*
G75*
G02*
X127270000Y-124475000I0J-185000D01*
G01*
X127270000Y-124745000D01*
G75*
G02*
X127085000Y-124930000I-185000J0D01*
G01*
G37*
G36*
G01*
X127085000Y-123910000D02*
X126715000Y-123910000D01*
G75*
G02*
X126530000Y-123725000I0J185000D01*
G01*
X126530000Y-123455000D01*
G75*
G02*
X126715000Y-123270000I185000J0D01*
G01*
X127085000Y-123270000D01*
G75*
G02*
X127270000Y-123455000I0J-185000D01*
G01*
X127270000Y-123725000D01*
G75*
G02*
X127085000Y-123910000I-185000J0D01*
G01*
G37*
G36*
G01*
X117400000Y-101775000D02*
X117400000Y-100225000D01*
G75*
G02*
X117675000Y-99950000I275000J0D01*
G01*
X118725000Y-99950000D01*
G75*
G02*
X119000000Y-100225000I0J-275000D01*
G01*
X119000000Y-101775000D01*
G75*
G02*
X118725000Y-102050000I-275000J0D01*
G01*
X117675000Y-102050000D01*
G75*
G02*
X117400000Y-101775000I0J275000D01*
G01*
G37*
G36*
G01*
X122915000Y-109642500D02*
X121065000Y-109642500D01*
G75*
G02*
X120765000Y-109342500I0J300000D01*
G01*
X120765000Y-108517500D01*
G75*
G02*
X121065000Y-108217500I300000J0D01*
G01*
X122915000Y-108217500D01*
G75*
G02*
X123215000Y-108517500I0J-300000D01*
G01*
X123215000Y-109342500D01*
G75*
G02*
X122915000Y-109642500I-300000J0D01*
G01*
G37*
G36*
G01*
X122915000Y-106567500D02*
X121065000Y-106567500D01*
G75*
G02*
X120765000Y-106267500I0J300000D01*
G01*
X120765000Y-105442500D01*
G75*
G02*
X121065000Y-105142500I300000J0D01*
G01*
X122915000Y-105142500D01*
G75*
G02*
X123215000Y-105442500I0J-300000D01*
G01*
X123215000Y-106267500D01*
G75*
G02*
X122915000Y-106567500I-300000J0D01*
G01*
G37*
G36*
G01*
X106750000Y-123825000D02*
X107250000Y-123825000D01*
G75*
G02*
X107525000Y-124100000I0J-275000D01*
G01*
X107525000Y-124550000D01*
G75*
G02*
X107250000Y-124825000I-275000J0D01*
G01*
X106750000Y-124825000D01*
G75*
G02*
X106475000Y-124550000I0J275000D01*
G01*
X106475000Y-124100000D01*
G75*
G02*
X106750000Y-123825000I275000J0D01*
G01*
G37*
G36*
G01*
X106750000Y-125375000D02*
X107250000Y-125375000D01*
G75*
G02*
X107525000Y-125650000I0J-275000D01*
G01*
X107525000Y-126100000D01*
G75*
G02*
X107250000Y-126375000I-275000J0D01*
G01*
X106750000Y-126375000D01*
G75*
G02*
X106475000Y-126100000I0J275000D01*
G01*
X106475000Y-125650000D01*
G75*
G02*
X106750000Y-125375000I275000J0D01*
G01*
G37*
G36*
G01*
X119170000Y-98895000D02*
X119170000Y-97845000D01*
G75*
G02*
X119695000Y-97320000I525000J0D01*
G01*
X120645000Y-97320000D01*
G75*
G02*
X121170000Y-97845000I0J-525000D01*
G01*
X121170000Y-98895000D01*
G75*
G02*
X120645000Y-99420000I-525000J0D01*
G01*
X119695000Y-99420000D01*
G75*
G02*
X119170000Y-98895000I0J525000D01*
G01*
G37*
D13*
X119770000Y-98820000D03*
G36*
G01*
X128770000Y-119310000D02*
X128430000Y-119310000D01*
G75*
G02*
X128240000Y-119120000I0J190000D01*
G01*
X128240000Y-118840000D01*
G75*
G02*
X128430000Y-118650000I190000J0D01*
G01*
X128770000Y-118650000D01*
G75*
G02*
X128960000Y-118840000I0J-190000D01*
G01*
X128960000Y-119120000D01*
G75*
G02*
X128770000Y-119310000I-190000J0D01*
G01*
G37*
G36*
G01*
X128770000Y-118350000D02*
X128430000Y-118350000D01*
G75*
G02*
X128240000Y-118160000I0J190000D01*
G01*
X128240000Y-117880000D01*
G75*
G02*
X128430000Y-117690000I190000J0D01*
G01*
X128770000Y-117690000D01*
G75*
G02*
X128960000Y-117880000I0J-190000D01*
G01*
X128960000Y-118160000D01*
G75*
G02*
X128770000Y-118350000I-190000J0D01*
G01*
G37*
G36*
G01*
X108150000Y-123512500D02*
X108150000Y-123237500D01*
G75*
G02*
X108337500Y-123050000I187500J0D01*
G01*
X108662500Y-123050000D01*
G75*
G02*
X108850000Y-123237500I0J-187500D01*
G01*
X108850000Y-123512500D01*
G75*
G02*
X108662500Y-123700000I-187500J0D01*
G01*
X108337500Y-123700000D01*
G75*
G02*
X108150000Y-123512500I0J187500D01*
G01*
G37*
G36*
X107844134Y-121553806D02*
G01*
X107860355Y-121564645D01*
X107871194Y-121580866D01*
X107875000Y-121600000D01*
X107875000Y-122125000D01*
X107871194Y-122144134D01*
X107860355Y-122160355D01*
X107800000Y-122220710D01*
X107800000Y-122579290D01*
X107860355Y-122639645D01*
X107871194Y-122655866D01*
X107875000Y-122675000D01*
X107875000Y-123200000D01*
X107871194Y-123219134D01*
X107860355Y-123235355D01*
X107844134Y-123246194D01*
X107825000Y-123250000D01*
X107250000Y-123250000D01*
X107230866Y-123246194D01*
X107214645Y-123235355D01*
X107203806Y-123219134D01*
X107200000Y-123200000D01*
X107200000Y-121600000D01*
X107203806Y-121580866D01*
X107214645Y-121564645D01*
X107230866Y-121553806D01*
X107250000Y-121550000D01*
X107825000Y-121550000D01*
X107844134Y-121553806D01*
G37*
G36*
G01*
X108150000Y-121537500D02*
X108150000Y-121262500D01*
G75*
G02*
X108337500Y-121075000I187500J0D01*
G01*
X108662500Y-121075000D01*
G75*
G02*
X108850000Y-121262500I0J-187500D01*
G01*
X108850000Y-121537500D01*
G75*
G02*
X108662500Y-121725000I-187500J0D01*
G01*
X108337500Y-121725000D01*
G75*
G02*
X108150000Y-121537500I0J187500D01*
G01*
G37*
G36*
X109769134Y-121553806D02*
G01*
X109785355Y-121564645D01*
X109796194Y-121580866D01*
X109800000Y-121600000D01*
X109800000Y-123200000D01*
X109796194Y-123219134D01*
X109785355Y-123235355D01*
X109769134Y-123246194D01*
X109750000Y-123250000D01*
X109175000Y-123250000D01*
X109155866Y-123246194D01*
X109139645Y-123235355D01*
X109128806Y-123219134D01*
X109125000Y-123200000D01*
X109125000Y-122675000D01*
X109128806Y-122655866D01*
X109139645Y-122639645D01*
X109200000Y-122579290D01*
X109200000Y-122220710D01*
X109139645Y-122160355D01*
X109128806Y-122144134D01*
X109125000Y-122125000D01*
X109125000Y-121600000D01*
X109128806Y-121580866D01*
X109139645Y-121564645D01*
X109155866Y-121553806D01*
X109175000Y-121550000D01*
X109750000Y-121550000D01*
X109769134Y-121553806D01*
G37*
G36*
G01*
X119870000Y-116685000D02*
X119870000Y-116315000D01*
G75*
G02*
X120055000Y-116130000I185000J0D01*
G01*
X120325000Y-116130000D01*
G75*
G02*
X120510000Y-116315000I0J-185000D01*
G01*
X120510000Y-116685000D01*
G75*
G02*
X120325000Y-116870000I-185000J0D01*
G01*
X120055000Y-116870000D01*
G75*
G02*
X119870000Y-116685000I0J185000D01*
G01*
G37*
G36*
G01*
X120890000Y-116685000D02*
X120890000Y-116315000D01*
G75*
G02*
X121075000Y-116130000I185000J0D01*
G01*
X121345000Y-116130000D01*
G75*
G02*
X121530000Y-116315000I0J-185000D01*
G01*
X121530000Y-116685000D01*
G75*
G02*
X121345000Y-116870000I-185000J0D01*
G01*
X121075000Y-116870000D01*
G75*
G02*
X120890000Y-116685000I0J185000D01*
G01*
G37*
G36*
G01*
X124475000Y-128250000D02*
X126325000Y-128250000D01*
G75*
G02*
X126625000Y-128550000I0J-300000D01*
G01*
X126625000Y-129375000D01*
G75*
G02*
X126325000Y-129675000I-300000J0D01*
G01*
X124475000Y-129675000D01*
G75*
G02*
X124175000Y-129375000I0J300000D01*
G01*
X124175000Y-128550000D01*
G75*
G02*
X124475000Y-128250000I300000J0D01*
G01*
G37*
G36*
G01*
X124475000Y-131325000D02*
X126325000Y-131325000D01*
G75*
G02*
X126625000Y-131625000I0J-300000D01*
G01*
X126625000Y-132450000D01*
G75*
G02*
X126325000Y-132750000I-300000J0D01*
G01*
X124475000Y-132750000D01*
G75*
G02*
X124175000Y-132450000I0J300000D01*
G01*
X124175000Y-131625000D01*
G75*
G02*
X124475000Y-131325000I300000J0D01*
G01*
G37*
G36*
G01*
X129870000Y-122110000D02*
X129530000Y-122110000D01*
G75*
G02*
X129340000Y-121920000I0J190000D01*
G01*
X129340000Y-121640000D01*
G75*
G02*
X129530000Y-121450000I190000J0D01*
G01*
X129870000Y-121450000D01*
G75*
G02*
X130060000Y-121640000I0J-190000D01*
G01*
X130060000Y-121920000D01*
G75*
G02*
X129870000Y-122110000I-190000J0D01*
G01*
G37*
G36*
G01*
X129870000Y-121150000D02*
X129530000Y-121150000D01*
G75*
G02*
X129340000Y-120960000I0J190000D01*
G01*
X129340000Y-120680000D01*
G75*
G02*
X129530000Y-120490000I190000J0D01*
G01*
X129870000Y-120490000D01*
G75*
G02*
X130060000Y-120680000I0J-190000D01*
G01*
X130060000Y-120960000D01*
G75*
G02*
X129870000Y-121150000I-190000J0D01*
G01*
G37*
G36*
G01*
X105750000Y-132380000D02*
X105750000Y-130620000D01*
G75*
G02*
X106070000Y-130300000I320000J0D01*
G01*
X107330000Y-130300000D01*
G75*
G02*
X107650000Y-130620000I0J-320000D01*
G01*
X107650000Y-132380000D01*
G75*
G02*
X107330000Y-132700000I-320000J0D01*
G01*
X106070000Y-132700000D01*
G75*
G02*
X105750000Y-132380000I0J320000D01*
G01*
G37*
G36*
G01*
X115200000Y-101775000D02*
X115200000Y-100225000D01*
G75*
G02*
X115475000Y-99950000I275000J0D01*
G01*
X116525000Y-99950000D01*
G75*
G02*
X116800000Y-100225000I0J-275000D01*
G01*
X116800000Y-101775000D01*
G75*
G02*
X116525000Y-102050000I-275000J0D01*
G01*
X115475000Y-102050000D01*
G75*
G02*
X115200000Y-101775000I0J275000D01*
G01*
G37*
G36*
G01*
X132475000Y-121300000D02*
X130925000Y-121300000D01*
G75*
G02*
X130650000Y-121025000I0J275000D01*
G01*
X130650000Y-119975000D01*
G75*
G02*
X130925000Y-119700000I275000J0D01*
G01*
X132475000Y-119700000D01*
G75*
G02*
X132750000Y-119975000I0J-275000D01*
G01*
X132750000Y-121025000D01*
G75*
G02*
X132475000Y-121300000I-275000J0D01*
G01*
G37*
G36*
G01*
X123570000Y-98895000D02*
X123570000Y-97845000D01*
G75*
G02*
X124095000Y-97320000I525000J0D01*
G01*
X125045000Y-97320000D01*
G75*
G02*
X125570000Y-97845000I0J-525000D01*
G01*
X125570000Y-98895000D01*
G75*
G02*
X125045000Y-99420000I-525000J0D01*
G01*
X124095000Y-99420000D01*
G75*
G02*
X123570000Y-98895000I0J525000D01*
G01*
G37*
X124170000Y-98820000D03*
D16*
X131000000Y-117750000D03*
D15*
X131000000Y-117750000D03*
G36*
G01*
X129450000Y-118500000D02*
X129450000Y-117000000D01*
G75*
G02*
X130250000Y-116200000I800000J0D01*
G01*
X131750000Y-116200000D01*
G75*
G02*
X132550000Y-117000000I0J-800000D01*
G01*
X132550000Y-118500000D01*
G75*
G02*
X131750000Y-119300000I-800000J0D01*
G01*
X130250000Y-119300000D01*
G75*
G02*
X129450000Y-118500000I0J800000D01*
G01*
G37*
G36*
G01*
X113000000Y-101775000D02*
X113000000Y-100225000D01*
G75*
G02*
X113275000Y-99950000I275000J0D01*
G01*
X114325000Y-99950000D01*
G75*
G02*
X114600000Y-100225000I0J-275000D01*
G01*
X114600000Y-101775000D01*
G75*
G02*
X114325000Y-102050000I-275000J0D01*
G01*
X113275000Y-102050000D01*
G75*
G02*
X113000000Y-101775000I0J275000D01*
G01*
G37*
G36*
G01*
X110370000Y-98895000D02*
X110370000Y-97845000D01*
G75*
G02*
X110895000Y-97320000I525000J0D01*
G01*
X111845000Y-97320000D01*
G75*
G02*
X112370000Y-97845000I0J-525000D01*
G01*
X112370000Y-98895000D01*
G75*
G02*
X111845000Y-99420000I-525000J0D01*
G01*
X110895000Y-99420000D01*
G75*
G02*
X110370000Y-98895000I0J525000D01*
G01*
G37*
D13*
X110970000Y-98820000D03*
G36*
G01*
X107770000Y-113285000D02*
X107770000Y-112915000D01*
G75*
G02*
X107955000Y-112730000I185000J0D01*
G01*
X108225000Y-112730000D01*
G75*
G02*
X108410000Y-112915000I0J-185000D01*
G01*
X108410000Y-113285000D01*
G75*
G02*
X108225000Y-113470000I-185000J0D01*
G01*
X107955000Y-113470000D01*
G75*
G02*
X107770000Y-113285000I0J185000D01*
G01*
G37*
G36*
G01*
X108790000Y-113285000D02*
X108790000Y-112915000D01*
G75*
G02*
X108975000Y-112730000I185000J0D01*
G01*
X109245000Y-112730000D01*
G75*
G02*
X109430000Y-112915000I0J-185000D01*
G01*
X109430000Y-113285000D01*
G75*
G02*
X109245000Y-113470000I-185000J0D01*
G01*
X108975000Y-113470000D01*
G75*
G02*
X108790000Y-113285000I0J185000D01*
G01*
G37*
G36*
G01*
X125170000Y-114785000D02*
X125170000Y-114415000D01*
G75*
G02*
X125355000Y-114230000I185000J0D01*
G01*
X125625000Y-114230000D01*
G75*
G02*
X125810000Y-114415000I0J-185000D01*
G01*
X125810000Y-114785000D01*
G75*
G02*
X125625000Y-114970000I-185000J0D01*
G01*
X125355000Y-114970000D01*
G75*
G02*
X125170000Y-114785000I0J185000D01*
G01*
G37*
G36*
G01*
X126190000Y-114785000D02*
X126190000Y-114415000D01*
G75*
G02*
X126375000Y-114230000I185000J0D01*
G01*
X126645000Y-114230000D01*
G75*
G02*
X126830000Y-114415000I0J-185000D01*
G01*
X126830000Y-114785000D01*
G75*
G02*
X126645000Y-114970000I-185000J0D01*
G01*
X126375000Y-114970000D01*
G75*
G02*
X126190000Y-114785000I0J185000D01*
G01*
G37*
G36*
G01*
X110630000Y-105315000D02*
X110630000Y-105685000D01*
G75*
G02*
X110445000Y-105870000I-185000J0D01*
G01*
X110175000Y-105870000D01*
G75*
G02*
X109990000Y-105685000I0J185000D01*
G01*
X109990000Y-105315000D01*
G75*
G02*
X110175000Y-105130000I185000J0D01*
G01*
X110445000Y-105130000D01*
G75*
G02*
X110630000Y-105315000I0J-185000D01*
G01*
G37*
G36*
G01*
X109610000Y-105315000D02*
X109610000Y-105685000D01*
G75*
G02*
X109425000Y-105870000I-185000J0D01*
G01*
X109155000Y-105870000D01*
G75*
G02*
X108970000Y-105685000I0J185000D01*
G01*
X108970000Y-105315000D01*
G75*
G02*
X109155000Y-105130000I185000J0D01*
G01*
X109425000Y-105130000D01*
G75*
G02*
X109610000Y-105315000I0J-185000D01*
G01*
G37*
G36*
G01*
X110600000Y-127925000D02*
X110600000Y-129475000D01*
G75*
G02*
X110325000Y-129750000I-275000J0D01*
G01*
X109275000Y-129750000D01*
G75*
G02*
X109000000Y-129475000I0J275000D01*
G01*
X109000000Y-127925000D01*
G75*
G02*
X109275000Y-127650000I275000J0D01*
G01*
X110325000Y-127650000D01*
G75*
G02*
X110600000Y-127925000I0J-275000D01*
G01*
G37*
G36*
X125361961Y-110237304D02*
G01*
X125365690Y-110256049D01*
X125376086Y-110271607D01*
X125391644Y-110282002D01*
X125409998Y-110285653D01*
X125428410Y-110281991D01*
X125439359Y-110275528D01*
X125441359Y-110275508D01*
X125442376Y-110277231D01*
X125441594Y-110278837D01*
X125434374Y-110284377D01*
X125416818Y-110307257D01*
X125405781Y-110333904D01*
X125401999Y-110362631D01*
X125401999Y-110487367D01*
X125404528Y-110506579D01*
X125403762Y-110508427D01*
X125401780Y-110508688D01*
X125400596Y-110507290D01*
X125399899Y-110504272D01*
X125392131Y-110487026D01*
X125378502Y-110474204D01*
X125361003Y-110467574D01*
X125342299Y-110468145D01*
X125325131Y-110475878D01*
X125319054Y-110481027D01*
X125312109Y-110487984D01*
X125310178Y-110488503D01*
X125308763Y-110487090D01*
X125309144Y-110485307D01*
X125326942Y-110463484D01*
X125344543Y-110429817D01*
X125355021Y-110393277D01*
X125357999Y-110359913D01*
X125357999Y-110237694D01*
X125358999Y-110235962D01*
X125360999Y-110235962D01*
X125361961Y-110237304D01*
G37*
M02*
