G04 #@! TF.GenerationSoftware,KiCad,Pcbnew,(6.0.8)*
G04 #@! TF.CreationDate,2023-01-15T21:35:18+01:00*
G04 #@! TF.ProjectId,ultimateFC,756c7469-6d61-4746-9546-432e6b696361,rev?*
G04 #@! TF.SameCoordinates,Original*
G04 #@! TF.FileFunction,Soldermask,Bot*
G04 #@! TF.FilePolarity,Negative*
%FSLAX46Y46*%
G04 Gerber Fmt 4.6, Leading zero omitted, Abs format (unit mm)*
G04 Created by KiCad (PCBNEW (6.0.8)) date 2023-01-15 21:35:18*
%MOMM*%
%LPD*%
G01*
G04 APERTURE LIST*
%ADD10O,1.650000X0.990000*%
%ADD11O,1.050000X1.350000*%
%ADD12C,1.100000*%
%ADD13C,5.700000*%
%ADD14O,1.700000X3.100000*%
%ADD15O,3.100000X1.700000*%
G04 APERTURE END LIST*
D10*
X98400000Y-114100000D03*
D11*
X101100000Y-120100000D03*
X101100000Y-115100000D03*
D10*
X98400000Y-121100000D03*
G36*
G01*
X103250000Y-132380000D02*
X103250000Y-130620000D01*
G75*
G02*
X103570000Y-130300000I320000J0D01*
G01*
X104830000Y-130300000D01*
G75*
G02*
X105150000Y-130620000I0J-320000D01*
G01*
X105150000Y-132380000D01*
G75*
G02*
X104830000Y-132700000I-320000J0D01*
G01*
X103570000Y-132700000D01*
G75*
G02*
X103250000Y-132380000I0J320000D01*
G01*
G37*
D12*
X121970000Y-98820000D03*
G36*
G01*
X121370000Y-98895000D02*
X121370000Y-97845000D01*
G75*
G02*
X121895000Y-97320000I525000J0D01*
G01*
X122845000Y-97320000D01*
G75*
G02*
X123370000Y-97845000I0J-525000D01*
G01*
X123370000Y-98895000D01*
G75*
G02*
X122845000Y-99420000I-525000J0D01*
G01*
X121895000Y-99420000D01*
G75*
G02*
X121370000Y-98895000I0J525000D01*
G01*
G37*
G36*
G01*
X132225000Y-124140000D02*
X131175000Y-124140000D01*
G75*
G02*
X130650000Y-123615000I0J525000D01*
G01*
X130650000Y-122665000D01*
G75*
G02*
X131175000Y-122140000I525000J0D01*
G01*
X132225000Y-122140000D01*
G75*
G02*
X132750000Y-122665000I0J-525000D01*
G01*
X132750000Y-123615000D01*
G75*
G02*
X132225000Y-124140000I-525000J0D01*
G01*
G37*
X132150000Y-123540000D03*
X104370000Y-98820000D03*
G36*
G01*
X103770000Y-98895000D02*
X103770000Y-97845000D01*
G75*
G02*
X104295000Y-97320000I525000J0D01*
G01*
X105245000Y-97320000D01*
G75*
G02*
X105770000Y-97845000I0J-525000D01*
G01*
X105770000Y-98895000D01*
G75*
G02*
X105245000Y-99420000I-525000J0D01*
G01*
X104295000Y-99420000D01*
G75*
G02*
X103770000Y-98895000I0J525000D01*
G01*
G37*
X117080000Y-132160000D03*
G36*
G01*
X116480000Y-132235000D02*
X116480000Y-131185000D01*
G75*
G02*
X117005000Y-130660000I525000J0D01*
G01*
X117955000Y-130660000D01*
G75*
G02*
X118480000Y-131185000I0J-525000D01*
G01*
X118480000Y-132235000D01*
G75*
G02*
X117955000Y-132760000I-525000J0D01*
G01*
X117005000Y-132760000D01*
G75*
G02*
X116480000Y-132235000I0J525000D01*
G01*
G37*
X115370000Y-97920000D03*
G36*
G01*
X116770000Y-97845000D02*
X116770000Y-98895000D01*
G75*
G02*
X116245000Y-99420000I-525000J0D01*
G01*
X115295000Y-99420000D01*
G75*
G02*
X114770000Y-98895000I0J525000D01*
G01*
X114770000Y-97845000D01*
G75*
G02*
X115295000Y-97320000I525000J0D01*
G01*
X116245000Y-97320000D01*
G75*
G02*
X116770000Y-97845000I0J-525000D01*
G01*
G37*
G36*
G01*
X108350000Y-132380000D02*
X108350000Y-130620000D01*
G75*
G02*
X108670000Y-130300000I320000J0D01*
G01*
X109930000Y-130300000D01*
G75*
G02*
X110250000Y-130620000I0J-320000D01*
G01*
X110250000Y-132380000D01*
G75*
G02*
X109930000Y-132700000I-320000J0D01*
G01*
X108670000Y-132700000D01*
G75*
G02*
X108350000Y-132380000I0J320000D01*
G01*
G37*
G36*
G01*
X108170000Y-98895000D02*
X108170000Y-97845000D01*
G75*
G02*
X108695000Y-97320000I525000J0D01*
G01*
X109645000Y-97320000D01*
G75*
G02*
X110170000Y-97845000I0J-525000D01*
G01*
X110170000Y-98895000D01*
G75*
G02*
X109645000Y-99420000I-525000J0D01*
G01*
X108695000Y-99420000D01*
G75*
G02*
X108170000Y-98895000I0J525000D01*
G01*
G37*
X108770000Y-98820000D03*
D13*
X100000000Y-130000000D03*
G36*
G01*
X118680000Y-132235000D02*
X118680000Y-131185000D01*
G75*
G02*
X119205000Y-130660000I525000J0D01*
G01*
X120155000Y-130660000D01*
G75*
G02*
X120680000Y-131185000I0J-525000D01*
G01*
X120680000Y-132235000D01*
G75*
G02*
X120155000Y-132760000I-525000J0D01*
G01*
X119205000Y-132760000D01*
G75*
G02*
X118680000Y-132235000I0J525000D01*
G01*
G37*
D12*
X119280000Y-132160000D03*
D13*
X130000000Y-130000000D03*
D14*
X131000000Y-114000000D03*
D12*
X121480000Y-132160000D03*
G36*
G01*
X120880000Y-132235000D02*
X120880000Y-131185000D01*
G75*
G02*
X121405000Y-130660000I525000J0D01*
G01*
X122355000Y-130660000D01*
G75*
G02*
X122880000Y-131185000I0J-525000D01*
G01*
X122880000Y-132235000D01*
G75*
G02*
X122355000Y-132760000I-525000J0D01*
G01*
X121405000Y-132760000D01*
G75*
G02*
X120880000Y-132235000I0J525000D01*
G01*
G37*
G36*
G01*
X132225000Y-126340000D02*
X131175000Y-126340000D01*
G75*
G02*
X130650000Y-125815000I0J525000D01*
G01*
X130650000Y-124865000D01*
G75*
G02*
X131175000Y-124340000I525000J0D01*
G01*
X132225000Y-124340000D01*
G75*
G02*
X132750000Y-124865000I0J-525000D01*
G01*
X132750000Y-125815000D01*
G75*
G02*
X132225000Y-126340000I-525000J0D01*
G01*
G37*
X132150000Y-125740000D03*
X117570000Y-98820000D03*
G36*
G01*
X116970000Y-98895000D02*
X116970000Y-97845000D01*
G75*
G02*
X117495000Y-97320000I525000J0D01*
G01*
X118445000Y-97320000D01*
G75*
G02*
X118970000Y-97845000I0J-525000D01*
G01*
X118970000Y-98895000D01*
G75*
G02*
X118445000Y-99420000I-525000J0D01*
G01*
X117495000Y-99420000D01*
G75*
G02*
X116970000Y-98895000I0J525000D01*
G01*
G37*
G36*
G01*
X105970000Y-98895000D02*
X105970000Y-97845000D01*
G75*
G02*
X106495000Y-97320000I525000J0D01*
G01*
X107445000Y-97320000D01*
G75*
G02*
X107970000Y-97845000I0J-525000D01*
G01*
X107970000Y-98895000D01*
G75*
G02*
X107445000Y-99420000I-525000J0D01*
G01*
X106495000Y-99420000D01*
G75*
G02*
X105970000Y-98895000I0J525000D01*
G01*
G37*
X106570000Y-98820000D03*
G36*
G01*
X112570000Y-98895000D02*
X112570000Y-97845000D01*
G75*
G02*
X113095000Y-97320000I525000J0D01*
G01*
X114045000Y-97320000D01*
G75*
G02*
X114570000Y-97845000I0J-525000D01*
G01*
X114570000Y-98895000D01*
G75*
G02*
X114045000Y-99420000I-525000J0D01*
G01*
X113095000Y-99420000D01*
G75*
G02*
X112570000Y-98895000I0J525000D01*
G01*
G37*
X113170000Y-98820000D03*
G36*
G01*
X113450000Y-132380000D02*
X113450000Y-130620000D01*
G75*
G02*
X113770000Y-130300000I320000J0D01*
G01*
X115030000Y-130300000D01*
G75*
G02*
X115350000Y-130620000I0J-320000D01*
G01*
X115350000Y-132380000D01*
G75*
G02*
X115030000Y-132700000I-320000J0D01*
G01*
X113770000Y-132700000D01*
G75*
G02*
X113450000Y-132380000I0J320000D01*
G01*
G37*
D13*
X100000000Y-100000000D03*
X130000000Y-100000000D03*
G36*
G01*
X110950000Y-132380000D02*
X110950000Y-130620000D01*
G75*
G02*
X111270000Y-130300000I320000J0D01*
G01*
X112530000Y-130300000D01*
G75*
G02*
X112850000Y-130620000I0J-320000D01*
G01*
X112850000Y-132380000D01*
G75*
G02*
X112530000Y-132700000I-320000J0D01*
G01*
X111270000Y-132700000D01*
G75*
G02*
X110950000Y-132380000I0J320000D01*
G01*
G37*
G36*
G01*
X119170000Y-98895000D02*
X119170000Y-97845000D01*
G75*
G02*
X119695000Y-97320000I525000J0D01*
G01*
X120645000Y-97320000D01*
G75*
G02*
X121170000Y-97845000I0J-525000D01*
G01*
X121170000Y-98895000D01*
G75*
G02*
X120645000Y-99420000I-525000J0D01*
G01*
X119695000Y-99420000D01*
G75*
G02*
X119170000Y-98895000I0J525000D01*
G01*
G37*
D12*
X119770000Y-98820000D03*
G36*
G01*
X105750000Y-132380000D02*
X105750000Y-130620000D01*
G75*
G02*
X106070000Y-130300000I320000J0D01*
G01*
X107330000Y-130300000D01*
G75*
G02*
X107650000Y-130620000I0J-320000D01*
G01*
X107650000Y-132380000D01*
G75*
G02*
X107330000Y-132700000I-320000J0D01*
G01*
X106070000Y-132700000D01*
G75*
G02*
X105750000Y-132380000I0J320000D01*
G01*
G37*
G36*
G01*
X123570000Y-98895000D02*
X123570000Y-97845000D01*
G75*
G02*
X124095000Y-97320000I525000J0D01*
G01*
X125045000Y-97320000D01*
G75*
G02*
X125570000Y-97845000I0J-525000D01*
G01*
X125570000Y-98895000D01*
G75*
G02*
X125045000Y-99420000I-525000J0D01*
G01*
X124095000Y-99420000D01*
G75*
G02*
X123570000Y-98895000I0J525000D01*
G01*
G37*
X124170000Y-98820000D03*
D15*
X131000000Y-117750000D03*
D14*
X131000000Y-117750000D03*
G36*
G01*
X110370000Y-98895000D02*
X110370000Y-97845000D01*
G75*
G02*
X110895000Y-97320000I525000J0D01*
G01*
X111845000Y-97320000D01*
G75*
G02*
X112370000Y-97845000I0J-525000D01*
G01*
X112370000Y-98895000D01*
G75*
G02*
X111845000Y-99420000I-525000J0D01*
G01*
X110895000Y-99420000D01*
G75*
G02*
X110370000Y-98895000I0J525000D01*
G01*
G37*
D12*
X110970000Y-98820000D03*
G36*
G01*
X122900000Y-102925000D02*
X122900000Y-104475000D01*
G75*
G02*
X122625000Y-104750000I-275000J0D01*
G01*
X121575000Y-104750000D01*
G75*
G02*
X121300000Y-104475000I0J275000D01*
G01*
X121300000Y-102925000D01*
G75*
G02*
X121575000Y-102650000I275000J0D01*
G01*
X122625000Y-102650000D01*
G75*
G02*
X122900000Y-102925000I0J-275000D01*
G01*
G37*
G36*
G01*
X116700000Y-125225000D02*
X116700000Y-126775000D01*
G75*
G02*
X116425000Y-127050000I-275000J0D01*
G01*
X115375000Y-127050000D01*
G75*
G02*
X115100000Y-126775000I0J275000D01*
G01*
X115100000Y-125225000D01*
G75*
G02*
X115375000Y-124950000I275000J0D01*
G01*
X116425000Y-124950000D01*
G75*
G02*
X116700000Y-125225000I0J-275000D01*
G01*
G37*
G36*
G01*
X122000000Y-122225000D02*
X122000000Y-123775000D01*
G75*
G02*
X121725000Y-124050000I-275000J0D01*
G01*
X120675000Y-124050000D01*
G75*
G02*
X120400000Y-123775000I0J275000D01*
G01*
X120400000Y-122225000D01*
G75*
G02*
X120675000Y-121950000I275000J0D01*
G01*
X121725000Y-121950000D01*
G75*
G02*
X122000000Y-122225000I0J-275000D01*
G01*
G37*
G36*
G01*
X126725000Y-115400000D02*
X125675000Y-115400000D01*
G75*
G02*
X125400000Y-115125000I0J275000D01*
G01*
X125400000Y-114075000D01*
G75*
G02*
X125675000Y-113800000I275000J0D01*
G01*
X126725000Y-113800000D01*
G75*
G02*
X127000000Y-114075000I0J-275000D01*
G01*
X127000000Y-115125000D01*
G75*
G02*
X126725000Y-115400000I-275000J0D01*
G01*
G37*
G36*
G01*
X112685000Y-122905000D02*
X112685000Y-123245000D01*
G75*
G02*
X112495000Y-123435000I-190000J0D01*
G01*
X112215000Y-123435000D01*
G75*
G02*
X112025000Y-123245000I0J190000D01*
G01*
X112025000Y-122905000D01*
G75*
G02*
X112215000Y-122715000I190000J0D01*
G01*
X112495000Y-122715000D01*
G75*
G02*
X112685000Y-122905000I0J-190000D01*
G01*
G37*
G36*
G01*
X111725000Y-122905000D02*
X111725000Y-123245000D01*
G75*
G02*
X111535000Y-123435000I-190000J0D01*
G01*
X111255000Y-123435000D01*
G75*
G02*
X111065000Y-123245000I0J190000D01*
G01*
X111065000Y-122905000D01*
G75*
G02*
X111255000Y-122715000I190000J0D01*
G01*
X111535000Y-122715000D01*
G75*
G02*
X111725000Y-122905000I0J-190000D01*
G01*
G37*
G36*
G01*
X115600000Y-116990000D02*
X115600000Y-116650000D01*
G75*
G02*
X115790000Y-116460000I190000J0D01*
G01*
X116070000Y-116460000D01*
G75*
G02*
X116260000Y-116650000I0J-190000D01*
G01*
X116260000Y-116990000D01*
G75*
G02*
X116070000Y-117180000I-190000J0D01*
G01*
X115790000Y-117180000D01*
G75*
G02*
X115600000Y-116990000I0J190000D01*
G01*
G37*
G36*
G01*
X116560000Y-116990000D02*
X116560000Y-116650000D01*
G75*
G02*
X116750000Y-116460000I190000J0D01*
G01*
X117030000Y-116460000D01*
G75*
G02*
X117220000Y-116650000I0J-190000D01*
G01*
X117220000Y-116990000D01*
G75*
G02*
X117030000Y-117180000I-190000J0D01*
G01*
X116750000Y-117180000D01*
G75*
G02*
X116560000Y-116990000I0J190000D01*
G01*
G37*
G36*
G01*
X114500000Y-125225000D02*
X114500000Y-126775000D01*
G75*
G02*
X114225000Y-127050000I-275000J0D01*
G01*
X113175000Y-127050000D01*
G75*
G02*
X112900000Y-126775000I0J275000D01*
G01*
X112900000Y-125225000D01*
G75*
G02*
X113175000Y-124950000I275000J0D01*
G01*
X114225000Y-124950000D01*
G75*
G02*
X114500000Y-125225000I0J-275000D01*
G01*
G37*
G36*
G01*
X119600000Y-100225000D02*
X119600000Y-101775000D01*
G75*
G02*
X119325000Y-102050000I-275000J0D01*
G01*
X118275000Y-102050000D01*
G75*
G02*
X118000000Y-101775000I0J275000D01*
G01*
X118000000Y-100225000D01*
G75*
G02*
X118275000Y-99950000I275000J0D01*
G01*
X119325000Y-99950000D01*
G75*
G02*
X119600000Y-100225000I0J-275000D01*
G01*
G37*
G36*
G01*
X116600000Y-107225000D02*
X116600000Y-106175000D01*
G75*
G02*
X116875000Y-105900000I275000J0D01*
G01*
X117925000Y-105900000D01*
G75*
G02*
X118200000Y-106175000I0J-275000D01*
G01*
X118200000Y-107225000D01*
G75*
G02*
X117925000Y-107500000I-275000J0D01*
G01*
X116875000Y-107500000D01*
G75*
G02*
X116600000Y-107225000I0J275000D01*
G01*
G37*
G36*
G01*
X99900000Y-115975000D02*
X99900000Y-117025000D01*
G75*
G02*
X99625000Y-117300000I-275000J0D01*
G01*
X98575000Y-117300000D01*
G75*
G02*
X98300000Y-117025000I0J275000D01*
G01*
X98300000Y-115975000D01*
G75*
G02*
X98575000Y-115700000I275000J0D01*
G01*
X99625000Y-115700000D01*
G75*
G02*
X99900000Y-115975000I0J-275000D01*
G01*
G37*
G36*
G01*
X112685000Y-121205000D02*
X112685000Y-121545000D01*
G75*
G02*
X112495000Y-121735000I-190000J0D01*
G01*
X112215000Y-121735000D01*
G75*
G02*
X112025000Y-121545000I0J190000D01*
G01*
X112025000Y-121205000D01*
G75*
G02*
X112215000Y-121015000I190000J0D01*
G01*
X112495000Y-121015000D01*
G75*
G02*
X112685000Y-121205000I0J-190000D01*
G01*
G37*
G36*
G01*
X111725000Y-121205000D02*
X111725000Y-121545000D01*
G75*
G02*
X111535000Y-121735000I-190000J0D01*
G01*
X111255000Y-121735000D01*
G75*
G02*
X111065000Y-121545000I0J190000D01*
G01*
X111065000Y-121205000D01*
G75*
G02*
X111255000Y-121015000I190000J0D01*
G01*
X111535000Y-121015000D01*
G75*
G02*
X111725000Y-121205000I0J-190000D01*
G01*
G37*
G36*
G01*
X105700000Y-110125000D02*
X105700000Y-111675000D01*
G75*
G02*
X105425000Y-111950000I-275000J0D01*
G01*
X104375000Y-111950000D01*
G75*
G02*
X104100000Y-111675000I0J275000D01*
G01*
X104100000Y-110125000D01*
G75*
G02*
X104375000Y-109850000I275000J0D01*
G01*
X105425000Y-109850000D01*
G75*
G02*
X105700000Y-110125000I0J-275000D01*
G01*
G37*
G36*
G01*
X127425000Y-111600000D02*
X128975000Y-111600000D01*
G75*
G02*
X129250000Y-111875000I0J-275000D01*
G01*
X129250000Y-112925000D01*
G75*
G02*
X128975000Y-113200000I-275000J0D01*
G01*
X127425000Y-113200000D01*
G75*
G02*
X127150000Y-112925000I0J275000D01*
G01*
X127150000Y-111875000D01*
G75*
G02*
X127425000Y-111600000I275000J0D01*
G01*
G37*
G36*
G01*
X105700000Y-104375000D02*
X105700000Y-105425000D01*
G75*
G02*
X105425000Y-105700000I-275000J0D01*
G01*
X104375000Y-105700000D01*
G75*
G02*
X104100000Y-105425000I0J275000D01*
G01*
X104100000Y-104375000D01*
G75*
G02*
X104375000Y-104100000I275000J0D01*
G01*
X105425000Y-104100000D01*
G75*
G02*
X105700000Y-104375000I0J-275000D01*
G01*
G37*
G36*
G01*
X101100000Y-122575000D02*
X101100000Y-123625000D01*
G75*
G02*
X100825000Y-123900000I-275000J0D01*
G01*
X99775000Y-123900000D01*
G75*
G02*
X99500000Y-123625000I0J275000D01*
G01*
X99500000Y-122575000D01*
G75*
G02*
X99775000Y-122300000I275000J0D01*
G01*
X100825000Y-122300000D01*
G75*
G02*
X101100000Y-122575000I0J-275000D01*
G01*
G37*
G36*
G01*
X126450000Y-120000000D02*
X126450000Y-119000000D01*
G75*
G02*
X126500000Y-118950000I50000J0D01*
G01*
X126900000Y-118950000D01*
G75*
G02*
X126950000Y-119000000I0J-50000D01*
G01*
X126950000Y-120000000D01*
G75*
G02*
X126900000Y-120050000I-50000J0D01*
G01*
X126500000Y-120050000D01*
G75*
G02*
X126450000Y-120000000I0J50000D01*
G01*
G37*
G36*
G01*
X127050000Y-120000000D02*
X127050000Y-119000000D01*
G75*
G02*
X127100000Y-118950000I50000J0D01*
G01*
X127500000Y-118950000D01*
G75*
G02*
X127550000Y-119000000I0J-50000D01*
G01*
X127550000Y-120000000D01*
G75*
G02*
X127500000Y-120050000I-50000J0D01*
G01*
X127100000Y-120050000D01*
G75*
G02*
X127050000Y-120000000I0J50000D01*
G01*
G37*
G36*
G01*
X105980000Y-117565000D02*
X106320000Y-117565000D01*
G75*
G02*
X106510000Y-117755000I0J-190000D01*
G01*
X106510000Y-118035000D01*
G75*
G02*
X106320000Y-118225000I-190000J0D01*
G01*
X105980000Y-118225000D01*
G75*
G02*
X105790000Y-118035000I0J190000D01*
G01*
X105790000Y-117755000D01*
G75*
G02*
X105980000Y-117565000I190000J0D01*
G01*
G37*
G36*
G01*
X105980000Y-118525000D02*
X106320000Y-118525000D01*
G75*
G02*
X106510000Y-118715000I0J-190000D01*
G01*
X106510000Y-118995000D01*
G75*
G02*
X106320000Y-119185000I-190000J0D01*
G01*
X105980000Y-119185000D01*
G75*
G02*
X105790000Y-118995000I0J190000D01*
G01*
X105790000Y-118715000D01*
G75*
G02*
X105980000Y-118525000I190000J0D01*
G01*
G37*
G36*
G01*
X128325000Y-119900000D02*
X129875000Y-119900000D01*
G75*
G02*
X130150000Y-120175000I0J-275000D01*
G01*
X130150000Y-121225000D01*
G75*
G02*
X129875000Y-121500000I-275000J0D01*
G01*
X128325000Y-121500000D01*
G75*
G02*
X128050000Y-121225000I0J275000D01*
G01*
X128050000Y-120175000D01*
G75*
G02*
X128325000Y-119900000I275000J0D01*
G01*
G37*
G36*
G01*
X122200000Y-127925000D02*
X122200000Y-129475000D01*
G75*
G02*
X121925000Y-129750000I-275000J0D01*
G01*
X120875000Y-129750000D01*
G75*
G02*
X120600000Y-129475000I0J275000D01*
G01*
X120600000Y-127925000D01*
G75*
G02*
X120875000Y-127650000I275000J0D01*
G01*
X121925000Y-127650000D01*
G75*
G02*
X122200000Y-127925000I0J-275000D01*
G01*
G37*
G36*
G01*
X105200000Y-129475000D02*
X105200000Y-127925000D01*
G75*
G02*
X105475000Y-127650000I275000J0D01*
G01*
X106525000Y-127650000D01*
G75*
G02*
X106800000Y-127925000I0J-275000D01*
G01*
X106800000Y-129475000D01*
G75*
G02*
X106525000Y-129750000I-275000J0D01*
G01*
X105475000Y-129750000D01*
G75*
G02*
X105200000Y-129475000I0J275000D01*
G01*
G37*
G36*
G01*
X124000000Y-100225000D02*
X124000000Y-101775000D01*
G75*
G02*
X123725000Y-102050000I-275000J0D01*
G01*
X122675000Y-102050000D01*
G75*
G02*
X122400000Y-101775000I0J275000D01*
G01*
X122400000Y-100225000D01*
G75*
G02*
X122675000Y-99950000I275000J0D01*
G01*
X123725000Y-99950000D01*
G75*
G02*
X124000000Y-100225000I0J-275000D01*
G01*
G37*
G36*
G01*
X112685000Y-122055000D02*
X112685000Y-122395000D01*
G75*
G02*
X112495000Y-122585000I-190000J0D01*
G01*
X112215000Y-122585000D01*
G75*
G02*
X112025000Y-122395000I0J190000D01*
G01*
X112025000Y-122055000D01*
G75*
G02*
X112215000Y-121865000I190000J0D01*
G01*
X112495000Y-121865000D01*
G75*
G02*
X112685000Y-122055000I0J-190000D01*
G01*
G37*
G36*
G01*
X111725000Y-122055000D02*
X111725000Y-122395000D01*
G75*
G02*
X111535000Y-122585000I-190000J0D01*
G01*
X111255000Y-122585000D01*
G75*
G02*
X111065000Y-122395000I0J190000D01*
G01*
X111065000Y-122055000D01*
G75*
G02*
X111255000Y-121865000I190000J0D01*
G01*
X111535000Y-121865000D01*
G75*
G02*
X111725000Y-122055000I0J-190000D01*
G01*
G37*
G36*
G01*
X107700000Y-110125000D02*
X107700000Y-111675000D01*
G75*
G02*
X107425000Y-111950000I-275000J0D01*
G01*
X106375000Y-111950000D01*
G75*
G02*
X106100000Y-111675000I0J275000D01*
G01*
X106100000Y-110125000D01*
G75*
G02*
X106375000Y-109850000I275000J0D01*
G01*
X107425000Y-109850000D01*
G75*
G02*
X107700000Y-110125000I0J-275000D01*
G01*
G37*
G36*
G01*
X129875000Y-126500000D02*
X128325000Y-126500000D01*
G75*
G02*
X128050000Y-126225000I0J275000D01*
G01*
X128050000Y-125175000D01*
G75*
G02*
X128325000Y-124900000I275000J0D01*
G01*
X129875000Y-124900000D01*
G75*
G02*
X130150000Y-125175000I0J-275000D01*
G01*
X130150000Y-126225000D01*
G75*
G02*
X129875000Y-126500000I-275000J0D01*
G01*
G37*
G36*
G01*
X132267500Y-104230000D02*
X132542500Y-104230000D01*
G75*
G02*
X132730000Y-104417500I0J-187500D01*
G01*
X132730000Y-104742500D01*
G75*
G02*
X132542500Y-104930000I-187500J0D01*
G01*
X132267500Y-104930000D01*
G75*
G02*
X132080000Y-104742500I0J187500D01*
G01*
X132080000Y-104417500D01*
G75*
G02*
X132267500Y-104230000I187500J0D01*
G01*
G37*
G36*
X132276194Y-105849134D02*
G01*
X132265355Y-105865355D01*
X132249134Y-105876194D01*
X132230000Y-105880000D01*
X130630000Y-105880000D01*
X130610866Y-105876194D01*
X130594645Y-105865355D01*
X130583806Y-105849134D01*
X130580000Y-105830000D01*
X130580000Y-105255000D01*
X130583806Y-105235866D01*
X130594645Y-105219645D01*
X130610866Y-105208806D01*
X130630000Y-105205000D01*
X131155000Y-105205000D01*
X131174134Y-105208806D01*
X131190355Y-105219645D01*
X131250710Y-105280000D01*
X131609290Y-105280000D01*
X131669645Y-105219645D01*
X131685866Y-105208806D01*
X131705000Y-105205000D01*
X132230000Y-105205000D01*
X132249134Y-105208806D01*
X132265355Y-105219645D01*
X132276194Y-105235866D01*
X132280000Y-105255000D01*
X132280000Y-105830000D01*
X132276194Y-105849134D01*
G37*
G36*
G01*
X130292500Y-104230000D02*
X130567500Y-104230000D01*
G75*
G02*
X130755000Y-104417500I0J-187500D01*
G01*
X130755000Y-104742500D01*
G75*
G02*
X130567500Y-104930000I-187500J0D01*
G01*
X130292500Y-104930000D01*
G75*
G02*
X130105000Y-104742500I0J187500D01*
G01*
X130105000Y-104417500D01*
G75*
G02*
X130292500Y-104230000I187500J0D01*
G01*
G37*
G36*
X132276194Y-103924134D02*
G01*
X132265355Y-103940355D01*
X132249134Y-103951194D01*
X132230000Y-103955000D01*
X131705000Y-103955000D01*
X131685866Y-103951194D01*
X131669645Y-103940355D01*
X131609290Y-103880000D01*
X131250710Y-103880000D01*
X131190355Y-103940355D01*
X131174134Y-103951194D01*
X131155000Y-103955000D01*
X130630000Y-103955000D01*
X130610866Y-103951194D01*
X130594645Y-103940355D01*
X130583806Y-103924134D01*
X130580000Y-103905000D01*
X130580000Y-103330000D01*
X130583806Y-103310866D01*
X130594645Y-103294645D01*
X130610866Y-103283806D01*
X130630000Y-103280000D01*
X132230000Y-103280000D01*
X132249134Y-103283806D01*
X132265355Y-103294645D01*
X132276194Y-103310866D01*
X132280000Y-103330000D01*
X132280000Y-103905000D01*
X132276194Y-103924134D01*
G37*
G36*
G01*
X117800000Y-127925000D02*
X117800000Y-129475000D01*
G75*
G02*
X117525000Y-129750000I-275000J0D01*
G01*
X116475000Y-129750000D01*
G75*
G02*
X116200000Y-129475000I0J275000D01*
G01*
X116200000Y-127925000D01*
G75*
G02*
X116475000Y-127650000I275000J0D01*
G01*
X117525000Y-127650000D01*
G75*
G02*
X117800000Y-127925000I0J-275000D01*
G01*
G37*
G36*
G01*
X113900000Y-106125000D02*
X113900000Y-107675000D01*
G75*
G02*
X113625000Y-107950000I-275000J0D01*
G01*
X112575000Y-107950000D01*
G75*
G02*
X112300000Y-107675000I0J275000D01*
G01*
X112300000Y-106125000D01*
G75*
G02*
X112575000Y-105850000I275000J0D01*
G01*
X113625000Y-105850000D01*
G75*
G02*
X113900000Y-106125000I0J-275000D01*
G01*
G37*
G36*
G01*
X109900000Y-106125000D02*
X109900000Y-107675000D01*
G75*
G02*
X109625000Y-107950000I-275000J0D01*
G01*
X108575000Y-107950000D01*
G75*
G02*
X108300000Y-107675000I0J275000D01*
G01*
X108300000Y-106125000D01*
G75*
G02*
X108575000Y-105850000I275000J0D01*
G01*
X109625000Y-105850000D01*
G75*
G02*
X109900000Y-106125000I0J-275000D01*
G01*
G37*
G36*
G01*
X107170000Y-119185000D02*
X106830000Y-119185000D01*
G75*
G02*
X106640000Y-118995000I0J190000D01*
G01*
X106640000Y-118715000D01*
G75*
G02*
X106830000Y-118525000I190000J0D01*
G01*
X107170000Y-118525000D01*
G75*
G02*
X107360000Y-118715000I0J-190000D01*
G01*
X107360000Y-118995000D01*
G75*
G02*
X107170000Y-119185000I-190000J0D01*
G01*
G37*
G36*
G01*
X107170000Y-118225000D02*
X106830000Y-118225000D01*
G75*
G02*
X106640000Y-118035000I0J190000D01*
G01*
X106640000Y-117755000D01*
G75*
G02*
X106830000Y-117565000I190000J0D01*
G01*
X107170000Y-117565000D01*
G75*
G02*
X107360000Y-117755000I0J-190000D01*
G01*
X107360000Y-118035000D01*
G75*
G02*
X107170000Y-118225000I-190000J0D01*
G01*
G37*
G36*
G01*
X119800000Y-122225000D02*
X119800000Y-123775000D01*
G75*
G02*
X119525000Y-124050000I-275000J0D01*
G01*
X118475000Y-124050000D01*
G75*
G02*
X118200000Y-123775000I0J275000D01*
G01*
X118200000Y-122225000D01*
G75*
G02*
X118475000Y-121950000I275000J0D01*
G01*
X119525000Y-121950000D01*
G75*
G02*
X119800000Y-122225000I0J-275000D01*
G01*
G37*
G36*
G01*
X103700000Y-108375000D02*
X103700000Y-109425000D01*
G75*
G02*
X103425000Y-109700000I-275000J0D01*
G01*
X102375000Y-109700000D01*
G75*
G02*
X102100000Y-109425000I0J275000D01*
G01*
X102100000Y-108375000D01*
G75*
G02*
X102375000Y-108100000I275000J0D01*
G01*
X103425000Y-108100000D01*
G75*
G02*
X103700000Y-108375000I0J-275000D01*
G01*
G37*
G36*
G01*
X107700000Y-106125000D02*
X107700000Y-107675000D01*
G75*
G02*
X107425000Y-107950000I-275000J0D01*
G01*
X106375000Y-107950000D01*
G75*
G02*
X106100000Y-107675000I0J275000D01*
G01*
X106100000Y-106125000D01*
G75*
G02*
X106375000Y-105850000I275000J0D01*
G01*
X107425000Y-105850000D01*
G75*
G02*
X107700000Y-106125000I0J-275000D01*
G01*
G37*
G36*
G01*
X99900000Y-118175000D02*
X99900000Y-119225000D01*
G75*
G02*
X99625000Y-119500000I-275000J0D01*
G01*
X98575000Y-119500000D01*
G75*
G02*
X98300000Y-119225000I0J275000D01*
G01*
X98300000Y-118175000D01*
G75*
G02*
X98575000Y-117900000I275000J0D01*
G01*
X99625000Y-117900000D01*
G75*
G02*
X99900000Y-118175000I0J-275000D01*
G01*
G37*
G36*
G01*
X111900000Y-104375000D02*
X111900000Y-105425000D01*
G75*
G02*
X111625000Y-105700000I-275000J0D01*
G01*
X110575000Y-105700000D01*
G75*
G02*
X110300000Y-105425000I0J275000D01*
G01*
X110300000Y-104375000D01*
G75*
G02*
X110575000Y-104100000I275000J0D01*
G01*
X111625000Y-104100000D01*
G75*
G02*
X111900000Y-104375000I0J-275000D01*
G01*
G37*
G36*
G01*
X124525000Y-120800000D02*
X126075000Y-120800000D01*
G75*
G02*
X126350000Y-121075000I0J-275000D01*
G01*
X126350000Y-122125000D01*
G75*
G02*
X126075000Y-122400000I-275000J0D01*
G01*
X124525000Y-122400000D01*
G75*
G02*
X124250000Y-122125000I0J275000D01*
G01*
X124250000Y-121075000D01*
G75*
G02*
X124525000Y-120800000I275000J0D01*
G01*
G37*
G36*
G01*
X101925000Y-125500000D02*
X103475000Y-125500000D01*
G75*
G02*
X103750000Y-125775000I0J-275000D01*
G01*
X103750000Y-126825000D01*
G75*
G02*
X103475000Y-127100000I-275000J0D01*
G01*
X101925000Y-127100000D01*
G75*
G02*
X101650000Y-126825000I0J275000D01*
G01*
X101650000Y-125775000D01*
G75*
G02*
X101925000Y-125500000I275000J0D01*
G01*
G37*
G36*
G01*
X113625000Y-121000000D02*
X115175000Y-121000000D01*
G75*
G02*
X115450000Y-121275000I0J-275000D01*
G01*
X115450000Y-122325000D01*
G75*
G02*
X115175000Y-122600000I-275000J0D01*
G01*
X113625000Y-122600000D01*
G75*
G02*
X113350000Y-122325000I0J275000D01*
G01*
X113350000Y-121275000D01*
G75*
G02*
X113625000Y-121000000I275000J0D01*
G01*
G37*
G36*
G01*
X109000000Y-127925000D02*
X109000000Y-129475000D01*
G75*
G02*
X108725000Y-129750000I-275000J0D01*
G01*
X107675000Y-129750000D01*
G75*
G02*
X107400000Y-129475000I0J275000D01*
G01*
X107400000Y-127925000D01*
G75*
G02*
X107675000Y-127650000I275000J0D01*
G01*
X108725000Y-127650000D01*
G75*
G02*
X109000000Y-127925000I0J-275000D01*
G01*
G37*
G36*
G01*
X122000000Y-117875000D02*
X122000000Y-118925000D01*
G75*
G02*
X121725000Y-119200000I-275000J0D01*
G01*
X120675000Y-119200000D01*
G75*
G02*
X120400000Y-118925000I0J275000D01*
G01*
X120400000Y-117875000D01*
G75*
G02*
X120675000Y-117600000I275000J0D01*
G01*
X121725000Y-117600000D01*
G75*
G02*
X122000000Y-117875000I0J-275000D01*
G01*
G37*
G36*
G01*
X112300000Y-125225000D02*
X112300000Y-126775000D01*
G75*
G02*
X112025000Y-127050000I-275000J0D01*
G01*
X110975000Y-127050000D01*
G75*
G02*
X110700000Y-126775000I0J275000D01*
G01*
X110700000Y-125225000D01*
G75*
G02*
X110975000Y-124950000I275000J0D01*
G01*
X112025000Y-124950000D01*
G75*
G02*
X112300000Y-125225000I0J-275000D01*
G01*
G37*
G36*
G01*
X114600000Y-107225000D02*
X114600000Y-106175000D01*
G75*
G02*
X114875000Y-105900000I275000J0D01*
G01*
X115925000Y-105900000D01*
G75*
G02*
X116200000Y-106175000I0J-275000D01*
G01*
X116200000Y-107225000D01*
G75*
G02*
X115925000Y-107500000I-275000J0D01*
G01*
X114875000Y-107500000D01*
G75*
G02*
X114600000Y-107225000I0J275000D01*
G01*
G37*
G36*
G01*
X101800000Y-116275000D02*
X101800000Y-117325000D01*
G75*
G02*
X101525000Y-117600000I-275000J0D01*
G01*
X100475000Y-117600000D01*
G75*
G02*
X100200000Y-117325000I0J275000D01*
G01*
X100200000Y-116275000D01*
G75*
G02*
X100475000Y-116000000I275000J0D01*
G01*
X101525000Y-116000000D01*
G75*
G02*
X101800000Y-116275000I0J-275000D01*
G01*
G37*
G36*
G01*
X120000000Y-127925000D02*
X120000000Y-129475000D01*
G75*
G02*
X119725000Y-129750000I-275000J0D01*
G01*
X118675000Y-129750000D01*
G75*
G02*
X118400000Y-129475000I0J275000D01*
G01*
X118400000Y-127925000D01*
G75*
G02*
X118675000Y-127650000I275000J0D01*
G01*
X119725000Y-127650000D01*
G75*
G02*
X120000000Y-127925000I0J-275000D01*
G01*
G37*
G36*
G01*
X132475000Y-121900000D02*
X130925000Y-121900000D01*
G75*
G02*
X130650000Y-121625000I0J275000D01*
G01*
X130650000Y-120575000D01*
G75*
G02*
X130925000Y-120300000I275000J0D01*
G01*
X132475000Y-120300000D01*
G75*
G02*
X132750000Y-120575000I0J-275000D01*
G01*
X132750000Y-121625000D01*
G75*
G02*
X132475000Y-121900000I-275000J0D01*
G01*
G37*
G36*
G01*
X112200000Y-115675000D02*
X112200000Y-116725000D01*
G75*
G02*
X111925000Y-117000000I-275000J0D01*
G01*
X110875000Y-117000000D01*
G75*
G02*
X110600000Y-116725000I0J275000D01*
G01*
X110600000Y-115675000D01*
G75*
G02*
X110875000Y-115400000I275000J0D01*
G01*
X111925000Y-115400000D01*
G75*
G02*
X112200000Y-115675000I0J-275000D01*
G01*
G37*
G36*
G01*
X113400000Y-127925000D02*
X113400000Y-129475000D01*
G75*
G02*
X113125000Y-129750000I-275000J0D01*
G01*
X112075000Y-129750000D01*
G75*
G02*
X111800000Y-129475000I0J275000D01*
G01*
X111800000Y-127925000D01*
G75*
G02*
X112075000Y-127650000I275000J0D01*
G01*
X113125000Y-127650000D01*
G75*
G02*
X113400000Y-127925000I0J-275000D01*
G01*
G37*
G36*
G01*
X111900000Y-108375000D02*
X111900000Y-109425000D01*
G75*
G02*
X111625000Y-109700000I-275000J0D01*
G01*
X110575000Y-109700000D01*
G75*
G02*
X110300000Y-109425000I0J275000D01*
G01*
X110300000Y-108375000D01*
G75*
G02*
X110575000Y-108100000I275000J0D01*
G01*
X111625000Y-108100000D01*
G75*
G02*
X111900000Y-108375000I0J-275000D01*
G01*
G37*
G36*
G01*
X114600000Y-109475000D02*
X114600000Y-107925000D01*
G75*
G02*
X114875000Y-107650000I275000J0D01*
G01*
X115925000Y-107650000D01*
G75*
G02*
X116200000Y-107925000I0J-275000D01*
G01*
X116200000Y-109475000D01*
G75*
G02*
X115925000Y-109750000I-275000J0D01*
G01*
X114875000Y-109750000D01*
G75*
G02*
X114600000Y-109475000I0J275000D01*
G01*
G37*
G36*
G01*
X106400000Y-100225000D02*
X106400000Y-101775000D01*
G75*
G02*
X106125000Y-102050000I-275000J0D01*
G01*
X105075000Y-102050000D01*
G75*
G02*
X104800000Y-101775000I0J275000D01*
G01*
X104800000Y-100225000D01*
G75*
G02*
X105075000Y-99950000I275000J0D01*
G01*
X106125000Y-99950000D01*
G75*
G02*
X106400000Y-100225000I0J-275000D01*
G01*
G37*
G36*
G01*
X111900000Y-110125000D02*
X111900000Y-111675000D01*
G75*
G02*
X111625000Y-111950000I-275000J0D01*
G01*
X110575000Y-111950000D01*
G75*
G02*
X110300000Y-111675000I0J275000D01*
G01*
X110300000Y-110125000D01*
G75*
G02*
X110575000Y-109850000I275000J0D01*
G01*
X111625000Y-109850000D01*
G75*
G02*
X111900000Y-110125000I0J-275000D01*
G01*
G37*
G36*
G01*
X104025000Y-122300000D02*
X105575000Y-122300000D01*
G75*
G02*
X105850000Y-122575000I0J-275000D01*
G01*
X105850000Y-123625000D01*
G75*
G02*
X105575000Y-123900000I-275000J0D01*
G01*
X104025000Y-123900000D01*
G75*
G02*
X103750000Y-123625000I0J275000D01*
G01*
X103750000Y-122575000D01*
G75*
G02*
X104025000Y-122300000I275000J0D01*
G01*
G37*
G36*
G01*
X109900000Y-104375000D02*
X109900000Y-105425000D01*
G75*
G02*
X109625000Y-105700000I-275000J0D01*
G01*
X108575000Y-105700000D01*
G75*
G02*
X108300000Y-105425000I0J275000D01*
G01*
X108300000Y-104375000D01*
G75*
G02*
X108575000Y-104100000I275000J0D01*
G01*
X109625000Y-104100000D01*
G75*
G02*
X109900000Y-104375000I0J-275000D01*
G01*
G37*
G36*
G01*
X119800000Y-124475000D02*
X119800000Y-125525000D01*
G75*
G02*
X119525000Y-125800000I-275000J0D01*
G01*
X118475000Y-125800000D01*
G75*
G02*
X118200000Y-125525000I0J275000D01*
G01*
X118200000Y-124475000D01*
G75*
G02*
X118475000Y-124200000I275000J0D01*
G01*
X119525000Y-124200000D01*
G75*
G02*
X119800000Y-124475000I0J-275000D01*
G01*
G37*
G36*
G01*
X103600000Y-122575000D02*
X103600000Y-123625000D01*
G75*
G02*
X103325000Y-123900000I-275000J0D01*
G01*
X102275000Y-123900000D01*
G75*
G02*
X102000000Y-123625000I0J275000D01*
G01*
X102000000Y-122575000D01*
G75*
G02*
X102275000Y-122300000I275000J0D01*
G01*
X103325000Y-122300000D01*
G75*
G02*
X103600000Y-122575000I0J-275000D01*
G01*
G37*
G36*
G01*
X113900000Y-104375000D02*
X113900000Y-105425000D01*
G75*
G02*
X113625000Y-105700000I-275000J0D01*
G01*
X112575000Y-105700000D01*
G75*
G02*
X112300000Y-105425000I0J275000D01*
G01*
X112300000Y-104375000D01*
G75*
G02*
X112575000Y-104100000I275000J0D01*
G01*
X113625000Y-104100000D01*
G75*
G02*
X113900000Y-104375000I0J-275000D01*
G01*
G37*
G36*
G01*
X113000000Y-100225000D02*
X113000000Y-101775000D01*
G75*
G02*
X112725000Y-102050000I-275000J0D01*
G01*
X111675000Y-102050000D01*
G75*
G02*
X111400000Y-101775000I0J275000D01*
G01*
X111400000Y-100225000D01*
G75*
G02*
X111675000Y-99950000I275000J0D01*
G01*
X112725000Y-99950000D01*
G75*
G02*
X113000000Y-100225000I0J-275000D01*
G01*
G37*
G36*
G01*
X105700000Y-106125000D02*
X105700000Y-107675000D01*
G75*
G02*
X105425000Y-107950000I-275000J0D01*
G01*
X104375000Y-107950000D01*
G75*
G02*
X104100000Y-107675000I0J275000D01*
G01*
X104100000Y-106125000D01*
G75*
G02*
X104375000Y-105850000I275000J0D01*
G01*
X105425000Y-105850000D01*
G75*
G02*
X105700000Y-106125000I0J-275000D01*
G01*
G37*
G36*
G01*
X119800000Y-119625000D02*
X119800000Y-121175000D01*
G75*
G02*
X119525000Y-121450000I-275000J0D01*
G01*
X118475000Y-121450000D01*
G75*
G02*
X118200000Y-121175000I0J275000D01*
G01*
X118200000Y-119625000D01*
G75*
G02*
X118475000Y-119350000I275000J0D01*
G01*
X119525000Y-119350000D01*
G75*
G02*
X119800000Y-119625000I0J-275000D01*
G01*
G37*
G36*
G01*
X127425000Y-113800000D02*
X128975000Y-113800000D01*
G75*
G02*
X129250000Y-114075000I0J-275000D01*
G01*
X129250000Y-115125000D01*
G75*
G02*
X128975000Y-115400000I-275000J0D01*
G01*
X127425000Y-115400000D01*
G75*
G02*
X127150000Y-115125000I0J275000D01*
G01*
X127150000Y-114075000D01*
G75*
G02*
X127425000Y-113800000I275000J0D01*
G01*
G37*
G36*
G01*
X113140000Y-116510000D02*
X113140000Y-116170000D01*
G75*
G02*
X113330000Y-115980000I190000J0D01*
G01*
X113610000Y-115980000D01*
G75*
G02*
X113800000Y-116170000I0J-190000D01*
G01*
X113800000Y-116510000D01*
G75*
G02*
X113610000Y-116700000I-190000J0D01*
G01*
X113330000Y-116700000D01*
G75*
G02*
X113140000Y-116510000I0J190000D01*
G01*
G37*
G36*
G01*
X114100000Y-116510000D02*
X114100000Y-116170000D01*
G75*
G02*
X114290000Y-115980000I190000J0D01*
G01*
X114570000Y-115980000D01*
G75*
G02*
X114760000Y-116170000I0J-190000D01*
G01*
X114760000Y-116510000D01*
G75*
G02*
X114570000Y-116700000I-190000J0D01*
G01*
X114290000Y-116700000D01*
G75*
G02*
X114100000Y-116510000I0J190000D01*
G01*
G37*
G36*
G01*
X108600000Y-100225000D02*
X108600000Y-101775000D01*
G75*
G02*
X108325000Y-102050000I-275000J0D01*
G01*
X107275000Y-102050000D01*
G75*
G02*
X107000000Y-101775000I0J275000D01*
G01*
X107000000Y-100225000D01*
G75*
G02*
X107275000Y-99950000I275000J0D01*
G01*
X108325000Y-99950000D01*
G75*
G02*
X108600000Y-100225000I0J-275000D01*
G01*
G37*
G36*
G01*
X116600000Y-109475000D02*
X116600000Y-107925000D01*
G75*
G02*
X116875000Y-107650000I275000J0D01*
G01*
X117925000Y-107650000D01*
G75*
G02*
X118200000Y-107925000I0J-275000D01*
G01*
X118200000Y-109475000D01*
G75*
G02*
X117925000Y-109750000I-275000J0D01*
G01*
X116875000Y-109750000D01*
G75*
G02*
X116600000Y-109475000I0J275000D01*
G01*
G37*
G36*
G01*
X109900000Y-110125000D02*
X109900000Y-111675000D01*
G75*
G02*
X109625000Y-111950000I-275000J0D01*
G01*
X108575000Y-111950000D01*
G75*
G02*
X108300000Y-111675000I0J275000D01*
G01*
X108300000Y-110125000D01*
G75*
G02*
X108575000Y-109850000I275000J0D01*
G01*
X109625000Y-109850000D01*
G75*
G02*
X109900000Y-110125000I0J-275000D01*
G01*
G37*
G36*
G01*
X111200000Y-127925000D02*
X111200000Y-129475000D01*
G75*
G02*
X110925000Y-129750000I-275000J0D01*
G01*
X109875000Y-129750000D01*
G75*
G02*
X109600000Y-129475000I0J275000D01*
G01*
X109600000Y-127925000D01*
G75*
G02*
X109875000Y-127650000I275000J0D01*
G01*
X110925000Y-127650000D01*
G75*
G02*
X111200000Y-127925000I0J-275000D01*
G01*
G37*
G36*
G01*
X108500000Y-126775000D02*
X108500000Y-125225000D01*
G75*
G02*
X108775000Y-124950000I275000J0D01*
G01*
X109825000Y-124950000D01*
G75*
G02*
X110100000Y-125225000I0J-275000D01*
G01*
X110100000Y-126775000D01*
G75*
G02*
X109825000Y-127050000I-275000J0D01*
G01*
X108775000Y-127050000D01*
G75*
G02*
X108500000Y-126775000I0J275000D01*
G01*
G37*
G36*
G01*
X105130000Y-117565000D02*
X105470000Y-117565000D01*
G75*
G02*
X105660000Y-117755000I0J-190000D01*
G01*
X105660000Y-118035000D01*
G75*
G02*
X105470000Y-118225000I-190000J0D01*
G01*
X105130000Y-118225000D01*
G75*
G02*
X104940000Y-118035000I0J190000D01*
G01*
X104940000Y-117755000D01*
G75*
G02*
X105130000Y-117565000I190000J0D01*
G01*
G37*
G36*
G01*
X105130000Y-118525000D02*
X105470000Y-118525000D01*
G75*
G02*
X105660000Y-118715000I0J-190000D01*
G01*
X105660000Y-118995000D01*
G75*
G02*
X105470000Y-119185000I-190000J0D01*
G01*
X105130000Y-119185000D01*
G75*
G02*
X104940000Y-118995000I0J190000D01*
G01*
X104940000Y-118715000D01*
G75*
G02*
X105130000Y-118525000I190000J0D01*
G01*
G37*
G36*
G01*
X105700000Y-108375000D02*
X105700000Y-109425000D01*
G75*
G02*
X105425000Y-109700000I-275000J0D01*
G01*
X104375000Y-109700000D01*
G75*
G02*
X104100000Y-109425000I0J275000D01*
G01*
X104100000Y-108375000D01*
G75*
G02*
X104375000Y-108100000I275000J0D01*
G01*
X105425000Y-108100000D01*
G75*
G02*
X105700000Y-108375000I0J-275000D01*
G01*
G37*
G36*
G01*
X107900000Y-125225000D02*
X107900000Y-126775000D01*
G75*
G02*
X107625000Y-127050000I-275000J0D01*
G01*
X106575000Y-127050000D01*
G75*
G02*
X106300000Y-126775000I0J275000D01*
G01*
X106300000Y-125225000D01*
G75*
G02*
X106575000Y-124950000I275000J0D01*
G01*
X107625000Y-124950000D01*
G75*
G02*
X107900000Y-125225000I0J-275000D01*
G01*
G37*
G36*
G01*
X109900000Y-108375000D02*
X109900000Y-109425000D01*
G75*
G02*
X109625000Y-109700000I-275000J0D01*
G01*
X108575000Y-109700000D01*
G75*
G02*
X108300000Y-109425000I0J275000D01*
G01*
X108300000Y-108375000D01*
G75*
G02*
X108575000Y-108100000I275000J0D01*
G01*
X109625000Y-108100000D01*
G75*
G02*
X109900000Y-108375000I0J-275000D01*
G01*
G37*
G36*
G01*
X117400000Y-100225000D02*
X117400000Y-101775000D01*
G75*
G02*
X117125000Y-102050000I-275000J0D01*
G01*
X116075000Y-102050000D01*
G75*
G02*
X115800000Y-101775000I0J275000D01*
G01*
X115800000Y-100225000D01*
G75*
G02*
X116075000Y-99950000I275000J0D01*
G01*
X117125000Y-99950000D01*
G75*
G02*
X117400000Y-100225000I0J-275000D01*
G01*
G37*
G36*
G01*
X122000000Y-119625000D02*
X122000000Y-121175000D01*
G75*
G02*
X121725000Y-121450000I-275000J0D01*
G01*
X120675000Y-121450000D01*
G75*
G02*
X120400000Y-121175000I0J275000D01*
G01*
X120400000Y-119625000D01*
G75*
G02*
X120675000Y-119350000I275000J0D01*
G01*
X121725000Y-119350000D01*
G75*
G02*
X122000000Y-119625000I0J-275000D01*
G01*
G37*
G36*
G01*
X99075000Y-123900000D02*
X97525000Y-123900000D01*
G75*
G02*
X97250000Y-123625000I0J275000D01*
G01*
X97250000Y-122575000D01*
G75*
G02*
X97525000Y-122300000I275000J0D01*
G01*
X99075000Y-122300000D01*
G75*
G02*
X99350000Y-122575000I0J-275000D01*
G01*
X99350000Y-123625000D01*
G75*
G02*
X99075000Y-123900000I-275000J0D01*
G01*
G37*
G36*
G01*
X128175000Y-117750000D02*
X128175000Y-118250000D01*
G75*
G02*
X127900000Y-118525000I-275000J0D01*
G01*
X127450000Y-118525000D01*
G75*
G02*
X127175000Y-118250000I0J275000D01*
G01*
X127175000Y-117750000D01*
G75*
G02*
X127450000Y-117475000I275000J0D01*
G01*
X127900000Y-117475000D01*
G75*
G02*
X128175000Y-117750000I0J-275000D01*
G01*
G37*
G36*
G01*
X126625000Y-117750000D02*
X126625000Y-118250000D01*
G75*
G02*
X126350000Y-118525000I-275000J0D01*
G01*
X125900000Y-118525000D01*
G75*
G02*
X125625000Y-118250000I0J275000D01*
G01*
X125625000Y-117750000D01*
G75*
G02*
X125900000Y-117475000I275000J0D01*
G01*
X126350000Y-117475000D01*
G75*
G02*
X126625000Y-117750000I0J-275000D01*
G01*
G37*
G36*
G01*
X103700000Y-106125000D02*
X103700000Y-107675000D01*
G75*
G02*
X103425000Y-107950000I-275000J0D01*
G01*
X102375000Y-107950000D01*
G75*
G02*
X102100000Y-107675000I0J275000D01*
G01*
X102100000Y-106125000D01*
G75*
G02*
X102375000Y-105850000I275000J0D01*
G01*
X103425000Y-105850000D01*
G75*
G02*
X103700000Y-106125000I0J-275000D01*
G01*
G37*
G36*
G01*
X112685000Y-123755000D02*
X112685000Y-124095000D01*
G75*
G02*
X112495000Y-124285000I-190000J0D01*
G01*
X112215000Y-124285000D01*
G75*
G02*
X112025000Y-124095000I0J190000D01*
G01*
X112025000Y-123755000D01*
G75*
G02*
X112215000Y-123565000I190000J0D01*
G01*
X112495000Y-123565000D01*
G75*
G02*
X112685000Y-123755000I0J-190000D01*
G01*
G37*
G36*
G01*
X111725000Y-123755000D02*
X111725000Y-124095000D01*
G75*
G02*
X111535000Y-124285000I-190000J0D01*
G01*
X111255000Y-124285000D01*
G75*
G02*
X111065000Y-124095000I0J190000D01*
G01*
X111065000Y-123755000D01*
G75*
G02*
X111255000Y-123565000I190000J0D01*
G01*
X111535000Y-123565000D01*
G75*
G02*
X111725000Y-123755000I0J-190000D01*
G01*
G37*
G36*
G01*
X114650000Y-113880000D02*
X114650000Y-114220000D01*
G75*
G02*
X114460000Y-114410000I-190000J0D01*
G01*
X114180000Y-114410000D01*
G75*
G02*
X113990000Y-114220000I0J190000D01*
G01*
X113990000Y-113880000D01*
G75*
G02*
X114180000Y-113690000I190000J0D01*
G01*
X114460000Y-113690000D01*
G75*
G02*
X114650000Y-113880000I0J-190000D01*
G01*
G37*
G36*
G01*
X113690000Y-113880000D02*
X113690000Y-114220000D01*
G75*
G02*
X113500000Y-114410000I-190000J0D01*
G01*
X113220000Y-114410000D01*
G75*
G02*
X113030000Y-114220000I0J190000D01*
G01*
X113030000Y-113880000D01*
G75*
G02*
X113220000Y-113690000I190000J0D01*
G01*
X113500000Y-113690000D01*
G75*
G02*
X113690000Y-113880000I0J-190000D01*
G01*
G37*
G36*
G01*
X125100000Y-102925000D02*
X125100000Y-104475000D01*
G75*
G02*
X124825000Y-104750000I-275000J0D01*
G01*
X123775000Y-104750000D01*
G75*
G02*
X123500000Y-104475000I0J275000D01*
G01*
X123500000Y-102925000D01*
G75*
G02*
X123775000Y-102650000I275000J0D01*
G01*
X124825000Y-102650000D01*
G75*
G02*
X125100000Y-102925000I0J-275000D01*
G01*
G37*
G36*
G01*
X119800000Y-117875000D02*
X119800000Y-118925000D01*
G75*
G02*
X119525000Y-119200000I-275000J0D01*
G01*
X118475000Y-119200000D01*
G75*
G02*
X118200000Y-118925000I0J275000D01*
G01*
X118200000Y-117875000D01*
G75*
G02*
X118475000Y-117600000I275000J0D01*
G01*
X119525000Y-117600000D01*
G75*
G02*
X119800000Y-117875000I0J-275000D01*
G01*
G37*
G36*
G01*
X122000000Y-124475000D02*
X122000000Y-125525000D01*
G75*
G02*
X121725000Y-125800000I-275000J0D01*
G01*
X120675000Y-125800000D01*
G75*
G02*
X120400000Y-125525000I0J275000D01*
G01*
X120400000Y-124475000D01*
G75*
G02*
X120675000Y-124200000I275000J0D01*
G01*
X121725000Y-124200000D01*
G75*
G02*
X122000000Y-124475000I0J-275000D01*
G01*
G37*
G36*
G01*
X123840000Y-115537500D02*
X123840000Y-115812500D01*
G75*
G02*
X123652500Y-116000000I-187500J0D01*
G01*
X123327500Y-116000000D01*
G75*
G02*
X123140000Y-115812500I0J187500D01*
G01*
X123140000Y-115537500D01*
G75*
G02*
X123327500Y-115350000I187500J0D01*
G01*
X123652500Y-115350000D01*
G75*
G02*
X123840000Y-115537500I0J-187500D01*
G01*
G37*
G36*
G01*
X123840000Y-113562500D02*
X123840000Y-113837500D01*
G75*
G02*
X123652500Y-114025000I-187500J0D01*
G01*
X123327500Y-114025000D01*
G75*
G02*
X123140000Y-113837500I0J187500D01*
G01*
X123140000Y-113562500D01*
G75*
G02*
X123327500Y-113375000I187500J0D01*
G01*
X123652500Y-113375000D01*
G75*
G02*
X123840000Y-113562500I0J-187500D01*
G01*
G37*
G36*
X124145866Y-115546194D02*
G01*
X124129645Y-115535355D01*
X124118806Y-115519134D01*
X124115000Y-115500000D01*
X124115000Y-114975000D01*
X124118806Y-114955866D01*
X124129645Y-114939645D01*
X124190000Y-114879290D01*
X124190000Y-114520710D01*
X124129645Y-114460355D01*
X124118806Y-114444134D01*
X124115000Y-114425000D01*
X124115000Y-113900000D01*
X124118806Y-113880866D01*
X124129645Y-113864645D01*
X124145866Y-113853806D01*
X124165000Y-113850000D01*
X124740000Y-113850000D01*
X124759134Y-113853806D01*
X124775355Y-113864645D01*
X124786194Y-113880866D01*
X124790000Y-113900000D01*
X124790000Y-115500000D01*
X124786194Y-115519134D01*
X124775355Y-115535355D01*
X124759134Y-115546194D01*
X124740000Y-115550000D01*
X124165000Y-115550000D01*
X124145866Y-115546194D01*
G37*
G36*
X122220866Y-115546194D02*
G01*
X122204645Y-115535355D01*
X122193806Y-115519134D01*
X122190000Y-115500000D01*
X122190000Y-113900000D01*
X122193806Y-113880866D01*
X122204645Y-113864645D01*
X122220866Y-113853806D01*
X122240000Y-113850000D01*
X122815000Y-113850000D01*
X122834134Y-113853806D01*
X122850355Y-113864645D01*
X122861194Y-113880866D01*
X122865000Y-113900000D01*
X122865000Y-114425000D01*
X122861194Y-114444134D01*
X122850355Y-114460355D01*
X122790000Y-114520710D01*
X122790000Y-114879290D01*
X122850355Y-114939645D01*
X122861194Y-114955866D01*
X122865000Y-114975000D01*
X122865000Y-115500000D01*
X122861194Y-115519134D01*
X122850355Y-115535355D01*
X122834134Y-115546194D01*
X122815000Y-115550000D01*
X122240000Y-115550000D01*
X122220866Y-115546194D01*
G37*
G36*
G01*
X110800000Y-100225000D02*
X110800000Y-101775000D01*
G75*
G02*
X110525000Y-102050000I-275000J0D01*
G01*
X109475000Y-102050000D01*
G75*
G02*
X109200000Y-101775000I0J275000D01*
G01*
X109200000Y-100225000D01*
G75*
G02*
X109475000Y-99950000I275000J0D01*
G01*
X110525000Y-99950000D01*
G75*
G02*
X110800000Y-100225000I0J-275000D01*
G01*
G37*
G36*
G01*
X128325000Y-122700000D02*
X129875000Y-122700000D01*
G75*
G02*
X130150000Y-122975000I0J-275000D01*
G01*
X130150000Y-124025000D01*
G75*
G02*
X129875000Y-124300000I-275000J0D01*
G01*
X128325000Y-124300000D01*
G75*
G02*
X128050000Y-124025000I0J275000D01*
G01*
X128050000Y-122975000D01*
G75*
G02*
X128325000Y-122700000I275000J0D01*
G01*
G37*
G36*
G01*
X125500000Y-125225000D02*
X125500000Y-126775000D01*
G75*
G02*
X125225000Y-127050000I-275000J0D01*
G01*
X124175000Y-127050000D01*
G75*
G02*
X123900000Y-126775000I0J275000D01*
G01*
X123900000Y-125225000D01*
G75*
G02*
X124175000Y-124950000I275000J0D01*
G01*
X125225000Y-124950000D01*
G75*
G02*
X125500000Y-125225000I0J-275000D01*
G01*
G37*
G36*
G01*
X125500000Y-125225000D02*
X125500000Y-126775000D01*
G75*
G02*
X125225000Y-127050000I-275000J0D01*
G01*
X124175000Y-127050000D01*
G75*
G02*
X123900000Y-126775000I0J275000D01*
G01*
X123900000Y-125225000D01*
G75*
G02*
X124175000Y-124950000I275000J0D01*
G01*
X125225000Y-124950000D01*
G75*
G02*
X125500000Y-125225000I0J-275000D01*
G01*
G37*
G36*
G01*
X104620000Y-119185000D02*
X104280000Y-119185000D01*
G75*
G02*
X104090000Y-118995000I0J190000D01*
G01*
X104090000Y-118715000D01*
G75*
G02*
X104280000Y-118525000I190000J0D01*
G01*
X104620000Y-118525000D01*
G75*
G02*
X104810000Y-118715000I0J-190000D01*
G01*
X104810000Y-118995000D01*
G75*
G02*
X104620000Y-119185000I-190000J0D01*
G01*
G37*
G36*
G01*
X104620000Y-118225000D02*
X104280000Y-118225000D01*
G75*
G02*
X104090000Y-118035000I0J190000D01*
G01*
X104090000Y-117755000D01*
G75*
G02*
X104280000Y-117565000I190000J0D01*
G01*
X104620000Y-117565000D01*
G75*
G02*
X104810000Y-117755000I0J-190000D01*
G01*
X104810000Y-118035000D01*
G75*
G02*
X104620000Y-118225000I-190000J0D01*
G01*
G37*
G36*
G01*
X99075000Y-126100000D02*
X97525000Y-126100000D01*
G75*
G02*
X97250000Y-125825000I0J275000D01*
G01*
X97250000Y-124775000D01*
G75*
G02*
X97525000Y-124500000I275000J0D01*
G01*
X99075000Y-124500000D01*
G75*
G02*
X99350000Y-124775000I0J-275000D01*
G01*
X99350000Y-125825000D01*
G75*
G02*
X99075000Y-126100000I-275000J0D01*
G01*
G37*
G36*
G01*
X129000000Y-116075000D02*
X129000000Y-116925000D01*
G75*
G02*
X128700000Y-117225000I-300000J0D01*
G01*
X127800000Y-117225000D01*
G75*
G02*
X127500000Y-116925000I0J300000D01*
G01*
X127500000Y-116075000D01*
G75*
G02*
X127800000Y-115775000I300000J0D01*
G01*
X128700000Y-115775000D01*
G75*
G02*
X129000000Y-116075000I0J-300000D01*
G01*
G37*
G36*
G01*
X126300000Y-116075000D02*
X126300000Y-116925000D01*
G75*
G02*
X126000000Y-117225000I-300000J0D01*
G01*
X125100000Y-117225000D01*
G75*
G02*
X124800000Y-116925000I0J300000D01*
G01*
X124800000Y-116075000D01*
G75*
G02*
X125100000Y-115775000I300000J0D01*
G01*
X126000000Y-115775000D01*
G75*
G02*
X126300000Y-116075000I0J-300000D01*
G01*
G37*
G36*
G01*
X108850000Y-123237500D02*
X108850000Y-123512500D01*
G75*
G02*
X108662500Y-123700000I-187500J0D01*
G01*
X108337500Y-123700000D01*
G75*
G02*
X108150000Y-123512500I0J187500D01*
G01*
X108150000Y-123237500D01*
G75*
G02*
X108337500Y-123050000I187500J0D01*
G01*
X108662500Y-123050000D01*
G75*
G02*
X108850000Y-123237500I0J-187500D01*
G01*
G37*
G36*
X107230866Y-123246194D02*
G01*
X107214645Y-123235355D01*
X107203806Y-123219134D01*
X107200000Y-123200000D01*
X107200000Y-121600000D01*
X107203806Y-121580866D01*
X107214645Y-121564645D01*
X107230866Y-121553806D01*
X107250000Y-121550000D01*
X107825000Y-121550000D01*
X107844134Y-121553806D01*
X107860355Y-121564645D01*
X107871194Y-121580866D01*
X107875000Y-121600000D01*
X107875000Y-122125000D01*
X107871194Y-122144134D01*
X107860355Y-122160355D01*
X107800000Y-122220710D01*
X107800000Y-122579290D01*
X107860355Y-122639645D01*
X107871194Y-122655866D01*
X107875000Y-122675000D01*
X107875000Y-123200000D01*
X107871194Y-123219134D01*
X107860355Y-123235355D01*
X107844134Y-123246194D01*
X107825000Y-123250000D01*
X107250000Y-123250000D01*
X107230866Y-123246194D01*
G37*
G36*
X109155866Y-123246194D02*
G01*
X109139645Y-123235355D01*
X109128806Y-123219134D01*
X109125000Y-123200000D01*
X109125000Y-122675000D01*
X109128806Y-122655866D01*
X109139645Y-122639645D01*
X109200000Y-122579290D01*
X109200000Y-122220710D01*
X109139645Y-122160355D01*
X109128806Y-122144134D01*
X109125000Y-122125000D01*
X109125000Y-121600000D01*
X109128806Y-121580866D01*
X109139645Y-121564645D01*
X109155866Y-121553806D01*
X109175000Y-121550000D01*
X109750000Y-121550000D01*
X109769134Y-121553806D01*
X109785355Y-121564645D01*
X109796194Y-121580866D01*
X109800000Y-121600000D01*
X109800000Y-123200000D01*
X109796194Y-123219134D01*
X109785355Y-123235355D01*
X109769134Y-123246194D01*
X109750000Y-123250000D01*
X109175000Y-123250000D01*
X109155866Y-123246194D01*
G37*
G36*
G01*
X108850000Y-121262500D02*
X108850000Y-121537500D01*
G75*
G02*
X108662500Y-121725000I-187500J0D01*
G01*
X108337500Y-121725000D01*
G75*
G02*
X108150000Y-121537500I0J187500D01*
G01*
X108150000Y-121262500D01*
G75*
G02*
X108337500Y-121075000I187500J0D01*
G01*
X108662500Y-121075000D01*
G75*
G02*
X108850000Y-121262500I0J-187500D01*
G01*
G37*
G36*
G01*
X115600000Y-127925000D02*
X115600000Y-129475000D01*
G75*
G02*
X115325000Y-129750000I-275000J0D01*
G01*
X114275000Y-129750000D01*
G75*
G02*
X114000000Y-129475000I0J275000D01*
G01*
X114000000Y-127925000D01*
G75*
G02*
X114275000Y-127650000I275000J0D01*
G01*
X115325000Y-127650000D01*
G75*
G02*
X115600000Y-127925000I0J-275000D01*
G01*
G37*
G36*
G01*
X121800000Y-100225000D02*
X121800000Y-101775000D01*
G75*
G02*
X121525000Y-102050000I-275000J0D01*
G01*
X120475000Y-102050000D01*
G75*
G02*
X120200000Y-101775000I0J275000D01*
G01*
X120200000Y-100225000D01*
G75*
G02*
X120475000Y-99950000I275000J0D01*
G01*
X121525000Y-99950000D01*
G75*
G02*
X121800000Y-100225000I0J-275000D01*
G01*
G37*
G36*
G01*
X107700000Y-104375000D02*
X107700000Y-105425000D01*
G75*
G02*
X107425000Y-105700000I-275000J0D01*
G01*
X106375000Y-105700000D01*
G75*
G02*
X106100000Y-105425000I0J275000D01*
G01*
X106100000Y-104375000D01*
G75*
G02*
X106375000Y-104100000I275000J0D01*
G01*
X107425000Y-104100000D01*
G75*
G02*
X107700000Y-104375000I0J-275000D01*
G01*
G37*
G36*
G01*
X103700000Y-104375000D02*
X103700000Y-105425000D01*
G75*
G02*
X103425000Y-105700000I-275000J0D01*
G01*
X102375000Y-105700000D01*
G75*
G02*
X102100000Y-105425000I0J275000D01*
G01*
X102100000Y-104375000D01*
G75*
G02*
X102375000Y-104100000I275000J0D01*
G01*
X103425000Y-104100000D01*
G75*
G02*
X103700000Y-104375000I0J-275000D01*
G01*
G37*
G36*
G01*
X115200000Y-100225000D02*
X115200000Y-101775000D01*
G75*
G02*
X114925000Y-102050000I-275000J0D01*
G01*
X113875000Y-102050000D01*
G75*
G02*
X113600000Y-101775000I0J275000D01*
G01*
X113600000Y-100225000D01*
G75*
G02*
X113875000Y-99950000I275000J0D01*
G01*
X114925000Y-99950000D01*
G75*
G02*
X115200000Y-100225000I0J-275000D01*
G01*
G37*
G36*
G01*
X101100000Y-124775000D02*
X101100000Y-125825000D01*
G75*
G02*
X100825000Y-126100000I-275000J0D01*
G01*
X99775000Y-126100000D01*
G75*
G02*
X99500000Y-125825000I0J275000D01*
G01*
X99500000Y-124775000D01*
G75*
G02*
X99775000Y-124500000I275000J0D01*
G01*
X100825000Y-124500000D01*
G75*
G02*
X101100000Y-124775000I0J-275000D01*
G01*
G37*
G36*
G01*
X126200000Y-100225000D02*
X126200000Y-101775000D01*
G75*
G02*
X125925000Y-102050000I-275000J0D01*
G01*
X124875000Y-102050000D01*
G75*
G02*
X124600000Y-101775000I0J275000D01*
G01*
X124600000Y-100225000D01*
G75*
G02*
X124875000Y-99950000I275000J0D01*
G01*
X125925000Y-99950000D01*
G75*
G02*
X126200000Y-100225000I0J-275000D01*
G01*
G37*
G36*
G01*
X124400000Y-127925000D02*
X124400000Y-129475000D01*
G75*
G02*
X124125000Y-129750000I-275000J0D01*
G01*
X123075000Y-129750000D01*
G75*
G02*
X122800000Y-129475000I0J275000D01*
G01*
X122800000Y-127925000D01*
G75*
G02*
X123075000Y-127650000I275000J0D01*
G01*
X124125000Y-127650000D01*
G75*
G02*
X124400000Y-127925000I0J-275000D01*
G01*
G37*
G36*
G01*
X107700000Y-108375000D02*
X107700000Y-109425000D01*
G75*
G02*
X107425000Y-109700000I-275000J0D01*
G01*
X106375000Y-109700000D01*
G75*
G02*
X106100000Y-109425000I0J275000D01*
G01*
X106100000Y-108375000D01*
G75*
G02*
X106375000Y-108100000I275000J0D01*
G01*
X107425000Y-108100000D01*
G75*
G02*
X107700000Y-108375000I0J-275000D01*
G01*
G37*
G36*
G01*
X111900000Y-106125000D02*
X111900000Y-107675000D01*
G75*
G02*
X111625000Y-107950000I-275000J0D01*
G01*
X110575000Y-107950000D01*
G75*
G02*
X110300000Y-107675000I0J275000D01*
G01*
X110300000Y-106125000D01*
G75*
G02*
X110575000Y-105850000I275000J0D01*
G01*
X111625000Y-105850000D01*
G75*
G02*
X111900000Y-106125000I0J-275000D01*
G01*
G37*
G36*
G01*
X103700000Y-110125000D02*
X103700000Y-111675000D01*
G75*
G02*
X103425000Y-111950000I-275000J0D01*
G01*
X102375000Y-111950000D01*
G75*
G02*
X102100000Y-111675000I0J275000D01*
G01*
X102100000Y-110125000D01*
G75*
G02*
X102375000Y-109850000I275000J0D01*
G01*
X103425000Y-109850000D01*
G75*
G02*
X103700000Y-110125000I0J-275000D01*
G01*
G37*
G36*
G01*
X118227500Y-115493750D02*
X118227500Y-116006250D01*
G75*
G02*
X117958750Y-116275000I-268750J0D01*
G01*
X117521250Y-116275000D01*
G75*
G02*
X117252500Y-116006250I0J268750D01*
G01*
X117252500Y-115493750D01*
G75*
G02*
X117521250Y-115225000I268750J0D01*
G01*
X117958750Y-115225000D01*
G75*
G02*
X118227500Y-115493750I0J-268750D01*
G01*
G37*
G36*
G01*
X116652500Y-115493750D02*
X116652500Y-116006250D01*
G75*
G02*
X116383750Y-116275000I-268750J0D01*
G01*
X115946250Y-116275000D01*
G75*
G02*
X115677500Y-116006250I0J268750D01*
G01*
X115677500Y-115493750D01*
G75*
G02*
X115946250Y-115225000I268750J0D01*
G01*
X116383750Y-115225000D01*
G75*
G02*
X116652500Y-115493750I0J-268750D01*
G01*
G37*
M02*
