M48
; DRILL file {KiCad (6.0.8)} date Sun Jan 15 21:31:09 2023
; FORMAT={2:4/ absolute / inch / suppress trailing zeros}
; #@! TF.CreationDate,2023-01-15T21:31:09+01:00
; #@! TF.GenerationSoftware,Kicad,Pcbnew,(6.0.8)
; #@! TF.FileFunction,Plated,1,6,PTH
FMAT,2
INCH,LZ
; #@! TA.AperFunction,Plated,PTH,ViaDrill
T1C0.0079
; #@! TA.AperFunction,Plated,PTH,ComponentDrill
T2C0.0197
; #@! TA.AperFunction,Plated,PTH,ComponentDrill
T3C0.0217
; #@! TA.AperFunction,Plated,PTH,ComponentDrill
T4C0.0315
; #@! TA.AperFunction,Plated,PTH,ComponentDrill
T5C0.0394
; #@! TA.AperFunction,Plated,PTH,ComponentDrill
T6C0.1575
%
G90
G05
T1
X038455Y-040569
X038465Y-044409
X038516Y-050057
X038529Y-042004
X038543Y-045709
X038543Y-046102
X038543Y-047323
X038568Y-041728
X038583Y-045276
X038593Y-046693
X038622Y-048421
X038661Y-04937
X038758Y-04236
X03878Y-04361
X038819Y-040906
X038819Y-041142
X038858Y-049764
X038944Y-042659
X038952Y-043205
X038957Y-04289
X039016Y-048425
X039016Y-04937
X039213Y-045709
X039213Y-046063
X039213Y-046535
X039213Y-046929
X039291Y-048622
X039291Y-049173
X039344Y-047474
X039348Y-044559
X039528Y-047992
X039606Y-045787
X039685Y-048622
X039685Y-049173
X039724Y-040689
X039764Y-044764
X039778Y-044197
X039803Y-043701
X039803Y-043898
X039961Y-045787
X040118Y-044724
X040157Y-047323
X040157Y-049921
X040197Y-044213
X040222Y-047636
X040276Y-048661
X040293Y-0439
X040315Y-041102
X040315Y-042362
X040354Y-047047
X04038Y-049187
X0404Y-052087
X040433Y-046732
X040472Y-040236
X040472Y-043071
X040512Y-044449
X040512Y-046417
X040551Y-047717
X040553Y-040813
X040591Y-048268
X040591Y-048937
X040626Y-038433
X040669Y-042677
X040669Y-049843
X040673Y-040047
X040709Y-043386
X040712Y-041493
X040724Y-041961
X040748Y-045472
X040827Y-040394
X040886Y-050827
X040906Y-044528
X041008Y-048315
X041024Y-048937
X041079Y-044272
X041102Y-040591
X041102Y-043386
X041106Y-043079
X041128Y-04578
X041142Y-039488
X041142Y-039764
X041142Y-040039
X041142Y-041457
X041191Y-046496
X041191Y-046709
X041307Y-047565
X041313Y-045687
X041398Y-048638
X041399Y-04671
X0414Y-046504
X041457Y-040669
X041496Y-041457
X041496Y-043071
X041512Y-043862
X041551Y-045665
X041555Y-050472
X041575Y-047677
X041732Y-044646
X041772Y-039409
X041772Y-040118
X041833Y-040669
X04186Y-046496
X04186Y-046709
X04189Y-041102
X04189Y-042795
X041928Y-043958
X041929Y-050965
X041969Y-044213
X041969Y-045591
X042008Y-039606
X042008Y-039921
X042069Y-04671
X042069Y-046504
X042079Y-0445
X042106Y-044783
X042165Y-048976
X042178Y-041075
X042181Y-049976
X042185Y-04224
X042205Y-042953
X042283Y-041811
X042283Y-043346
X042323Y-048199
X042362Y-045315
X042383Y-049319
X042384Y-046402
X042512Y-046642
X042516Y-041307
X04252Y-042795
X042524Y-041906
X042524Y-042244
X042598Y-045079
X042638Y-039409
X042638Y-040118
X042694Y-046545
X042717Y-047805
X042717Y-048583
X042717Y-049055
X042756Y-041102
X042795Y-050512
X042795Y-050827
X042866Y-045441
X042874Y-039606
X042874Y-039921
X042913Y-043031
X042913Y-044961
X042976Y-040673
X042992Y-042677
X042992Y-049882
X043031Y-04874
X043031Y-050315
X043031Y-051024
X043067Y-043389
X04311Y-04189
X04311Y-048199
X043112Y-046653
X04315Y-042362
X043189Y-04937
X043238Y-044415
X043346Y-04874
X043425Y-040669
X043476Y-043069
X043504Y-039409
X043504Y-040118
X043516Y-042394
X043543Y-041496
X043543Y-043465
X043543Y-044213
X043585Y-046717
X043632Y-043848
X043661Y-050315
X043661Y-051024
X043665Y-041083
X04374Y-039606
X04374Y-039921
X04389Y-040745
X043898Y-050512
X043898Y-050827
X043937Y-041783
X043937Y-042677
X043939Y-048063
X043939Y-048732
X043941Y-047854
X043941Y-048524
X044016Y-045591
X044094Y-049449
X044094Y-049764
X044146Y-048063
X044146Y-048732
X044154Y-047854
X044154Y-048524
X044164Y-043034
X044228Y-047297
X044234Y-043659
X044252Y-040664
X04427Y-039183
X044287Y-042071
X044327Y-044945
X044331Y-045906
X044335Y-045276
X044338Y-044614
X044358Y-045587
X04437Y-039409
X04437Y-040118
X044453Y-050126
X044488Y-041496
X044528Y-050512
X044528Y-050827
X044535Y-040829
X044567Y-049882
X044592Y-047087
X0446Y-045636
X044606Y-039606
X044606Y-039921
X044638Y-043035
X044673Y-046173
X044689Y-045311
X044699Y-04748
X044699Y-048583
X044699Y-04815
X044705Y-049012
X044724Y-041102
X044724Y-041811
X044764Y-050315
X044764Y-051024
X044863Y-043502
X044933Y-04465
X044961Y-049331
X044988Y-046169
X045004Y-044898
X045039Y-04878
X045047Y-050142
X045193Y-041291
X045197Y-040827
X045211Y-047071
X045236Y-039409
X045236Y-040118
X045236Y-042185
X045236Y-043071
X045256Y-045276
X045256Y-045632
X045272Y-044654
X045276Y-044307
X045311Y-046177
X045315Y-045862
X045323Y-045004
X045354Y-04815
X045354Y-048976
X045388Y-048518
X045394Y-050512
X045394Y-050827
X045433Y-049882
X045439Y-04872
X045472Y-039606
X045472Y-039921
X045472Y-040315
X045587Y-044976
X045587Y-045291
X045594Y-044634
X04561Y-044331
X045624Y-052126
X04563Y-042559
X04563Y-050315
X04563Y-051024
X045665Y-051461
X045669Y-041142
X045813Y-050132
X045827Y-047559
X045827Y-049331
X04585Y-046472
X045894Y-046228
X045909Y-044969
X045929Y-045906
X045945Y-041102
X045945Y-05122
X045953Y-044664
X046022Y-039217
X046022Y-048532
X046024Y-041969
X046024Y-042559
X046049Y-048736
X046102Y-039409
X046102Y-040118
X046181Y-041398
X046219Y-045254
X046222Y-049638
X04624Y-044618
X04626Y-046142
X04626Y-050512
X04626Y-050827
X04628Y-040669
X046303Y-047476
X046339Y-039606
X046339Y-039921
X046358Y-041969
X046398Y-041398
X046417Y-04248
X046425Y-04701
X04647Y-045626
X046511Y-047502
X046535Y-040906
X046614Y-049921
X046626Y-045902
X046644Y-044339
X046644Y-049064
X046654Y-041752
X046673Y-042028
X046791Y-041083
X046795Y-045559
X046819Y-048555
X046872Y-044962
X046929Y-044291
X046969Y-039409
X046969Y-040118
X046969Y-046811
X047005Y-042145
X047008Y-04937
X047031Y-042697
X047047Y-046457
X047121Y-049887
X047126Y-050315
X047126Y-051024
X047128Y-043874
X047165Y-040512
X047165Y-041476
X047205Y-039606
X047205Y-039921
X047283Y-048583
X047289Y-049624
X047316Y-043753
X047362Y-050512
X047362Y-050827
X0475Y-049016
X04752Y-046811
X04752Y-047559
X04752Y-048642
X047559Y-043593
X047559Y-044803
X047614Y-043047
X04763Y-042736
X047638Y-04063
X047638Y-041024
X047638Y-049724
X047656Y-041819
X047677Y-050039
X04772Y-045866
X047766Y-039209
X047835Y-039409
X047835Y-040118
X047913Y-046417
X047913Y-048228
X047913Y-049016
X047933Y-047126
X047948Y-043922
X047978Y-046108
X047992Y-043583
X047992Y-050315
X047992Y-051024
X048009Y-044616
X048071Y-039606
X048071Y-039921
X048083Y-044213
X048165Y-041525
X048228Y-045157
X048228Y-047559
X048228Y-047992
X048228Y-04937
X048228Y-049685
X048228Y-05
X048228Y-050551
X048264Y-043839
X048264Y-046451
X048268Y-040472
X048268Y-041181
X048307Y-048504
X048307Y-048898
X048331Y-042953
X04839Y-04735
X048397Y-043616
X048441Y-043311
X048467Y-042376
X048492Y-045858
X048504Y-040669
X048504Y-040984
X048504Y-044055
X048504Y-050394
X048612Y-039201
X048622Y-044764
X048622Y-045551
X048622Y-047992
X048701Y-039409
X048701Y-040118
X048701Y-044504
X04878Y-041378
X04878Y-042283
X048858Y-050394
X048898Y-049331
X048898Y-049882
X048931Y-046333
X048933Y-04187
X048937Y-039606
X048937Y-039921
X048937Y-042441
X049016Y-045157
X049016Y-051969
X049055Y-047992
X049094Y-044685
X049134Y-040669
X049134Y-040984
X049134Y-043071
X049213Y-045748
X049295Y-046396
X049301Y-047299
X049331Y-048465
X04937Y-051969
X04944Y-040288
X049449Y-047992
X049488Y-044921
X049488Y-045315
X049567Y-039449
X049567Y-039764
X049567Y-040079
X049593Y-051203
X049606Y-045709
X049618Y-040654
X049646Y-048465
X049681Y-042957
X049701Y-038583
X049724Y-051969
X049803Y-044528
X049803Y-046142
X049823Y-040417
X049862Y-044173
X049866Y-043764
X049882Y-04689
X049894Y-042071
X049929Y-040118
X05Y-048504
X050043Y-042961
X050079Y-04626
X050177Y-048201
X050217Y-045154
X050244Y-047425
X050264Y-044039
X050315Y-046024
X050354Y-04689
X050356Y-04998
X050433Y-044449
X050472Y-041693
X050535Y-048197
X05063Y-046024
X05063Y-046457
X050669Y-042402
X050709Y-045118
X050748Y-047311
X050756Y-043815
X050787Y-040984
X050787Y-04122
X050866Y-042402
X050984Y-041575
X050984Y-041772
X051102Y-047323
X051333Y-048173
X051339Y-041181
X051457Y-042402
X051654Y-042402
X051654Y-047244
X051654Y-047874
X051732Y-040787
X051732Y-041575
X052047Y-047244
X052047Y-047874
X052106Y-04998
X052126Y-041181
T2
X041091Y-038551
X041091Y-038906
X041957Y-038551
X041957Y-038906
X042823Y-038551
X042823Y-038906
X043689Y-038551
X043689Y-038906
X044555Y-038551
X044555Y-038906
X045421Y-038551
X045421Y-038906
X046094Y-051677
X046094Y-052031
X046287Y-038551
X046287Y-038906
X046961Y-051677
X046961Y-052031
X047154Y-038551
X047154Y-038906
X047827Y-051677
X047827Y-052031
X04802Y-038551
X04802Y-038906
X048886Y-038551
X048886Y-038906
X051673Y-048638
X051673Y-049504
X052028Y-048638
X052028Y-049504
T5
X041024Y-051949
X042008Y-051949
X043031Y-051949
X044055Y-051949
X045039Y-051949
T6
X03937Y-03937
X03937Y-051181
X051181Y-03937
X051181Y-051181
T2
G00X038868Y-044921
M15
G01X038612Y-044921
M16
G05
G00X038868Y-047677
M15
G01X038612Y-047677
M16
G05
T3
G00X039803Y-045256
M15
G01X039803Y-045374
M16
G05
G00X039803Y-047224
M15
G01X039803Y-047343
M16
G05
T4
G00X051575Y-045197
M15
G01X051575Y-044567
M16
G05
G00X05189Y-046358
M15
G01X05126Y-046358
M16
G05
G00X051575Y-046043
M15
G01X051575Y-046673
M16
G05
T0
M30
