%TF.GenerationSoftware,KiCad,Pcbnew,7.0.1*%
%TF.CreationDate,2023-04-22T23:07:11+02:00*%
%TF.ProjectId,ultimateFC,756c7469-6d61-4746-9546-432e6b696361,rev?*%
%TF.SameCoordinates,PX5f5e100PY5f5e100*%
%TF.FileFunction,Other,User*%
%FSLAX46Y46*%
G04 Gerber Fmt 4.6, Leading zero omitted, Abs format (unit mm)*
G04 Created by KiCad (PCBNEW 7.0.1) date 2023-04-22 23:07:11*
%MOMM*%
%LPD*%
G01*
G04 APERTURE LIST*
%ADD10C,0.100000*%
G04 APERTURE END LIST*
D10*
X31242857Y-22455119D02*
X31185715Y-22431309D01*
X31185715Y-22431309D02*
X31100000Y-22431309D01*
X31100000Y-22431309D02*
X31014286Y-22455119D01*
X31014286Y-22455119D02*
X30957143Y-22502738D01*
X30957143Y-22502738D02*
X30928572Y-22550357D01*
X30928572Y-22550357D02*
X30900000Y-22645595D01*
X30900000Y-22645595D02*
X30900000Y-22717023D01*
X30900000Y-22717023D02*
X30928572Y-22812261D01*
X30928572Y-22812261D02*
X30957143Y-22859880D01*
X30957143Y-22859880D02*
X31014286Y-22907500D01*
X31014286Y-22907500D02*
X31100000Y-22931309D01*
X31100000Y-22931309D02*
X31157143Y-22931309D01*
X31157143Y-22931309D02*
X31242857Y-22907500D01*
X31242857Y-22907500D02*
X31271429Y-22883690D01*
X31271429Y-22883690D02*
X31271429Y-22717023D01*
X31271429Y-22717023D02*
X31157143Y-22717023D01*
X31528572Y-22931309D02*
X31528572Y-22431309D01*
X31528572Y-22431309D02*
X31871429Y-22931309D01*
X31871429Y-22931309D02*
X31871429Y-22431309D01*
X32157143Y-22931309D02*
X32157143Y-22431309D01*
X32157143Y-22431309D02*
X32300000Y-22431309D01*
X32300000Y-22431309D02*
X32385714Y-22455119D01*
X32385714Y-22455119D02*
X32442857Y-22502738D01*
X32442857Y-22502738D02*
X32471428Y-22550357D01*
X32471428Y-22550357D02*
X32500000Y-22645595D01*
X32500000Y-22645595D02*
X32500000Y-22717023D01*
X32500000Y-22717023D02*
X32471428Y-22812261D01*
X32471428Y-22812261D02*
X32442857Y-22859880D01*
X32442857Y-22859880D02*
X32385714Y-22907500D01*
X32385714Y-22907500D02*
X32300000Y-22931309D01*
X32300000Y-22931309D02*
X32157143Y-22931309D01*
X5473690Y-1079999D02*
X5497500Y-1108571D01*
X5497500Y-1108571D02*
X5521309Y-1194285D01*
X5521309Y-1194285D02*
X5521309Y-1251428D01*
X5521309Y-1251428D02*
X5497500Y-1337142D01*
X5497500Y-1337142D02*
X5449880Y-1394285D01*
X5449880Y-1394285D02*
X5402261Y-1422856D01*
X5402261Y-1422856D02*
X5307023Y-1451428D01*
X5307023Y-1451428D02*
X5235595Y-1451428D01*
X5235595Y-1451428D02*
X5140357Y-1422856D01*
X5140357Y-1422856D02*
X5092738Y-1394285D01*
X5092738Y-1394285D02*
X5045119Y-1337142D01*
X5045119Y-1337142D02*
X5021309Y-1251428D01*
X5021309Y-1251428D02*
X5021309Y-1194285D01*
X5021309Y-1194285D02*
X5045119Y-1108571D01*
X5045119Y-1108571D02*
X5068928Y-1079999D01*
X5021309Y-565714D02*
X5021309Y-679999D01*
X5021309Y-679999D02*
X5045119Y-737142D01*
X5045119Y-737142D02*
X5068928Y-765714D01*
X5068928Y-765714D02*
X5140357Y-822856D01*
X5140357Y-822856D02*
X5235595Y-851428D01*
X5235595Y-851428D02*
X5426071Y-851428D01*
X5426071Y-851428D02*
X5473690Y-822856D01*
X5473690Y-822856D02*
X5497500Y-794285D01*
X5497500Y-794285D02*
X5521309Y-737142D01*
X5521309Y-737142D02*
X5521309Y-622856D01*
X5521309Y-622856D02*
X5497500Y-565714D01*
X5497500Y-565714D02*
X5473690Y-537142D01*
X5473690Y-537142D02*
X5426071Y-508571D01*
X5426071Y-508571D02*
X5307023Y-508571D01*
X5307023Y-508571D02*
X5259404Y-537142D01*
X5259404Y-537142D02*
X5235595Y-565714D01*
X5235595Y-565714D02*
X5211785Y-622856D01*
X5211785Y-622856D02*
X5211785Y-737142D01*
X5211785Y-737142D02*
X5235595Y-794285D01*
X5235595Y-794285D02*
X5259404Y-822856D01*
X5259404Y-822856D02*
X5307023Y-851428D01*
X21739404Y-3912856D02*
X21763214Y-3827142D01*
X21763214Y-3827142D02*
X21787023Y-3798571D01*
X21787023Y-3798571D02*
X21834642Y-3769999D01*
X21834642Y-3769999D02*
X21906071Y-3769999D01*
X21906071Y-3769999D02*
X21953690Y-3798571D01*
X21953690Y-3798571D02*
X21977500Y-3827142D01*
X21977500Y-3827142D02*
X22001309Y-3884285D01*
X22001309Y-3884285D02*
X22001309Y-4112856D01*
X22001309Y-4112856D02*
X21501309Y-4112856D01*
X21501309Y-4112856D02*
X21501309Y-3912856D01*
X21501309Y-3912856D02*
X21525119Y-3855714D01*
X21525119Y-3855714D02*
X21548928Y-3827142D01*
X21548928Y-3827142D02*
X21596547Y-3798571D01*
X21596547Y-3798571D02*
X21644166Y-3798571D01*
X21644166Y-3798571D02*
X21691785Y-3827142D01*
X21691785Y-3827142D02*
X21715595Y-3855714D01*
X21715595Y-3855714D02*
X21739404Y-3912856D01*
X21739404Y-3912856D02*
X21739404Y-4112856D01*
X21548928Y-3541428D02*
X21525119Y-3512856D01*
X21525119Y-3512856D02*
X21501309Y-3455714D01*
X21501309Y-3455714D02*
X21501309Y-3312856D01*
X21501309Y-3312856D02*
X21525119Y-3255714D01*
X21525119Y-3255714D02*
X21548928Y-3227142D01*
X21548928Y-3227142D02*
X21596547Y-3198571D01*
X21596547Y-3198571D02*
X21644166Y-3198571D01*
X21644166Y-3198571D02*
X21715595Y-3227142D01*
X21715595Y-3227142D02*
X22001309Y-3569999D01*
X22001309Y-3569999D02*
X22001309Y-3198571D01*
X16799404Y-3774285D02*
X16799404Y-3574285D01*
X17061309Y-3488571D02*
X17061309Y-3774285D01*
X17061309Y-3774285D02*
X16561309Y-3774285D01*
X16561309Y-3774285D02*
X16561309Y-3488571D01*
X17061309Y-3202857D02*
X17061309Y-3088571D01*
X17061309Y-3088571D02*
X17037500Y-3031428D01*
X17037500Y-3031428D02*
X17013690Y-3002857D01*
X17013690Y-3002857D02*
X16942261Y-2945714D01*
X16942261Y-2945714D02*
X16847023Y-2917143D01*
X16847023Y-2917143D02*
X16656547Y-2917143D01*
X16656547Y-2917143D02*
X16608928Y-2945714D01*
X16608928Y-2945714D02*
X16585119Y-2974286D01*
X16585119Y-2974286D02*
X16561309Y-3031428D01*
X16561309Y-3031428D02*
X16561309Y-3145714D01*
X16561309Y-3145714D02*
X16585119Y-3202857D01*
X16585119Y-3202857D02*
X16608928Y-3231428D01*
X16608928Y-3231428D02*
X16656547Y-3260000D01*
X16656547Y-3260000D02*
X16775595Y-3260000D01*
X16775595Y-3260000D02*
X16823214Y-3231428D01*
X16823214Y-3231428D02*
X16847023Y-3202857D01*
X16847023Y-3202857D02*
X16870833Y-3145714D01*
X16870833Y-3145714D02*
X16870833Y-3031428D01*
X16870833Y-3031428D02*
X16847023Y-2974286D01*
X16847023Y-2974286D02*
X16823214Y-2945714D01*
X16823214Y-2945714D02*
X16775595Y-2917143D01*
X3564285Y-31108690D02*
X3585714Y-31132500D01*
X3585714Y-31132500D02*
X3564285Y-31156309D01*
X3564285Y-31156309D02*
X3542857Y-31132500D01*
X3542857Y-31132500D02*
X3564285Y-31108690D01*
X3564285Y-31108690D02*
X3564285Y-31156309D01*
X3564285Y-30965833D02*
X3542857Y-30680119D01*
X3542857Y-30680119D02*
X3564285Y-30656309D01*
X3564285Y-30656309D02*
X3585714Y-30680119D01*
X3585714Y-30680119D02*
X3564285Y-30965833D01*
X3564285Y-30965833D02*
X3564285Y-30656309D01*
X4035714Y-31156309D02*
X3885714Y-30918214D01*
X3778571Y-31156309D02*
X3778571Y-30656309D01*
X3778571Y-30656309D02*
X3950000Y-30656309D01*
X3950000Y-30656309D02*
X3992857Y-30680119D01*
X3992857Y-30680119D02*
X4014286Y-30703928D01*
X4014286Y-30703928D02*
X4035714Y-30751547D01*
X4035714Y-30751547D02*
X4035714Y-30822976D01*
X4035714Y-30822976D02*
X4014286Y-30870595D01*
X4014286Y-30870595D02*
X3992857Y-30894404D01*
X3992857Y-30894404D02*
X3950000Y-30918214D01*
X3950000Y-30918214D02*
X3778571Y-30918214D01*
X4207143Y-31132500D02*
X4271429Y-31156309D01*
X4271429Y-31156309D02*
X4378571Y-31156309D01*
X4378571Y-31156309D02*
X4421429Y-31132500D01*
X4421429Y-31132500D02*
X4442857Y-31108690D01*
X4442857Y-31108690D02*
X4464286Y-31061071D01*
X4464286Y-31061071D02*
X4464286Y-31013452D01*
X4464286Y-31013452D02*
X4442857Y-30965833D01*
X4442857Y-30965833D02*
X4421429Y-30942023D01*
X4421429Y-30942023D02*
X4378571Y-30918214D01*
X4378571Y-30918214D02*
X4292857Y-30894404D01*
X4292857Y-30894404D02*
X4250000Y-30870595D01*
X4250000Y-30870595D02*
X4228571Y-30846785D01*
X4228571Y-30846785D02*
X4207143Y-30799166D01*
X4207143Y-30799166D02*
X4207143Y-30751547D01*
X4207143Y-30751547D02*
X4228571Y-30703928D01*
X4228571Y-30703928D02*
X4250000Y-30680119D01*
X4250000Y-30680119D02*
X4292857Y-30656309D01*
X4292857Y-30656309D02*
X4400000Y-30656309D01*
X4400000Y-30656309D02*
X4464286Y-30680119D01*
X4592857Y-30656309D02*
X4850000Y-30656309D01*
X4721428Y-31156309D02*
X4721428Y-30656309D01*
X19865119Y-32177142D02*
X19841309Y-32234285D01*
X19841309Y-32234285D02*
X19841309Y-32319999D01*
X19841309Y-32319999D02*
X19865119Y-32405713D01*
X19865119Y-32405713D02*
X19912738Y-32462856D01*
X19912738Y-32462856D02*
X19960357Y-32491427D01*
X19960357Y-32491427D02*
X20055595Y-32519999D01*
X20055595Y-32519999D02*
X20127023Y-32519999D01*
X20127023Y-32519999D02*
X20222261Y-32491427D01*
X20222261Y-32491427D02*
X20269880Y-32462856D01*
X20269880Y-32462856D02*
X20317500Y-32405713D01*
X20317500Y-32405713D02*
X20341309Y-32319999D01*
X20341309Y-32319999D02*
X20341309Y-32262856D01*
X20341309Y-32262856D02*
X20317500Y-32177142D01*
X20317500Y-32177142D02*
X20293690Y-32148570D01*
X20293690Y-32148570D02*
X20127023Y-32148570D01*
X20127023Y-32148570D02*
X20127023Y-32262856D01*
X20341309Y-31891427D02*
X19841309Y-31891427D01*
X19841309Y-31891427D02*
X20341309Y-31548570D01*
X20341309Y-31548570D02*
X19841309Y-31548570D01*
X20341309Y-31262856D02*
X19841309Y-31262856D01*
X19841309Y-31262856D02*
X19841309Y-31119999D01*
X19841309Y-31119999D02*
X19865119Y-31034285D01*
X19865119Y-31034285D02*
X19912738Y-30977142D01*
X19912738Y-30977142D02*
X19960357Y-30948571D01*
X19960357Y-30948571D02*
X20055595Y-30919999D01*
X20055595Y-30919999D02*
X20127023Y-30919999D01*
X20127023Y-30919999D02*
X20222261Y-30948571D01*
X20222261Y-30948571D02*
X20269880Y-30977142D01*
X20269880Y-30977142D02*
X20317500Y-31034285D01*
X20317500Y-31034285D02*
X20341309Y-31119999D01*
X20341309Y-31119999D02*
X20341309Y-31262856D01*
X12330833Y-29521428D02*
X12330833Y-29064286D01*
X12521309Y-29292857D02*
X12140357Y-29292857D01*
X12021309Y-28492857D02*
X12021309Y-28778571D01*
X12021309Y-28778571D02*
X12259404Y-28807143D01*
X12259404Y-28807143D02*
X12235595Y-28778571D01*
X12235595Y-28778571D02*
X12211785Y-28721429D01*
X12211785Y-28721429D02*
X12211785Y-28578571D01*
X12211785Y-28578571D02*
X12235595Y-28521429D01*
X12235595Y-28521429D02*
X12259404Y-28492857D01*
X12259404Y-28492857D02*
X12307023Y-28464286D01*
X12307023Y-28464286D02*
X12426071Y-28464286D01*
X12426071Y-28464286D02*
X12473690Y-28492857D01*
X12473690Y-28492857D02*
X12497500Y-28521429D01*
X12497500Y-28521429D02*
X12521309Y-28578571D01*
X12521309Y-28578571D02*
X12521309Y-28721429D01*
X12521309Y-28721429D02*
X12497500Y-28778571D01*
X12497500Y-28778571D02*
X12473690Y-28807143D01*
X12021309Y-28292857D02*
X12521309Y-28092857D01*
X12521309Y-28092857D02*
X12021309Y-27892857D01*
X14148452Y-1388571D02*
X14148452Y-1102857D01*
X14291309Y-1445714D02*
X13791309Y-1245714D01*
X13791309Y-1245714D02*
X14291309Y-1045714D01*
X13791309Y-559999D02*
X13791309Y-845713D01*
X13791309Y-845713D02*
X14029404Y-874285D01*
X14029404Y-874285D02*
X14005595Y-845713D01*
X14005595Y-845713D02*
X13981785Y-788571D01*
X13981785Y-788571D02*
X13981785Y-645713D01*
X13981785Y-645713D02*
X14005595Y-588571D01*
X14005595Y-588571D02*
X14029404Y-559999D01*
X14029404Y-559999D02*
X14077023Y-531428D01*
X14077023Y-531428D02*
X14196071Y-531428D01*
X14196071Y-531428D02*
X14243690Y-559999D01*
X14243690Y-559999D02*
X14267500Y-588571D01*
X14267500Y-588571D02*
X14291309Y-645713D01*
X14291309Y-645713D02*
X14291309Y-788571D01*
X14291309Y-788571D02*
X14267500Y-845713D01*
X14267500Y-845713D02*
X14243690Y-874285D01*
X18429404Y-1354285D02*
X18429404Y-1154285D01*
X18691309Y-1068571D02*
X18691309Y-1354285D01*
X18691309Y-1354285D02*
X18191309Y-1354285D01*
X18191309Y-1354285D02*
X18191309Y-1068571D01*
X18405595Y-725714D02*
X18381785Y-782857D01*
X18381785Y-782857D02*
X18357976Y-811428D01*
X18357976Y-811428D02*
X18310357Y-840000D01*
X18310357Y-840000D02*
X18286547Y-840000D01*
X18286547Y-840000D02*
X18238928Y-811428D01*
X18238928Y-811428D02*
X18215119Y-782857D01*
X18215119Y-782857D02*
X18191309Y-725714D01*
X18191309Y-725714D02*
X18191309Y-611428D01*
X18191309Y-611428D02*
X18215119Y-554286D01*
X18215119Y-554286D02*
X18238928Y-525714D01*
X18238928Y-525714D02*
X18286547Y-497143D01*
X18286547Y-497143D02*
X18310357Y-497143D01*
X18310357Y-497143D02*
X18357976Y-525714D01*
X18357976Y-525714D02*
X18381785Y-554286D01*
X18381785Y-554286D02*
X18405595Y-611428D01*
X18405595Y-611428D02*
X18405595Y-725714D01*
X18405595Y-725714D02*
X18429404Y-782857D01*
X18429404Y-782857D02*
X18453214Y-811428D01*
X18453214Y-811428D02*
X18500833Y-840000D01*
X18500833Y-840000D02*
X18596071Y-840000D01*
X18596071Y-840000D02*
X18643690Y-811428D01*
X18643690Y-811428D02*
X18667500Y-782857D01*
X18667500Y-782857D02*
X18691309Y-725714D01*
X18691309Y-725714D02*
X18691309Y-611428D01*
X18691309Y-611428D02*
X18667500Y-554286D01*
X18667500Y-554286D02*
X18643690Y-525714D01*
X18643690Y-525714D02*
X18596071Y-497143D01*
X18596071Y-497143D02*
X18500833Y-497143D01*
X18500833Y-497143D02*
X18453214Y-525714D01*
X18453214Y-525714D02*
X18429404Y-554286D01*
X18429404Y-554286D02*
X18405595Y-611428D01*
X16931309Y-29122856D02*
X16431309Y-29122856D01*
X16431309Y-29122856D02*
X16431309Y-28979999D01*
X16431309Y-28979999D02*
X16455119Y-28894285D01*
X16455119Y-28894285D02*
X16502738Y-28837142D01*
X16502738Y-28837142D02*
X16550357Y-28808571D01*
X16550357Y-28808571D02*
X16645595Y-28779999D01*
X16645595Y-28779999D02*
X16717023Y-28779999D01*
X16717023Y-28779999D02*
X16812261Y-28808571D01*
X16812261Y-28808571D02*
X16859880Y-28837142D01*
X16859880Y-28837142D02*
X16907500Y-28894285D01*
X16907500Y-28894285D02*
X16931309Y-28979999D01*
X16931309Y-28979999D02*
X16931309Y-29122856D01*
X16931309Y-28494285D02*
X16931309Y-28379999D01*
X16931309Y-28379999D02*
X16907500Y-28322856D01*
X16907500Y-28322856D02*
X16883690Y-28294285D01*
X16883690Y-28294285D02*
X16812261Y-28237142D01*
X16812261Y-28237142D02*
X16717023Y-28208571D01*
X16717023Y-28208571D02*
X16526547Y-28208571D01*
X16526547Y-28208571D02*
X16478928Y-28237142D01*
X16478928Y-28237142D02*
X16455119Y-28265714D01*
X16455119Y-28265714D02*
X16431309Y-28322856D01*
X16431309Y-28322856D02*
X16431309Y-28437142D01*
X16431309Y-28437142D02*
X16455119Y-28494285D01*
X16455119Y-28494285D02*
X16478928Y-28522856D01*
X16478928Y-28522856D02*
X16526547Y-28551428D01*
X16526547Y-28551428D02*
X16645595Y-28551428D01*
X16645595Y-28551428D02*
X16693214Y-28522856D01*
X16693214Y-28522856D02*
X16717023Y-28494285D01*
X16717023Y-28494285D02*
X16740833Y-28437142D01*
X16740833Y-28437142D02*
X16740833Y-28322856D01*
X16740833Y-28322856D02*
X16717023Y-28265714D01*
X16717023Y-28265714D02*
X16693214Y-28237142D01*
X16693214Y-28237142D02*
X16645595Y-28208571D01*
X19549404Y-3892856D02*
X19573214Y-3807142D01*
X19573214Y-3807142D02*
X19597023Y-3778571D01*
X19597023Y-3778571D02*
X19644642Y-3749999D01*
X19644642Y-3749999D02*
X19716071Y-3749999D01*
X19716071Y-3749999D02*
X19763690Y-3778571D01*
X19763690Y-3778571D02*
X19787500Y-3807142D01*
X19787500Y-3807142D02*
X19811309Y-3864285D01*
X19811309Y-3864285D02*
X19811309Y-4092856D01*
X19811309Y-4092856D02*
X19311309Y-4092856D01*
X19311309Y-4092856D02*
X19311309Y-3892856D01*
X19311309Y-3892856D02*
X19335119Y-3835714D01*
X19335119Y-3835714D02*
X19358928Y-3807142D01*
X19358928Y-3807142D02*
X19406547Y-3778571D01*
X19406547Y-3778571D02*
X19454166Y-3778571D01*
X19454166Y-3778571D02*
X19501785Y-3807142D01*
X19501785Y-3807142D02*
X19525595Y-3835714D01*
X19525595Y-3835714D02*
X19549404Y-3892856D01*
X19549404Y-3892856D02*
X19549404Y-4092856D01*
X19811309Y-3178571D02*
X19811309Y-3521428D01*
X19811309Y-3349999D02*
X19311309Y-3349999D01*
X19311309Y-3349999D02*
X19382738Y-3407142D01*
X19382738Y-3407142D02*
X19430357Y-3464285D01*
X19430357Y-3464285D02*
X19454166Y-3521428D01*
X21291309Y-29162856D02*
X20791309Y-29162856D01*
X20791309Y-29162856D02*
X20791309Y-29019999D01*
X20791309Y-29019999D02*
X20815119Y-28934285D01*
X20815119Y-28934285D02*
X20862738Y-28877142D01*
X20862738Y-28877142D02*
X20910357Y-28848571D01*
X20910357Y-28848571D02*
X21005595Y-28819999D01*
X21005595Y-28819999D02*
X21077023Y-28819999D01*
X21077023Y-28819999D02*
X21172261Y-28848571D01*
X21172261Y-28848571D02*
X21219880Y-28877142D01*
X21219880Y-28877142D02*
X21267500Y-28934285D01*
X21267500Y-28934285D02*
X21291309Y-29019999D01*
X21291309Y-29019999D02*
X21291309Y-29162856D01*
X20791309Y-28305714D02*
X20791309Y-28419999D01*
X20791309Y-28419999D02*
X20815119Y-28477142D01*
X20815119Y-28477142D02*
X20838928Y-28505714D01*
X20838928Y-28505714D02*
X20910357Y-28562856D01*
X20910357Y-28562856D02*
X21005595Y-28591428D01*
X21005595Y-28591428D02*
X21196071Y-28591428D01*
X21196071Y-28591428D02*
X21243690Y-28562856D01*
X21243690Y-28562856D02*
X21267500Y-28534285D01*
X21267500Y-28534285D02*
X21291309Y-28477142D01*
X21291309Y-28477142D02*
X21291309Y-28362856D01*
X21291309Y-28362856D02*
X21267500Y-28305714D01*
X21267500Y-28305714D02*
X21243690Y-28277142D01*
X21243690Y-28277142D02*
X21196071Y-28248571D01*
X21196071Y-28248571D02*
X21077023Y-28248571D01*
X21077023Y-28248571D02*
X21029404Y-28277142D01*
X21029404Y-28277142D02*
X21005595Y-28305714D01*
X21005595Y-28305714D02*
X20981785Y-28362856D01*
X20981785Y-28362856D02*
X20981785Y-28477142D01*
X20981785Y-28477142D02*
X21005595Y-28534285D01*
X21005595Y-28534285D02*
X21029404Y-28562856D01*
X21029404Y-28562856D02*
X21077023Y-28591428D01*
X16219404Y-1374285D02*
X16219404Y-1174285D01*
X16481309Y-1088571D02*
X16481309Y-1374285D01*
X16481309Y-1374285D02*
X15981309Y-1374285D01*
X15981309Y-1374285D02*
X15981309Y-1088571D01*
X15981309Y-888571D02*
X15981309Y-488571D01*
X15981309Y-488571D02*
X16481309Y-745714D01*
X6463095Y-31156309D02*
X6463095Y-30656309D01*
X6796428Y-30656309D02*
X6891666Y-30656309D01*
X6891666Y-30656309D02*
X6939285Y-30680119D01*
X6939285Y-30680119D02*
X6986904Y-30727738D01*
X6986904Y-30727738D02*
X7010714Y-30822976D01*
X7010714Y-30822976D02*
X7010714Y-30989642D01*
X7010714Y-30989642D02*
X6986904Y-31084880D01*
X6986904Y-31084880D02*
X6939285Y-31132500D01*
X6939285Y-31132500D02*
X6891666Y-31156309D01*
X6891666Y-31156309D02*
X6796428Y-31156309D01*
X6796428Y-31156309D02*
X6748809Y-31132500D01*
X6748809Y-31132500D02*
X6701190Y-31084880D01*
X6701190Y-31084880D02*
X6677381Y-30989642D01*
X6677381Y-30989642D02*
X6677381Y-30822976D01*
X6677381Y-30822976D02*
X6701190Y-30727738D01*
X6701190Y-30727738D02*
X6748809Y-30680119D01*
X6748809Y-30680119D02*
X6796428Y-30656309D01*
X11983690Y-1039999D02*
X12007500Y-1068571D01*
X12007500Y-1068571D02*
X12031309Y-1154285D01*
X12031309Y-1154285D02*
X12031309Y-1211428D01*
X12031309Y-1211428D02*
X12007500Y-1297142D01*
X12007500Y-1297142D02*
X11959880Y-1354285D01*
X11959880Y-1354285D02*
X11912261Y-1382856D01*
X11912261Y-1382856D02*
X11817023Y-1411428D01*
X11817023Y-1411428D02*
X11745595Y-1411428D01*
X11745595Y-1411428D02*
X11650357Y-1382856D01*
X11650357Y-1382856D02*
X11602738Y-1354285D01*
X11602738Y-1354285D02*
X11555119Y-1297142D01*
X11555119Y-1297142D02*
X11531309Y-1211428D01*
X11531309Y-1211428D02*
X11531309Y-1154285D01*
X11531309Y-1154285D02*
X11555119Y-1068571D01*
X11555119Y-1068571D02*
X11578928Y-1039999D01*
X11745595Y-697142D02*
X11721785Y-754285D01*
X11721785Y-754285D02*
X11697976Y-782856D01*
X11697976Y-782856D02*
X11650357Y-811428D01*
X11650357Y-811428D02*
X11626547Y-811428D01*
X11626547Y-811428D02*
X11578928Y-782856D01*
X11578928Y-782856D02*
X11555119Y-754285D01*
X11555119Y-754285D02*
X11531309Y-697142D01*
X11531309Y-697142D02*
X11531309Y-582856D01*
X11531309Y-582856D02*
X11555119Y-525714D01*
X11555119Y-525714D02*
X11578928Y-497142D01*
X11578928Y-497142D02*
X11626547Y-468571D01*
X11626547Y-468571D02*
X11650357Y-468571D01*
X11650357Y-468571D02*
X11697976Y-497142D01*
X11697976Y-497142D02*
X11721785Y-525714D01*
X11721785Y-525714D02*
X11745595Y-582856D01*
X11745595Y-582856D02*
X11745595Y-697142D01*
X11745595Y-697142D02*
X11769404Y-754285D01*
X11769404Y-754285D02*
X11793214Y-782856D01*
X11793214Y-782856D02*
X11840833Y-811428D01*
X11840833Y-811428D02*
X11936071Y-811428D01*
X11936071Y-811428D02*
X11983690Y-782856D01*
X11983690Y-782856D02*
X12007500Y-754285D01*
X12007500Y-754285D02*
X12031309Y-697142D01*
X12031309Y-697142D02*
X12031309Y-582856D01*
X12031309Y-582856D02*
X12007500Y-525714D01*
X12007500Y-525714D02*
X11983690Y-497142D01*
X11983690Y-497142D02*
X11936071Y-468571D01*
X11936071Y-468571D02*
X11840833Y-468571D01*
X11840833Y-468571D02*
X11793214Y-497142D01*
X11793214Y-497142D02*
X11769404Y-525714D01*
X11769404Y-525714D02*
X11745595Y-582856D01*
X19131309Y-29192856D02*
X18631309Y-29192856D01*
X18631309Y-29192856D02*
X18631309Y-29049999D01*
X18631309Y-29049999D02*
X18655119Y-28964285D01*
X18655119Y-28964285D02*
X18702738Y-28907142D01*
X18702738Y-28907142D02*
X18750357Y-28878571D01*
X18750357Y-28878571D02*
X18845595Y-28849999D01*
X18845595Y-28849999D02*
X18917023Y-28849999D01*
X18917023Y-28849999D02*
X19012261Y-28878571D01*
X19012261Y-28878571D02*
X19059880Y-28907142D01*
X19059880Y-28907142D02*
X19107500Y-28964285D01*
X19107500Y-28964285D02*
X19131309Y-29049999D01*
X19131309Y-29049999D02*
X19131309Y-29192856D01*
X18631309Y-28307142D02*
X18631309Y-28592856D01*
X18631309Y-28592856D02*
X18869404Y-28621428D01*
X18869404Y-28621428D02*
X18845595Y-28592856D01*
X18845595Y-28592856D02*
X18821785Y-28535714D01*
X18821785Y-28535714D02*
X18821785Y-28392856D01*
X18821785Y-28392856D02*
X18845595Y-28335714D01*
X18845595Y-28335714D02*
X18869404Y-28307142D01*
X18869404Y-28307142D02*
X18917023Y-28278571D01*
X18917023Y-28278571D02*
X19036071Y-28278571D01*
X19036071Y-28278571D02*
X19083690Y-28307142D01*
X19083690Y-28307142D02*
X19107500Y-28335714D01*
X19107500Y-28335714D02*
X19131309Y-28392856D01*
X19131309Y-28392856D02*
X19131309Y-28535714D01*
X19131309Y-28535714D02*
X19107500Y-28592856D01*
X19107500Y-28592856D02*
X19083690Y-28621428D01*
X20798452Y-1388571D02*
X20798452Y-1102857D01*
X20941309Y-1445714D02*
X20441309Y-1245714D01*
X20441309Y-1245714D02*
X20941309Y-1045714D01*
X20941309Y-531428D02*
X20941309Y-874285D01*
X20941309Y-702856D02*
X20441309Y-702856D01*
X20441309Y-702856D02*
X20512738Y-759999D01*
X20512738Y-759999D02*
X20560357Y-817142D01*
X20560357Y-817142D02*
X20584166Y-874285D01*
X10381309Y-26571427D02*
X10881309Y-26428570D01*
X10881309Y-26428570D02*
X10524166Y-26314284D01*
X10524166Y-26314284D02*
X10881309Y-26199999D01*
X10881309Y-26199999D02*
X10381309Y-26057142D01*
X10381309Y-25714285D02*
X10381309Y-25599999D01*
X10381309Y-25599999D02*
X10405119Y-25542856D01*
X10405119Y-25542856D02*
X10452738Y-25485713D01*
X10452738Y-25485713D02*
X10547976Y-25457142D01*
X10547976Y-25457142D02*
X10714642Y-25457142D01*
X10714642Y-25457142D02*
X10809880Y-25485713D01*
X10809880Y-25485713D02*
X10857500Y-25542856D01*
X10857500Y-25542856D02*
X10881309Y-25599999D01*
X10881309Y-25599999D02*
X10881309Y-25714285D01*
X10881309Y-25714285D02*
X10857500Y-25771428D01*
X10857500Y-25771428D02*
X10809880Y-25828570D01*
X10809880Y-25828570D02*
X10714642Y-25857142D01*
X10714642Y-25857142D02*
X10547976Y-25857142D01*
X10547976Y-25857142D02*
X10452738Y-25828570D01*
X10452738Y-25828570D02*
X10405119Y-25771428D01*
X10405119Y-25771428D02*
X10381309Y-25714285D01*
X31257143Y-20669404D02*
X31342857Y-20693214D01*
X31342857Y-20693214D02*
X31371428Y-20717023D01*
X31371428Y-20717023D02*
X31400000Y-20764642D01*
X31400000Y-20764642D02*
X31400000Y-20836071D01*
X31400000Y-20836071D02*
X31371428Y-20883690D01*
X31371428Y-20883690D02*
X31342857Y-20907500D01*
X31342857Y-20907500D02*
X31285714Y-20931309D01*
X31285714Y-20931309D02*
X31057143Y-20931309D01*
X31057143Y-20931309D02*
X31057143Y-20431309D01*
X31057143Y-20431309D02*
X31257143Y-20431309D01*
X31257143Y-20431309D02*
X31314286Y-20455119D01*
X31314286Y-20455119D02*
X31342857Y-20478928D01*
X31342857Y-20478928D02*
X31371428Y-20526547D01*
X31371428Y-20526547D02*
X31371428Y-20574166D01*
X31371428Y-20574166D02*
X31342857Y-20621785D01*
X31342857Y-20621785D02*
X31314286Y-20645595D01*
X31314286Y-20645595D02*
X31257143Y-20669404D01*
X31257143Y-20669404D02*
X31057143Y-20669404D01*
X31628571Y-20788452D02*
X31914286Y-20788452D01*
X31571428Y-20931309D02*
X31771428Y-20431309D01*
X31771428Y-20431309D02*
X31971428Y-20931309D01*
X32085714Y-20431309D02*
X32428572Y-20431309D01*
X32257143Y-20931309D02*
X32257143Y-20431309D01*
X13780953Y-30631309D02*
X14090477Y-30631309D01*
X14090477Y-30631309D02*
X13923810Y-30821785D01*
X13923810Y-30821785D02*
X13995239Y-30821785D01*
X13995239Y-30821785D02*
X14042858Y-30845595D01*
X14042858Y-30845595D02*
X14066667Y-30869404D01*
X14066667Y-30869404D02*
X14090477Y-30917023D01*
X14090477Y-30917023D02*
X14090477Y-31036071D01*
X14090477Y-31036071D02*
X14066667Y-31083690D01*
X14066667Y-31083690D02*
X14042858Y-31107500D01*
X14042858Y-31107500D02*
X13995239Y-31131309D01*
X13995239Y-31131309D02*
X13852382Y-31131309D01*
X13852382Y-31131309D02*
X13804763Y-31107500D01*
X13804763Y-31107500D02*
X13780953Y-31083690D01*
X14233334Y-30631309D02*
X14400000Y-31131309D01*
X14400000Y-31131309D02*
X14566667Y-30631309D01*
X14685714Y-30631309D02*
X14995238Y-30631309D01*
X14995238Y-30631309D02*
X14828571Y-30821785D01*
X14828571Y-30821785D02*
X14900000Y-30821785D01*
X14900000Y-30821785D02*
X14947619Y-30845595D01*
X14947619Y-30845595D02*
X14971428Y-30869404D01*
X14971428Y-30869404D02*
X14995238Y-30917023D01*
X14995238Y-30917023D02*
X14995238Y-31036071D01*
X14995238Y-31036071D02*
X14971428Y-31083690D01*
X14971428Y-31083690D02*
X14947619Y-31107500D01*
X14947619Y-31107500D02*
X14900000Y-31131309D01*
X14900000Y-31131309D02*
X14757143Y-31131309D01*
X14757143Y-31131309D02*
X14709524Y-31107500D01*
X14709524Y-31107500D02*
X14685714Y-31083690D01*
X23959404Y-3902856D02*
X23983214Y-3817142D01*
X23983214Y-3817142D02*
X24007023Y-3788571D01*
X24007023Y-3788571D02*
X24054642Y-3759999D01*
X24054642Y-3759999D02*
X24126071Y-3759999D01*
X24126071Y-3759999D02*
X24173690Y-3788571D01*
X24173690Y-3788571D02*
X24197500Y-3817142D01*
X24197500Y-3817142D02*
X24221309Y-3874285D01*
X24221309Y-3874285D02*
X24221309Y-4102856D01*
X24221309Y-4102856D02*
X23721309Y-4102856D01*
X23721309Y-4102856D02*
X23721309Y-3902856D01*
X23721309Y-3902856D02*
X23745119Y-3845714D01*
X23745119Y-3845714D02*
X23768928Y-3817142D01*
X23768928Y-3817142D02*
X23816547Y-3788571D01*
X23816547Y-3788571D02*
X23864166Y-3788571D01*
X23864166Y-3788571D02*
X23911785Y-3817142D01*
X23911785Y-3817142D02*
X23935595Y-3845714D01*
X23935595Y-3845714D02*
X23959404Y-3902856D01*
X23959404Y-3902856D02*
X23959404Y-4102856D01*
X23721309Y-3388571D02*
X23721309Y-3331428D01*
X23721309Y-3331428D02*
X23745119Y-3274285D01*
X23745119Y-3274285D02*
X23768928Y-3245714D01*
X23768928Y-3245714D02*
X23816547Y-3217142D01*
X23816547Y-3217142D02*
X23911785Y-3188571D01*
X23911785Y-3188571D02*
X24030833Y-3188571D01*
X24030833Y-3188571D02*
X24126071Y-3217142D01*
X24126071Y-3217142D02*
X24173690Y-3245714D01*
X24173690Y-3245714D02*
X24197500Y-3274285D01*
X24197500Y-3274285D02*
X24221309Y-3331428D01*
X24221309Y-3331428D02*
X24221309Y-3388571D01*
X24221309Y-3388571D02*
X24197500Y-3445714D01*
X24197500Y-3445714D02*
X24173690Y-3474285D01*
X24173690Y-3474285D02*
X24126071Y-3502856D01*
X24126071Y-3502856D02*
X24030833Y-3531428D01*
X24030833Y-3531428D02*
X23911785Y-3531428D01*
X23911785Y-3531428D02*
X23816547Y-3502856D01*
X23816547Y-3502856D02*
X23768928Y-3474285D01*
X23768928Y-3474285D02*
X23745119Y-3445714D01*
X23745119Y-3445714D02*
X23721309Y-3388571D01*
X14681309Y-29162856D02*
X14181309Y-29162856D01*
X14181309Y-29162856D02*
X14181309Y-29019999D01*
X14181309Y-29019999D02*
X14205119Y-28934285D01*
X14205119Y-28934285D02*
X14252738Y-28877142D01*
X14252738Y-28877142D02*
X14300357Y-28848571D01*
X14300357Y-28848571D02*
X14395595Y-28819999D01*
X14395595Y-28819999D02*
X14467023Y-28819999D01*
X14467023Y-28819999D02*
X14562261Y-28848571D01*
X14562261Y-28848571D02*
X14609880Y-28877142D01*
X14609880Y-28877142D02*
X14657500Y-28934285D01*
X14657500Y-28934285D02*
X14681309Y-29019999D01*
X14681309Y-29019999D02*
X14681309Y-29162856D01*
X14395595Y-28477142D02*
X14371785Y-28534285D01*
X14371785Y-28534285D02*
X14347976Y-28562856D01*
X14347976Y-28562856D02*
X14300357Y-28591428D01*
X14300357Y-28591428D02*
X14276547Y-28591428D01*
X14276547Y-28591428D02*
X14228928Y-28562856D01*
X14228928Y-28562856D02*
X14205119Y-28534285D01*
X14205119Y-28534285D02*
X14181309Y-28477142D01*
X14181309Y-28477142D02*
X14181309Y-28362856D01*
X14181309Y-28362856D02*
X14205119Y-28305714D01*
X14205119Y-28305714D02*
X14228928Y-28277142D01*
X14228928Y-28277142D02*
X14276547Y-28248571D01*
X14276547Y-28248571D02*
X14300357Y-28248571D01*
X14300357Y-28248571D02*
X14347976Y-28277142D01*
X14347976Y-28277142D02*
X14371785Y-28305714D01*
X14371785Y-28305714D02*
X14395595Y-28362856D01*
X14395595Y-28362856D02*
X14395595Y-28477142D01*
X14395595Y-28477142D02*
X14419404Y-28534285D01*
X14419404Y-28534285D02*
X14443214Y-28562856D01*
X14443214Y-28562856D02*
X14490833Y-28591428D01*
X14490833Y-28591428D02*
X14586071Y-28591428D01*
X14586071Y-28591428D02*
X14633690Y-28562856D01*
X14633690Y-28562856D02*
X14657500Y-28534285D01*
X14657500Y-28534285D02*
X14681309Y-28477142D01*
X14681309Y-28477142D02*
X14681309Y-28362856D01*
X14681309Y-28362856D02*
X14657500Y-28305714D01*
X14657500Y-28305714D02*
X14633690Y-28277142D01*
X14633690Y-28277142D02*
X14586071Y-28248571D01*
X14586071Y-28248571D02*
X14490833Y-28248571D01*
X14490833Y-28248571D02*
X14443214Y-28277142D01*
X14443214Y-28277142D02*
X14419404Y-28305714D01*
X14419404Y-28305714D02*
X14395595Y-28362856D01*
X4911309Y1535715D02*
X4911309Y1250001D01*
X4911309Y1250001D02*
X5149404Y1221429D01*
X5149404Y1221429D02*
X5125595Y1250001D01*
X5125595Y1250001D02*
X5101785Y1307143D01*
X5101785Y1307143D02*
X5101785Y1450001D01*
X5101785Y1450001D02*
X5125595Y1507143D01*
X5125595Y1507143D02*
X5149404Y1535715D01*
X5149404Y1535715D02*
X5197023Y1564286D01*
X5197023Y1564286D02*
X5316071Y1564286D01*
X5316071Y1564286D02*
X5363690Y1535715D01*
X5363690Y1535715D02*
X5387500Y1507143D01*
X5387500Y1507143D02*
X5411309Y1450001D01*
X5411309Y1450001D02*
X5411309Y1307143D01*
X5411309Y1307143D02*
X5387500Y1250001D01*
X5387500Y1250001D02*
X5363690Y1221429D01*
X4911309Y1735715D02*
X5411309Y1935715D01*
X5411309Y1935715D02*
X4911309Y2135715D01*
X11585119Y1182858D02*
X11561309Y1125715D01*
X11561309Y1125715D02*
X11561309Y1040001D01*
X11561309Y1040001D02*
X11585119Y954287D01*
X11585119Y954287D02*
X11632738Y897144D01*
X11632738Y897144D02*
X11680357Y868573D01*
X11680357Y868573D02*
X11775595Y840001D01*
X11775595Y840001D02*
X11847023Y840001D01*
X11847023Y840001D02*
X11942261Y868573D01*
X11942261Y868573D02*
X11989880Y897144D01*
X11989880Y897144D02*
X12037500Y954287D01*
X12037500Y954287D02*
X12061309Y1040001D01*
X12061309Y1040001D02*
X12061309Y1097144D01*
X12061309Y1097144D02*
X12037500Y1182858D01*
X12037500Y1182858D02*
X12013690Y1211430D01*
X12013690Y1211430D02*
X11847023Y1211430D01*
X11847023Y1211430D02*
X11847023Y1097144D01*
X12061309Y1468573D02*
X11561309Y1468573D01*
X11561309Y1468573D02*
X12061309Y1811430D01*
X12061309Y1811430D02*
X11561309Y1811430D01*
X12061309Y2097144D02*
X11561309Y2097144D01*
X11561309Y2097144D02*
X11561309Y2240001D01*
X11561309Y2240001D02*
X11585119Y2325715D01*
X11585119Y2325715D02*
X11632738Y2382858D01*
X11632738Y2382858D02*
X11680357Y2411429D01*
X11680357Y2411429D02*
X11775595Y2440001D01*
X11775595Y2440001D02*
X11847023Y2440001D01*
X11847023Y2440001D02*
X11942261Y2411429D01*
X11942261Y2411429D02*
X11989880Y2382858D01*
X11989880Y2382858D02*
X12037500Y2325715D01*
X12037500Y2325715D02*
X12061309Y2240001D01*
X12061309Y2240001D02*
X12061309Y2097144D01*
X17621309Y-31754285D02*
X17621309Y-32039999D01*
X17621309Y-32039999D02*
X17859404Y-32068571D01*
X17859404Y-32068571D02*
X17835595Y-32039999D01*
X17835595Y-32039999D02*
X17811785Y-31982857D01*
X17811785Y-31982857D02*
X17811785Y-31839999D01*
X17811785Y-31839999D02*
X17835595Y-31782857D01*
X17835595Y-31782857D02*
X17859404Y-31754285D01*
X17859404Y-31754285D02*
X17907023Y-31725714D01*
X17907023Y-31725714D02*
X18026071Y-31725714D01*
X18026071Y-31725714D02*
X18073690Y-31754285D01*
X18073690Y-31754285D02*
X18097500Y-31782857D01*
X18097500Y-31782857D02*
X18121309Y-31839999D01*
X18121309Y-31839999D02*
X18121309Y-31982857D01*
X18121309Y-31982857D02*
X18097500Y-32039999D01*
X18097500Y-32039999D02*
X18073690Y-32068571D01*
X17621309Y-31554285D02*
X18121309Y-31354285D01*
X18121309Y-31354285D02*
X17621309Y-31154285D01*
X20385119Y1172858D02*
X20361309Y1115715D01*
X20361309Y1115715D02*
X20361309Y1030001D01*
X20361309Y1030001D02*
X20385119Y944287D01*
X20385119Y944287D02*
X20432738Y887144D01*
X20432738Y887144D02*
X20480357Y858573D01*
X20480357Y858573D02*
X20575595Y830001D01*
X20575595Y830001D02*
X20647023Y830001D01*
X20647023Y830001D02*
X20742261Y858573D01*
X20742261Y858573D02*
X20789880Y887144D01*
X20789880Y887144D02*
X20837500Y944287D01*
X20837500Y944287D02*
X20861309Y1030001D01*
X20861309Y1030001D02*
X20861309Y1087144D01*
X20861309Y1087144D02*
X20837500Y1172858D01*
X20837500Y1172858D02*
X20813690Y1201430D01*
X20813690Y1201430D02*
X20647023Y1201430D01*
X20647023Y1201430D02*
X20647023Y1087144D01*
X20861309Y1458573D02*
X20361309Y1458573D01*
X20361309Y1458573D02*
X20861309Y1801430D01*
X20861309Y1801430D02*
X20361309Y1801430D01*
X20861309Y2087144D02*
X20361309Y2087144D01*
X20361309Y2087144D02*
X20361309Y2230001D01*
X20361309Y2230001D02*
X20385119Y2315715D01*
X20385119Y2315715D02*
X20432738Y2372858D01*
X20432738Y2372858D02*
X20480357Y2401429D01*
X20480357Y2401429D02*
X20575595Y2430001D01*
X20575595Y2430001D02*
X20647023Y2430001D01*
X20647023Y2430001D02*
X20742261Y2401429D01*
X20742261Y2401429D02*
X20789880Y2372858D01*
X20789880Y2372858D02*
X20837500Y2315715D01*
X20837500Y2315715D02*
X20861309Y2230001D01*
X20861309Y2230001D02*
X20861309Y2087144D01*
X13751309Y1555715D02*
X13751309Y1270001D01*
X13751309Y1270001D02*
X13989404Y1241429D01*
X13989404Y1241429D02*
X13965595Y1270001D01*
X13965595Y1270001D02*
X13941785Y1327143D01*
X13941785Y1327143D02*
X13941785Y1470001D01*
X13941785Y1470001D02*
X13965595Y1527143D01*
X13965595Y1527143D02*
X13989404Y1555715D01*
X13989404Y1555715D02*
X14037023Y1584286D01*
X14037023Y1584286D02*
X14156071Y1584286D01*
X14156071Y1584286D02*
X14203690Y1555715D01*
X14203690Y1555715D02*
X14227500Y1527143D01*
X14227500Y1527143D02*
X14251309Y1470001D01*
X14251309Y1470001D02*
X14251309Y1327143D01*
X14251309Y1327143D02*
X14227500Y1270001D01*
X14227500Y1270001D02*
X14203690Y1241429D01*
X13751309Y1755715D02*
X14251309Y1955715D01*
X14251309Y1955715D02*
X13751309Y2155715D01*
X15965119Y1172858D02*
X15941309Y1115715D01*
X15941309Y1115715D02*
X15941309Y1030001D01*
X15941309Y1030001D02*
X15965119Y944287D01*
X15965119Y944287D02*
X16012738Y887144D01*
X16012738Y887144D02*
X16060357Y858573D01*
X16060357Y858573D02*
X16155595Y830001D01*
X16155595Y830001D02*
X16227023Y830001D01*
X16227023Y830001D02*
X16322261Y858573D01*
X16322261Y858573D02*
X16369880Y887144D01*
X16369880Y887144D02*
X16417500Y944287D01*
X16417500Y944287D02*
X16441309Y1030001D01*
X16441309Y1030001D02*
X16441309Y1087144D01*
X16441309Y1087144D02*
X16417500Y1172858D01*
X16417500Y1172858D02*
X16393690Y1201430D01*
X16393690Y1201430D02*
X16227023Y1201430D01*
X16227023Y1201430D02*
X16227023Y1087144D01*
X16441309Y1458573D02*
X15941309Y1458573D01*
X15941309Y1458573D02*
X16441309Y1801430D01*
X16441309Y1801430D02*
X15941309Y1801430D01*
X16441309Y2087144D02*
X15941309Y2087144D01*
X15941309Y2087144D02*
X15941309Y2230001D01*
X15941309Y2230001D02*
X15965119Y2315715D01*
X15965119Y2315715D02*
X16012738Y2372858D01*
X16012738Y2372858D02*
X16060357Y2401429D01*
X16060357Y2401429D02*
X16155595Y2430001D01*
X16155595Y2430001D02*
X16227023Y2430001D01*
X16227023Y2430001D02*
X16322261Y2401429D01*
X16322261Y2401429D02*
X16369880Y2372858D01*
X16369880Y2372858D02*
X16417500Y2315715D01*
X16417500Y2315715D02*
X16441309Y2230001D01*
X16441309Y2230001D02*
X16441309Y2087144D01*
X22541309Y1475715D02*
X22541309Y1190001D01*
X22541309Y1190001D02*
X22779404Y1161429D01*
X22779404Y1161429D02*
X22755595Y1190001D01*
X22755595Y1190001D02*
X22731785Y1247143D01*
X22731785Y1247143D02*
X22731785Y1390001D01*
X22731785Y1390001D02*
X22755595Y1447143D01*
X22755595Y1447143D02*
X22779404Y1475715D01*
X22779404Y1475715D02*
X22827023Y1504286D01*
X22827023Y1504286D02*
X22946071Y1504286D01*
X22946071Y1504286D02*
X22993690Y1475715D01*
X22993690Y1475715D02*
X23017500Y1447143D01*
X23017500Y1447143D02*
X23041309Y1390001D01*
X23041309Y1390001D02*
X23041309Y1247143D01*
X23041309Y1247143D02*
X23017500Y1190001D01*
X23017500Y1190001D02*
X22993690Y1161429D01*
X22541309Y1675715D02*
X23041309Y1875715D01*
X23041309Y1875715D02*
X22541309Y2075715D01*
X7683690Y-1039999D02*
X7707500Y-1068571D01*
X7707500Y-1068571D02*
X7731309Y-1154285D01*
X7731309Y-1154285D02*
X7731309Y-1211428D01*
X7731309Y-1211428D02*
X7707500Y-1297142D01*
X7707500Y-1297142D02*
X7659880Y-1354285D01*
X7659880Y-1354285D02*
X7612261Y-1382856D01*
X7612261Y-1382856D02*
X7517023Y-1411428D01*
X7517023Y-1411428D02*
X7445595Y-1411428D01*
X7445595Y-1411428D02*
X7350357Y-1382856D01*
X7350357Y-1382856D02*
X7302738Y-1354285D01*
X7302738Y-1354285D02*
X7255119Y-1297142D01*
X7255119Y-1297142D02*
X7231309Y-1211428D01*
X7231309Y-1211428D02*
X7231309Y-1154285D01*
X7231309Y-1154285D02*
X7255119Y-1068571D01*
X7255119Y-1068571D02*
X7278928Y-1039999D01*
X7731309Y-754285D02*
X7731309Y-639999D01*
X7731309Y-639999D02*
X7707500Y-582856D01*
X7707500Y-582856D02*
X7683690Y-554285D01*
X7683690Y-554285D02*
X7612261Y-497142D01*
X7612261Y-497142D02*
X7517023Y-468571D01*
X7517023Y-468571D02*
X7326547Y-468571D01*
X7326547Y-468571D02*
X7278928Y-497142D01*
X7278928Y-497142D02*
X7255119Y-525714D01*
X7255119Y-525714D02*
X7231309Y-582856D01*
X7231309Y-582856D02*
X7231309Y-697142D01*
X7231309Y-697142D02*
X7255119Y-754285D01*
X7255119Y-754285D02*
X7278928Y-782856D01*
X7278928Y-782856D02*
X7326547Y-811428D01*
X7326547Y-811428D02*
X7445595Y-811428D01*
X7445595Y-811428D02*
X7493214Y-782856D01*
X7493214Y-782856D02*
X7517023Y-754285D01*
X7517023Y-754285D02*
X7540833Y-697142D01*
X7540833Y-697142D02*
X7540833Y-582856D01*
X7540833Y-582856D02*
X7517023Y-525714D01*
X7517023Y-525714D02*
X7493214Y-497142D01*
X7493214Y-497142D02*
X7445595Y-468571D01*
X7185119Y1182858D02*
X7161309Y1125715D01*
X7161309Y1125715D02*
X7161309Y1040001D01*
X7161309Y1040001D02*
X7185119Y954287D01*
X7185119Y954287D02*
X7232738Y897144D01*
X7232738Y897144D02*
X7280357Y868573D01*
X7280357Y868573D02*
X7375595Y840001D01*
X7375595Y840001D02*
X7447023Y840001D01*
X7447023Y840001D02*
X7542261Y868573D01*
X7542261Y868573D02*
X7589880Y897144D01*
X7589880Y897144D02*
X7637500Y954287D01*
X7637500Y954287D02*
X7661309Y1040001D01*
X7661309Y1040001D02*
X7661309Y1097144D01*
X7661309Y1097144D02*
X7637500Y1182858D01*
X7637500Y1182858D02*
X7613690Y1211430D01*
X7613690Y1211430D02*
X7447023Y1211430D01*
X7447023Y1211430D02*
X7447023Y1097144D01*
X7661309Y1468573D02*
X7161309Y1468573D01*
X7161309Y1468573D02*
X7661309Y1811430D01*
X7661309Y1811430D02*
X7161309Y1811430D01*
X7661309Y2097144D02*
X7161309Y2097144D01*
X7161309Y2097144D02*
X7161309Y2240001D01*
X7161309Y2240001D02*
X7185119Y2325715D01*
X7185119Y2325715D02*
X7232738Y2382858D01*
X7232738Y2382858D02*
X7280357Y2411429D01*
X7280357Y2411429D02*
X7375595Y2440001D01*
X7375595Y2440001D02*
X7447023Y2440001D01*
X7447023Y2440001D02*
X7542261Y2411429D01*
X7542261Y2411429D02*
X7589880Y2382858D01*
X7589880Y2382858D02*
X7637500Y2325715D01*
X7637500Y2325715D02*
X7661309Y2240001D01*
X7661309Y2240001D02*
X7661309Y2097144D01*
X9833690Y-1059999D02*
X9857500Y-1088571D01*
X9857500Y-1088571D02*
X9881309Y-1174285D01*
X9881309Y-1174285D02*
X9881309Y-1231428D01*
X9881309Y-1231428D02*
X9857500Y-1317142D01*
X9857500Y-1317142D02*
X9809880Y-1374285D01*
X9809880Y-1374285D02*
X9762261Y-1402856D01*
X9762261Y-1402856D02*
X9667023Y-1431428D01*
X9667023Y-1431428D02*
X9595595Y-1431428D01*
X9595595Y-1431428D02*
X9500357Y-1402856D01*
X9500357Y-1402856D02*
X9452738Y-1374285D01*
X9452738Y-1374285D02*
X9405119Y-1317142D01*
X9405119Y-1317142D02*
X9381309Y-1231428D01*
X9381309Y-1231428D02*
X9381309Y-1174285D01*
X9381309Y-1174285D02*
X9405119Y-1088571D01*
X9405119Y-1088571D02*
X9428928Y-1059999D01*
X9381309Y-859999D02*
X9381309Y-459999D01*
X9381309Y-459999D02*
X9881309Y-717142D01*
X22988452Y-1408571D02*
X22988452Y-1122857D01*
X23131309Y-1465714D02*
X22631309Y-1265714D01*
X22631309Y-1265714D02*
X23131309Y-1065714D01*
X22631309Y-751428D02*
X22631309Y-694285D01*
X22631309Y-694285D02*
X22655119Y-637142D01*
X22655119Y-637142D02*
X22678928Y-608571D01*
X22678928Y-608571D02*
X22726547Y-579999D01*
X22726547Y-579999D02*
X22821785Y-551428D01*
X22821785Y-551428D02*
X22940833Y-551428D01*
X22940833Y-551428D02*
X23036071Y-579999D01*
X23036071Y-579999D02*
X23083690Y-608571D01*
X23083690Y-608571D02*
X23107500Y-637142D01*
X23107500Y-637142D02*
X23131309Y-694285D01*
X23131309Y-694285D02*
X23131309Y-751428D01*
X23131309Y-751428D02*
X23107500Y-808571D01*
X23107500Y-808571D02*
X23083690Y-837142D01*
X23083690Y-837142D02*
X23036071Y-865713D01*
X23036071Y-865713D02*
X22940833Y-894285D01*
X22940833Y-894285D02*
X22821785Y-894285D01*
X22821785Y-894285D02*
X22726547Y-865713D01*
X22726547Y-865713D02*
X22678928Y-837142D01*
X22678928Y-837142D02*
X22655119Y-808571D01*
X22655119Y-808571D02*
X22631309Y-751428D01*
X9845119Y-29137142D02*
X9821309Y-29194285D01*
X9821309Y-29194285D02*
X9821309Y-29279999D01*
X9821309Y-29279999D02*
X9845119Y-29365713D01*
X9845119Y-29365713D02*
X9892738Y-29422856D01*
X9892738Y-29422856D02*
X9940357Y-29451427D01*
X9940357Y-29451427D02*
X10035595Y-29479999D01*
X10035595Y-29479999D02*
X10107023Y-29479999D01*
X10107023Y-29479999D02*
X10202261Y-29451427D01*
X10202261Y-29451427D02*
X10249880Y-29422856D01*
X10249880Y-29422856D02*
X10297500Y-29365713D01*
X10297500Y-29365713D02*
X10321309Y-29279999D01*
X10321309Y-29279999D02*
X10321309Y-29222856D01*
X10321309Y-29222856D02*
X10297500Y-29137142D01*
X10297500Y-29137142D02*
X10273690Y-29108570D01*
X10273690Y-29108570D02*
X10107023Y-29108570D01*
X10107023Y-29108570D02*
X10107023Y-29222856D01*
X10321309Y-28851427D02*
X9821309Y-28851427D01*
X9821309Y-28851427D02*
X10321309Y-28508570D01*
X10321309Y-28508570D02*
X9821309Y-28508570D01*
X10321309Y-28222856D02*
X9821309Y-28222856D01*
X9821309Y-28222856D02*
X9821309Y-28079999D01*
X9821309Y-28079999D02*
X9845119Y-27994285D01*
X9845119Y-27994285D02*
X9892738Y-27937142D01*
X9892738Y-27937142D02*
X9940357Y-27908571D01*
X9940357Y-27908571D02*
X10035595Y-27879999D01*
X10035595Y-27879999D02*
X10107023Y-27879999D01*
X10107023Y-27879999D02*
X10202261Y-27908571D01*
X10202261Y-27908571D02*
X10249880Y-27937142D01*
X10249880Y-27937142D02*
X10297500Y-27994285D01*
X10297500Y-27994285D02*
X10321309Y-28079999D01*
X10321309Y-28079999D02*
X10321309Y-28222856D01*
X9371309Y897143D02*
X9371309Y1268571D01*
X9371309Y1268571D02*
X9561785Y1068571D01*
X9561785Y1068571D02*
X9561785Y1154286D01*
X9561785Y1154286D02*
X9585595Y1211428D01*
X9585595Y1211428D02*
X9609404Y1240000D01*
X9609404Y1240000D02*
X9657023Y1268571D01*
X9657023Y1268571D02*
X9776071Y1268571D01*
X9776071Y1268571D02*
X9823690Y1240000D01*
X9823690Y1240000D02*
X9847500Y1211428D01*
X9847500Y1211428D02*
X9871309Y1154286D01*
X9871309Y1154286D02*
X9871309Y982857D01*
X9871309Y982857D02*
X9847500Y925714D01*
X9847500Y925714D02*
X9823690Y897143D01*
X9371309Y1440000D02*
X9871309Y1640000D01*
X9871309Y1640000D02*
X9371309Y1840000D01*
X9371309Y1982858D02*
X9371309Y2354286D01*
X9371309Y2354286D02*
X9561785Y2154286D01*
X9561785Y2154286D02*
X9561785Y2240001D01*
X9561785Y2240001D02*
X9585595Y2297143D01*
X9585595Y2297143D02*
X9609404Y2325715D01*
X9609404Y2325715D02*
X9657023Y2354286D01*
X9657023Y2354286D02*
X9776071Y2354286D01*
X9776071Y2354286D02*
X9823690Y2325715D01*
X9823690Y2325715D02*
X9847500Y2297143D01*
X9847500Y2297143D02*
X9871309Y2240001D01*
X9871309Y2240001D02*
X9871309Y2068572D01*
X9871309Y2068572D02*
X9847500Y2011429D01*
X9847500Y2011429D02*
X9823690Y1982858D01*
X18091309Y887143D02*
X18091309Y1258571D01*
X18091309Y1258571D02*
X18281785Y1058571D01*
X18281785Y1058571D02*
X18281785Y1144286D01*
X18281785Y1144286D02*
X18305595Y1201428D01*
X18305595Y1201428D02*
X18329404Y1230000D01*
X18329404Y1230000D02*
X18377023Y1258571D01*
X18377023Y1258571D02*
X18496071Y1258571D01*
X18496071Y1258571D02*
X18543690Y1230000D01*
X18543690Y1230000D02*
X18567500Y1201428D01*
X18567500Y1201428D02*
X18591309Y1144286D01*
X18591309Y1144286D02*
X18591309Y972857D01*
X18591309Y972857D02*
X18567500Y915714D01*
X18567500Y915714D02*
X18543690Y887143D01*
X18091309Y1430000D02*
X18591309Y1630000D01*
X18591309Y1630000D02*
X18091309Y1830000D01*
X18091309Y1972858D02*
X18091309Y2344286D01*
X18091309Y2344286D02*
X18281785Y2144286D01*
X18281785Y2144286D02*
X18281785Y2230001D01*
X18281785Y2230001D02*
X18305595Y2287143D01*
X18305595Y2287143D02*
X18329404Y2315715D01*
X18329404Y2315715D02*
X18377023Y2344286D01*
X18377023Y2344286D02*
X18496071Y2344286D01*
X18496071Y2344286D02*
X18543690Y2315715D01*
X18543690Y2315715D02*
X18567500Y2287143D01*
X18567500Y2287143D02*
X18591309Y2230001D01*
X18591309Y2230001D02*
X18591309Y2058572D01*
X18591309Y2058572D02*
X18567500Y2001429D01*
X18567500Y2001429D02*
X18543690Y1972858D01*
X8919047Y-30655119D02*
X8871428Y-30631309D01*
X8871428Y-30631309D02*
X8799999Y-30631309D01*
X8799999Y-30631309D02*
X8728571Y-30655119D01*
X8728571Y-30655119D02*
X8680952Y-30702738D01*
X8680952Y-30702738D02*
X8657142Y-30750357D01*
X8657142Y-30750357D02*
X8633333Y-30845595D01*
X8633333Y-30845595D02*
X8633333Y-30917023D01*
X8633333Y-30917023D02*
X8657142Y-31012261D01*
X8657142Y-31012261D02*
X8680952Y-31059880D01*
X8680952Y-31059880D02*
X8728571Y-31107500D01*
X8728571Y-31107500D02*
X8799999Y-31131309D01*
X8799999Y-31131309D02*
X8847618Y-31131309D01*
X8847618Y-31131309D02*
X8919047Y-31107500D01*
X8919047Y-31107500D02*
X8942856Y-31083690D01*
X8942856Y-31083690D02*
X8942856Y-30917023D01*
X8942856Y-30917023D02*
X8847618Y-30917023D01*
X9157142Y-31131309D02*
X9157142Y-30631309D01*
X9157142Y-30631309D02*
X9442856Y-31131309D01*
X9442856Y-31131309D02*
X9442856Y-30631309D01*
X9680952Y-31131309D02*
X9680952Y-30631309D01*
X9680952Y-30631309D02*
X9800000Y-30631309D01*
X9800000Y-30631309D02*
X9871428Y-30655119D01*
X9871428Y-30655119D02*
X9919047Y-30702738D01*
X9919047Y-30702738D02*
X9942857Y-30750357D01*
X9942857Y-30750357D02*
X9966666Y-30845595D01*
X9966666Y-30845595D02*
X9966666Y-30917023D01*
X9966666Y-30917023D02*
X9942857Y-31012261D01*
X9942857Y-31012261D02*
X9919047Y-31059880D01*
X9919047Y-31059880D02*
X9871428Y-31107500D01*
X9871428Y-31107500D02*
X9800000Y-31131309D01*
X9800000Y-31131309D02*
X9680952Y-31131309D01*
X31585714Y-24631309D02*
X31300000Y-24631309D01*
X31300000Y-24631309D02*
X31271428Y-24869404D01*
X31271428Y-24869404D02*
X31300000Y-24845595D01*
X31300000Y-24845595D02*
X31357143Y-24821785D01*
X31357143Y-24821785D02*
X31500000Y-24821785D01*
X31500000Y-24821785D02*
X31557143Y-24845595D01*
X31557143Y-24845595D02*
X31585714Y-24869404D01*
X31585714Y-24869404D02*
X31614285Y-24917023D01*
X31614285Y-24917023D02*
X31614285Y-25036071D01*
X31614285Y-25036071D02*
X31585714Y-25083690D01*
X31585714Y-25083690D02*
X31557143Y-25107500D01*
X31557143Y-25107500D02*
X31500000Y-25131309D01*
X31500000Y-25131309D02*
X31357143Y-25131309D01*
X31357143Y-25131309D02*
X31300000Y-25107500D01*
X31300000Y-25107500D02*
X31271428Y-25083690D01*
X31785714Y-24631309D02*
X31985714Y-25131309D01*
X31985714Y-25131309D02*
X32185714Y-24631309D01*
X25158452Y-1378571D02*
X25158452Y-1092857D01*
X25301309Y-1435714D02*
X24801309Y-1235714D01*
X24801309Y-1235714D02*
X25301309Y-1035714D01*
X24801309Y-892856D02*
X24801309Y-492856D01*
X24801309Y-492856D02*
X25301309Y-749999D01*
X24725119Y1162858D02*
X24701309Y1105715D01*
X24701309Y1105715D02*
X24701309Y1020001D01*
X24701309Y1020001D02*
X24725119Y934287D01*
X24725119Y934287D02*
X24772738Y877144D01*
X24772738Y877144D02*
X24820357Y848573D01*
X24820357Y848573D02*
X24915595Y820001D01*
X24915595Y820001D02*
X24987023Y820001D01*
X24987023Y820001D02*
X25082261Y848573D01*
X25082261Y848573D02*
X25129880Y877144D01*
X25129880Y877144D02*
X25177500Y934287D01*
X25177500Y934287D02*
X25201309Y1020001D01*
X25201309Y1020001D02*
X25201309Y1077144D01*
X25201309Y1077144D02*
X25177500Y1162858D01*
X25177500Y1162858D02*
X25153690Y1191430D01*
X25153690Y1191430D02*
X24987023Y1191430D01*
X24987023Y1191430D02*
X24987023Y1077144D01*
X25201309Y1448573D02*
X24701309Y1448573D01*
X24701309Y1448573D02*
X25201309Y1791430D01*
X25201309Y1791430D02*
X24701309Y1791430D01*
X25201309Y2077144D02*
X24701309Y2077144D01*
X24701309Y2077144D02*
X24701309Y2220001D01*
X24701309Y2220001D02*
X24725119Y2305715D01*
X24725119Y2305715D02*
X24772738Y2362858D01*
X24772738Y2362858D02*
X24820357Y2391429D01*
X24820357Y2391429D02*
X24915595Y2420001D01*
X24915595Y2420001D02*
X24987023Y2420001D01*
X24987023Y2420001D02*
X25082261Y2391429D01*
X25082261Y2391429D02*
X25129880Y2362858D01*
X25129880Y2362858D02*
X25177500Y2305715D01*
X25177500Y2305715D02*
X25201309Y2220001D01*
X25201309Y2220001D02*
X25201309Y2077144D01*
X22531309Y-32061429D02*
X22531309Y-32404286D01*
X22531309Y-32232857D02*
X22031309Y-32232857D01*
X22031309Y-32232857D02*
X22102738Y-32290000D01*
X22102738Y-32290000D02*
X22150357Y-32347143D01*
X22150357Y-32347143D02*
X22174166Y-32404286D01*
X22031309Y-31690000D02*
X22031309Y-31632857D01*
X22031309Y-31632857D02*
X22055119Y-31575714D01*
X22055119Y-31575714D02*
X22078928Y-31547143D01*
X22078928Y-31547143D02*
X22126547Y-31518571D01*
X22126547Y-31518571D02*
X22221785Y-31490000D01*
X22221785Y-31490000D02*
X22340833Y-31490000D01*
X22340833Y-31490000D02*
X22436071Y-31518571D01*
X22436071Y-31518571D02*
X22483690Y-31547143D01*
X22483690Y-31547143D02*
X22507500Y-31575714D01*
X22507500Y-31575714D02*
X22531309Y-31632857D01*
X22531309Y-31632857D02*
X22531309Y-31690000D01*
X22531309Y-31690000D02*
X22507500Y-31747143D01*
X22507500Y-31747143D02*
X22483690Y-31775714D01*
X22483690Y-31775714D02*
X22436071Y-31804285D01*
X22436071Y-31804285D02*
X22340833Y-31832857D01*
X22340833Y-31832857D02*
X22221785Y-31832857D01*
X22221785Y-31832857D02*
X22126547Y-31804285D01*
X22126547Y-31804285D02*
X22078928Y-31775714D01*
X22078928Y-31775714D02*
X22055119Y-31747143D01*
X22055119Y-31747143D02*
X22031309Y-31690000D01*
X22031309Y-31318571D02*
X22531309Y-31118571D01*
X22531309Y-31118571D02*
X22031309Y-30918571D01*
X11602380Y-31083690D02*
X11578571Y-31107500D01*
X11578571Y-31107500D02*
X11507142Y-31131309D01*
X11507142Y-31131309D02*
X11459523Y-31131309D01*
X11459523Y-31131309D02*
X11388095Y-31107500D01*
X11388095Y-31107500D02*
X11340476Y-31059880D01*
X11340476Y-31059880D02*
X11316666Y-31012261D01*
X11316666Y-31012261D02*
X11292857Y-30917023D01*
X11292857Y-30917023D02*
X11292857Y-30845595D01*
X11292857Y-30845595D02*
X11316666Y-30750357D01*
X11316666Y-30750357D02*
X11340476Y-30702738D01*
X11340476Y-30702738D02*
X11388095Y-30655119D01*
X11388095Y-30655119D02*
X11459523Y-30631309D01*
X11459523Y-30631309D02*
X11507142Y-30631309D01*
X11507142Y-30631309D02*
X11578571Y-30655119D01*
X11578571Y-30655119D02*
X11602380Y-30678928D01*
X12054761Y-31131309D02*
X11816666Y-31131309D01*
X11816666Y-31131309D02*
X11816666Y-30631309D01*
X12221428Y-31131309D02*
X12221428Y-30631309D01*
X12507142Y-31131309D02*
X12292857Y-30845595D01*
X12507142Y-30631309D02*
X12221428Y-30917023D01*
M02*
